<?xml version="1.0" encoding="UTF-8" standalone="no"?>
<!-- Created with Inkscape (http://www.inkscape.org/) -->
<svg xmlns:dc="http://purl.org/dc/elements/1.1/" xmlns:cc="http://creativecommons.org/ns#" xmlns:rdf="http://www.w3.org/1999/02/22-rdf-syntax-ns#" xmlns:svg="http://www.w3.org/2000/svg" xmlns="http://www.w3.org/2000/svg" xmlns:xlink="http://www.w3.org/1999/xlink" xmlns:sodipodi="http://sodipodi.sourceforge.net/DTD/sodipodi-0.dtd" xmlns:inkscape="http://www.inkscape.org/namespaces/inkscape" height="128.00000pt" id="svg1858" inkscape:version="0.46" sodipodi:docbase="/home/andy/Desktop/etiquette-icons-0.4/scalable/apps" sodipodi:docname="wine.svg" sodipodi:version="0.32" width="128.00000pt" inkscape:output_extension="org.inkscape.output.svg.inkscape" inkscape:export-filename="C:\Documents and Settings\All Users\Documents\Ubuntu Brig\Andy Fitzsimon\wine.png" inkscape:export-xdpi="90" inkscape:export-ydpi="90">
  <defs id="defs1860">
    <inkscape:perspective sodipodi:type="inkscape:persp3d" inkscape:vp_x="0 : 80 : 1" inkscape:vp_y="0 : 1000 : 0" inkscape:vp_z="160 : 80 : 1" inkscape:persp3d-origin="80 : 53.333333 : 1" id="perspective90"/>
    <linearGradient id="linearGradient1990">
      <stop id="stop1991" offset="0.0000000" style="stop-color:#000000;stop-opacity:0.0000000;"/>
      <stop id="stop1992" offset="0.50000000" style="stop-color:#000000;stop-opacity:0.11299435;"/>
      <stop id="stop1993" offset="1.0000000" style="stop-color:#000000;stop-opacity:0.0000000;"/>
    </linearGradient>
    <linearGradient id="linearGradient1982">
      <stop id="stop1983" offset="0.0000000" style="stop-color:#ffffff;stop-opacity:1.0000000;"/>
      <stop id="stop1984" offset="0.60111111" style="stop-color:#ffffff;stop-opacity:0.078431375;"/>
      <stop id="stop1985" offset="1.0000000" style="stop-color:#ffffff;stop-opacity:0.0000000;"/>
    </linearGradient>
    <linearGradient id="linearGradient1954">
      <stop id="stop1955" offset="0.0000000" style="stop-color:#ffffff;stop-opacity:0.78431374;"/>
      <stop id="stop3697" offset="0.81000000" style="stop-color:#990000;stop-opacity:0.0000000;"/>
      <stop id="stop1957" offset="1.0000000" style="stop-color:#ffffff;stop-opacity:0.0000000;"/>
    </linearGradient>
    <linearGradient id="linearGradient1806">
      <stop id="stop1807" offset="0.0000000" style="stop-color:#000000;stop-opacity:0.40677965;"/>
      <stop id="stop3276" offset="0.64777780" style="stop-color:#000000;stop-opacity:0.073446326;"/>
      <stop id="stop1808" offset="1.0000000" style="stop-color:#000000;stop-opacity:0.0000000;"/>
    </linearGradient>
    <linearGradient id="linearGradient1918">
      <stop id="stop1919" offset="0.0000000" style="stop-color:#000000;stop-opacity:0.31638417;"/>
      <stop id="stop1920" offset="0.50000000" style="stop-color:#000000;stop-opacity:0.079096042;"/>
      <stop id="stop1921" offset="1.0000000" style="stop-color:#000000;stop-opacity:0.0000000;"/>
    </linearGradient>
    <linearGradient id="linearGradient1908">
      <stop id="stop1909" offset="0.0000000" style="stop-color:#884631;stop-opacity:1.0000000;"/>
      <stop id="stop3698" offset="0.62500000" style="stop-color:#df421e;stop-opacity:1.0000000;"/>
      <stop id="stop3699" offset="0.81250000" style="stop-color:#efa08e;stop-opacity:1.0000000;"/>
      <stop id="stop1910" offset="1" style="stop-color:#fff;stop-opacity:1;"/>
    </linearGradient>
    <pattern height="48.000000" id="pattern1864" width="48.000000">
      <image height="48.000000" id="image1865" sodipodi:absref="/usr/share/icons/hicolor/48x48/apps/gnome-starthere.png" width="48.000000" xlink:href="/usr/share/icons/hicolor/48x48/apps/gnome-starthere.png"/>
    </pattern>
    <pattern height="48.000000" id="pattern1873" width="48.000000">
      <image height="48.000000" id="image1874" sodipodi:absref="/usr/share/icons/hicolor/48x48/apps/im-jabber.png" width="48.000000" xlink:href="/usr/share/icons/hicolor/48x48/apps/im-jabber.png"/>
    </pattern>
    <pattern height="48.000000" id="pattern1882" width="48.000000">
      <image height="48.000000" id="image1883" sodipodi:absref="/usr/share/icons/hicolor/48x48/apps/ooo_web.xpm" width="48.000000" xlink:href="/usr/share/icons/hicolor/48x48/apps/ooo_web.xpm"/>
    </pattern>
    <pattern height="48.000000" id="pattern1891" width="48.000000">
      <image height="48.000000" id="image1892" sodipodi:absref="/usr/share/icons/hicolor/48x48/apps/wallpaper.png" width="48.000000" xlink:href="/usr/share/icons/hicolor/48x48/apps/wallpaper.png"/>
    </pattern>
    <pattern height="48.000000" id="pattern1900" width="48.000000">
      <image height="48.000000" id="image1901" sodipodi:absref="/usr/share/icons/hicolor/48x48/apps/wine.png" width="48.000000" xlink:href="/usr/share/icons/hicolor/48x48/apps/wine.png"/>
    </pattern>
    <linearGradient id="linearGradient1911" x1="78.753585" x2="26.172458" xlink:href="#linearGradient1908" y1="397.89075" y2="351.19707" gradientTransform="scale(1.1845184,0.844225)" gradientUnits="userSpaceOnUse"/>
    <linearGradient id="linearGradient1912" x1="17.133599" x2="26.262699" xlink:href="#linearGradient1918" y1="12.402272" y2="12.402272" gradientTransform="scale(1.5986105,0.6255432)" gradientUnits="userSpaceOnUse"/>
    <linearGradient id="linearGradient1915" x1="68.265486" x2="28.057237" xlink:href="#linearGradient1908" y1="370.90508" y2="332.33321" gradientTransform="scale(1.1339361,0.8818839)" gradientUnits="userSpaceOnUse"/>
    <linearGradient id="linearGradient1922" x1="104.84399" x2="28.429239" xlink:href="#linearGradient1918" y1="321.39782" y2="277.92343" gradientTransform="scale(0.946639,1.0563689)" gradientUnits="userSpaceOnUse"/>
    <linearGradient id="linearGradient1925" x1="41.803414" x2="34.710554" xlink:href="#linearGradient1982" y1="372.34343" y2="376.63461" gradientTransform="scale(0.9670128,1.0341124)" gradientUnits="userSpaceOnUse"/>
    <linearGradient id="linearGradient1927" x1="23.770393" x2="53.66283" xlink:href="#linearGradient1990" y1="95.243884" y2="128.85731" gradientTransform="scale(0.9883017,1.0118368)" gradientUnits="userSpaceOnUse"/>
    <radialGradient cx="41.875938" cy="37.865574" fx="34.828524" fy="31.584183" id="radialGradient1502" r="12.562782" xlink:href="#linearGradient1918" gradientUnits="userSpaceOnUse"/>
    <radialGradient cx="41.875938" cy="37.865574" fx="46.384533" fy="37.0804" id="radialGradient1937" r="12.562782" xlink:href="#linearGradient1918" gradientUnits="userSpaceOnUse"/>
    <radialGradient cx="0.84898806" cy="0.41226101" fx="0.56333953" fy="0.18582444" id="radialGradient1941" r="0.42322907" xlink:href="#linearGradient1918"/>
    <radialGradient cx="58.3755" cy="22.775043" fx="53.432021" fy="22.164028" id="radialGradient1953" r="10.998282" xlink:href="#linearGradient1954" gradientUnits="userSpaceOnUse"/>
    <pattern height="48.000000" id="pattern1961" width="48.000000">
      <image height="48.000000" id="image1962" sodipodi:absref="/usr/share/icons/hicolor/48x48/apps/wine.png" width="48.000000" xlink:href="/usr/share/icons/hicolor/48x48/apps/wine.png"/>
    </pattern>
    <radialGradient cx="42.007257" cy="39.007645" fx="37.805072" fy="39.239628" id="radialGradient1977" r="9.8527928" xlink:href="#linearGradient1806" gradientUnits="userSpaceOnUse"/>
    <linearGradient id="linearGradient1979" x1="49.627894" x2="68.691985" xlink:href="#linearGradient1954" y1="396.80029" y2="424.20239" gradientTransform="scale(1.2337385,0.8105445)" gradientUnits="userSpaceOnUse"/>
    <linearGradient id="linearGradient1981" x1="76.440939" x2="99.764216" xlink:href="#linearGradient1982" y1="246.53215" y2="262.38469" gradientTransform="scale(0.7895678,1.2665156)" gradientUnits="userSpaceOnUse"/>
    <linearGradient id="linearGradient1987" x1="101.15012" x2="83.709572" xlink:href="#linearGradient1982" y1="378.20698" y2="352.44402" gradientTransform="scale(1.1685028,0.855796)" gradientUnits="userSpaceOnUse"/>
    <linearGradient id="linearGradient1989" x1="23.057706" x2="21.619641" xlink:href="#linearGradient1982" y1="411.51218" y2="422.44497" gradientTransform="scale(1.0889688,0.9182999)" gradientUnits="userSpaceOnUse"/>
    <linearGradient id="linearGradient1996" x1="48.353673" x2="51.658587" xlink:href="#linearGradient1982" y1="99.757841" y2="103.12432" gradientTransform="scale(0.9175187,1.0898961)" gradientUnits="userSpaceOnUse"/>
    <linearGradient id="linearGradient1998" x1="27.254147" x2="21.609067" xlink:href="#linearGradient1990" y1="436.18505" y2="441.86894" gradientTransform="scale(1.1213336,0.8917953)" gradientUnits="userSpaceOnUse"/>
    <linearGradient id="linearGradient3050" x1="45.023643" x2="181.64224" xlink:href="#linearGradient1982" y1="20.534979" y2="116.28294" gradientTransform="scale(0.9617057,1.0398191)" gradientUnits="userSpaceOnUse"/>
    <linearGradient id="linearGradient1644" x1="81.211522" x2="5.4840095" xlink:href="#linearGradient1982" y1="116.07082" y2="70.989283" gradientTransform="scale(0.9883017,1.0118368)" gradientUnits="userSpaceOnUse"/>
    <linearGradient inkscape:collect="always" xlink:href="#linearGradient1982" id="linearGradient2467" gradientUnits="userSpaceOnUse" gradientTransform="scale(0.9617057,1.0398191)" x1="45.023643" y1="20.534979" x2="181.64224" y2="116.28294"/>
    <radialGradient inkscape:collect="always" xlink:href="#linearGradient1806" id="radialGradient2469" gradientUnits="userSpaceOnUse" cx="42.007257" cy="39.007645" fx="37.805072" fy="39.239628" r="9.8527928"/>
    <radialGradient inkscape:collect="always" xlink:href="#linearGradient1918" id="radialGradient2471" gradientUnits="userSpaceOnUse" cx="41.875938" cy="37.865574" fx="34.828524" fy="31.584183" r="12.562782"/>
    <radialGradient inkscape:collect="always" xlink:href="#linearGradient1918" id="radialGradient2473" gradientUnits="userSpaceOnUse" cx="41.875938" cy="37.865574" fx="46.384533" fy="37.0804" r="12.562782"/>
    <radialGradient inkscape:collect="always" xlink:href="#linearGradient1954" id="radialGradient2475" gradientUnits="userSpaceOnUse" cx="58.3755" cy="22.775043" fx="53.432021" fy="22.164028" r="10.998282"/>
    <linearGradient inkscape:collect="always" xlink:href="#linearGradient1990" id="linearGradient2477" gradientUnits="userSpaceOnUse" gradientTransform="scale(0.9883017,1.0118368)" x1="23.770393" y1="95.243884" x2="53.66283" y2="128.85731"/>
    <linearGradient inkscape:collect="always" xlink:href="#linearGradient1982" id="linearGradient2479" gradientUnits="userSpaceOnUse" gradientTransform="scale(0.9883017,1.0118368)" x1="81.211522" y1="116.07082" x2="5.4840095" y2="70.989283"/>
    <linearGradient inkscape:collect="always" xlink:href="#linearGradient1908" id="linearGradient2481" gradientUnits="userSpaceOnUse" gradientTransform="scale(1.1339361,0.8818839)" x1="68.265486" y1="370.90508" x2="28.057237" y2="332.33321"/>
    <linearGradient inkscape:collect="always" xlink:href="#linearGradient1918" id="linearGradient2483" gradientUnits="userSpaceOnUse" gradientTransform="scale(0.946639,1.0563689)" x1="104.84399" y1="321.39782" x2="28.429239" y2="277.92343"/>
    <linearGradient inkscape:collect="always" xlink:href="#linearGradient1908" id="linearGradient2485" gradientUnits="userSpaceOnUse" gradientTransform="scale(1.1845184,0.844225)" x1="78.753585" y1="397.89075" x2="26.172458" y2="351.19707"/>
    <linearGradient inkscape:collect="always" xlink:href="#linearGradient1918" id="linearGradient2487" gradientUnits="userSpaceOnUse" gradientTransform="scale(1.5986105,0.6255432)" x1="17.133599" y1="12.402272" x2="26.262699" y2="12.402272"/>
    <linearGradient inkscape:collect="always" xlink:href="#linearGradient1954" id="linearGradient2489" gradientUnits="userSpaceOnUse" gradientTransform="scale(1.2337385,0.8105445)" x1="49.627894" y1="396.80029" x2="68.691985" y2="424.20239"/>
    <linearGradient inkscape:collect="always" xlink:href="#linearGradient1982" id="linearGradient2491" gradientUnits="userSpaceOnUse" gradientTransform="scale(0.7895678,1.2665156)" x1="76.440939" y1="246.53215" x2="99.764216" y2="262.38469"/>
    <linearGradient inkscape:collect="always" xlink:href="#linearGradient1982" id="linearGradient2493" gradientUnits="userSpaceOnUse" gradientTransform="scale(1.1685028,0.855796)" x1="101.15012" y1="378.20698" x2="83.709572" y2="352.44402"/>
    <linearGradient inkscape:collect="always" xlink:href="#linearGradient1982" id="linearGradient2495" gradientUnits="userSpaceOnUse" gradientTransform="scale(0.9175187,1.0898961)" x1="48.353673" y1="99.757841" x2="51.658587" y2="103.12432"/>
    <linearGradient inkscape:collect="always" xlink:href="#linearGradient1982" id="linearGradient2497" gradientUnits="userSpaceOnUse" gradientTransform="scale(1.0889688,0.9182999)" x1="23.057706" y1="411.51218" x2="21.619641" y2="422.44497"/>
    <linearGradient inkscape:collect="always" xlink:href="#linearGradient1982" id="linearGradient2499" gradientUnits="userSpaceOnUse" gradientTransform="scale(0.9670128,1.0341124)" x1="41.803414" y1="372.34343" x2="34.710554" y2="376.63461"/>
    <linearGradient inkscape:collect="always" xlink:href="#linearGradient1990" id="linearGradient2501" gradientUnits="userSpaceOnUse" gradientTransform="scale(1.1213336,0.8917953)" x1="27.254147" y1="436.18505" x2="21.609067" y2="441.86894"/>
  </defs>
  <sodipodi:namedview bordercolor="#ffffff" borderopacity="0.0000000" id="base" inkscape:cx="55.076923" inkscape:cy="75.290943" inkscape:pageopacity="0.0000000" inkscape:pageshadow="2" inkscape:window-height="712" inkscape:window-width="1024" inkscape:window-x="-4" inkscape:window-y="-4" inkscape:zoom="1.439869" pagecolor="#ffffff" showborder="true" showgrid="false" borderlayer="true" inkscape:current-layer="svg1858"/>
  <g id="wineglass" transform="translate(-4.2841514,-7.9080579)">
    <path d="M 75.948894,20.745164 L 61.319553,44.9623 C 57.420484,51.416738 57.48881,80.21422 58.647141,81.385494 L 61.408043,84.177249 C 62.635979,85.418912 83.28352,79.365875 92.224442,72.438593 L 117.14977,53.126849 C 121.33451,49.884582 110.58066,35.576021 103.6786,30.284828 C 96.776533,24.993625 78.951243,15.775135 75.948894,20.745164 z" id="path1056" sodipodi:nodetypes="czzzzzzz" style="fill:url(#linearGradient2467);fill-opacity:1;fill-rule:evenodd;stroke-width:0.75"/>
    <path d="M 54.438721,37.865574 A 12.562782,12.562782 0 1 1 29.313156,37.865574 A 12.562782,12.562782 0 1 1 54.438721,37.865574 z" id="path1976" sodipodi:cx="41.875938" sodipodi:cy="37.865574" sodipodi:rx="12.562782" sodipodi:ry="12.562782" sodipodi:type="arc" style="fill:url(#radialGradient2469);fill-opacity:1;fill-rule:evenodd;stroke-width:1pt" transform="matrix(6.929434,0,0,3.084932,-205.8924,0.92725)"/>
    <path d="M 54.438721,37.865574 A 12.562782,12.562782 0 1 1 29.313156,37.865574 A 12.562782,12.562782 0 1 1 54.438721,37.865574 z" id="path1934" sodipodi:cx="41.875938" sodipodi:cy="37.865574" sodipodi:rx="12.562782" sodipodi:ry="12.562782" sodipodi:type="arc" style="fill:url(#radialGradient2471);fill-opacity:1;fill-rule:evenodd;stroke-width:1pt" transform="matrix(4.074372,0,0,1.541655,-73.11689,66.55027)"/>
    <path d="M 54.438721,37.865574 A 12.562782,12.562782 0 1 1 29.313156,37.865574 A 12.562782,12.562782 0 1 1 54.438721,37.865574 z" id="path1936" sodipodi:cx="41.875938" sodipodi:cy="37.865574" sodipodi:rx="12.562782" sodipodi:ry="12.562782" sodipodi:type="arc" style="fill:url(#radialGradient2473);fill-opacity:1;fill-rule:evenodd;stroke-width:1pt" transform="matrix(4.331314,0,0,1.248007,-125.8529,73.05806)"/>
    <path d="M 69.373782,22.775043 A 10.998282,10.998282 0 1 1 47.377217,22.775043 A 10.998282,10.998282 0 1 1 69.373782,22.775043 z" id="path1952" sodipodi:cx="58.3755" sodipodi:cy="22.775043" sodipodi:rx="10.998282" sodipodi:ry="10.998282" sodipodi:type="arc" style="fill:url(#radialGradient2475);fill-opacity:1;fill-rule:evenodd;stroke-width:1pt" transform="matrix(3.856546,0,0,1.602573,-116.3511,82.22937)"/>
    <path d="M 62.488746,94.742202 L 40.352416,123.4998 L 41.249573,127.14432 L 49.620842,140.53053 C 53.965664,147.47817 32.387125,136.5705 26.518719,132.12709 C 20.650307,127.68368 7.5270076,111.43188 14.410389,113.87005 L 34.672623,121.04718 L 59.350329,91.56967 L 62.488746,94.742202 z" id="path3076" sodipodi:nodetypes="ccczzzccc" style="fill:url(#linearGradient2477);fill-opacity:1;fill-rule:evenodd;stroke-width:1pt" transform="translate(-1.089322,-10.89322)"/>
    <path d="M 61.354125,84.205155 L 39.217795,112.96275 L 40.114952,116.60727 L 48.486221,129.99348 C 52.831043,136.94112 31.252504,126.03345 25.384098,121.59004 C 19.515686,117.14663 6.3923869,100.89483 13.275768,103.333 L 33.538002,110.51013 L 58.215708,81.032623 L 61.354125,84.205155 z" id="path1643" sodipodi:nodetypes="ccczzzccc" style="fill:url(#linearGradient2479);fill-opacity:1;fill-rule:evenodd;stroke-width:1pt"/>
    <g id="g3112" transform="matrix(0.679574,0.733608,-0.733608,0.679574,280.8556,-185.2491)">
      <path d="M 59.566561,346.69634 L 58.914426,330.71898 C 58.721774,325.99899 58.672546,316.75399 63.765894,316.75399 C 69.299455,316.75399 75.923114,314.33926 83.748758,314.33926 C 91.574399,314.33926 102.5912,320.24524 102.5912,320.24524 L 84.347762,338.21856 C 84.347762,338.21856 66.413998,348.97882 63.153314,348.32668 C 59.892631,347.67454 59.566561,346.69634 59.566561,346.69634 z" id="path3075" sodipodi:nodetypes="czzccccc" style="fill:url(#linearGradient2481);fill-rule:evenodd;stroke-width:1pt" transform="matrix(0.738614,-0.674128,0.674128,0.738614,-236.0049,123.8602)"/>
      <path d="M 71.267562,290.12096 L 58.224828,315.22823 C 54.748627,321.91991 56.667547,350.65348 57.898759,351.74789 L 60.833373,354.35644 C 62.138569,355.51662 82.441808,348.24692 90.831667,340.66156 L 114.63466,319.14105 C 118.56148,315.59078 107.18943,302.45722 99.961582,297.62054 C 92.733733,292.78385 73.944295,284.96825 71.267562,290.12096 z" id="path3077" sodipodi:nodetypes="czzzzzzz" style="fill:url(#linearGradient2483);fill-opacity:1;fill-rule:evenodd;stroke-width:0.75" transform="matrix(0.738614,-0.674128,0.674128,0.738614,-236.0049,123.8602)"/>
      <path d="M 59.855168,348.81328 L 59.203033,332.83592 C 59.010382,328.11592 59.152198,315.60273 64.054501,318.87093 C 68.896368,322.09884 71.600418,323.60372 79.426062,323.60372 C 87.251704,323.60372 107.49111,315.67579 103.80207,321.90105 L 84.636369,340.3355 C 84.636369,340.3355 66.702605,351.09576 63.441921,350.44362 C 60.181238,349.79148 59.855168,348.81328 59.855168,348.81328 z" id="path3078" sodipodi:nodetypes="czzccccc" style="fill:url(#linearGradient2485);fill-rule:evenodd;stroke-width:1pt" transform="matrix(0.738614,-0.674128,0.674128,0.738614,-236.0049,123.8602)"/>
      <path d="M 41.983827,7.7581573 A 7.2969375,2.8553233 0 1 1 27.389952,7.7581573 A 7.2969375,2.8553233 0 1 1 41.983827,7.7581573 z" id="path3079" sodipodi:cx="34.68689" sodipodi:cy="7.7581573" sodipodi:rx="7.2969375" sodipodi:ry="2.8553233" sodipodi:type="arc" style="fill:url(#linearGradient2487);fill-opacity:1;fill-rule:evenodd;stroke-width:1.49228156" transform="matrix(2.942502,-0.555238,0.212587,2.236651,-65.28913,288.6336)"/>
      <path d="M 61.360727,339.4334 L 61.360727,325.59949 C 61.360727,325.59949 61.821857,321.44932 66.433163,323.29384 C 71.044466,325.13836 77.039161,330.67193 83.494986,326.98288 C 89.950811,323.29384 87.645158,336.20549 80.267072,338.51114 C 72.888989,340.8168 61.360727,339.4334 61.360727,339.4334 z" id="path3080" style="fill:url(#linearGradient2489);fill-opacity:1;fill-rule:evenodd;stroke-width:1pt" transform="matrix(0.738614,-0.674128,0.674128,0.738614,-236.0049,123.8602)"/>
      <path d="M 70.583336,301.15958 C 70.583336,301.15958 64.12751,308.9988 62.282988,316.83801 C 60.438466,324.67723 59.516208,344.04471 61.360727,345.4281 C 63.205249,346.81149 91.334203,312.22671 87.645158,312.22671 C 83.956117,312.22671 70.583336,301.15958 70.583336,301.15958 z" id="path3081" style="fill:url(#linearGradient2491);fill-opacity:1;fill-rule:evenodd;stroke-width:1pt" transform="matrix(0.738614,-0.674128,0.674128,0.738614,-236.0049,123.8602)"/>
      <path d="M 100.09606,301.93815 C 102.85091,303.24323 116.75953,314.70602 112.31886,318.38944 C 108.10209,321.88712 90.637756,307.45964 89.627645,305.55222 C 88.617531,303.64479 97.341214,300.63307 100.09606,301.93815 z" id="path3082" sodipodi:nodetypes="czzz" style="fill:url(#linearGradient2493);fill-opacity:1;fill-rule:evenodd;stroke-width:1pt" transform="matrix(0.738614,-0.674128,0.674128,0.738614,-236.0049,123.8602)"/>
    </g>
    <path d="M 35.03518,121.02854 L 58.968092,93.559994 L 61.393042,96.036656 L 39.332846,124.8698 L 35.03518,121.02854 z" id="path3085" sodipodi:nodetypes="ccccc" style="fill:url(#linearGradient2495);fill-rule:evenodd;stroke-width:1pt" transform="translate(-1.089322,-10.89322)"/>
    <g id="g3120" transform="matrix(0.7752,0.631716,-0.631716,0.7752,241.9578,-212.8171)">
      <path d="M 29.167989,378.19783 C 26.909557,376.81768 11.72333,370.96998 11.886363,372.65467 C 12.049396,374.33936 16.463796,381.77102 20.36414,385.37134 C 24.603028,389.28416 32.102603,394.17518 34.385082,394.50125 C 36.667561,394.82732 39.928247,384.55617 36.99363,382.76279 C 34.059016,380.96941 31.426421,379.57799 29.167989,378.19783 z" id="path3083" sodipodi:nodetypes="czzzzz" style="fill:url(#linearGradient2497);fill-opacity:1;fill-rule:evenodd;stroke-width:1pt" transform="matrix(0.738614,-0.674128,0.674128,0.738614,-236.0049,123.8602)"/>
      <path d="M 34.575606,381.19367 C 34.575606,381.19367 38.034084,382.3465 39.878606,388.80232 C 41.723129,395.25815 44.489909,398.71663 41.723129,397.79437 C 38.956345,396.87211 23.508478,390.18572 26.736392,386.72724 C 29.964303,383.26876 29.042042,377.96576 34.575606,381.19367 z" id="path3084" style="fill:url(#linearGradient2499);fill-opacity:1;fill-rule:evenodd;stroke-width:1pt" transform="matrix(0.738614,-0.674128,0.674128,0.738614,-236.0049,123.8602)"/>
      <path d="M 19.166958,381.83573 C 19.166958,381.83573 32.535762,380.20539 35.959482,387.05282 C 39.383198,393.90026 43.538658,399.84848 41.093147,399.68544 C 38.647632,399.52241 20.145163,387.70496 19.166958,381.83573 z" id="path3086" sodipodi:nodetypes="cccc" style="fill:url(#linearGradient2501);fill-opacity:1;fill-rule:evenodd;stroke-width:1pt" transform="matrix(0.738614,-0.674128,0.674128,0.738614,-236.0049,123.8602)"/>
    </g>
  </g>
  <path style="font-size:12px;stroke-width:1pt;font-family:helvetica" d="M 13.368099,206.45795 L 11.088802,197.86811 L 12.254818,197.86811 L 13.561458,203.49897 C 13.70208,204.08882 13.823174,204.67475 13.924739,205.25678 C 14.143486,204.33882 14.272392,203.80952 14.311458,203.66889 L 15.946224,197.86811 L 17.317318,197.86811 L 18.547786,202.21577 C 18.856372,203.2939 19.079028,204.30757 19.215755,205.25678 C 19.325121,204.71382 19.467699,204.09077 19.643489,203.38764 L 20.991145,197.86811 L 22.133724,197.86811 L 19.778255,206.45795 L 18.682551,206.45795 L 16.872005,199.91303 C 16.719656,199.36616 16.629812,199.03023 16.602474,198.90522 C 16.512625,199.29976 16.42864,199.6357 16.350521,199.91303 L 14.528255,206.45795 L 13.368099,206.45795 z M 23.059506,199.081 L 23.059506,197.86811 L 24.114193,197.86811 L 24.114193,199.081 L 23.059506,199.081 z M 23.059506,206.45795 L 23.059506,200.2353 L 24.114193,200.2353 L 24.114193,206.45795 L 23.059506,206.45795 z M 25.725521,206.45795 L 25.725521,200.2353 L 26.67474,200.2353 L 26.67474,201.12006 C 27.131769,200.43648 27.791925,200.09468 28.655209,200.09467 C 29.030205,200.09468 29.374931,200.16206 29.689388,200.29682 C 30.003836,200.43159 30.239188,200.60835 30.395443,200.8271 C 30.551688,201.04585 30.661062,201.30562 30.723568,201.60639 C 30.762625,201.80171 30.782156,202.14351 30.782162,202.63178 L 30.782162,206.45795 L 29.727474,206.45795 L 29.727474,202.6728 C 29.72747,202.24312 29.686454,201.92183 29.604427,201.70893 C 29.522392,201.49605 29.376884,201.32612 29.167904,201.19917 C 28.958916,201.07222 28.713799,201.00874 28.432552,201.00874 C 27.983331,201.00874 27.595636,201.15132 27.269467,201.43647 C 26.943293,201.72163 26.780207,202.26265 26.780209,203.05952 L 26.780209,206.45795 L 25.725521,206.45795 z M 36.664974,204.45405 L 37.754818,204.58881 C 37.582937,205.22553 37.264578,205.71967 36.79974,206.07124 C 36.334892,206.4228 35.741142,206.59858 35.01849,206.59858 C 34.108331,206.59858 33.386652,206.31831 32.853451,205.75776 C 32.320247,205.19721 32.053646,204.41108 32.053646,203.39936 C 32.053646,202.35249 32.323177,201.53999 32.86224,200.96186 C 33.401301,200.38374 34.100519,200.09468 34.959896,200.09467 C 35.791923,200.09468 36.47161,200.37788 36.998959,200.94428 C 37.526297,201.51069 37.789968,202.30757 37.789974,203.33491 C 37.789968,203.39741 37.788015,203.49116 37.784115,203.61616 L 33.14349,203.61616 C 33.182551,204.29975 33.37591,204.82319 33.723568,205.18647 C 34.071222,205.54975 34.504815,205.73139 35.024349,205.73139 C 35.411064,205.73139 35.741142,205.62983 36.014584,205.4267 C 36.288017,205.22358 36.504813,204.89936 36.664974,204.45405 L 36.664974,204.45405 z M 33.202084,202.74897 L 36.676693,202.74897 C 36.629813,202.22554 36.497001,201.83296 36.278256,201.57124 C 35.942314,201.16499 35.506767,200.96187 34.971615,200.96186 C 34.487237,200.96187 34.080011,201.12398 33.749935,201.44819 C 33.419855,201.77241 33.237238,202.20601 33.202084,202.74897 L 33.202084,202.74897 z" id="text1067"/>
  <path style="font-size:12px;stroke-width:1pt;font-family:helvetica" d="M 13.712462,187.90487 L 13.992923,187.9757 C 13.93413,188.20605 13.828355,188.3817 13.675597,188.50266 C 13.522836,188.62361 13.336103,188.68409 13.115397,188.68409 C 12.886979,188.68409 12.70121,188.63758 12.558088,188.54458 C 12.414966,188.45158 12.306058,188.31689 12.231365,188.14051 C 12.156672,187.96414 12.119325,187.77476 12.119325,187.57236 C 12.119325,187.35166 12.16149,187.15914 12.245822,186.99481 C 12.330153,186.83049 12.450144,186.70568 12.605796,186.62038 C 12.761446,186.53509 12.932759,186.49244 13.119734,186.49244 C 13.331765,186.49244 13.510066,186.54641 13.654635,186.65436 C 13.799201,186.7623 13.899916,186.9141 13.956782,187.10974 L 13.680657,187.1748 C 13.631502,187.0206 13.560182,186.90832 13.466697,186.83796 C 13.373208,186.7676 13.255627,186.73242 13.113951,186.73242 C 12.951071,186.73242 12.814936,186.77146 12.705547,186.84952 C 12.596157,186.92759 12.519295,187.0324 12.474962,187.16396 C 12.430627,187.29551 12.40846,187.43117 12.408461,187.57092 C 12.40846,187.75114 12.434723,187.90848 12.48725,188.04293 C 12.539776,188.17738 12.621457,188.27785 12.732292,188.34435 C 12.843127,188.41086 12.963118,188.4441 13.092266,188.4441 C 13.249362,188.4441 13.382364,188.39881 13.491273,188.30821 C 13.600179,188.21761 13.673909,188.08317 13.712462,187.90487 L 13.712462,187.90487 z M 14.303744,188.64794 L 14.303744,187.11264 L 14.537944,187.11264 L 14.537944,187.34539 C 14.597698,187.23648 14.652875,187.16468 14.703474,187.12998 C 14.754072,187.09529 14.809731,187.07794 14.87045,187.07794 C 14.958153,187.07794 15.047303,187.10589 15.1379,187.16179 L 15.048268,187.40322 C 14.984658,187.36563 14.921048,187.34684 14.857439,187.34684 C 14.800575,187.34684 14.749494,187.36394 14.704197,187.39816 C 14.658899,187.43237 14.626612,187.47984 14.607336,187.54056 C 14.578422,187.63308 14.563966,187.73428 14.563966,187.84415 L 14.563966,188.64794 L 14.303744,188.64794 z M 16.346487,188.15352 L 16.615383,188.18677 C 16.572975,188.34387 16.494427,188.46579 16.379738,188.55253 C 16.265046,188.63927 16.118551,188.68264 15.940251,188.68264 C 15.715689,188.68264 15.53763,188.61349 15.406074,188.47519 C 15.274517,188.33688 15.208738,188.14292 15.208738,187.8933 C 15.208738,187.63501 15.275239,187.43454 15.408242,187.2919 C 15.541244,187.14926 15.713761,187.07794 15.925795,187.07794 C 16.13108,187.07794 16.298778,187.14782 16.42889,187.28756 C 16.559,187.42731 16.624056,187.62393 16.624057,187.8774 C 16.624056,187.89282 16.623574,187.91595 16.622611,187.94679 L 15.477635,187.94679 C 15.487272,188.11545 15.534979,188.2446 15.620757,188.33423 C 15.706533,188.42387 15.813513,188.46868 15.941697,188.46868 C 16.037111,188.46868 16.118551,188.44362 16.186016,188.39351 C 16.25348,188.34339 16.306971,188.2634 16.346487,188.15352 L 16.346487,188.15352 z M 15.492091,187.73283 L 16.349378,187.73283 C 16.337812,187.60369 16.305043,187.50683 16.251072,187.44225 C 16.168185,187.34202 16.060724,187.2919 15.928686,187.2919 C 15.809176,187.2919 15.708702,187.3319 15.627262,187.41189 C 15.545822,187.49189 15.500765,187.59887 15.492091,187.73283 L 15.492091,187.73283 z M 17.945407,188.45856 C 17.849027,188.54048 17.756263,188.59831 17.667113,188.63204 C 17.577963,188.66578 17.482307,188.68264 17.380146,188.68264 C 17.211483,188.68264 17.081855,188.64144 16.991259,188.55904 C 16.900663,188.47663 16.855365,188.37134 16.855365,188.24316 C 16.855365,188.16798 16.872472,188.09931 16.906687,188.03715 C 16.940901,187.97498 16.985717,187.92511 17.041135,187.88752 C 17.096552,187.84993 17.158957,187.8215 17.22835,187.80222 C 17.27943,187.78873 17.356533,187.77572 17.459659,187.76319 C 17.669763,187.73813 17.82445,187.70826 17.923721,187.67356 C 17.924684,187.6379 17.925166,187.61525 17.925167,187.60561 C 17.925166,187.4996 17.900589,187.4249 17.851437,187.38153 C 17.784935,187.32274 17.686147,187.29335 17.555073,187.29335 C 17.432672,187.29335 17.342317,187.31479 17.284009,187.35768 C 17.225699,187.40057 17.18257,187.47647 17.154621,187.58537 L 16.900181,187.55068 C 16.923312,187.44177 16.961382,187.35382 17.01439,187.28684 C 17.067398,187.21986 17.144019,187.1683 17.244253,187.13215 C 17.344486,187.09601 17.460622,187.07794 17.592661,187.07794 C 17.723735,187.07794 17.830233,187.09336 17.912156,187.1242 C 17.994076,187.15504 18.054313,187.19384 18.092865,187.24058 C 18.131415,187.28732 18.158401,187.34636 18.173824,187.41768 C 18.182496,187.46201 18.186833,187.542 18.186835,187.65766 L 18.186835,188.00462 C 18.186833,188.24653 18.192375,188.39953 18.20346,188.46362 C 18.214542,188.52771 18.236468,188.58915 18.269238,188.64794 L 17.997451,188.64794 C 17.970463,188.59397 17.953115,188.53084 17.945407,188.45856 L 17.945407,188.45856 z M 17.923721,187.8774 C 17.829269,187.91595 17.687593,187.94872 17.498692,187.9757 C 17.391711,187.99113 17.316054,188.00848 17.271721,188.02775 C 17.227386,188.04703 17.193172,188.07522 17.169077,188.11232 C 17.144983,188.14943 17.132935,188.19063 17.132935,188.23593 C 17.132935,188.30532 17.159198,188.36315 17.211725,188.40941 C 17.264251,188.45567 17.341113,188.4788 17.442311,188.4788 C 17.542543,188.4788 17.631694,188.45688 17.709761,188.41302 C 17.787827,188.36917 17.845172,188.30918 17.881797,188.23304 C 17.909745,188.17424 17.92372,188.0875 17.923721,187.97282 L 17.923721,187.8774 z M 19.159776,188.41519 L 19.197363,188.64505 C 19.124114,188.66047 19.058578,188.66818 19.000752,188.66818 C 18.906299,188.66818 18.833052,188.65325 18.781007,188.62337 C 18.728962,188.59349 18.69234,188.55422 18.671137,188.50555 C 18.649933,188.45688 18.639332,188.35447 18.639332,188.19834 L 18.639332,187.31503 L 18.448502,187.31503 L 18.448502,187.11264 L 18.639332,187.11264 L 18.639332,186.73242 L 18.898108,186.57629 L 18.898108,187.11264 L 19.159776,187.11264 L 19.159776,187.31503 L 18.898108,187.31503 L 18.898108,188.2128 C 18.898108,188.28701 18.902684,188.33471 18.911843,188.35592 C 18.920997,188.37712 18.935936,188.39399 18.956659,188.40652 C 18.977379,188.41905 19.007016,188.42531 19.045568,188.42531 C 19.074479,188.42531 19.11255,188.42194 19.159776,188.41519 L 19.159776,188.41519 z M 20.463776,188.15352 L 20.732673,188.18677 C 20.690266,188.34387 20.611717,188.46579 20.497027,188.55253 C 20.382336,188.63927 20.23584,188.68264 20.057541,188.68264 C 19.832979,188.68264 19.654919,188.61349 19.523363,188.47519 C 19.391807,188.33688 19.326029,188.14292 19.326029,187.8933 C 19.326029,187.63501 19.39253,187.43454 19.525532,187.2919 C 19.658534,187.14926 19.831052,187.07794 20.043086,187.07794 C 20.248369,187.07794 20.416068,187.14782 20.546181,187.28756 C 20.676291,187.42731 20.741346,187.62393 20.741346,187.8774 C 20.741346,187.89282 20.740865,187.91595 20.739902,187.94679 L 19.594925,187.94679 C 19.604562,188.11545 19.652269,188.2446 19.738047,188.33423 C 19.823822,188.42387 19.930804,188.46868 20.058987,188.46868 C 20.1544,188.46868 20.23584,188.44362 20.303306,188.39351 C 20.370771,188.34339 20.42426,188.2634 20.463776,188.15352 L 20.463776,188.15352 z M 19.60938,187.73283 L 20.466667,187.73283 C 20.455101,187.60369 20.422333,187.50683 20.368363,187.44225 C 20.285475,187.34202 20.178014,187.2919 20.045977,187.2919 C 19.926467,187.2919 19.825991,187.3319 19.744553,187.41189 C 19.663113,187.49189 19.618055,187.59887 19.60938,187.73283 L 19.60938,187.73283 z M 22.056915,188.64794 L 22.056915,188.45423 C 21.95957,188.6065 21.816448,188.68264 21.627547,188.68264 C 21.505147,188.68264 21.392624,188.64891 21.289982,188.58144 C 21.187338,188.51398 21.107827,188.41977 21.051445,188.29881 C 20.995062,188.17786 20.966874,188.03884 20.966874,187.88174 C 20.966874,187.72849 20.992412,187.58947 21.043493,187.46466 C 21.094573,187.33985 21.171195,187.2442 21.273355,187.17769 C 21.375518,187.11119 21.489727,187.07794 21.615983,187.07794 C 21.708504,187.07794 21.790909,187.09746 21.863193,187.13649 C 21.935475,187.17553 21.994268,187.22636 22.039565,187.28901 L 22.039565,186.52858 L 22.298342,186.52858 L 22.298342,188.64794 L 22.056915,188.64794 z M 21.234323,187.88174 C 21.234323,188.07835 21.275766,188.22533 21.358652,188.32267 C 21.441536,188.42001 21.539361,188.46868 21.652124,188.46868 C 21.765851,188.46868 21.86247,188.42218 21.941984,188.32917 C 22.021494,188.23617 22.06125,188.09425 22.06125,187.90342 C 22.06125,187.69332 22.020771,187.53911 21.939815,187.44081 C 21.858856,187.3425 21.759103,187.29335 21.64056,187.29335 C 21.524903,187.29335 21.428284,187.34057 21.3507,187.43502 C 21.273116,187.52947 21.234323,187.67838 21.234323,187.88174 L 21.234323,187.88174 z M 23.770043,188.64794 L 23.528614,188.64794 L 23.528614,186.52858 L 23.788836,186.52858 L 23.788836,187.28467 C 23.898707,187.14685 24.038938,187.07794 24.209529,187.07794 C 24.303977,187.07794 24.393369,187.09698 24.477701,187.13504 C 24.562031,187.17311 24.631423,187.22661 24.685879,187.29551 C 24.740332,187.36443 24.782979,187.44755 24.81382,187.54489 C 24.844661,187.64224 24.860082,187.74633 24.860082,187.85716 C 24.860082,188.12027 24.795027,188.32363 24.664917,188.46724 C 24.534804,188.61084 24.378672,188.68264 24.196517,188.68264 C 24.015324,188.68264 23.873166,188.60699 23.770043,188.45567 L 23.770043,188.64794 z M 23.767151,187.86873 C 23.767151,188.05281 23.792209,188.18581 23.842325,188.26773 C 23.924246,188.4017 24.035082,188.46868 24.174832,188.46868 C 24.288556,188.46868 24.386863,188.41929 24.469749,188.3205 C 24.552635,188.22171 24.594076,188.07449 24.594078,187.87885 C 24.594076,187.67838 24.554321,187.53044 24.47481,187.43502 C 24.395296,187.33961 24.299158,187.2919 24.186398,187.2919 C 24.072671,187.2919 23.974364,187.3413 23.891478,187.44008 C 23.808592,187.53887 23.767151,187.68175 23.767151,187.86873 L 23.767151,187.86873 z M 25.166566,189.23923 L 25.137652,188.99491 C 25.194516,189.01033 25.24415,189.01804 25.286558,189.01804 C 25.344384,189.01804 25.390645,189.0084 25.425343,188.98913 C 25.460038,188.96985 25.488471,188.94286 25.510637,188.90817 C 25.527022,188.88214 25.553526,188.81757 25.590151,188.71445 C 25.594969,188.69999 25.602679,188.67879 25.613281,188.65084 L 25.030673,187.11264 L 25.311135,187.11264 L 25.630629,188.00173 C 25.672072,188.11449 25.709178,188.23304 25.741946,188.35736 C 25.771822,188.23786 25.807482,188.12124 25.848927,188.00751 L 26.177094,187.11264 L 26.437317,187.11264 L 25.853262,188.67397 C 25.790618,188.84263 25.741946,188.95877 25.707251,189.02238 C 25.660989,189.10815 25.607979,189.17104 25.548226,189.21104 C 25.488471,189.25103 25.417152,189.27103 25.334265,189.27103 C 25.284147,189.27103 25.228248,189.26043 25.166566,189.23923 L 25.166566,189.23923 z M 27.280148,188.64794 L 28.094065,186.52858 L 28.396212,186.52858 L 29.263617,188.64794 L 28.944123,188.64794 L 28.696913,188.00606 L 27.810712,188.00606 L 27.577957,188.64794 L 27.280148,188.64794 z M 27.891668,187.77765 L 28.61017,187.77765 L 28.388983,187.1907 C 28.321517,187.0124 28.271399,186.86591 28.238631,186.75122 C 28.211644,186.88711 28.173576,187.02204 28.124423,187.15601 L 27.891668,187.77765 z M 29.457339,188.64794 L 29.457339,187.11264 L 29.691539,187.11264 L 29.691539,187.33093 C 29.804299,187.16227 29.96718,187.07794 30.180176,187.07794 C 30.272699,187.07794 30.357754,187.09457 30.435338,187.12782 C 30.512922,187.16107 30.57099,187.20468 30.609544,187.25865 C 30.648093,187.31262 30.67508,187.37671 30.6905,187.45092 C 30.700138,187.49912 30.704956,187.58344 30.704959,187.70392 L 30.704959,188.64794 L 30.444736,188.64794 L 30.444736,187.71404 C 30.444736,187.60802 30.434615,187.52875 30.414376,187.47622 C 30.394137,187.4237 30.358235,187.38177 30.306674,187.35045 C 30.25511,187.31913 30.194632,187.30347 30.125242,187.30346 C 30.014406,187.30347 29.918749,187.33865 29.838274,187.409 C 29.757798,187.47936 29.717559,187.61284 29.717559,187.80945 L 29.717559,188.64794 L 29.457339,188.64794 z M 32.101482,188.64794 L 32.101482,188.45423 C 32.00414,188.6065 31.861017,188.68264 31.672117,188.68264 C 31.549714,188.68264 31.437194,188.64891 31.334552,188.58144 C 31.231908,188.51398 31.152394,188.41977 31.096014,188.29881 C 31.039632,188.17786 31.011441,188.03884 31.011441,187.88174 C 31.011441,187.72849 31.036982,187.58947 31.088062,187.46466 C 31.139143,187.33985 31.215764,187.2442 31.317925,187.17769 C 31.420085,187.11119 31.534294,187.07794 31.66055,187.07794 C 31.753073,187.07794 31.835476,187.09746 31.907763,187.13649 C 31.980044,187.17553 32.038835,187.22636 32.084134,187.28901 L 32.084134,186.52858 L 32.342911,186.52858 L 32.342911,188.64794 L 32.101482,188.64794 z M 31.278892,187.88174 C 31.278892,188.07835 31.320335,188.22533 31.403222,188.32267 C 31.486105,188.42001 31.583928,188.46868 31.696693,188.46868 C 31.810418,188.46868 31.907037,188.42218 31.986551,188.32917 C 32.066061,188.23617 32.105819,188.09425 32.105819,187.90342 C 32.105819,187.69332 32.065339,187.53911 31.984382,187.44081 C 31.903425,187.3425 31.803673,187.29335 31.685127,187.29335 C 31.569472,187.29335 31.472853,187.34057 31.395269,187.43502 C 31.317683,187.52947 31.278892,187.67838 31.278892,187.88174 L 31.278892,187.88174 z M 32.750591,188.64794 L 32.750591,187.11264 L 32.984791,187.11264 L 32.984791,187.34539 C 33.044547,187.23648 33.099723,187.16468 33.150322,187.12998 C 33.200921,187.09529 33.256578,187.07794 33.317298,187.07794 C 33.405,187.07794 33.494151,187.10589 33.584748,187.16179 L 33.495116,187.40322 C 33.431507,187.36563 33.367895,187.34684 33.304286,187.34684 C 33.247422,187.34684 33.196342,187.36394 33.151045,187.39816 C 33.105745,187.43237 33.073458,187.47984 33.054184,187.54056 C 33.02527,187.63308 33.010814,187.73428 33.010814,187.84415 L 33.010814,188.64794 L 32.750591,188.64794 z M 34.793335,188.15352 L 35.06223,188.18677 C 35.019822,188.34387 34.941273,188.46579 34.826586,188.55253 C 34.711894,188.63927 34.565399,188.68264 34.3871,188.68264 C 34.162537,188.68264 33.984478,188.61349 33.852922,188.47519 C 33.721364,188.33688 33.655586,188.14292 33.655586,187.8933 C 33.655586,187.63501 33.722087,187.43454 33.855091,187.2919 C 33.988093,187.14926 34.160608,187.07794 34.372642,187.07794 C 34.577928,187.07794 34.745627,187.14782 34.875737,187.28756 C 35.005847,187.42731 35.070902,187.62393 35.070905,187.8774 C 35.070902,187.89282 35.070421,187.91595 35.069459,187.94679 L 33.924483,187.94679 C 33.934121,188.11545 33.981828,188.2446 34.067604,188.33423 C 34.153381,188.42387 34.260361,188.46868 34.388544,188.46868 C 34.483959,188.46868 34.565399,188.44362 34.632865,188.39351 C 34.700328,188.34339 34.753819,188.2634 34.793335,188.15352 L 34.793335,188.15352 z M 33.938939,187.73283 L 34.796226,187.73283 C 34.78466,187.60369 34.751892,187.50683 34.69792,187.44225 C 34.615034,187.34202 34.507571,187.2919 34.375534,187.2919 C 34.256023,187.2919 34.15555,187.3319 34.07411,187.41189 C 33.992669,187.49189 33.947612,187.59887 33.938939,187.73283 L 33.938939,187.73283 z M 35.673753,188.64794 L 35.203907,187.11264 L 35.472804,187.11264 L 35.717123,187.99884 L 35.8082,188.32845 C 35.812054,188.31207 35.83856,188.20653 35.887714,188.01185 L 36.132032,187.11264 L 36.399484,187.11264 L 36.629346,188.00317 L 36.705966,188.29665 L 36.794151,188.00028 L 37.057266,187.11264 L 37.310259,187.11264 L 36.830295,188.64794 L 36.559954,188.64794 L 36.315633,187.72849 L 36.256361,187.46683 L 35.945539,188.64794 L 35.673753,188.64794 z M 38.398855,188.64794 L 38.398855,186.52858 L 39.828629,186.52858 L 39.828629,186.77868 L 38.679316,186.77868 L 38.679316,187.43502 L 39.673943,187.43502 L 39.673943,187.68512 L 38.679316,187.68512 L 38.679316,188.64794 L 38.398855,188.64794 z M 40.162582,186.82784 L 40.162582,186.52858 L 40.422805,186.52858 L 40.422805,186.82784 L 40.162582,186.82784 z M 40.162582,188.64794 L 40.162582,187.11264 L 40.422805,187.11264 L 40.422805,188.64794 L 40.162582,188.64794 z M 41.388517,188.41519 L 41.426104,188.64505 C 41.352855,188.66047 41.287318,188.66818 41.229493,188.66818 C 41.13504,188.66818 41.061793,188.65325 41.009748,188.62337 C 40.957703,188.59349 40.921081,188.55422 40.899877,188.50555 C 40.878674,188.45688 40.868072,188.35447 40.868072,188.19834 L 40.868072,187.31503 L 40.677244,187.31503 L 40.677244,187.11264 L 40.868072,187.11264 L 40.868072,186.73242 L 41.126848,186.57629 L 41.126848,187.11264 L 41.388517,187.11264 L 41.388517,187.31503 L 41.126848,187.31503 L 41.126848,188.2128 C 41.126848,188.28701 41.131425,188.33471 41.140584,188.35592 C 41.149737,188.37712 41.164677,188.39399 41.1854,188.40652 C 41.20612,188.41905 41.235757,188.42531 41.274308,188.42531 C 41.30322,188.42531 41.34129,188.42194 41.388517,188.41519 L 41.388517,188.41519 z M 41.504171,188.64794 L 41.504171,188.43688 L 42.48145,187.31503 C 42.370612,187.32081 42.272789,187.32371 42.187976,187.32371 L 41.561997,187.32371 L 41.561997,187.11264 L 42.816846,187.11264 L 42.816846,187.28467 L 41.985581,188.25906 L 41.825111,188.43688 C 41.941728,188.4282 42.051117,188.42387 42.153281,188.42387 L 42.863108,188.42387 L 42.863108,188.64794 L 41.504171,188.64794 z M 43.017794,188.18967 L 43.275125,188.14919 C 43.289584,188.25231 43.32982,188.33134 43.39584,188.38628 C 43.46186,188.44121 43.554141,188.46868 43.672687,188.46868 C 43.792195,188.46868 43.880865,188.44435 43.938693,188.39567 C 43.996519,188.347 44.025431,188.2899 44.025433,188.22436 C 44.025431,188.16557 43.999892,188.11931 43.948811,188.08558 C 43.913152,188.06245 43.824482,188.03305 43.682808,187.99739 C 43.491978,187.9492 43.359697,187.90752 43.285969,187.87234 C 43.212239,187.83716 43.15634,187.78849 43.11827,187.72633 C 43.080199,187.66416 43.061167,187.59549 43.061167,187.52032 C 43.061167,187.45189 43.076827,187.38852 43.108151,187.33021 C 43.139474,187.2719 43.182121,187.22347 43.236093,187.18492 C 43.276571,187.15504 43.331747,187.12974 43.401623,187.10902 C 43.471497,187.0883 43.546431,187.07794 43.626425,187.07794 C 43.746898,187.07794 43.852673,187.09529 43.943751,187.12998 C 44.034828,187.16468 44.102052,187.21167 44.145425,187.27094 C 44.188792,187.33021 44.218671,187.40948 44.235056,187.50875 L 43.980617,187.54345 C 43.969051,187.46442 43.93556,187.40274 43.880142,187.3584 C 43.824724,187.31407 43.746417,187.2919 43.645219,187.2919 C 43.525711,187.2919 43.440414,187.31166 43.389334,187.35117 C 43.338253,187.39069 43.312714,187.43695 43.312714,187.48996 C 43.312714,187.52369 43.323314,187.55405 43.344518,187.58103 C 43.365722,187.60899 43.398971,187.63212 43.44427,187.65043 C 43.470293,187.66007 43.546912,187.68223 43.674133,187.71693 C 43.858215,187.76608 43.98664,187.80632 44.059405,187.83764 C 44.13217,187.86897 44.189276,187.91451 44.230719,187.97426 C 44.27216,188.03401 44.292882,188.10823 44.292882,188.19689 C 44.292882,188.28363 44.267583,188.36532 44.216986,188.44194 C 44.166384,188.51856 44.093377,188.57783 43.997965,188.61976 C 43.90255,188.66168 43.794606,188.68264 43.674133,188.68264 C 43.474628,188.68264 43.322591,188.6412 43.218022,188.55831 C 43.113451,188.47543 43.046708,188.35255 43.017794,188.18967 L 43.017794,188.18967 z M 44.603704,186.82784 L 44.603704,186.52858 L 44.863927,186.52858 L 44.863927,186.82784 L 44.603704,186.82784 z M 44.603704,188.64794 L 44.603704,187.11264 L 44.863927,187.11264 L 44.863927,188.64794 L 44.603704,188.64794 z M 45.261486,188.64794 L 45.261486,187.11264 L 45.49424,187.11264 L 45.49424,187.32804 C 45.542429,187.25287 45.606522,187.19239 45.686516,187.14661 C 45.766511,187.10083 45.857588,187.07794 45.959749,187.07794 C 46.073476,187.07794 46.166722,187.10155 46.239488,187.14878 C 46.312253,187.196 46.363575,187.26202 46.393452,187.34684 C 46.514889,187.16757 46.672949,187.07794 46.867635,187.07794 C 47.019911,187.07794 47.137011,187.12011 47.218935,187.20444 C 47.300854,187.28877 47.341816,187.41864 47.341816,187.59405 L 47.341816,188.64794 L 47.083042,188.64794 L 47.083042,187.68079 C 47.083039,187.5767 47.074606,187.50177 47.057742,187.45598 C 47.040873,187.41021 47.010274,187.37334 46.965942,187.34539 C 46.921605,187.31744 46.869562,187.30347 46.809807,187.30346 C 46.701863,187.30347 46.612231,187.33937 46.540912,187.41117 C 46.46959,187.48297 46.43393,187.5979 46.433932,187.75596 L 46.433932,188.64794 L 46.17371,188.64794 L 46.17371,187.65043 C 46.17371,187.53478 46.152506,187.44804 46.110101,187.39021 C 46.067693,187.33238 45.9983,187.30347 45.901923,187.30346 C 45.828674,187.30347 45.760969,187.32274 45.698806,187.36129 C 45.63664,187.39984 45.591582,187.45623 45.563633,187.53044 C 45.535683,187.60465 45.521709,187.71163 45.521709,187.85138 L 45.521709,188.64794 L 45.261486,188.64794 z M 47.633845,187.88029 C 47.633845,187.59598 47.712874,187.38539 47.870936,187.24853 C 48.002973,187.13481 48.163925,187.07794 48.353792,187.07794 C 48.564859,187.07794 48.737377,187.14709 48.871344,187.28539 C 49.00531,187.4237 49.072292,187.61477 49.072294,187.8586 C 49.072292,188.05618 49.042655,188.21159 48.983386,188.32484 C 48.924111,188.43808 48.837853,188.52603 48.724609,188.58867 C 48.611363,188.65132 48.487756,188.68264 48.353792,188.68264 C 48.138867,188.68264 47.965145,188.61373 47.832624,188.47591 C 47.700104,188.33809 47.633845,188.13955 47.633845,187.88029 L 47.633845,187.88029 z M 47.901294,187.88029 C 47.901294,188.0769 47.944183,188.22412 48.029961,188.32194 C 48.115736,188.41977 48.22368,188.46868 48.353792,188.46868 C 48.482938,188.46868 48.590401,188.41953 48.676178,188.32122 C 48.761954,188.22292 48.804843,188.07305 48.804843,187.87162 C 48.804843,187.68175 48.761712,187.53791 48.675456,187.44008 C 48.589194,187.34226 48.481973,187.29335 48.353792,187.29335 C 48.22368,187.29335 48.115736,187.34202 48.029961,187.43936 C 47.944183,187.5367 47.901294,187.68368 47.901294,187.88029 L 47.901294,187.88029 z M 49.378776,188.64794 L 49.378776,187.11264 L 49.612976,187.11264 L 49.612976,187.33093 C 49.725739,187.16227 49.88862,187.07794 50.101616,187.07794 C 50.194139,187.07794 50.279192,187.09457 50.356778,187.12782 C 50.434362,187.16107 50.49243,187.20468 50.530983,187.25865 C 50.569532,187.31262 50.59652,187.37671 50.61194,187.45092 C 50.621577,187.49912 50.626396,187.58344 50.626396,187.70392 L 50.626396,188.64794 L 50.366176,188.64794 L 50.366176,187.71404 C 50.366173,187.60802 50.356055,187.52875 50.335816,187.47622 C 50.315574,187.4237 50.279675,187.38177 50.228114,187.35045 C 50.17655,187.31913 50.116072,187.30347 50.046682,187.30346 C 49.935843,187.30347 49.840189,187.33865 49.759714,187.409 C 49.679238,187.47936 49.638999,187.61284 49.638999,187.80945 L 49.638999,188.64794 L 49.378776,188.64794 z M 12.24799,192.34888 L 12.24799,190.22952 L 12.528452,190.22952 L 12.528452,192.34888 L 12.24799,192.34888 z M 12.988177,192.34888 L 12.988177,190.81357 L 13.222377,190.81357 L 13.222377,191.03187 C 13.33514,190.86321 13.498019,190.77888 13.711016,190.77887 C 13.803539,190.77888 13.888592,190.7955 13.966178,190.82875 C 14.043762,190.862 14.10183,190.90561 14.140383,190.95958 C 14.178933,191.01356 14.205919,191.07765 14.221341,191.15186 C 14.230977,191.20005 14.235796,191.28438 14.235797,191.40485 L 14.235797,192.34888 L 13.975575,192.34888 L 13.975575,191.41497 C 13.975574,191.30896 13.965455,191.22969 13.945216,191.17716 C 13.924975,191.12463 13.889075,191.08271 13.837513,191.05138 C 13.785949,191.02006 13.725472,191.0044 13.65608,191.0044 C 13.545244,191.0044 13.449589,191.03958 13.369114,191.10994 C 13.288637,191.18029 13.248399,191.31378 13.248399,191.51039 L 13.248399,192.34888 L 12.988177,192.34888 z M 14.532161,191.8906 L 14.789492,191.85012 C 14.803948,191.95325 14.844186,192.03228 14.910206,192.08721 C 14.976225,192.14215 15.068507,192.16962 15.187053,192.16962 C 15.306562,192.16962 15.39523,192.14528 15.453058,192.09661 C 15.510884,192.04794 15.539798,191.99083 15.539799,191.9253 C 15.539798,191.86651 15.514257,191.82025 15.463178,191.78651 C 15.427517,191.76338 15.338849,191.73399 15.197173,191.69832 C 15.006343,191.65014 14.874064,191.60845 14.800334,191.57327 C 14.726605,191.5381 14.670705,191.48943 14.632636,191.42726 C 14.594566,191.3651 14.575531,191.29643 14.575532,191.22125 C 14.575531,191.15282 14.591193,191.08946 14.622516,191.03114 C 14.653839,190.97284 14.696486,190.92441 14.750459,190.88586 C 14.790937,190.85598 14.846114,190.83068 14.915989,190.80996 C 14.985863,190.78924 15.060797,190.77888 15.140792,190.77887 C 15.261264,190.77888 15.367039,190.79622 15.458118,190.83092 C 15.549194,190.86562 15.616418,190.9126 15.65979,190.97187 C 15.703159,191.03115 15.733036,191.11042 15.749422,191.20969 L 15.494983,191.24438 C 15.483416,191.16535 15.449925,191.10367 15.394508,191.05934 C 15.33909,191.015 15.260782,190.99284 15.159585,190.99284 C 15.040075,190.99284 14.954781,191.01259 14.903701,191.05211 C 14.85262,191.09163 14.827079,191.13789 14.82708,191.19089 C 14.827079,191.22463 14.837681,191.25498 14.858884,191.28197 C 14.880087,191.30992 14.913338,191.33305 14.958636,191.35136 C 14.984658,191.361 15.061279,191.38317 15.188499,191.41787 C 15.372581,191.46702 15.501005,191.50726 15.573772,191.53858 C 15.646537,191.5699 15.703641,191.61544 15.745085,191.67519 C 15.786526,191.73495 15.807248,191.80916 15.807249,191.89783 C 15.807248,191.98457 15.781948,192.06625 15.731351,192.14287 C 15.680751,192.21949 15.607744,192.27876 15.512331,192.32069 C 15.416915,192.36262 15.308971,192.38358 15.188499,192.38358 C 14.988995,192.38358 14.836958,192.34213 14.732388,192.25925 C 14.627817,192.17636 14.561075,192.05348 14.532161,191.8906 L 14.532161,191.8906 z M 16.116624,192.93727 L 16.116624,190.81357 L 16.353715,190.81357 L 16.353715,191.01307 C 16.409614,190.93501 16.472742,190.87646 16.543099,190.83743 C 16.613455,190.79839 16.69875,190.77888 16.798984,190.77887 C 16.930058,190.77888 17.045712,190.81261 17.145946,190.88007 C 17.246179,190.94754 17.321836,191.04271 17.372918,191.16559 C 17.423997,191.28848 17.449537,191.42316 17.449539,191.56966 C 17.449537,191.72676 17.421347,191.86819 17.364967,191.99397 C 17.308584,192.11974 17.226662,192.21612 17.119202,192.2831 C 17.011739,192.35009 16.898735,192.38358 16.78019,192.38358 C 16.693449,192.38358 16.615623,192.36527 16.546713,192.32864 C 16.477802,192.29202 16.42118,192.24576 16.376846,192.18986 L 16.376846,192.93727 L 16.116624,192.93727 z M 16.352269,191.5899 C 16.352269,191.78748 16.392266,191.93349 16.472261,192.02794 C 16.552254,192.12239 16.649115,192.16962 16.762842,192.16962 C 16.878495,192.16962 16.977524,192.1207 17.059929,192.02288 C 17.142331,191.92506 17.183533,191.7735 17.183534,191.56821 C 17.183533,191.37257 17.143295,191.22607 17.06282,191.12873 C 16.982343,191.03139 16.886205,190.98272 16.774407,190.98271 C 16.663571,190.98272 16.565506,191.03452 16.480212,191.13813 C 16.394916,191.24173 16.352269,191.39232 16.352269,191.5899 L 16.352269,191.5899 z M 17.766142,190.52877 L 17.766142,190.22952 L 18.026364,190.22952 L 18.026364,190.52877 L 17.766142,190.52877 z M 17.766142,192.34888 L 17.766142,190.81357 L 18.026364,190.81357 L 18.026364,192.34888 L 17.766142,192.34888 z M 18.421034,192.34888 L 18.421034,190.81357 L 18.655234,190.81357 L 18.655234,191.04633 C 18.714988,190.93742 18.770164,190.86562 18.820765,190.83092 C 18.871362,190.79622 18.927022,190.77888 18.987739,190.77887 C 19.075444,190.77888 19.164595,190.80683 19.255191,190.86272 L 19.165559,191.10415 C 19.101948,191.06657 19.038338,191.04777 18.974729,191.04777 C 18.917866,191.04777 18.866785,191.06488 18.821486,191.09909 C 18.776189,191.13331 18.743902,191.18077 18.724628,191.24149 C 18.695713,191.33402 18.681255,191.43521 18.681257,191.54508 L 18.681257,192.34888 L 18.421034,192.34888 z M 20.463776,191.85446 L 20.732673,191.88771 C 20.690266,192.04481 20.611717,192.16672 20.497027,192.25346 C 20.382336,192.34021 20.23584,192.38358 20.057541,192.38358 C 19.832979,192.38358 19.654919,192.31443 19.523363,192.17612 C 19.391807,192.03782 19.326029,191.84386 19.326029,191.59424 C 19.326029,191.33594 19.39253,191.13548 19.525532,190.99284 C 19.658534,190.8502 19.831052,190.77888 20.043086,190.77887 C 20.248369,190.77888 20.416068,190.84875 20.546181,190.9885 C 20.676291,191.12825 20.741346,191.32486 20.741346,191.57834 C 20.741346,191.59376 20.740865,191.61689 20.739902,191.64773 L 19.594925,191.64773 C 19.604562,191.81639 19.652269,191.94554 19.738047,192.03517 C 19.823822,192.1248 19.930804,192.16962 20.058987,192.16962 C 20.1544,192.16962 20.23584,192.14456 20.303306,192.09444 C 20.370771,192.04432 20.42426,191.96433 20.463776,191.85446 L 20.463776,191.85446 z M 19.60938,191.43377 L 20.466667,191.43377 C 20.455101,191.30462 20.422333,191.20776 20.368363,191.14318 C 20.285475,191.04295 20.178014,190.99284 20.045977,190.99284 C 19.926467,190.99284 19.825991,191.03283 19.744553,191.11283 C 19.663113,191.19282 19.618055,191.2998 19.60938,191.43377 L 19.60938,191.43377 z M 22.056915,192.34888 L 22.056915,192.15516 C 21.95957,192.30744 21.816448,192.38358 21.627547,192.38358 C 21.505147,192.38358 21.392624,192.34984 21.289982,192.28238 C 21.187338,192.21492 21.107827,192.1207 21.051445,191.99975 C 20.995062,191.87879 20.966874,191.73977 20.966874,191.58267 C 20.966874,191.42943 20.992412,191.29041 21.043493,191.16559 C 21.094573,191.04078 21.171195,190.94513 21.273355,190.87863 C 21.375518,190.81213 21.489727,190.77888 21.615983,190.77887 C 21.708504,190.77888 21.790909,190.79839 21.863193,190.83743 C 21.935475,190.87646 21.994268,190.9273 22.039565,190.98994 L 22.039565,190.22952 L 22.298342,190.22952 L 22.298342,192.34888 L 22.056915,192.34888 z M 21.234323,191.58267 C 21.234323,191.77928 21.275766,191.92626 21.358652,192.0236 C 21.441536,192.12095 21.539361,192.16962 21.652124,192.16962 C 21.765851,192.16962 21.86247,192.12312 21.941984,192.03011 C 22.021494,191.9371 22.06125,191.79519 22.06125,191.60436 C 22.06125,191.39425 22.020771,191.24005 21.939815,191.14174 C 21.858856,191.04343 21.759103,190.99428 21.64056,190.99428 C 21.524903,190.99428 21.428284,191.04151 21.3507,191.13596 C 21.273116,191.23041 21.234323,191.37931 21.234323,191.58267 L 21.234323,191.58267 z M 23.770043,192.34888 L 23.528614,192.34888 L 23.528614,190.22952 L 23.788836,190.22952 L 23.788836,190.98561 C 23.898707,190.84779 24.038938,190.77888 24.209529,190.77887 C 24.303977,190.77888 24.393369,190.79791 24.477701,190.83598 C 24.562031,190.87405 24.631423,190.92754 24.685879,190.99645 C 24.740332,191.06536 24.782979,191.14849 24.81382,191.24583 C 24.844661,191.34317 24.860082,191.44726 24.860082,191.5581 C 24.860082,191.82121 24.795027,192.02457 24.664917,192.16817 C 24.534804,192.31177 24.378672,192.38358 24.196517,192.38358 C 24.015324,192.38358 23.873166,192.30792 23.770043,192.15661 L 23.770043,192.34888 z M 23.767151,191.56966 C 23.767151,191.75374 23.792209,191.88675 23.842325,191.96867 C 23.924246,192.10263 24.035082,192.16962 24.174832,192.16962 C 24.288556,192.16962 24.386863,192.12022 24.469749,192.02144 C 24.552635,191.92265 24.594076,191.77543 24.594078,191.57978 C 24.594076,191.37931 24.554321,191.23137 24.47481,191.13596 C 24.395296,191.04054 24.299158,190.99284 24.186398,190.99284 C 24.072671,190.99284 23.974364,191.04223 23.891478,191.14102 C 23.808592,191.23981 23.767151,191.38269 23.767151,191.56966 L 23.767151,191.56966 z M 25.166566,192.94016 L 25.137652,192.69584 C 25.194516,192.71126 25.24415,192.71897 25.286558,192.71897 C 25.344384,192.71897 25.390645,192.70934 25.425343,192.69006 C 25.460038,192.67078 25.488471,192.6438 25.510637,192.6091 C 25.527022,192.58308 25.553526,192.51851 25.590151,192.41538 C 25.594969,192.40092 25.602679,192.37972 25.613281,192.35177 L 25.030673,190.81357 L 25.311135,190.81357 L 25.630629,191.70266 C 25.672072,191.81543 25.709178,191.93397 25.741946,192.0583 C 25.771822,191.93879 25.807482,191.82217 25.848927,191.70845 L 26.177094,190.81357 L 26.437317,190.81357 L 25.853262,192.3749 C 25.790618,192.54357 25.741946,192.6597 25.707251,192.72331 C 25.660989,192.80909 25.607979,192.87197 25.548226,192.91197 C 25.488471,192.95197 25.417152,192.97197 25.334265,192.97197 C 25.284147,192.97197 25.228248,192.96136 25.166566,192.94016 L 25.166566,192.94016 z M 27.36978,191.74748 L 27.622773,191.71278 C 27.629519,191.8747 27.659879,191.98553 27.713851,192.04529 C 27.767823,192.10504 27.842515,192.13492 27.93793,192.13492 C 28.008287,192.13492 28.069005,192.11878 28.120085,192.08649 C 28.171165,192.0542 28.206344,192.01035 28.225621,191.95493 C 28.244895,191.89952 28.254533,191.81109 28.254535,191.68965 L 28.254535,190.22952 L 28.534997,190.22952 L 28.534997,191.67375 C 28.534994,191.85109 28.513551,191.98843 28.470662,192.08577 C 28.427773,192.18311 28.359827,192.25732 28.266822,192.3084 C 28.173815,192.35948 28.064667,192.38502 27.939376,192.38502 C 27.753364,192.38502 27.610967,192.33153 27.512179,192.22455 C 27.413392,192.11757 27.365923,191.95855 27.36978,191.74748 L 27.36978,191.74748 z M 28.96147,190.52877 L 28.96147,190.22952 L 29.221693,190.22952 L 29.221693,190.52877 L 28.96147,190.52877 z M 28.96147,192.34888 L 28.96147,190.81357 L 29.221693,190.81357 L 29.221693,192.34888 L 28.96147,192.34888 z M 29.619255,192.34888 L 29.619255,190.81357 L 29.852009,190.81357 L 29.852009,191.02898 C 29.900198,190.9538 29.964288,190.89333 30.044283,190.84754 C 30.124277,190.80177 30.215355,190.77888 30.317515,190.77887 C 30.431242,190.77888 30.524489,190.80249 30.597254,190.84971 C 30.670019,190.89694 30.721341,190.96296 30.75122,191.04777 C 30.872655,190.86851 31.030715,190.77888 31.225401,190.77887 C 31.377678,190.77888 31.494778,190.82104 31.576702,190.90537 C 31.658621,190.9897 31.699583,191.11957 31.699585,191.29498 L 31.699585,192.34888 L 31.440808,192.34888 L 31.440808,191.38172 C 31.440806,191.27763 31.432373,191.2027 31.415509,191.15692 C 31.39864,191.11114 31.36804,191.07428 31.323708,191.04633 C 31.279371,191.01838 31.227328,191.0044 31.167576,191.0044 C 31.059629,191.0044 30.969997,191.0403 30.898678,191.1121 C 30.827358,191.18391 30.791696,191.29884 30.791699,191.4569 L 30.791699,192.34888 L 30.531476,192.34888 L 30.531476,191.35136 C 30.531476,191.23571 30.510272,191.14897 30.467867,191.09114 C 30.425459,191.03332 30.356067,191.0044 30.259689,191.0044 C 30.18644,191.0044 30.118736,191.02368 30.056572,191.06223 C 29.994406,191.10078 29.949351,191.15716 29.921402,191.23137 C 29.89345,191.30558 29.879475,191.41257 29.879475,191.55231 L 29.879475,192.34888 L 29.619255,192.34888 z M 32.088472,192.34888 L 32.088472,190.81357 L 32.321226,190.81357 L 32.321226,191.02898 C 32.369415,190.9538 32.433505,190.89333 32.513502,190.84754 C 32.593494,190.80177 32.684572,190.77888 32.786735,190.77887 C 32.900459,190.77888 32.993706,190.80249 33.066474,190.84971 C 33.139236,190.89694 33.190558,190.96296 33.220437,191.04777 C 33.341872,190.86851 33.499934,190.77888 33.694618,190.77887 C 33.846895,190.77888 33.963995,190.82104 34.045919,190.90537 C 34.12784,190.9897 34.168799,191.11957 34.168802,191.29498 L 34.168802,192.34888 L 33.910025,192.34888 L 33.910025,191.38172 C 33.910023,191.27763 33.901589,191.2027 33.884726,191.15692 C 33.867859,191.11114 33.837257,191.07428 33.792925,191.04633 C 33.74859,191.01838 33.696545,191.0044 33.636793,191.0044 C 33.528846,191.0044 33.439214,191.0403 33.367897,191.1121 C 33.296575,191.18391 33.260916,191.29884 33.260916,191.4569 L 33.260916,192.34888 L 33.000693,192.34888 L 33.000693,191.35136 C 33.000693,191.23571 32.979489,191.14897 32.937084,191.09114 C 32.894676,191.03332 32.825284,191.0044 32.728906,191.0044 C 32.655657,191.0044 32.587952,191.02368 32.525789,191.06223 C 32.463623,191.10078 32.418568,191.15716 32.390619,191.23137 C 32.362669,191.30558 32.348694,191.41257 32.348694,191.55231 L 32.348694,192.34888 L 32.088472,192.34888 z M 35.559544,192.1595 C 35.463164,192.24142 35.370399,192.29925 35.281251,192.33298 C 35.192101,192.36671 35.096444,192.38358 34.994283,192.38358 C 34.825622,192.38358 34.695993,192.34238 34.605396,192.25997 C 34.5148,192.17757 34.469503,192.07227 34.469503,191.94409 C 34.469503,191.86892 34.486611,191.80025 34.520825,191.73808 C 34.555039,191.67592 34.599855,191.62604 34.655273,191.58845 C 34.71069,191.55087 34.773096,191.52244 34.842488,191.50316 C 34.893568,191.48967 34.970671,191.47666 35.073796,191.46413 C 35.283901,191.43907 35.438588,191.40919 35.537859,191.37449 C 35.538821,191.33884 35.539303,191.31619 35.539305,191.30655 C 35.539303,191.20053 35.514726,191.12584 35.465575,191.08247 C 35.399072,191.02368 35.300284,190.99428 35.169212,190.99428 C 35.046809,190.99428 34.956455,191.01573 34.898145,191.05861 C 34.839836,191.1015 34.796707,191.1774 34.768758,191.28631 L 34.514319,191.25161 C 34.53745,191.14271 34.57552,191.05476 34.628527,190.98777 C 34.681534,190.92079 34.758156,190.86923 34.85839,190.83309 C 34.958623,190.79695 35.074759,190.77888 35.206798,190.77887 C 35.337873,190.77888 35.444371,190.7943 35.526293,190.82514 C 35.608214,190.85598 35.66845,190.89477 35.707002,190.94151 C 35.745553,190.98826 35.772538,191.04729 35.787961,191.11861 C 35.796634,191.16294 35.800971,191.24294 35.800971,191.35859 L 35.800971,191.70555 C 35.800971,191.94746 35.806513,192.10047 35.817598,192.16456 C 35.828679,192.22865 35.850605,192.29009 35.883376,192.34888 L 35.611589,192.34888 C 35.584602,192.29491 35.567252,192.23178 35.559544,192.1595 L 35.559544,192.1595 z M 35.537859,191.57834 C 35.443406,191.61689 35.30173,191.64965 35.112829,191.67664 C 35.00585,191.69206 34.930193,191.70941 34.885858,191.72868 C 34.841523,191.74796 34.807309,191.77615 34.783214,191.81326 C 34.759121,191.85036 34.747073,191.89157 34.747073,191.93686 C 34.747073,192.00625 34.773335,192.06408 34.825863,192.11034 C 34.878387,192.15661 34.955251,192.17974 35.056449,192.17974 C 35.15668,192.17974 35.245831,192.15781 35.323898,192.11396 C 35.401963,192.07011 35.459308,192.01011 35.495935,191.93397 C 35.523882,191.87518 35.537857,191.78844 35.537859,191.67375 L 35.537859,191.57834 z M 37.207617,191.78651 L 37.463503,191.81976 C 37.435551,191.99614 37.363989,192.1342 37.248819,192.23395 C 37.133646,192.3337 36.992211,192.38358 36.824511,192.38358 C 36.614407,192.38358 36.445504,192.31491 36.317802,192.17757 C 36.1901,192.04023 36.126249,191.84338 36.126249,191.58701 C 36.126249,191.42124 36.153717,191.27619 36.208654,191.15186 C 36.263588,191.02753 36.347197,190.93429 36.459478,190.87212 C 36.57176,190.80996 36.693918,190.77888 36.825957,190.77887 C 36.992692,190.77888 37.129066,190.82104 37.235083,190.90537 C 37.3411,190.9897 37.409047,191.10945 37.438926,191.26462 L 37.185932,191.30366 C 37.161834,191.20053 37.119187,191.12295 37.057989,191.0709 C 36.996788,191.01886 36.922818,190.99284 36.836078,190.99284 C 36.705001,190.99284 36.598503,191.03982 36.516581,191.13379 C 36.43466,191.22776 36.3937,191.37642 36.3937,191.57978 C 36.3937,191.78603 36.433214,191.9359 36.512246,192.02939 C 36.591276,192.12287 36.694401,192.16962 36.82162,192.16962 C 36.92378,192.16962 37.009075,192.13829 37.077505,192.07565 C 37.145933,192.013 37.189303,191.91662 37.207617,191.78651 L 37.207617,191.78651 z M 37.582046,191.8906 L 37.839377,191.85012 C 37.853835,191.95325 37.894072,192.03228 37.960092,192.08721 C 38.026111,192.14215 38.118393,192.16962 38.236939,192.16962 C 38.356447,192.16962 38.445116,192.14528 38.502945,192.09661 C 38.560771,192.04794 38.589682,191.99083 38.589685,191.9253 C 38.589682,191.86651 38.564143,191.82025 38.513063,191.78651 C 38.477403,191.76338 38.388734,191.73399 38.24706,191.69832 C 38.05623,191.65014 37.923948,191.60845 37.850221,191.57327 C 37.776491,191.5381 37.720592,191.48943 37.682521,191.42726 C 37.644451,191.3651 37.625418,191.29643 37.625418,191.22125 C 37.625418,191.15282 37.641078,191.08946 37.672403,191.03114 C 37.703725,190.97284 37.746372,190.92441 37.800344,190.88586 C 37.840823,190.85598 37.895999,190.83068 37.965875,190.80996 C 38.035749,190.78924 38.110683,190.77888 38.190677,190.77887 C 38.31115,190.77888 38.416925,190.79622 38.508003,190.83092 C 38.59908,190.86562 38.666304,190.9126 38.709676,190.97187 C 38.753044,191.03115 38.782923,191.11042 38.799308,191.20969 L 38.544869,191.24438 C 38.533302,191.16535 38.499811,191.10367 38.444393,191.05934 C 38.388976,191.015 38.310669,190.99284 38.20947,190.99284 C 38.089962,190.99284 38.004666,191.01259 37.953585,191.05211 C 37.902505,191.09163 37.876966,191.13789 37.876966,191.19089 C 37.876966,191.22463 37.887566,191.25498 37.908769,191.28197 C 37.929973,191.30992 37.963223,191.33305 38.008522,191.35136 C 38.034544,191.361 38.111164,191.38317 38.238385,191.41787 C 38.422467,191.46702 38.550892,191.50726 38.623657,191.53858 C 38.696422,191.5699 38.753528,191.61544 38.794971,191.67519 C 38.836411,191.73495 38.857134,191.80916 38.857134,191.89783 C 38.857134,191.98457 38.831834,192.06625 38.781238,192.14287 C 38.730636,192.21949 38.657629,192.27876 38.562216,192.32069 C 38.466801,192.36262 38.358857,192.38358 38.238385,192.38358 C 38.03888,192.38358 37.886843,192.34213 37.782274,192.25925 C 37.677703,192.17636 37.61096,192.05348 37.582046,191.8906 L 37.582046,191.8906 z M 39.984765,192.34888 L 39.984765,190.81357 L 40.218962,190.81357 L 40.218962,191.04633 C 40.278717,190.93742 40.333893,190.86562 40.384493,190.83092 C 40.435092,190.79622 40.490749,190.77888 40.551469,190.77887 C 40.639174,190.77888 40.728322,190.80683 40.818918,190.86272 L 40.729287,191.10415 C 40.665677,191.06657 40.602068,191.04777 40.538459,191.04777 C 40.481593,191.04777 40.430513,191.06488 40.385216,191.09909 C 40.339919,191.13331 40.307632,191.18077 40.288355,191.24149 C 40.259441,191.33402 40.244985,191.43521 40.244985,191.54508 L 40.244985,192.34888 L 39.984765,192.34888 z M 41.978352,192.1595 C 41.881972,192.24142 41.78921,192.29925 41.700059,192.33298 C 41.610908,192.36671 41.515254,192.38358 41.413094,192.38358 C 41.24443,192.38358 41.114801,192.34238 41.024207,192.25997 C 40.93361,192.17757 40.888311,192.07227 40.888311,191.94409 C 40.888311,191.86892 40.905419,191.80025 40.939633,191.73808 C 40.973847,191.67592 41.018663,191.62604 41.07408,191.58845 C 41.129498,191.55087 41.191903,191.52244 41.261296,191.50316 C 41.312376,191.48967 41.389479,191.47666 41.492604,191.46413 C 41.702709,191.43907 41.857396,191.40919 41.956667,191.37449 C 41.957629,191.33884 41.958113,191.31619 41.958113,191.30655 C 41.958113,191.20053 41.933536,191.12584 41.884383,191.08247 C 41.817882,191.02368 41.719094,190.99428 41.588019,190.99428 C 41.46562,190.99428 41.375265,191.01573 41.316956,191.05861 C 41.258646,191.1015 41.215518,191.1774 41.187568,191.28631 L 40.933129,191.25161 C 40.956258,191.14271 40.994328,191.05476 41.047338,190.98777 C 41.100345,190.92079 41.176966,190.86923 41.2772,190.83309 C 41.377431,190.79695 41.493569,190.77888 41.625609,190.77887 C 41.756681,190.77888 41.863179,190.7943 41.945103,190.82514 C 42.027022,190.85598 42.087258,190.89477 42.125812,190.94151 C 42.164361,190.98826 42.191348,191.04729 42.206769,191.11861 C 42.215444,191.16294 42.219779,191.24294 42.219781,191.35859 L 42.219781,191.70555 C 42.219779,191.94746 42.22532,192.10047 42.236406,192.16456 C 42.247489,192.22865 42.269416,192.29009 42.302184,192.34888 L 42.030397,192.34888 C 42.00341,192.29491 41.986062,192.23178 41.978352,192.1595 L 41.978352,192.1595 z M 41.956667,191.57834 C 41.862217,191.61689 41.72054,191.64965 41.531639,191.67664 C 41.424658,191.69206 41.349001,191.70941 41.304666,191.72868 C 41.260334,191.74796 41.226117,191.77615 41.202024,191.81326 C 41.177929,191.85036 41.165881,191.89157 41.165881,191.93686 C 41.165881,192.00625 41.192145,192.06408 41.244671,192.11034 C 41.297198,192.15661 41.374059,192.17974 41.475257,192.17974 C 41.575491,192.17974 41.664641,192.15781 41.742709,192.11396 C 41.820774,192.07011 41.878118,192.01011 41.914743,191.93397 C 41.942692,191.87518 41.956667,191.78844 41.956667,191.67375 L 41.956667,191.57834 z M 42.520482,191.8906 L 42.777813,191.85012 C 42.792269,191.95325 42.832508,192.03228 42.898528,192.08721 C 42.964545,192.14215 43.056827,192.16962 43.175375,192.16962 C 43.294883,192.16962 43.38355,192.14528 43.441379,192.09661 C 43.499204,192.04794 43.528119,191.99083 43.528119,191.9253 C 43.528119,191.86651 43.502577,191.82025 43.451499,191.78651 C 43.415837,191.76338 43.32717,191.73399 43.185493,191.69832 C 42.994663,191.65014 42.862385,191.60845 42.788655,191.57327 C 42.714925,191.5381 42.659026,191.48943 42.620958,191.42726 C 42.582888,191.3651 42.563852,191.29643 42.563852,191.22125 C 42.563852,191.15282 42.579515,191.08946 42.610837,191.03114 C 42.642159,190.97284 42.684806,190.92441 42.738778,190.88586 C 42.779259,190.85598 42.834435,190.83068 42.904309,190.80996 C 42.974182,190.78924 43.049117,190.77888 43.129113,190.77887 C 43.249584,190.77888 43.355359,190.79622 43.446439,190.83092 C 43.537517,190.86562 43.60474,190.9126 43.64811,190.97187 C 43.69148,191.03115 43.721357,191.11042 43.737742,191.20969 L 43.483303,191.24438 C 43.471736,191.16535 43.438245,191.10367 43.38283,191.05934 C 43.32741,191.015 43.249103,190.99284 43.147907,190.99284 C 43.028396,190.99284 42.943102,191.01259 42.892022,191.05211 C 42.840941,191.09163 42.8154,191.13789 42.8154,191.19089 C 42.8154,191.22463 42.826002,191.25498 42.847206,191.28197 C 42.868407,191.30992 42.901659,191.33305 42.946956,191.35136 C 42.972978,191.361 43.0496,191.38317 43.176821,191.41787 C 43.360903,191.46702 43.489325,191.50726 43.562093,191.53858 C 43.634859,191.5699 43.691962,191.61544 43.733405,191.67519 C 43.774848,191.73495 43.795568,191.80916 43.79557,191.89783 C 43.795568,191.98457 43.770268,192.06625 43.719672,192.14287 C 43.669072,192.21949 43.596065,192.27876 43.500653,192.32069 C 43.405235,192.36262 43.297291,192.38358 43.176821,192.38358 C 42.977316,192.38358 42.825279,192.34213 42.720708,192.25925 C 42.616137,192.17636 42.549397,192.05348 42.520482,191.8906 L 42.520482,191.8906 z M 44.673097,192.11613 L 44.710683,192.34599 C 44.637434,192.36141 44.571898,192.36912 44.514072,192.36912 C 44.41962,192.36912 44.346373,192.35418 44.294328,192.3243 C 44.242283,192.29443 44.205661,192.25515 44.184457,192.20648 C 44.163253,192.15781 44.152651,192.05541 44.152651,191.89928 L 44.152651,191.01597 L 43.961824,191.01597 L 43.961824,190.81357 L 44.152651,190.81357 L 44.152651,190.43336 L 44.411428,190.27722 L 44.411428,190.81357 L 44.673097,190.81357 L 44.673097,191.01597 L 44.411428,191.01597 L 44.411428,191.91373 C 44.411428,191.98794 44.416005,192.03565 44.425164,192.05685 C 44.434317,192.07806 44.449257,192.09492 44.469979,192.10745 C 44.4907,192.11998 44.520337,192.12625 44.558888,192.12625 C 44.5878,192.12625 44.62587,192.12287 44.673097,192.11613 L 44.673097,192.11613 z M 45.977096,191.85446 L 46.245994,191.88771 C 46.203586,192.04481 46.125038,192.16672 46.010348,192.25346 C 45.895656,192.34021 45.749161,192.38358 45.570862,192.38358 C 45.346299,192.38358 45.16824,192.31443 45.036684,192.17612 C 44.905128,192.03782 44.83935,191.84386 44.83935,191.59424 C 44.83935,191.33594 44.905851,191.13548 45.038853,190.99284 C 45.171854,190.8502 45.344372,190.77888 45.556406,190.77887 C 45.76169,190.77888 45.929389,190.84875 46.059501,190.9885 C 46.189612,191.12825 46.254667,191.32486 46.254667,191.57834 C 46.254667,191.59376 46.254185,191.61689 46.253223,191.64773 L 45.108245,191.64773 C 45.117882,191.81639 45.16559,191.94554 45.251368,192.03517 C 45.337143,192.1248 45.444125,192.16962 45.572308,192.16962 C 45.66772,192.16962 45.749161,192.14456 45.816626,192.09444 C 45.884092,192.04432 45.93758,191.96433 45.977096,191.85446 L 45.977096,191.85446 z M 45.122701,191.43377 L 45.979988,191.43377 C 45.968421,191.30462 45.935653,191.20776 45.881684,191.14318 C 45.798795,191.04295 45.691335,190.99284 45.559298,190.99284 C 45.439787,190.99284 45.339312,191.03283 45.257874,191.11283 C 45.176434,191.19282 45.131376,191.2998 45.122701,191.43377 L 45.122701,191.43377 z M 46.571272,192.34888 L 46.571272,190.81357 L 46.805472,190.81357 L 46.805472,191.04633 C 46.865225,190.93742 46.920401,190.86562 46.971002,190.83092 C 47.021599,190.79622 47.077259,190.77888 47.137976,190.77887 C 47.225681,190.77888 47.314831,190.80683 47.405428,190.86272 L 47.315796,191.10415 C 47.252184,191.06657 47.188575,191.04777 47.124966,191.04777 C 47.068102,191.04777 47.017022,191.06488 46.971723,191.09909 C 46.926426,191.13331 46.894139,191.18077 46.874864,191.24149 C 46.84595,191.33402 46.831492,191.43521 46.831494,191.54508 L 46.831494,192.34888 L 46.571272,192.34888 z M 48.667503,192.34888 L 48.197657,190.81357 L 48.466555,190.81357 L 48.710873,191.69977 L 48.801951,192.02939 C 48.805807,192.013 48.832311,191.90747 48.881464,191.71278 L 49.125783,190.81357 L 49.393235,190.81357 L 49.623097,191.70411 L 49.699719,191.99758 L 49.787905,191.70122 L 50.051017,190.81357 L 50.30401,190.81357 L 49.824046,192.34888 L 49.553705,192.34888 L 49.309384,191.42943 L 49.250112,191.16776 L 48.93929,192.34888 L 48.667503,192.34888 z M 50.5252,190.52877 L 50.5252,190.22952 L 50.785423,190.22952 L 50.785423,190.52877 L 50.5252,190.52877 z M 50.5252,192.34888 L 50.5252,190.81357 L 50.785423,190.81357 L 50.785423,192.34888 L 50.5252,192.34888 z M 51.182982,192.34888 L 51.182982,190.81357 L 51.417182,190.81357 L 51.417182,191.03187 C 51.529945,190.86321 51.692825,190.77888 51.905822,190.77887 C 51.998345,190.77888 52.083397,190.7955 52.160984,190.82875 C 52.238568,190.862 52.296635,190.90561 52.335189,190.95958 C 52.373738,191.01356 52.400725,191.07765 52.416146,191.15186 C 52.425783,191.20005 52.430602,191.28438 52.430602,191.40485 L 52.430602,192.34888 L 52.170382,192.34888 L 52.170382,191.41497 C 52.170379,191.30896 52.160261,191.22969 52.140022,191.17716 C 52.11978,191.12463 52.083881,191.08271 52.03232,191.05138 C 51.980756,191.02006 51.920277,191.0044 51.850887,191.0044 C 51.740049,191.0044 51.644395,191.03958 51.563919,191.10994 C 51.483444,191.18029 51.443205,191.31378 51.443205,191.51039 L 51.443205,192.34888 L 51.182982,192.34888 z M 53.882064,191.85446 L 54.150959,191.88771 C 54.108551,192.04481 54.030003,192.16672 53.915313,192.25346 C 53.800621,192.34021 53.654128,192.38358 53.475827,192.38358 C 53.251264,192.38358 53.073208,192.31443 52.941649,192.17612 C 52.810093,192.03782 52.744315,191.84386 52.744315,191.59424 C 52.744315,191.33594 52.810816,191.13548 52.943818,190.99284 C 53.07682,190.8502 53.249337,190.77888 53.461371,190.77887 C 53.666657,190.77888 53.834354,190.84875 53.964467,190.9885 C 54.094577,191.12825 54.159632,191.32486 54.159634,191.57834 C 54.159632,191.59376 54.159151,191.61689 54.158188,191.64773 L 53.01321,191.64773 C 53.022848,191.81639 53.070555,191.94554 53.156333,192.03517 C 53.242111,192.1248 53.34909,192.16962 53.477273,192.16962 C 53.572688,192.16962 53.654128,192.14456 53.721594,192.09444 C 53.789057,192.04432 53.842548,191.96433 53.882064,191.85446 L 53.882064,191.85446 z M 53.027669,191.43377 L 53.884956,191.43377 C 53.873389,191.30462 53.840619,191.20776 53.786649,191.14318 C 53.703763,191.04295 53.5963,190.99284 53.464263,190.99284 C 53.344753,190.99284 53.244277,191.03283 53.162839,191.11283 C 53.081399,191.19282 53.036341,191.2998 53.027669,191.43377 L 53.027669,191.43377 z M 55.301718,190.52877 L 55.301718,190.22952 L 55.561941,190.22952 L 55.561941,190.52877 L 55.301718,190.52877 z M 55.301718,192.34888 L 55.301718,190.81357 L 55.561941,190.81357 L 55.561941,192.34888 L 55.301718,192.34888 z M 56.961358,191.78651 L 57.217243,191.81976 C 57.189291,191.99614 57.11773,192.1342 57.002559,192.23395 C 56.887386,192.3337 56.745951,192.38358 56.578252,192.38358 C 56.368147,192.38358 56.199244,192.31491 56.071542,192.17757 C 55.94384,192.04023 55.879989,191.84338 55.879989,191.58701 C 55.879989,191.42124 55.907458,191.27619 55.962394,191.15186 C 56.017328,191.02753 56.100938,190.93429 56.213219,190.87212 C 56.3255,190.80996 56.447658,190.77888 56.579698,190.77887 C 56.746432,190.77888 56.882807,190.82104 56.988824,190.90537 C 57.094841,190.9897 57.162788,191.10945 57.192666,191.26462 L 56.939673,191.30366 C 56.915575,191.20053 56.872928,191.12295 56.811729,191.0709 C 56.750528,191.01886 56.676559,190.99284 56.589819,190.99284 C 56.458741,190.99284 56.352243,191.03982 56.270322,191.13379 C 56.1884,191.22776 56.147441,191.37642 56.147441,191.57978 C 56.147441,191.78603 56.186955,191.9359 56.265987,192.02939 C 56.345017,192.12287 56.448142,192.16962 56.57536,192.16962 C 56.677521,192.16962 56.762815,192.13829 56.831245,192.07565 C 56.899673,192.013 56.943043,191.91662 56.961358,191.78651 L 56.961358,191.78651 z M 57.343016,191.58123 C 57.343016,191.29691 57.422045,191.08632 57.580107,190.94947 C 57.712144,190.83574 57.873098,190.77888 58.062964,190.77887 C 58.27403,190.77888 58.446548,190.84803 58.580517,190.98633 C 58.714481,191.12463 58.781463,191.3157 58.781466,191.55954 C 58.781463,191.75712 58.751828,191.91253 58.692557,192.02577 C 58.633283,192.13902 58.547024,192.22696 58.43378,192.28961 C 58.320534,192.35226 58.196927,192.38358 58.062964,192.38358 C 57.848038,192.38358 57.674316,192.31467 57.541798,192.17685 C 57.409277,192.03903 57.343016,191.84048 57.343016,191.58123 L 57.343016,191.58123 z M 57.610467,191.58123 C 57.610465,191.77784 57.653354,191.92506 57.739132,192.02288 C 57.824907,192.1207 57.932851,192.16962 58.062964,192.16962 C 58.192109,192.16962 58.299572,192.12046 58.38535,192.02216 C 58.471125,191.92385 58.514014,191.77398 58.514014,191.57255 C 58.514014,191.38269 58.470886,191.23884 58.384627,191.14102 C 58.298368,191.04319 58.191147,190.99428 58.062964,190.99428 C 57.932851,190.99428 57.824907,191.04295 57.739132,191.1403 C 57.653354,191.23764 57.610465,191.38461 57.610467,191.58123 L 57.610467,191.58123 z M 59.08795,192.34888 L 59.08795,190.81357 L 59.32215,190.81357 L 59.32215,191.03187 C 59.43491,190.86321 59.597791,190.77888 59.810787,190.77887 C 59.90331,190.77888 59.988365,190.7955 60.065949,190.82875 C 60.143533,190.862 60.201601,190.90561 60.240154,190.95958 C 60.278703,191.01356 60.305691,191.07765 60.321111,191.15186 C 60.330748,191.20005 60.335567,191.28438 60.33557,191.40485 L 60.33557,192.34888 L 60.075347,192.34888 L 60.075347,191.41497 C 60.075347,191.30896 60.065226,191.22969 60.044987,191.17716 C 60.024748,191.12463 59.988846,191.08271 59.937285,191.05138 C 59.885721,191.02006 59.825243,191.0044 59.755853,191.0044 C 59.645017,191.0044 59.54936,191.03958 59.468885,191.10994 C 59.388409,191.18029 59.34817,191.31378 59.34817,191.51039 L 59.34817,192.34888 L 59.08795,192.34888 z M 61.61933,192.34888 L 61.61933,191.01597 L 61.389468,191.01597 L 61.389468,190.81357 L 61.61933,190.81357 L 61.61933,190.65021 C 61.61933,190.54709 61.628486,190.47047 61.646798,190.42035 C 61.671856,190.35288 61.715949,190.29819 61.779077,190.25626 C 61.842205,190.21434 61.930633,190.19338 62.04436,190.19338 C 62.117607,190.19338 62.198566,190.20205 62.287233,190.2194 L 62.2482,190.44637 C 62.194228,190.43673 62.143148,190.43191 62.094959,190.43191 C 62.015927,190.43191 61.960028,190.44878 61.92726,190.48251 C 61.89449,190.51625 61.878107,190.57937 61.878107,190.67189 L 61.878107,190.81357 L 62.177362,190.81357 L 62.177362,191.01597 L 61.878107,191.01597 L 61.878107,192.34888 L 61.61933,192.34888 z M 62.281452,191.58123 C 62.281452,191.29691 62.360482,191.08632 62.518541,190.94947 C 62.650581,190.83574 62.811532,190.77888 63.001397,190.77887 C 63.212467,190.77888 63.384985,190.84803 63.518951,190.98633 C 63.652915,191.12463 63.719899,191.3157 63.719899,191.55954 C 63.719899,191.75712 63.690262,191.91253 63.630991,192.02577 C 63.571716,192.13902 63.485458,192.22696 63.372214,192.28961 C 63.25897,192.35226 63.135364,192.38358 63.001397,192.38358 C 62.786474,192.38358 62.612752,192.31467 62.480232,192.17685 C 62.347711,192.03903 62.281452,191.84048 62.281452,191.58123 L 62.281452,191.58123 z M 62.548901,191.58123 C 62.548901,191.77784 62.59179,191.92506 62.677566,192.02288 C 62.763343,192.1207 62.871287,192.16962 63.001397,192.16962 C 63.130545,192.16962 63.238008,192.12046 63.323786,192.02216 C 63.409561,191.92385 63.452448,191.77398 63.45245,191.57255 C 63.452448,191.38269 63.409319,191.23884 63.323063,191.14102 C 63.236802,191.04319 63.129581,190.99428 63.001397,190.99428 C 62.871287,190.99428 62.763343,191.04295 62.677566,191.1403 C 62.59179,191.23764 62.548901,191.38461 62.548901,191.58123 L 62.548901,191.58123 z M 64.023492,192.34888 L 64.023492,190.81357 L 64.257692,190.81357 L 64.257692,191.04633 C 64.317447,190.93742 64.372623,190.86562 64.423223,190.83092 C 64.473822,190.79622 64.529479,190.77888 64.590199,190.77887 C 64.677901,190.77888 64.767052,190.80683 64.857648,190.86272 L 64.768017,191.10415 C 64.704407,191.06657 64.640796,191.04777 64.577186,191.04777 C 64.520323,191.04777 64.469243,191.06488 64.423946,191.09909 C 64.378646,191.13331 64.346359,191.18077 64.327085,191.24149 C 64.298171,191.33402 64.283715,191.43521 64.283715,191.54508 L 64.283715,192.34888 L 64.023492,192.34888 z M 66.404523,192.11613 L 66.442112,192.34599 C 66.368863,192.36141 66.303325,192.36912 66.245499,192.36912 C 66.151049,192.36912 66.0778,192.35418 66.025757,192.3243 C 65.973712,192.29443 65.937088,192.25515 65.915884,192.20648 C 65.894682,192.15781 65.88408,192.05541 65.88408,191.89928 L 65.88408,191.01597 L 65.69325,191.01597 L 65.69325,190.81357 L 65.88408,190.81357 L 65.88408,190.43336 L 66.142857,190.27722 L 66.142857,190.81357 L 66.404523,190.81357 L 66.404523,191.01597 L 66.142857,191.01597 L 66.142857,191.91373 C 66.142855,191.98794 66.147434,192.03565 66.15659,192.05685 C 66.165746,192.07806 66.180683,192.09492 66.201406,192.10745 C 66.222126,192.11998 66.251763,192.12625 66.290315,192.12625 C 66.319229,192.12625 66.357297,192.12287 66.404523,192.11613 L 66.404523,192.11613 z M 66.657517,192.34888 L 66.657517,190.22952 L 66.917739,190.22952 L 66.917739,190.98994 C 67.039177,190.84923 67.192418,190.77888 67.377464,190.77887 C 67.491192,190.77888 67.589979,190.80128 67.673828,190.8461 C 67.757676,190.89092 67.817673,190.95284 67.853817,191.03187 C 67.889958,191.1109 67.908028,191.22559 67.908028,191.37594 L 67.908028,192.34888 L 67.647808,192.34888 L 67.647808,191.37594 C 67.647805,191.24583 67.619614,191.15114 67.563234,191.09186 C 67.506852,191.03259 67.427099,191.00296 67.323976,191.00296 C 67.246871,191.00296 67.174347,191.02296 67.106401,191.06295 C 67.038454,191.10295 66.990023,191.15716 66.961109,191.22559 C 66.932195,191.29402 66.917739,191.38847 66.917739,191.50894 L 66.917739,192.34888 L 66.657517,192.34888 z M 69.356599,191.85446 L 69.625494,191.88771 C 69.583084,192.04481 69.504534,192.16672 69.389848,192.25346 C 69.275156,192.34021 69.128663,192.38358 68.950362,192.38358 C 68.725799,192.38358 68.547742,192.31443 68.416184,192.17612 C 68.284628,192.03782 68.21885,191.84386 68.21885,191.59424 C 68.21885,191.33594 68.285351,191.13548 68.418352,190.99284 C 68.551354,190.8502 68.723872,190.77888 68.935906,190.77887 C 69.141192,190.77888 69.308889,190.84875 69.439001,190.9885 C 69.569114,191.12825 69.634164,191.32486 69.634164,191.57834 C 69.634164,191.59376 69.633684,191.61689 69.632724,191.64773 L 68.487745,191.64773 C 68.497382,191.81639 68.54509,191.94554 68.630867,192.03517 C 68.716645,192.1248 68.823624,192.16962 68.951808,192.16962 C 69.047223,192.16962 69.128663,192.14456 69.196129,192.09444 C 69.263592,192.04432 69.317082,191.96433 69.356599,191.85446 L 69.356599,191.85446 z M 68.502203,191.43377 L 69.35949,191.43377 C 69.347924,191.30462 69.315153,191.20776 69.261184,191.14318 C 69.178297,191.04295 69.070835,190.99284 68.938798,190.99284 C 68.819287,190.99284 68.718812,191.03283 68.637374,191.11283 C 68.555933,191.19282 68.510876,191.2998 68.502203,191.43377 L 68.502203,191.43377 z M 71.799794,191.51762 L 71.799794,191.26896 L 72.697554,191.26751 L 72.697554,192.05396 C 72.559734,192.16383 72.417574,192.24648 72.271084,192.3019 C 72.124584,192.35731 71.974234,192.38502 71.820034,192.38502 C 71.611854,192.38502 71.422714,192.34045 71.252604,192.2513 C 71.082494,192.16215 70.954074,192.03324 70.867334,191.86458 C 70.780594,191.69592 70.737224,191.5075 70.737224,191.29932 C 70.737224,191.09307 70.780344,190.90055 70.866604,190.72177 C 70.952864,190.54299 71.076954,190.41023 71.238864,190.32349 C 71.400784,190.23675 71.587274,190.19338 71.798344,190.19338 C 71.951584,190.19338 72.090134,190.21819 72.213974,190.26783 C 72.337824,190.31746 72.434924,190.38662 72.505284,190.47528 C 72.575634,190.56395 72.629124,190.67961 72.665754,190.82224 L 72.412764,190.89164 C 72.380954,190.7837 72.341444,190.69888 72.294214,190.6372 C 72.246984,190.57552 72.179524,190.52612 72.091814,190.48902 C 72.004114,190.45191 71.906774,190.43336 71.799794,190.43336 C 71.671614,190.43336 71.560774,190.45288 71.467284,190.49191 C 71.373804,190.53094 71.298384,190.58226 71.241034,190.64587 C 71.183694,190.70948 71.139114,190.77936 71.107314,190.8555 C 71.053344,190.98657 71.026354,191.12873 71.026354,191.28197 C 71.026354,191.47087 71.058884,191.62893 71.123934,191.75615 C 71.188994,191.88337 71.283684,191.97782 71.408014,192.03951 C 71.532344,192.10119 71.664384,192.13203 71.804134,192.13203 C 71.925564,192.13203 72.044114,192.10866 72.159764,192.06191 C 72.275424,192.01517 72.363124,191.9653 72.422884,191.91229 L 72.422884,191.51762 L 71.799794,191.51762 z M 73.106684,192.34888 L 73.106684,190.22952 L 73.394374,190.22952 L 74.507544,191.89349 L 74.507544,190.22952 L 74.776444,190.22952 L 74.776444,192.34888 L 74.488754,192.34888 L 73.375584,190.68346 L 73.375584,192.34888 L 73.106684,192.34888 z M 75.163884,191.31667 C 75.163884,190.96489 75.258334,190.68948 75.447234,190.49046 C 75.636144,190.29144 75.879974,190.19193 76.178754,190.19193 C 76.374394,190.19193 76.550774,190.23868 76.707864,190.33216 C 76.864964,190.42565 76.984714,190.556 77.067124,190.72322 C 77.149524,190.89044 77.190724,191.08006 77.190724,191.29209 C 77.190724,191.50702 77.147354,191.69929 77.060614,191.86892 C 76.973874,192.03854 76.850994,192.16697 76.691964,192.25419 C 76.532944,192.34141 76.361384,192.38502 76.177304,192.38502 C 75.977804,192.38502 75.799504,192.33683 75.642404,192.24045 C 75.485304,192.14408 75.366284,192.01252 75.285324,191.84578 C 75.204364,191.67905 75.163884,191.50268 75.163884,191.31667 L 75.163884,191.31667 z M 75.453024,191.321 C 75.453024,191.57641 75.521694,191.7776 75.659034,191.92458 C 75.796364,192.07155 75.968644,192.14504 76.175864,192.14504 C 76.386924,192.14504 76.560644,192.07083 76.697024,191.92241 C 76.833404,191.77398 76.901584,191.5634 76.901594,191.29064 C 76.901584,191.11813 76.872434,190.96754 76.814124,190.83887 C 76.755814,190.71021 76.670524,190.61045 76.558244,190.53962 C 76.445954,190.46878 76.319944,190.43336 76.180194,190.43336 C 75.981654,190.43336 75.810824,190.50155 75.667704,190.63792 C 75.524584,190.7743 75.453024,191.00199 75.453024,191.321 L 75.453024,191.321 z M 77.542024,192.34888 L 77.542024,190.22952 L 77.964164,190.22952 L 78.465814,191.73013 C 78.512074,191.86988 78.545804,191.97445 78.567014,192.04384 C 78.591104,191.96674 78.628694,191.85349 78.679774,191.70411 L 79.187204,190.22952 L 79.564524,190.22952 L 79.564524,192.34888 L 79.294184,192.34888 L 79.294184,190.57503 L 78.678334,192.34888 L 78.425334,192.34888 L 77.812364,190.54467 L 77.812364,192.34888 L 77.542024,192.34888 z M 80.025694,192.34888 L 80.025694,190.22952 L 81.558114,190.22952 L 81.558114,190.47962 L 80.306164,190.47962 L 80.306164,191.12873 L 81.478604,191.12873 L 81.478604,191.37738 L 80.306164,191.37738 L 80.306164,192.09878 L 81.607274,192.09878 L 81.607274,192.34888 L 80.025694,192.34888 z M 82.785494,192.93727 L 82.785494,190.81357 L 83.022594,190.81357 L 83.022594,191.01307 C 83.078494,190.93501 83.141614,190.87646 83.211974,190.83743 C 83.282334,190.79839 83.367624,190.77888 83.467864,190.77887 C 83.598934,190.77888 83.714584,190.81261 83.814824,190.88007 C 83.915054,190.94754 83.990714,191.04271 84.041794,191.16559 C 84.092874,191.28848 84.118414,191.42316 84.118414,191.56966 C 84.118414,191.72676 84.090224,191.86819 84.033844,191.99397 C 83.977454,192.11974 83.895534,192.21612 83.788074,192.2831 C 83.680614,192.35009 83.567614,192.38358 83.449064,192.38358 C 83.362324,192.38358 83.284494,192.36527 83.215594,192.32864 C 83.146674,192.29202 83.090054,192.24576 83.045724,192.18986 L 83.045724,192.93727 L 82.785494,192.93727 z M 83.021144,191.5899 C 83.021144,191.78748 83.061144,191.93349 83.141134,192.02794 C 83.221124,192.12239 83.317984,192.16962 83.431714,192.16962 C 83.547374,192.16962 83.646404,192.1207 83.728804,192.02288 C 83.811204,191.92506 83.852404,191.7735 83.852404,191.56821 C 83.852404,191.37257 83.812164,191.22607 83.731694,191.12873 C 83.651214,191.03139 83.555084,190.98272 83.443284,190.98271 C 83.332444,190.98272 83.234384,191.03452 83.149084,191.13813 C 83.063794,191.24173 83.021144,191.39232 83.021144,191.5899 L 83.021144,191.5899 z M 84.430684,192.34888 L 84.430684,190.81357 L 84.664884,190.81357 L 84.664884,191.04633 C 84.724634,190.93742 84.779814,190.86562 84.830414,190.83092 C 84.881004,190.79622 84.936664,190.77888 84.997384,190.77887 C 85.085084,190.77888 85.174234,190.80683 85.264834,190.86272 L 85.175204,191.10415 C 85.111594,191.06657 85.047984,191.04777 84.984374,191.04777 C 84.927514,191.04777 84.876434,191.06488 84.831134,191.09909 C 84.785834,191.13331 84.753544,191.18077 84.734274,191.24149 C 84.705354,191.33402 84.690904,191.43521 84.690904,191.54508 L 84.690904,192.34888 L 84.430684,192.34888 z M 85.325554,191.58123 C 85.325554,191.29691 85.404584,191.08632 85.562644,190.94947 C 85.694684,190.83574 85.855634,190.77888 86.045504,190.77887 C 86.256574,190.77888 86.429084,190.84803 86.563054,190.98633 C 86.697014,191.12463 86.764004,191.3157 86.764004,191.55954 C 86.764004,191.75712 86.734364,191.91253 86.675094,192.02577 C 86.615824,192.13902 86.529564,192.22696 86.416314,192.28961 C 86.303074,192.35226 86.179464,192.38358 86.045504,192.38358 C 85.830574,192.38358 85.656854,192.31467 85.524334,192.17685 C 85.391814,192.03903 85.325554,191.84048 85.325554,191.58123 L 85.325554,191.58123 z M 85.593004,191.58123 C 85.593004,191.77784 85.635894,191.92506 85.721674,192.02288 C 85.807444,192.1207 85.915394,192.16962 86.045504,192.16962 C 86.174644,192.16962 86.282114,192.12046 86.367884,192.02216 C 86.453664,191.92385 86.496554,191.77398 86.496554,191.57255 C 86.496554,191.38269 86.453424,191.23884 86.367164,191.14102 C 86.280904,191.04319 86.173684,190.99428 86.045504,190.99428 C 85.915394,190.99428 85.807444,191.04295 85.721674,191.1403 C 85.635894,191.23764 85.593004,191.38461 85.593004,191.58123 L 85.593004,191.58123 z" id="text1070"/>
  <metadata>
    <rdf:RDF>
      <cc:Work>
        <dc:format>image/svg+xml</dc:format>
        <dc:type rdf:resource="http://purl.org/dc/dcmitype/StillImage"/>
        <cc:license rdf:resource="http://creativecommons.org/licenses/publicdomain/"/>
        <dc:publisher>
          <cc:Agent rdf:about="http://openclipart.org/">
            <dc:title>Open Clip Art Library</dc:title>
          </cc:Agent>
        </dc:publisher>
        <dc:title>Wine</dc:title>
        <dc:date>2009-05-01T02:12:59</dc:date>
        <dc:description>A full wine glass, with nice caustics by Andrew Fitzsimon. Etiquette Icon set. From 0.18 OCAL database.</dc:description>
        <dc:source>http://openclipart.org/detail/25608/wine-by-anonymous-25608</dc:source>
        <dc:creator>
          <cc:Agent>
            <dc:title>Anonymous</dc:title>
          </cc:Agent>
        </dc:creator>
        <dc:subject>
          <rdf:Bag>
            <rdf:li>clip art</rdf:li>
            <rdf:li>clipart</rdf:li>
            <rdf:li>drink</rdf:li>
            <rdf:li>drink</rdf:li>
            <rdf:li>glass</rdf:li>
            <rdf:li>glass</rdf:li>
            <rdf:li>image</rdf:li>
            <rdf:li>media</rdf:li>
            <rdf:li>png</rdf:li>
            <rdf:li>public domain</rdf:li>
            <rdf:li>red</rdf:li>
            <rdf:li>red</rdf:li>
            <rdf:li>svg</rdf:li>
            <rdf:li>wine</rdf:li>
            <rdf:li>wine</rdf:li>
          </rdf:Bag>
        </dc:subject>
      </cc:Work>
      <cc:License rdf:about="http://creativecommons.org/licenses/publicdomain/">
        <cc:permits rdf:resource="http://creativecommons.org/ns#Reproduction"/>
        <cc:permits rdf:resource="http://creativecommons.org/ns#Distribution"/>
        <cc:permits rdf:resource="http://creativecommons.org/ns#DerivativeWorks"/>
      </cc:License>
    </rdf:RDF>
  </metadata>
</svg>
