<?xml version="1.0" encoding="UTF-8" standalone="no"?>
<!-- Created with Inkscape (http://www.inkscape.org/) -->
<svg xmlns:dc="http://purl.org/dc/elements/1.1/" xmlns:cc="http://creativecommons.org/ns#" xmlns:rdf="http://www.w3.org/1999/02/22-rdf-syntax-ns#" xmlns:svg="http://www.w3.org/2000/svg" xmlns="http://www.w3.org/2000/svg" xmlns:sodipodi="http://sodipodi.sourceforge.net/DTD/sodipodi-0.dtd" xmlns:inkscape="http://www.inkscape.org/namespaces/inkscape" width="72.27932" height="147.93489" id="svg5793" sodipodi:version="0.32" inkscape:version="0.46" version="1.0" sodipodi:docname="red wine glass.svg" inkscape:output_extension="org.inkscape.output.svg.inkscape" inkscape:export-filename="Z:\Art\red wine glass.png" inkscape:export-xdpi="90" inkscape:export-ydpi="90">
  <defs id="defs5795">
    <inkscape:perspective sodipodi:type="inkscape:persp3d" inkscape:vp_x="0 : 526.18109 : 1" inkscape:vp_y="0 : 1000 : 0" inkscape:vp_z="744.09448 : 526.18109 : 1" inkscape:persp3d-origin="372.04724 : 350.78739 : 1" id="perspective5801"/>
  </defs>
  <sodipodi:namedview id="base" pagecolor="#ffffff" bordercolor="#666666" borderopacity="1.0" gridtolerance="10000" guidetolerance="10" objecttolerance="10" inkscape:pageopacity="0.0" inkscape:pageshadow="2" inkscape:zoom="2.9985686" inkscape:cx="40.566483" inkscape:cy="20.534894" inkscape:document-units="px" inkscape:current-layer="layer1" showgrid="false" inkscape:window-width="731" inkscape:window-height="682" inkscape:window-x="54" inkscape:window-y="38"/>
  <g inkscape:label="Layer 1" inkscape:groupmode="layer" id="layer1" transform="translate(-329.27732,-588.70941)">
    <g id="g6426" transform="matrix(2.7415218,0,0,2.2040171,-573.75495,-708.57362)">
      <path transform="matrix(9.9897228e-2,0,0,0.1029807,319.23829,548.47056)" sodipodi:open="true" sodipodi:end="3.1333724" sodipodi:start="0.00029734759" d="M 362.85714,409.59339 A 130,297.14285 0 0 1 102.86154,411.9476" sodipodi:ry="297.14285" sodipodi:rx="130" sodipodi:cy="409.50504" sodipodi:cx="232.85715" id="path5821" style="fill:#e7f8f8;fill-opacity:1;stroke:#000000;stroke-width:0.99921262;stroke-miterlimit:4;stroke-dasharray:none;stroke-opacity:0" sodipodi:type="arc"/>
      <rect y="621.19641" x="340.31552" height="30.328396" width="4.0617557" id="rect6332" style="fill:#e7f8f8;fill-opacity:1;stroke:#000000;stroke-width:0.10134741;stroke-miterlimit:4;stroke-dasharray:none;stroke-opacity:0"/>
      <path transform="matrix(9.4872246e-2,0,0,-9.3322169e-2,312.95605,607.93374)" sodipodi:open="true" sodipodi:end="3.1333724" sodipodi:start="0.00029734759" d="M 450.68344,147.12465 A 138.3132,48.953545 0 0 1 174.06171,147.5125" sodipodi:ry="48.953545" sodipodi:rx="138.3132" sodipodi:cy="147.11009" sodipodi:cx="312.37024" id="path6338" style="fill:#e7f8f8;fill-opacity:1;stroke:#000000;stroke-width:0.99921262;stroke-miterlimit:4;stroke-dasharray:none;stroke-opacity:0" sodipodi:type="arc"/>
      <path id="path6340" d="M 330.09506,590.52573 C 330.31808,590.71951 330.54111,590.91329 330.76414,591.10707 C 331.07739,591.37924 331.23593,591.50821 331.5938,591.74377 C 332.08129,592.06464 332.47211,592.31242 333.01226,592.4912 C 333.58778,592.68169 334.11762,592.91565 334.64483,593.15559 C 335.11815,593.371 335.57929,593.49381 336.06328,593.57082 C 336.45383,593.63297 336.88851,593.59851 337.2944,593.59851 C 338.10892,593.59851 338.93148,593.65387 339.75663,593.65387 C 340.31866,593.65387 340.88069,593.65387 341.44272,593.65387 C 341.82481,593.65387 342.17549,593.61433 342.54002,593.57082 C 342.98158,593.51813 343.43262,593.53318 343.87818,593.51546 C 344.3217,593.49781 344.77222,593.45155 345.21635,593.43241 C 345.79513,593.40747 346.32884,593.25395 346.87568,593.15559 C 347.31164,593.07716 347.72568,592.99234 348.13356,592.87876 C 348.41535,592.80029 348.60411,592.62777 348.85617,592.4912 C 349.1768,592.31748 349.51334,592.24514 349.84641,592.15901 C 350.24426,592.05613 350.74582,592.13133 351.15782,592.13133 C 351.5117,592.13133 351.6502,592.01693 351.96072,591.90986 C 352.31605,591.78735 352.56728,591.64406 352.87067,591.49462 C 353.18083,591.34186 353.44502,591.19371 353.78063,591.0517 C 354.09209,590.91991 354.27568,590.81463 354.50324,590.69183 C 354.8767,590.49029 354.72069,590.85427 354.98498,591.0517 C 355.40031,591.36197 354.1519,592.40529 354.0215,592.51888 C 353.37197,593.08464 352.55561,593.42031 351.77337,593.73692 C 351.0425,594.03274 350.34266,594.23621 349.57878,594.37362 C 348.51792,594.56445 347.4224,594.53243 346.34041,594.5674 C 344.98763,594.61113 343.62607,594.5674 342.27238,594.5674 C 341.12896,594.5674 339.98851,594.59508 338.84667,594.59508 C 337.76695,594.59508 336.68515,594.60453 335.60831,594.5674 C 334.87995,594.54229 334.1891,594.36159 333.494,594.20753 C 332.86969,594.06915 332.39197,593.87277 331.83467,593.57082 C 331.51599,593.39816 331.27282,592.96199 331.0853,592.76803 C 330.81586,592.48934 330.62529,592.21593 330.44298,591.8545 C 330.24771,591.46738 330.23124,590.96592 330.09506,590.52573 z" style="fill:#feffff;fill-opacity:0.72862453;fill-rule:evenodd;stroke:#000000;stroke-width:0.10142727px;stroke-linecap:butt;stroke-linejoin:miter;stroke-opacity:0"/>
      <path sodipodi:nodetypes="csssssssssssssssssssssssssssssssssssssssssssssssssssc" id="path6342" d="M 330.3956,596.22527 C 330.45262,596.35305 330.50963,596.48083 330.56665,596.6086 C 330.85012,597.24389 331.18285,598.01489 331.33636,598.67271 C 331.43519,599.0962 331.68888,599.51361 331.821,599.94066 C 331.96672,600.41168 331.26823,600.72878 331.36487,601.20861 C 331.44478,601.60534 331.21474,602.22787 332.04906,602.71246 C 332.57312,603.01685 331.98495,604.09747 331.96354,604.7176 C 331.94247,605.3279 332.00547,605.77654 332.1916,606.35414 C 332.39881,606.99711 332.66095,607.70111 332.96132,608.3003 C 333.17368,608.72392 333.34425,609.16618 333.54573,609.58299 C 333.75044,610.00647 333.97848,610.43266 334.20142,610.8362 C 334.44953,611.28531 334.70273,611.76795 334.95688,612.19261 C 335.14737,612.5109 335.33163,612.83555 335.48428,613.16569 C 335.65538,613.53574 335.7787,613.92221 335.95466,614.28621 C 336.15161,614.69364 336.35909,615.11009 336.56758,615.49519 C 336.78128,615.88991 336.95711,616.24636 337.19476,616.63045 C 337.46462,617.06659 337.82313,617.36098 338.24956,617.61827 C 338.49768,617.76798 338.74168,617.86877 338.99076,617.98686 C 339.34882,618.15661 339.68414,618.3647 340.04556,618.51763 C 340.40399,618.66929 340.96962,618.76764 341.37118,618.87148 C 341.68106,618.95161 342.08717,618.90096 342.41173,618.90096 C 342.59943,618.90096 343.08408,618.59892 343.29548,618.53237 C 343.6163,618.43138 343.24876,619.65827 343.55205,619.54968 C 343.91881,619.41837 344.73463,617.74406 345.43358,618.62084 C 345.72217,618.98285 346.47682,618.72264 346.98726,618.45866 C 347.41779,618.236 347.75603,618.03052 348.07057,617.64776 C 348.39695,617.25058 348.67636,616.93025 348.85454,616.43878 C 348.99216,616.05918 349.13696,615.66287 349.31067,615.30352 C 349.48599,614.94083 349.54295,614.39106 349.66702,614.00608 C 349.84855,613.44278 350.07156,612.89361 350.33696,612.36954 C 350.62732,611.79617 350.8804,611.1969 351.14943,610.61505 C 351.3877,610.09974 351.52558,609.48061 351.63407,608.91953 C 351.73066,608.41999 351.79736,607.92078 351.84788,607.41568 C 351.88749,607.01962 351.95451,606.62065 352.04744,606.23619 C 352.15454,605.79307 352.26926,605.37093 352.40379,604.9535 C 352.56162,604.46374 352.63932,603.94861 352.77439,603.44965 C 352.92003,602.91164 353.04912,602.3706 353.1735,601.8131 C 353.30462,601.22541 353.36173,600.6419 353.44433,600.04387 C 353.48677,599.73661 353.61039,599.4248 353.67239,599.12976 C 353.77341,598.6491 353.78445,598.12938 353.81493,597.64066 C 353.84168,597.21191 353.8752,596.79486 353.94322,596.3727 C 353.99776,596.03421 354.00092,596.41747 353.82919,596.28425 C 353.75946,596.23015 352.76169,597.03026 352.66036,597.09515 C 352.1397,597.42853 351.79606,597.94114 351.23496,598.24515 C 350.54957,598.61649 349.32492,598.1844 348.56946,598.21566 C 347.56783,598.2571 346.39601,598.76612 345.36231,598.92335 C 343.99831,599.13083 342.63827,599.38604 341.27141,599.57207 C 339.93041,599.75458 338.56001,599.84059 337.20901,599.88169 C 336.17882,599.91303 335.14655,599.89643 334.11589,599.89643 C 333.57842,599.89643 333.06656,599.92733 332.54795,599.79323 C 332.1601,599.69293 331.97161,599.44421 331.73547,599.15925 C 331.72164,599.14255 331.71647,599.11993 331.70697,599.10028 C 331.66594,599.01541 331.48229,598.83883 331.4789,598.83489" style="fill:#5d0c00;fill-opacity:1;fill-rule:evenodd;stroke:#000000;stroke-width:0.10142727px;stroke-linecap:butt;stroke-linejoin:miter;stroke-opacity:0"/>
      <path id="path6344" d="M 331.6357,600.13233 C 331.52437,601.04497 331.78922,601.84037 332.03481,602.69772 C 332.24129,603.41851 332.49855,604.15453 332.76176,604.85029 C 332.94059,605.32298 333.11043,605.74552 333.14662,606.25093 C 333.17191,606.60399 333.16084,606.95832 333.20364,607.29773 C 333.2654,607.78747 333.34432,608.26837 333.46021,608.72786 C 333.55624,609.10863 333.64312,609.47311 333.80231,609.81889 C 333.91658,610.0671 334.05075,610.29015 334.18717,610.4971 C 334.40478,610.82723 334.61283,611.10399 334.81434,611.44069 C 334.98961,611.73353 335.11052,612.07878 335.29898,612.39903 C 335.55987,612.84236 335.70572,613.35272 335.89764,613.82916 C 336.04124,614.18562 336.18692,614.47082 336.36803,614.80224 C 336.50941,615.06097 336.65655,615.28064 336.8099,615.52467 C 336.9528,615.75207 337.07419,615.97569 337.18051,616.21762 C 337.33134,616.56087 337.67952,616.79282 337.87895,617.11699 C 338.05075,617.39623 338.24081,617.54991 338.50613,617.70673 C 338.76354,617.85887 338.97743,617.92444 339.27585,618.0016 C 339.46814,618.05133 339.69223,618.14908 339.88877,618.19327 C 340.20587,618.26457 340.50633,618.34302 340.78677,618.44391 C 341.11634,618.56248 341.60962,618.4734 341.9556,618.4734 C 342.26084,618.4734 342.5189,618.46259 342.81084,618.39968 C 343.0718,618.34345 343.34785,618.34364 343.60906,618.31122 C 343.94497,618.26953 344.14985,618.17508 344.4358,617.98686 C 344.88553,617.69084 344.45774,616.792 344.29326,616.5125 C 343.91045,615.86199 343.2169,615.41209 342.79658,614.77275 C 342.42629,614.20949 341.81752,613.87103 341.29992,613.47531 C 340.74605,613.05187 340.17526,612.6785 339.6322,612.25159 C 339.11184,611.84254 338.74044,611.31413 338.2068,610.95415 C 337.67015,610.59214 337.39492,610.08552 337.10924,609.49453 C 336.79219,608.83865 336.20969,608.31752 335.84063,607.66632 C 335.53151,607.1209 335.24586,606.66051 335.0139,606.07401 C 334.78695,605.50019 334.4495,605.0043 334.07313,604.51119 C 333.74154,604.07674 333.47409,603.64702 333.08961,603.27272 C 332.80833,602.9989 332.64487,602.71034 332.46243,602.37336 C 332.3378,602.14317 332.25568,601.87441 332.13459,601.66567 C 332.02233,601.47214 331.97358,601.27964 331.92078,601.06118 C 331.82641,600.67074 331.98039,600.95842 332.09182,600.76631" style="fill:#0f0100;fill-opacity:0.79182153;fill-rule:evenodd;stroke:#000000;stroke-width:0.10142727px;stroke-linecap:butt;stroke-linejoin:miter;stroke-opacity:0"/>
      <path id="path6346" d="M 333.16087,601.14964 C 333.235,601.83036 333.12436,602.60944 333.14662,603.34644 C 333.16865,604.07565 333.65777,604.82048 333.93059,605.46952 C 334.15496,606.00331 334.6328,606.42498 335.02815,606.81119 C 335.56982,607.34034 335.67449,608.05371 335.82638,608.78684 C 335.96112,609.43723 336.08991,610.07127 336.31101,610.68877 C 336.51718,611.26454 337.00901,611.83324 337.36581,612.32531 C 337.70889,612.79847 337.99013,613.33612 338.36359,613.79967 C 338.71902,614.24084 339.22593,614.6597 339.68921,614.97916 C 340.0257,615.21119 340.39038,615.29637 340.75826,615.52467 C 341.08938,615.73017 341.22009,615.90211 341.58499,615.99647 C 341.92843,616.08528 342.30132,616.12987 342.65405,616.14391 C 342.97982,616.15687 343.18022,616.35863 343.43802,616.49775 C 343.79621,616.69106 343.83821,616.76418 344.23624,616.67468 C 344.59904,616.5931 344.57048,616.46317 344.66386,616.1734 C 344.75742,615.88307 344.68805,615.38021 344.67811,615.08237 C 344.65856,614.4958 343.78069,613.76593 343.43802,613.37211 C 342.91829,612.7748 342.38805,612.18732 341.78455,611.67659 C 341.23753,611.21365 340.75589,610.68975 340.20235,610.23171 C 339.59016,609.72513 339.0997,609.13367 338.56315,608.55094 C 338.08211,608.0285 337.73027,607.47829 337.16625,607.04709 C 336.62505,606.63333 336.19372,606.16608 335.81212,605.60222 C 335.53264,605.18925 335.37389,604.78262 335.24196,604.33426 C 335.09813,603.84543 334.88046,603.61798 334.51501,603.25798 C 334.25051,602.99742 334.10011,602.72267 333.94485,602.3881 C 333.81584,602.11011 333.72049,601.86524 333.64551,601.5772 C 333.62511,601.49884 333.6351,601.37266 333.63126,601.29708" style="fill:#3e0300;fill-opacity:0.63940519;fill-rule:evenodd;stroke:#000000;stroke-width:0.10142727px;stroke-linecap:butt;stroke-linejoin:miter;stroke-opacity:0"/>
      <path id="path6348" d="M 351.67683,599.11502 C 351.63882,599.13468 351.63882,599.13468 351.67683,599.11502 C 351.90615,598.99643 350.38501,599.80924 349.29641,600.5599 C 348.48471,601.11962 348.57451,602.24773 348.08482,602.99259 C 347.70543,603.56969 346.40221,604.22407 345.80418,604.58491 C 345.07158,605.02694 344.46531,605.62925 343.9084,606.28042 C 343.12787,607.19307 343.64078,608.36755 344.00817,609.31761 C 344.30996,610.09799 344.65227,610.82389 344.93469,611.60287 C 345.16284,612.23217 345.73289,612.72042 346.18904,613.12146 C 346.44059,613.34263 346.37434,613.78114 346.37434,614.0798 C 346.37434,614.64512 346.6603,614.47178 347.03003,614.27146 C 347.8883,613.80645 348.13308,613.71975 348.3699,612.63492 C 348.50577,612.01255 348.62724,611.34066 348.96857,610.82146 C 349.37162,610.20838 349.27404,609.12959 349.46746,608.41825 C 349.70275,607.55294 349.71183,607.50594 350.36546,606.95863 C 350.99258,606.43353 351.35958,605.42288 351.69109,604.68811 C 351.9545,604.10426 352.04914,603.48218 352.0902,602.84516 C 352.11445,602.46888 352.09212,602.10977 352.14722,601.73938 C 352.19585,601.41238 352.2376,601.09702 352.30401,600.78105 C 352.36997,600.46722 352.32344,600.1163 352.37528,599.80797 C 352.44202,599.41101 351.93239,599.33706 351.67683,599.11502 z" style="fill:#ff7d76;fill-opacity:0.63940519;fill-rule:evenodd;stroke:#000000;stroke-width:0.10142727px;stroke-linecap:butt;stroke-linejoin:miter;stroke-opacity:0.00743492"/>
      <path id="path6350" d="M 351.80512,598.64323 C 351.41515,599.2857 350.61503,599.29072 349.92359,599.49835 C 349.24288,599.70277 348.59479,599.90879 347.89952,600.05861 C 347.41536,600.16295 346.94917,600.31046 346.48837,600.44195 C 345.92472,600.60278 345.392,600.59047 344.84916,600.84002 C 344.47535,601.01187 344.31885,601.02487 343.9084,600.94323 C 343.62272,600.88641 343.35412,600.57182 343.12443,600.4272 C 343.01095,600.35576 342.65665,600.38215 342.54001,600.36823 C 342.30149,600.33976 342.14752,600.08761 342.02687,599.97015 C 341.85447,599.80232 341.57866,600.11552 341.49947,600.16182 C 341.25813,600.30291 341.48032,601.03074 341.54223,601.20861 C 341.74346,601.78677 342.3835,602.37651 342.86786,602.72721 C 343.39612,603.1097 344.10263,603.29205 344.70662,603.46439 C 345.22976,603.61366 345.64407,603.18422 346.16053,603.11054 C 346.71594,603.0313 347.25811,603.14372 347.79974,603.21375 C 348.24121,603.27083 348.36905,603.10183 348.76901,603.31695 C 349.08402,603.48638 348.7618,603.62371 349.26791,603.46439 C 349.63576,603.34859 350.09543,602.59944 350.33696,602.29964 C 350.62338,601.94413 350.82913,601.61724 351.0354,601.22336 C 351.12948,601.04371 351.33242,600.80401 351.44877,600.61887 C 351.64946,600.2995 351.84675,599.96089 352.01893,599.64579 C 352.34168,599.05515 351.29682,598.55796 352.33252,598.73169" style="fill:#ff7d76;fill-opacity:0.63940519;fill-rule:evenodd;stroke:#000000;stroke-width:0.10142727px;stroke-linecap:butt;stroke-linejoin:miter;stroke-opacity:0"/>
      <path id="path6352" d="M 352.34677,597.12463 C 352.68809,597.60146 352.45281,598.33994 352.33252,599.01182 C 352.21673,599.65853 352.06078,600.25735 351.97617,600.91374 C 351.87679,601.68469 351.82035,602.45971 351.69109,603.22849 C 351.55334,604.04772 351.35977,604.80207 351.13518,605.60222 C 350.92503,606.35094 350.42172,607.0439 350.06613,607.71056 C 349.66009,608.47178 349.41102,609.35964 349.02559,610.12851 C 348.78066,610.61709 348.46428,611.01836 348.24162,611.51441 C 348.05678,611.92618 347.95613,612.31827 347.82825,612.75287 C 347.71203,613.14788 347.69467,613.52113 347.61444,613.90287 C 347.52787,614.31478 347.50539,614.67991 347.40063,615.08237 C 347.28644,615.52109 347.18609,615.91676 346.97301,616.32083 C 346.81757,616.6156 346.67329,616.8478 346.51688,617.14648 C 346.41227,617.34623 346.44804,617.58564 346.43136,617.80994 C 346.41928,617.97242 346.78305,617.94714 346.90174,617.95737 C 347.13821,617.97775 347.2714,617.77049 347.41488,617.60353 C 347.54788,617.44877 347.69395,617.21292 347.84251,617.02852 C 348.03023,616.79552 348.11521,616.34475 348.24162,616.07019 C 348.37827,615.77336 348.55245,615.51078 348.68349,615.21506 C 348.81342,614.92184 348.96558,614.68156 349.12536,614.43365 C 349.27284,614.20483 349.55808,613.96717 349.75254,613.75544 C 350.03295,613.45013 350.26327,612.95274 350.43673,612.57595 C 350.60627,612.2077 350.75566,611.90238 350.90711,611.57338 C 351.00745,611.35545 350.99875,611.13582 351.07817,610.90992 C 351.15689,610.68599 351.17958,610.44861 351.20645,610.21697 C 351.24217,609.90908 351.28717,609.65409 351.36324,609.36184 C 351.46267,608.97986 351.53125,608.59188 351.57705,608.19709 C 351.61481,607.87161 351.71276,607.50423 351.76236,607.20927 C 351.82023,606.86507 351.88173,606.53936 351.93341,606.19196 C 351.98894,605.81856 352.16553,605.40683 352.30401,605.0567 C 352.44197,604.70788 352.56547,604.35448 352.73163,604.03939 C 352.88498,603.74859 352.96425,603.37915 353.08798,603.06631 C 353.21158,602.75379 353.29256,602.45351 353.38731,602.12272 C 353.4557,601.88397 353.54542,601.62878 353.61538,601.42977 C 353.72872,601.10737 353.76058,600.81894 353.78642,600.47143 C 353.81403,600.10022 353.85917,599.7358 353.90046,599.36566 C 353.94345,598.98031 353.91455,598.57395 353.92897,598.18617 C 353.9416,597.84645 354.0022,597.51214 354.01449,597.16886 C 354.02412,596.89988 354.06646,596.63876 354.10001,596.3727 C 354.14242,596.03638 354.05987,596.12207 353.68665,596.12207 C 353.22639,596.12207 353.01802,596.80105 352.83141,597.10989 C 352.67666,597.36599 352.297,597.28481 352.34677,597.12463 z" style="fill:#110000;fill-opacity:0.63940519;fill-rule:evenodd;stroke:#000000;stroke-width:0.10142727px;stroke-linecap:butt;stroke-linejoin:miter;stroke-opacity:0"/>
      <path id="path6354" d="M 331.13681,598.52527 C 331.41413,598.15081 331.63482,597.8064 331.92078,597.49322 C 332.1307,597.26332 332.67549,597.11506 332.94707,597.02143 C 333.35262,596.8816 333.71203,596.67741 334.07313,596.49066 C 334.531,596.25386 335.16742,596.34917 335.66958,596.28425 C 336.65,596.15748 337.64683,596.09258 338.63441,596.09258 C 339.50391,596.09258 340.3734,596.09258 341.2429,596.09258 C 341.80831,596.09258 342.37372,596.09258 342.93912,596.09258 C 343.29072,596.09258 343.64232,596.09258 343.99392,596.09258 C 344.37403,596.09258 344.75414,596.09258 345.13424,596.09258 C 345.65692,596.09258 346.18134,596.09779 346.70218,596.07783 C 347.07629,596.0635 347.45378,596.07783 347.82825,596.07783 C 348.303,596.07783 348.78615,596.0336 349.26791,596.0336 C 349.66702,596.0336 350.06613,596.0336 350.46524,596.0336 C 350.72371,596.0336 350.98476,596.03799 351.23496,596.04835 C 351.44793,596.05716 351.65786,596.07783 351.89064,596.07783 C 352.18579,596.07783 352.42025,596.02688 352.71738,596.00411 C 352.99618,595.98275 353.16431,596.14906 353.38731,596.29899 C 353.65198,596.47693 353.42811,597.11481 353.35881,597.34578 C 353.21391,597.8287 352.81046,598.29381 352.57483,598.74643 C 352.37399,599.13224 351.96042,599.45567 351.66258,599.76374 C 351.37642,600.05973 351.10489,600.351 350.75032,600.58938 C 350.16683,600.98168 349.52523,601.26972 348.86879,601.48874 C 347.97832,601.78586 347.05362,602.00807 346.13202,602.16695 C 345.09258,602.34614 344.07821,602.63522 343.02465,602.77144 C 341.78845,602.93127 340.52038,603.03683 339.27585,603.03683 C 338.13373,603.03683 337.01333,603.17574 335.86914,603.08106 C 335.21822,603.02719 334.52667,602.65 333.91634,602.44708 C 333.45642,602.29417 333.10665,601.9152 332.69049,601.68041 C 332.33939,601.48232 332.09568,601.20137 331.84951,600.899 C 331.65118,600.6554 331.48394,600.33911 331.42189,600.04387 C 331.33484,599.62971 331.2737,599.48027 331.33636,599.02656 C 331.36106,598.84775 331.20333,598.69237 331.13681,598.52527 z" style="fill:#090000;fill-opacity:1;fill-rule:evenodd;stroke:#000000;stroke-width:0.10142727px;stroke-linecap:butt;stroke-linejoin:miter;stroke-opacity:0"/>
      <path id="path6356" d="M 331.94928,600.07336 C 332.01581,600.1913 332.08232,600.30925 332.14884,600.4272 C 332.28374,600.66641 333.00863,600.85332 333.2464,600.98746 C 333.50183,601.13157 333.81248,601.16385 334.08739,601.28233 C 334.38669,601.41132 334.65818,601.50189 334.92837,601.60669 C 335.22462,601.7216 335.3365,601.84991 335.64107,601.9458 C 335.8695,602.01771 336.1357,602.0807 336.33952,602.13746 C 336.62536,602.21706 336.92136,602.21506 337.20901,602.27016 C 337.53078,602.33179 337.85572,602.33629 338.17829,602.37336 C 338.48017,602.40805 338.76089,602.43484 339.04778,602.50606 C 339.25897,602.55848 339.44208,602.58782 339.6607,602.624 C 339.915,602.66609 340.11381,602.71999 340.35915,602.78618 C 340.58865,602.84811 340.78029,602.97615 340.97207,603.06631 C 341.38184,603.25897 340.86884,603.49352 340.7155,603.58234 C 340.21659,603.87133 339.25688,603.81824 338.69143,603.81824 C 337.99099,603.81824 337.31691,603.93619 336.6246,603.93619 C 336.0697,603.93619 335.58547,603.81749 335.05666,603.70029 C 334.63654,603.60717 334.23897,603.50709 333.85932,603.34644 C 333.58281,603.22943 333.36996,603.07518 333.11811,602.91887 C 332.80693,602.72575 332.65817,602.28776 332.46243,601.99003 C 332.2738,601.7031 332.25806,601.04339 332.1631,600.69259 C 332.02059,600.16615 331.83557,600.12326 332.41967,599.86694" style="fill:#6c0000;fill-opacity:1;fill-rule:evenodd;stroke:#000000;stroke-width:0.10142727px;stroke-linecap:butt;stroke-linejoin:miter;stroke-opacity:0"/>
      <path id="path6358" d="M 338.00724,597.00668 C 338.12602,597.00668 338.24481,597.00668 338.36359,597.00668 C 338.83161,597.00668 339.35951,596.7876 339.8175,596.68232 C 340.3024,596.57087 340.87433,596.66593 341.35693,596.57912 C 341.86764,596.48725 342.40769,596.5054 342.92487,596.5054 C 343.61345,596.5054 344.27492,596.56437 344.96319,596.56437 C 345.61288,596.56437 346.31713,596.74911 346.93025,596.91822 C 347.41888,597.053 347.9312,597.12682 348.41266,597.27207 C 348.8182,597.39441 349.21461,597.45737 349.63851,597.50796 C 350.03398,597.55516 350.41805,597.57945 350.80734,597.62591 C 351.05956,597.65601 351.29526,597.75609 351.52004,597.84707 C 351.7664,597.94678 352.08235,598.14581 352.24699,598.24515 C 352.48524,598.3889 352.48465,598.17033 352.57483,598.14194 C 352.64098,598.12112 351.77421,597.27892 351.67683,597.19835 C 351.15432,596.76598 350.63719,596.59354 350.02337,596.3727 C 349.53147,596.19574 348.97438,596.19578 348.45543,596.19578 C 347.84726,596.19578 347.23908,596.19578 346.63091,596.19578 C 346.05005,596.19578 345.47287,596.21053 344.89193,596.21053 C 344.43105,596.21053 343.97017,596.21053 343.50929,596.21053 C 343.10542,596.21053 342.70156,596.21053 342.2977,596.21053 C 341.89482,596.21053 341.49672,596.22059 341.10036,596.25476 C 340.75948,596.28414 340.41616,596.31701 340.07407,596.34322 C 339.81272,596.36324 339.52363,596.48133 339.33286,596.54963 C 339.22654,596.5877 339.1835,596.72472 339.11905,596.80027 C 338.96942,596.97567 339.12039,596.80194 339.19032,596.88873" style="fill:#830000;fill-opacity:0.72490695;fill-rule:evenodd;stroke:#000000;stroke-width:0.10142727px;stroke-linecap:butt;stroke-linejoin:miter;stroke-opacity:0"/>
      <path id="path6360" d="M 341.14312,605.36632 C 341.70604,606.24821 341.52798,607.54108 341.52798,608.58043 C 341.52798,609.37283 341.71478,610.27868 342.08388,610.95415 C 342.4528,611.62928 342.9443,612.28267 343.381,612.91506 C 343.76947,613.47759 344.08443,614.00271 344.66386,614.34518 C 344.98547,614.53528 345.74056,614.3123 346.0465,614.24198 C 346.46714,614.14529 346.8563,612.96759 346.97301,612.60544 C 347.15049,612.05469 346.95621,611.25941 347.03003,610.67402 C 347.11478,610.00189 347.55742,609.4906 347.55742,608.69838 C 347.55742,608.04244 347.5193,607.34477 347.72847,606.72273 C 347.85334,606.35139 347.99718,606.03307 348.19885,605.72016 C 348.4567,605.32011 348.7034,605.23572 348.74051,604.7176 C 348.7712,604.28895 348.20885,603.75438 347.95654,603.46439 C 347.76893,603.24877 347.62676,603.08935 347.50041,602.87465 C 347.31306,602.55629 346.71655,602.56873 346.4171,602.53554 C 345.81234,602.46852 345.32275,602.57096 344.72088,602.66824 C 344.10599,602.76761 343.49258,602.91379 342.88211,603.00734 C 342.61035,603.04898 342.33323,603.12809 342.11239,603.21375 C 341.86748,603.30875 341.62317,603.42253 341.39969,603.53811 C 340.96324,603.76383 341.87008,604.46487 341.87008,604.96824 C 341.87008,605.39333 341.75642,605.61455 341.88433,606.04452" style="fill:#830000;fill-opacity:0.56505588;fill-rule:evenodd;stroke:#000000;stroke-width:0.10142727px;stroke-linecap:butt;stroke-linejoin:miter;stroke-opacity:0.00371746"/>
      <path id="path6362" d="M 337.47984,616.63091 C 337.54636,616.75869 337.61288,616.88646 337.6794,617.01424 C 338.00053,617.63112 338.49511,618.14678 338.87673,618.69501 C 339.10964,619.0296 339.40787,619.31831 339.67496,619.60912 C 339.90811,619.86297 340.1096,620.00843 340.40191,620.13989 C 340.63515,620.24478 340.83961,620.27613 341.08611,620.33156 C 341.39601,620.40124 341.72055,620.41513 342.04112,620.46425 C 342.3615,620.51334 342.71309,620.47899 343.0389,620.47899 C 343.35648,620.47899 343.64775,620.46804 343.95116,620.40527 C 344.23466,620.34663 344.48343,620.21846 344.69237,620.1104 C 344.86454,620.02136 345.08318,619.90175 345.23402,619.84502 C 345.46444,619.75835 345.70433,619.56493 345.91821,619.43219 C 346.15649,619.28432 346.2649,619.13752 346.43136,618.93091 C 346.59358,618.72956 346.76124,618.60971 346.91599,618.42963 C 347.0572,618.26532 347.13529,618.04048 347.2866,617.85463 C 347.55961,617.5193 347.32502,617.44596 347.04428,617.38283 C 346.50407,617.26136 345.87442,617.67542 345.34805,617.76617 C 344.7026,617.87744 344.07694,617.97504 343.42376,618.00207 C 342.97362,618.02069 342.53729,618.06104 342.08388,618.06104 C 341.71611,618.06104 341.35541,617.89494 341.01483,617.75142 C 340.72394,617.62884 340.46531,617.51983 340.17385,617.42706 C 339.89993,617.33988 339.64283,617.39758 339.37563,617.44181 C 339.18942,617.47262 339.03731,617.51552 338.83397,617.51552 C 338.728,617.51552 338.6249,617.47621 338.52038,617.45655" style="fill:#2b0000;fill-opacity:0.87732346;fill-rule:evenodd;stroke:#000000;stroke-width:0.10142727px;stroke-linecap:butt;stroke-linejoin:miter;stroke-opacity:0.00743492"/>
      <path id="path6364" d="M 343.0623,621.38677 C 342.45677,621.38677 343.10909,622.63526 343.09081,623.2592 C 343.06485,624.14516 342.92724,625.14317 342.70595,626.00152 C 342.44796,627.00222 342.41697,628.14668 342.32109,629.1714 C 342.21268,630.33013 342.24982,631.57316 342.24982,632.73936 C 342.24982,634.02026 342.34162,635.24516 342.47789,636.51372 C 342.59415,637.59607 342.67451,638.6982 342.83424,639.77206 C 342.99152,640.82952 343.04805,641.98926 343.04805,643.05989 C 343.04805,643.97911 343.0623,644.89748 343.0623,645.81695 C 343.0623,646.55242 342.97962,647.2679 342.93402,647.99901 C 342.8987,648.56526 342.91976,649.14111 342.91976,649.70927 C 342.91976,650.0302 343.03091,650.05538 343.20484,650.22529 C 343.36415,650.38092 343.48637,650.34752 343.68948,650.37273 C 343.98182,650.40901 344.07538,649.36155 344.08859,649.25221 C 344.16823,648.59318 344.09971,647.89687 344.14561,647.23234 C 344.18962,646.59498 344.21583,645.94938 344.33091,645.33041 C 344.43961,644.74573 344.41076,644.09979 344.43068,643.5022 C 344.45604,642.74179 344.49984,641.99189 344.53046,641.23168 C 344.56349,640.41188 344.66074,639.59236 344.68726,638.7695 C 344.71386,637.94389 344.6912,637.11609 344.74427,636.29257 C 344.79309,635.53513 344.75532,634.75144 344.73002,633.99256 C 344.70757,633.31904 344.64449,632.64923 344.64449,631.97269 C 344.64449,631.34946 344.63024,630.72427 344.63024,630.10025 C 344.63024,629.47525 344.61599,628.85277 344.61599,628.22781 C 344.61599,627.64342 344.60173,627.07192 344.60173,626.48806 C 344.60173,625.88273 344.55048,625.25807 344.64449,624.67459 C 344.71398,624.24334 344.73025,623.81583 344.75853,623.37716 C 344.78486,622.96856 344.75853,622.54457 344.75853,622.13869 C 344.75853,621.90531 344.77764,621.67902 344.78704,621.44574 C 344.79602,621.22271 344.27101,621.14131 344.13135,621.10663 C 343.92933,621.05648 343.66174,621.1306 343.5897,621.13612" style="fill:#00151e;fill-opacity:0.27137547;fill-rule:evenodd;stroke:#000000;stroke-width:0.10142727px;stroke-linecap:butt;stroke-linejoin:miter;stroke-opacity:0.00371746"/>
      <path sodipodi:nodetypes="cssssssssssc" id="path6366" d="M 339.91939,647.11658 C 338.04255,647.32145 336.24218,648.02545 334.44585,648.59094 C 333.16334,648.99468 332.08627,650.07793 331.08191,650.89094 C 330.41985,651.42687 330.93132,652.1363 331.22445,652.6012 C 332.18639,654.12685 335.64275,654.22899 337.15411,654.42941 C 339.25622,654.70817 341.40042,654.62009 343.5114,654.81275 C 344.87297,654.93701 347.01951,654.4214 347.90596,654.18574 C 348.42415,654.04798 350.14043,653.58974 351.15477,653.16053 C 351.86265,652.861 351.84085,653.15117 352.09231,652.51274 C 352.41638,651.68999 352.30522,651.00852 351.86425,650.27171 C 351.09331,648.98356 350.00657,648.2912 348.69986,647.67683 C 347.54132,647.13214 346.38957,647.39582 345.16156,647.06315" style="fill:#e7f8f8;fill-opacity:0.60966546;fill-rule:evenodd;stroke:#000000;stroke-width:0.10142727px;stroke-linecap:butt;stroke-linejoin:miter;stroke-opacity:0.00371746"/>
      <path id="path6368" d="M 339.59767,650.21104 C 339.67154,650.52732 339.69209,650.80973 339.83336,651.08981 C 339.98441,651.38926 340.29668,651.68363 340.50755,651.94023 C 340.64831,652.11151 340.77249,652.28967 340.92961,652.42781 C 341.12104,652.59612 341.37076,652.59776 341.6038,652.66026 C 342.08595,652.78955 342.60294,652.70468 343.08373,652.63191 C 343.1566,652.62088 343.22989,652.61301 343.30297,652.60356 C 343.66506,652.55675 344.022,652.31974 344.36633,652.20103 C 344.62501,652.11184 344.85783,652.02494 345.06793,651.84385 C 345.23689,651.69821 345.33814,651.52025 345.42968,651.32226 C 345.52635,651.1132 345.46224,650.97666 345.29265,650.88571 C 345.04809,650.75454 344.4888,651.02358 344.2293,651.05579 C 343.88023,651.09912 343.51737,651.04445 343.16594,651.04445 C 342.74224,651.04445 342.2917,651.00088 341.88334,650.89137 C 341.54582,650.80087 341.20667,650.70066 340.86931,650.61924 C 340.66804,650.57066 340.49086,650.3979 340.34312,650.26206 C 340.25228,650.17854 340.18396,650.18269 340.05261,650.18269 C 339.90712,650.18269 339.91258,650.19553 339.82788,650.2734 C 339.81478,650.28545 339.82545,650.28096 339.8224,650.29041" style="fill:#0076a9;fill-opacity:0.39405206;fill-rule:evenodd;stroke:#000000;stroke-width:0.10142727px;stroke-linecap:butt;stroke-linejoin:miter;stroke-opacity:0.00743492"/>
      <path id="path6370" d="M 337.60251,648.7313 C 337.00337,648.98041 336.33957,648.97812 335.73342,649.1962 C 335.23777,649.37452 334.71271,649.75731 334.33571,650.13167 C 334.07841,650.38715 333.87964,650.67953 333.68892,650.98776 C 333.56708,651.18468 333.57382,651.39465 333.57382,651.62274 C 333.57382,651.95726 334.11061,652.22975 334.33571,652.37111 C 334.84087,652.68836 335.38406,652.89048 335.92526,653.11948 C 336.44662,653.3401 337.03299,653.3153 337.58607,653.32926 C 337.84486,653.33579 338.06595,653.38418 338.26026,653.25555 C 338.26708,653.25104 337.17514,652.7644 337.04891,652.72262 C 336.96251,652.69402 336.87716,652.66215 336.79129,652.63191 C 336.34578,652.47504 336.05574,652.25674 335.71149,651.94023 C 335.42037,651.67257 335.41674,651.36634 335.31684,651.01043 C 335.2471,650.76195 335.34902,650.41482 335.53609,650.26206 C 335.87971,649.98147 336.27839,649.82411 336.66522,649.63275 C 336.88896,649.52207 337.09011,649.40023 337.29556,649.25856 C 337.40233,649.18494 337.44833,649.10501 337.49837,648.99209 C 337.55706,648.85964 337.60251,648.92064 337.60251,648.7313 z" style="fill:#bfecff;fill-opacity:0.66542753;fill-rule:evenodd;stroke:#000000;stroke-width:0.10142727px;stroke-linecap:butt;stroke-linejoin:miter;stroke-opacity:0"/>
      <path id="path6372" d="M 345.8627,648.6576 C 345.96868,648.41843 347.20078,648.95168 347.33167,648.99777 C 347.80805,649.16551 348.18674,649.65913 348.18674,650.17135 C 348.18674,650.59127 347.86846,651.04716 347.50706,651.19186 C 347.13037,651.34268 346.71971,651.401 346.52045,651.79849 C 346.36362,652.11133 346.49753,652.27225 346.80547,652.30308 C 347.2647,652.34905 347.74178,652.31863 348.16481,652.13299 C 348.531,651.9723 348.79732,651.70043 349.1021,651.46399 C 349.28997,651.31825 349.49708,651.22279 349.60089,650.99909 C 349.73036,650.7201 349.65022,650.27806 349.65022,649.97859 C 349.65022,649.46731 349.35411,648.97396 349.08017,648.57255 C 348.85596,648.24401 348.33898,648.1186 347.98393,648.0056 C 347.65583,647.90118 347.26164,647.881 346.92058,647.90922 C 346.64203,647.93227 346.50639,647.95211 346.31764,648.14734 C 346.24021,648.22743 346.16125,648.32196 346.09291,648.3968" style="fill:#dff6ff;fill-opacity:0.66542753;fill-rule:evenodd;stroke:#000000;stroke-width:0.10142727px;stroke-linecap:butt;stroke-linejoin:miter;stroke-opacity:0"/>
      <path id="path6374" d="M 345.28884,649.07263 C 345.39305,649.09336 345.49726,649.11409 345.60147,649.13482 C 346.16945,649.2478 346.45786,649.56182 346.55138,650.14224 C 346.63567,650.66532 345.58966,650.9851 345.27682,651.22428 C 344.94382,651.47886 344.97621,651.70521 344.97621,652.08244 C 344.97621,652.38997 347.01091,653.17926 347.33295,653.27642 C 347.76174,653.40578 348.52893,653.05255 349.06444,653.05255 C 349.82258,653.05255 350.01436,653.02235 350.01436,652.23169 C 350.01436,651.85739 350.44838,651.96805 350.75986,651.78395 C 350.96164,651.66468 351.00706,651.30182 351.09653,651.0999 C 351.27739,650.69176 351.14384,650.53158 350.86807,650.16711 C 350.45142,649.61643 349.86127,649.29516 349.28088,648.91095 C 348.81452,648.60222 348.20538,648.57065 347.69368,648.43833 C 347.40062,648.36255 347.21508,647.94452 347.06842,647.71697 C 346.81408,647.32236 346.08449,647.48837 345.73373,647.56773 C 345.45721,647.63029 345.21952,647.79014 345.00026,647.90353 C 344.78094,648.01696 344.5856,647.71094 344.49524,647.61748 C 344.32767,647.44415 344.54126,648.11085 344.62751,648.33884 C 344.79924,648.79278 345.27564,649.02561 345.39706,649.45819" style="fill:#a8bbbd;fill-opacity:0.66542753;fill-rule:evenodd;stroke:#000000;stroke-width:0.10142727px;stroke-linecap:butt;stroke-linejoin:miter;stroke-opacity:0"/>
      <path id="path6376" d="M 351.20475,595.76469 C 351.22078,595.88077 351.23682,595.99686 351.25285,596.11294 C 351.34707,596.7951 351.23423,597.54751 351.14463,598.21483 C 351.03533,599.02887 350.93194,599.81334 350.68771,600.60278 C 350.44445,601.38909 350.001,602.16639 349.74982,602.97829 C 349.53031,603.68782 349.28215,604.38557 349.0404,605.08018 C 348.80546,605.7552 348.42504,606.35353 348.13858,606.99552 C 347.85962,607.6207 347.55249,608.18259 347.36903,608.83623 C 347.17099,609.5418 346.88101,610.36011 346.52733,611.00031 C 346.16131,611.66285 345.61182,611.99712 345.22872,612.60471 C 345.02787,612.92326 345.19265,613.77243 345.19265,614.13449 C 345.19265,614.65243 345.18471,615.17286 345.20467,615.68915 C 345.21792,616.03168 345.3241,616.01118 345.5654,616.08714 C 346.02346,616.23134 346.29062,615.26099 346.43114,614.99266 C 346.84026,614.21142 347.08227,613.31996 347.38105,612.50521 C 347.67617,611.70045 348.04345,610.91104 348.41514,610.14214 C 348.8361,609.27129 349.3323,608.41158 349.77387,607.55519 C 350.26816,606.59656 350.60555,605.64643 350.90415,604.60757 C 351.15844,603.72284 351.29541,602.77085 351.40916,601.85894 C 351.48965,601.21379 351.5189,600.59256 351.61358,599.95604 C 351.67593,599.53682 351.68499,599.12146 351.74584,598.71232 C 351.80874,598.28943 351.7323,597.74994 351.63762,597.34422 C 351.57102,597.05881 351.56307,596.75336 351.54143,596.47362 C 351.52744,596.29269 351.52941,596.10948 351.52941,595.92638 C 351.52941,595.58972 351.59654,595.84826 351.72179,595.70251" style="fill:#a8bbbd;fill-opacity:0.5018587;fill-rule:evenodd;stroke:#000000;stroke-width:0.10142727px;stroke-linecap:butt;stroke-linejoin:miter;stroke-opacity:0"/>
      <path id="path6386" d="M 353.04381,595.32903 C 352.44519,595.59121 351.76058,595.78912 351.15601,596.11257 C 350.88347,596.25838 350.74135,596.38927 350.61492,596.53544 C 350.59752,596.55555 351.49578,596.74483 351.96163,597.2568 C 352.06463,597.36999 350.85371,598.13093 350.69909,598.26421 C 350.26503,598.63835 350.1786,599.19993 350.36241,599.70693 C 350.55473,600.2374 350.80456,600.61098 350.9035,601.1994 C 351.01615,601.86936 350.83969,602.24795 350.38646,602.71674 C 349.81854,603.30417 350.39304,603.68542 350.9516,603.94803 C 351.61546,604.26015 350.75658,604.98914 350.48265,605.35344 C 349.98538,606.01475 349.37765,606.6332 348.81129,607.21902 C 348.3315,607.71529 348.38874,607.86658 348.93153,608.32594 C 349.19659,608.55025 348.58531,608.84204 348.47461,609.00998 C 348.46083,609.03089 349.86682,608.46145 350.1099,608.27619 C 350.55208,607.93918 350.5341,607.785 350.37444,607.30609 C 350.28407,607.03502 350.90669,606.75899 351.05981,606.5101 C 351.45653,605.86527 351.51655,605.14734 351.84139,604.52014 C 352.00732,604.19977 352.33083,604.05611 352.50272,603.68685 C 352.75511,603.14465 352.37821,603.05255 351.98568,603.05255 C 351.52894,603.05255 352.13301,602.25257 352.25021,601.85857 C 352.38514,601.40498 352.50518,601.00955 352.53879,600.54023 C 352.54858,600.40352 352.12019,599.96309 352.0939,599.68206 C 352.08338,599.56962 353.01931,598.69379 353.12798,598.43834 C 353.2387,598.17805 352.4511,597.90525 352.28628,597.7916 C 352.03031,597.61509 352.76282,596.67007 352.88749,596.49813 C 353.07394,596.24099 353.0844,595.61243 353.04381,595.32903 z" style="fill:#ffffff;fill-opacity:0.6245353;fill-rule:evenodd;stroke:#000000;stroke-width:0.10142727px;stroke-linecap:butt;stroke-linejoin:miter;stroke-opacity:0.00743492"/>
      <path id="path6388" d="M 331.36721,590.40676 C 331.56016,590.34849 331.7531,590.29021 331.94603,590.23193 C 332.58018,590.04039 332.88606,589.79502 333.46545,589.60251 C 334.15133,589.37462 334.80583,589.15702 335.53959,589.04304 C 336.21542,588.93806 336.85623,588.84277 337.54135,588.7633 C 338.26829,588.67897 339.04447,588.71085 339.7843,588.71085 C 340.5615,588.71085 341.33289,588.69917 342.09958,588.7633 C 342.74106,588.81695 343.42462,588.92318 344.02902,588.99058 C 344.70832,589.06635 345.36741,589.15667 346.03078,589.25284 C 346.61459,589.33748 347.24605,589.35929 347.83961,589.37523 C 348.22964,589.3857 348.66319,589.44612 349.06961,589.48013 C 349.10254,589.48288 349.13392,589.49179 349.16607,589.4976 C 349.60214,589.57663 350.18571,589.53368 350.63726,589.56755 C 351.21302,589.61072 351.8113,589.68067 352.37373,589.79482 C 352.75137,589.87149 353.10766,589.95679 353.48314,590.02212 C 354.09005,590.12771 353.39361,589.73086 353.19374,589.65496 C 352.27309,589.30538 351.31482,589.06163 350.32372,588.86819 C 349.53867,588.71498 348.70478,588.69781 347.88784,588.67588 C 347.10237,588.65479 346.31027,588.67588 345.52432,588.67588 C 344.72534,588.67588 343.97025,588.77433 343.18489,588.83322 C 342.33909,588.89666 341.47645,588.86372 340.62841,588.88568 C 340.03518,588.90104 339.41302,588.99703 338.84369,589.06052 C 338.3189,589.11905 337.73662,589.08063 337.2037,589.09548 C 336.62841,589.11152 335.9983,589.25279 335.41899,589.30529 C 334.80701,589.36074 334.24528,589.45054 333.68252,589.4976 C 333.24685,589.53405 333.07681,589.63091 332.76606,589.77735 C 332.52395,589.89142 332.31939,589.9492 332.09075,590.03961 C 332.0837,590.0424 332.07466,590.03961 332.06663,590.03961" style="fill:#006868;fill-opacity:0.56877322;fill-rule:evenodd;stroke:#000000;stroke-width:0.12042984px;stroke-linecap:butt;stroke-linejoin:miter;stroke-opacity:0"/>
      <path id="path6390" d="M 351.47657,589.5266 C 351.62394,589.51487 351.77132,589.50315 351.91869,589.49142 C 352.33614,589.4582 352.78139,589.49122 353.19405,589.50901 C 353.45679,589.52033 353.73714,589.66121 354.01028,589.72008 C 354.21323,589.76381 354.36628,589.89007 354.52042,589.96632 C 354.71622,590.06318 354.84306,590.12856 355.03057,590.23015 C 355.14444,590.29185 355.31164,590.3954 355.40467,590.44122 C 355.75434,590.61345 355.05503,590.52916 354.89453,590.52916 C 354.34848,590.52916 353.84703,590.46291 353.31308,590.37087 C 352.94879,590.30806 352.58552,590.31011 352.22478,590.26533 C 351.97711,590.23459 351.76241,590.13735 351.56159,590.05426 C 351.32822,589.95771 351.44921,589.86617 351.47657,589.5266 z" style="fill:#006868;fill-opacity:0.56877322;fill-rule:evenodd;stroke:#000000;stroke-width:0.10142727px;stroke-linecap:butt;stroke-linejoin:miter;stroke-opacity:0"/>
      <path id="path6392" d="M 331.56807,593.01073 C 331.79988,593.09401 332.77684,593.34318 333.32133,593.41279 C 333.92373,593.4898 334.53918,593.51414 335.14691,593.55143 C 335.64723,593.58214 336.14104,593.62024 336.64714,593.63462 C 336.94146,593.64298 337.2382,593.63462 337.53281,593.63462 C 338.3776,593.63462 335.89976,593.30169 335.07461,593.16323 C 334.20951,593.01809 333.37116,592.81971 332.52604,592.66412 C 332.1333,592.59183 331.77459,592.48587 331.38731,592.41457 C 331.14604,592.37016 331.10324,592.25844 330.93544,592.13729 C 330.81899,592.05323 330.66201,591.94704 330.53778,591.84615 C 330.41178,591.74381 330.2604,591.65191 330.14014,591.58273 C 330.0759,591.54577 329.98348,591.555 329.90517,591.54113 C 329.43533,591.45796 330.52538,592.11663 330.91736,592.33139 C 331.54547,592.67551 331.41331,593.0281 332.30913,592.92754" style="fill:#006868;fill-opacity:0.56877322;fill-rule:evenodd;stroke:#000000;stroke-width:0.09283996px;stroke-linecap:butt;stroke-linejoin:miter;stroke-opacity:0"/>
      <path id="path6394" d="M 330.42656,597.77645 C 330.47396,597.99461 330.52135,598.21278 330.56875,598.43094 C 330.72388,599.14493 330.85446,599.84465 331.06644,600.54713 C 331.25393,601.16847 331.39422,601.7783 331.54635,602.44516 C 331.67489,603.00861 331.7349,603.60403 331.83074,604.16866 C 331.91853,604.68586 332.04583,605.14116 332.16845,605.63036 C 332.27573,606.05827 332.492,606.45166 332.64837,606.87389 C 332.81255,607.31724 332.91623,607.73758 333.05718,608.20469 C 333.18021,608.61241 333.26824,609.01956 333.35935,609.44822 C 333.44997,609.87462 333.63424,610.35734 333.76816,610.7354 C 333.89284,611.08737 334.11145,611.43195 334.24807,611.78258 C 334.49093,612.40586 334.48679,611.99276 334.44359,611.58623 C 334.38173,611.00414 334.08927,610.40953 333.92813,609.84093 C 333.77004,609.28306 333.71715,608.70882 333.55487,608.16106 C 333.39397,607.61799 333.31195,607.04841 333.16383,606.50301 C 333.03213,606.01808 332.82624,605.58723 332.70169,605.08495 C 332.58398,604.61023 332.43799,604.14389 332.29288,603.68869 C 332.16904,603.30028 332.1059,602.90345 332.00849,602.51061 C 331.91213,602.122 331.78667,601.73071 331.68855,601.35434 C 331.60168,601.02114 331.5124,600.74838 331.40416,600.41623 C 331.27835,600.03023 331.2156,599.62464 331.11976,599.23815 C 331.03346,598.89014 330.98439,598.54782 330.88869,598.23459 C 330.81927,598.00739 330.5806,597.92916 330.42656,597.77645 z" style="fill:#006868;fill-opacity:0.56877322;fill-rule:evenodd;stroke:#000000;stroke-width:0.09450354px;stroke-linecap:butt;stroke-linejoin:miter;stroke-opacity:0.00371746"/>
      <path id="path6396" d="M 329.48874,592.07339 C 329.26444,591.45472 329.82827,593.35212 329.90435,594.00791 C 329.94269,594.33832 329.92514,594.68253 329.92514,595.01816 C 329.92514,595.31145 329.96221,595.56107 330.00826,595.83496 C 330.06465,596.17036 330.10607,596.47623 330.13295,596.82372 C 330.151,597.05721 330.23376,597.24082 330.27841,597.42557 C 330.34651,597.70733 330.41329,597.07959 330.42388,596.99567 C 330.4769,596.5752 330.42388,596.10966 330.42388,595.6845 C 330.42388,595.25824 330.21309,594.78781 330.13295,594.37332 C 330.06258,594.00942 329.95036,593.6888 329.86279,593.34158 C 329.76519,592.95459 329.67287,592.50624 329.48874,592.07339 C 329.32309,591.68399 329.59982,591.44148 329.65499,591.12763" style="fill:#006868;fill-opacity:0.56877322;fill-rule:evenodd;stroke:#000000;stroke-width:0.10142727px;stroke-linecap:butt;stroke-linejoin:miter;stroke-opacity:0"/>
      <path id="path6398" d="M 353.32438,607.63553 C 353.36334,608.13543 353.07495,608.47399 352.88799,608.94671 C 352.768,609.25009 352.52803,609.44646 352.38925,609.72052 C 352.25732,609.98102 352.04229,610.2344 351.93207,610.42984 C 351.81846,610.63128 351.74622,610.78841 351.62035,610.9887 C 351.50868,611.16642 351.42632,611.34379 351.3502,611.48308 C 351.26008,611.64801 351.19254,611.76476 351.12161,611.89148 C 351.0146,612.08267 350.97617,612.24513 350.87224,612.45034 C 350.71898,612.75298 350.61109,612.95071 350.41506,613.28863 C 350.29426,613.4969 350.19186,613.67707 350.06179,613.84749 C 349.94853,613.99589 349.89282,614.16792 349.81242,614.32038 C 349.73302,614.47095 349.68738,614.62216 349.62539,614.77176 C 349.51494,615.03833 349.43179,615.30579 349.35524,615.58856 C 349.28712,615.84022 349.86579,615.22323 349.97867,615.09419 C 350.32304,614.70049 350.79778,614.33341 351.16318,613.97646 C 351.44439,613.70175 351.59161,613.0769 351.70348,612.72977 C 351.78847,612.46603 351.95925,612.1707 352.05675,611.91297 C 352.16294,611.63229 352.28822,611.40374 352.41003,611.13916 C 352.54204,610.85242 352.65281,610.58387 352.7633,610.34386 C 352.92369,609.99548 353.01863,609.58535 353.13736,609.24763 C 353.38703,608.53746 353.29446,607.67268 353.74,607.11966" style="fill:#006868;fill-opacity:0.56877322;fill-rule:evenodd;stroke:#000000;stroke-width:0.10142727px;stroke-linecap:butt;stroke-linejoin:miter;stroke-opacity:0"/>
      <path id="path6400" d="M 335.49441,606.79724 C 334.71139,608.10453 333.84012,608.88928 335.47363,609.8065 C 336.5514,610.41167 338.08723,610.56121 336.65814,611.56906 C 335.69991,612.24483 337.37512,613.04667 337.80108,613.39611 C 337.89231,613.47094 337.65935,615.17388 337.82186,615.52408 C 338.40858,616.78839 339.04224,616.6252 337.7803,617.11468 C 336.9883,617.42188 339.37581,618.85845 339.65058,618.92023 C 340.69599,619.15531 340.14582,617.41018 339.89995,617.0287 C 339.37609,616.21592 338.64453,615.50223 338.09202,614.75027 C 337.64825,614.14632 337.46557,612.95164 337.07375,612.25689 C 336.88767,611.92693 336.94197,611.27389 336.82438,610.92422 C 336.62823,610.34091 336.33245,609.71811 336.07627,609.16166 C 335.79197,608.54411 335.30576,608.01625 334.99567,607.42059 C 334.77025,606.98757 334.62733,607.03664 334.28912,606.86173 C 334.14115,606.7852 334.07417,606.74402 333.93584,606.66827 C 333.54033,606.45169 333.96364,606.61078 333.79038,606.9692 C 333.58677,607.3904 334.49252,607.79056 334.68395,607.93646 C 334.76412,607.99756 334.85868,608.51186 334.89176,608.62429" style="fill:#006868;fill-opacity:0.56877322;fill-rule:evenodd;stroke:#000000;stroke-width:0.10142727px;stroke-linecap:butt;stroke-linejoin:miter;stroke-opacity:0"/>
      <path id="path6402" d="M 343.59894,600.04791 C 344.62349,600.23073 345.69955,600.25563 346.73685,600.21987 C 347.07089,600.20836 347.48011,600.2952 347.8798,600.41333 C 348.24083,600.52002 348.5521,599.63172 348.69025,599.40307 C 348.9012,599.05397 349.4121,599.00998 349.64617,598.58628 C 349.79345,598.31968 349.77681,597.99969 349.81242,597.70499 C 349.85057,597.38928 348.21624,597.25788 347.9837,597.23211 C 347.41747,597.16936 346.84538,597.21247 346.30045,597.2751 C 345.70357,597.3437 345.73148,596.59414 344.99126,596.56578 C 344.21302,596.53597 343.30945,597.05282 342.49756,597.14613 C 342.01629,597.20145 341.83515,597.34811 341.52086,597.61902 C 341.2909,597.81723 340.75085,597.76328 340.54416,597.94144 C 340.50498,597.9752 342.03835,599.00202 342.16506,599.08065 C 342.32146,599.17772 342.11927,599.60097 342.68459,599.81147 C 343.72002,600.19703 344.40852,599.69763 345.07438,600.24137 C 345.51483,600.60103 345.95393,600.6733 346.50826,600.71425 C 346.71676,600.72965 347.0346,600.60393 347.27715,600.56379 C 347.29392,600.56101 347.62995,600.36106 347.65121,600.34884" style="fill:#720500;fill-opacity:0.34572491;fill-rule:evenodd;stroke:#000000;stroke-width:0.10142727px;stroke-linecap:butt;stroke-linejoin:miter;stroke-opacity:0"/>
      <path id="path6404" d="M 340.62728,620.83729 C 340.68961,621.12173 340.62062,621.94644 340.52338,622.44939 C 340.44364,622.86174 340.50907,623.32977 340.44025,623.73907 C 340.38243,624.08295 340.39226,624.43606 340.37791,624.79231 C 340.36087,625.21536 340.31557,625.62904 340.31557,626.0605 C 340.31557,626.43307 340.31557,626.80564 340.31557,627.17822 C 340.31557,627.57945 340.31557,627.98069 340.31557,628.38192 C 340.31557,628.87584 340.33635,629.36962 340.33635,629.86505 C 340.33635,630.20922 340.32252,630.53936 340.33635,630.8968 C 340.35043,631.26084 340.33635,631.62865 340.33635,631.99302 C 340.33635,632.40187 340.50701,631.19379 340.56494,630.78932 C 340.61671,630.42787 340.57725,630.0346 340.6065,629.6716 C 340.64199,629.23108 340.71359,628.79374 340.73118,628.33893 C 340.74329,628.02601 340.76103,627.72965 340.77274,627.41466 C 340.78473,627.09243 340.79353,626.77178 340.79353,626.4474 C 340.79353,626.14671 340.83178,625.84362 340.85587,625.54462 C 340.88177,625.22308 340.87375,624.91731 340.89743,624.59886 C 340.92116,624.27983 340.96876,623.94893 341.02212,623.6316 C 341.07554,623.31386 341.04383,622.96505 341.08446,622.64284 C 341.11038,622.43729 341.09746,622.22061 341.10524,622.0195 C 341.11698,621.71589 341.12602,621.40404 341.12602,621.09523 C 341.12602,620.90349 340.79353,620.92327 340.62728,620.83729" style="fill:#338888;fill-opacity:0.63378924;fill-rule:evenodd;stroke:#000000;stroke-width:0.10142727px;stroke-linecap:butt;stroke-linejoin:miter;stroke-opacity:0"/>
      <path id="path6406" d="M 340.44025,635.04527 C 340.41947,635.21723 340.39869,635.38918 340.37791,635.56114 C 340.33148,635.94536 340.23297,636.35838 340.1701,636.76484 C 340.16463,636.80022 340.1701,636.83649 340.1701,636.87232 C 340.1701,637.24411 340.05334,637.58253 340.02464,637.96854 C 340.00539,638.22733 339.98307,638.49015 339.98307,638.76385 C 339.98307,639.25309 340.00385,639.71843 340.00385,640.20399 C 340.00385,640.52043 340.08213,640.88293 340.10776,641.21424 C 340.13414,641.55535 340.23357,641.94801 340.274,642.31047 C 340.32744,642.78947 340.41551,643.18929 340.50259,643.62164 C 340.60399,644.12506 340.61785,644.65941 340.66884,645.16926 C 340.70501,645.53095 340.7283,645.89834 340.75196,646.26549 C 340.76622,646.48668 340.76594,646.78484 340.77274,646.97481 C 340.78906,647.43044 340.95977,646.07659 340.95977,645.62065 C 340.95977,644.99014 340.95977,644.35963 340.95977,643.72911 C 340.95977,643.27921 340.8595,642.80146 340.79353,642.37495 C 340.73195,641.97685 340.70273,641.68194 340.64806,641.30022 C 340.61516,641.07049 340.54428,640.81815 340.52338,640.54791 C 340.49932,640.23685 340.48181,639.94589 340.48181,639.62363 C 340.48181,639.24873 340.5082,638.92252 340.56494,638.5704 C 340.62381,638.20503 340.60534,637.82093 340.64806,637.45267 C 340.7003,637.00243 340.76702,636.50335 340.83509,636.09851 C 340.97965,635.23872 340.38987,635.11615 340.95977,634.31445 C 341.08281,634.14137 341.13987,633.92755 341.22992,633.73409" style="fill:#2e8585;fill-opacity:0.71292832;fill-rule:evenodd;stroke:#000000;stroke-width:0.10142727px;stroke-linecap:butt;stroke-linejoin:miter;stroke-opacity:0"/>
      <path id="path6408" d="M 336.01393,647.98506 C 335.81997,647.97073 335.62602,647.9564 335.43206,647.94207 C 335.12281,647.91922 334.4161,648.37101 334.10209,648.50093 C 333.77584,648.63592 333.50095,648.81979 333.18773,648.95232 C 333.02216,649.02238 332.82824,649.38313 332.68899,649.55417 C 332.50914,649.77509 332.21255,649.97374 332.00322,650.17752 C 331.77794,650.39683 331.56308,650.75122 331.3798,650.95133 C 331.18205,651.16723 331.07096,651.31419 330.9434,651.61766 C 330.80588,651.94482 330.77865,652.23525 330.73559,652.60642 C 330.694,652.96489 330.77371,653.3356 330.81871,653.63816 C 330.85353,653.87222 331.2823,653.84319 331.52526,653.8746 C 331.82053,653.91278 331.45177,653.31417 331.42136,653.25126 C 331.28475,652.96866 331.30834,652.61931 331.29667,652.30549 C 331.28773,652.06505 331.32106,651.80931 331.33823,651.59617 C 331.36839,651.22189 331.51734,651.16399 331.69151,650.88684 C 331.86734,650.60704 332.03541,650.38174 332.23181,650.09154 C 332.39073,649.85671 332.73746,649.72196 332.97992,649.57567 C 333.2226,649.42924 333.42397,649.21535 333.74881,649.01681 C 334.44887,648.58893 335.23634,648.22635 336.01393,647.98506 C 336.29028,647.89931 336.48496,647.64115 336.72048,647.46919" style="fill:#82baba;fill-opacity:0.963003;fill-rule:evenodd;stroke:#000000;stroke-width:0.10142727px;stroke-linecap:butt;stroke-linejoin:miter;stroke-opacity:0.00371746"/>
      <path id="path6410" d="M 333.45788,654.24471 C 333.63106,654.33069 333.80423,654.41667 333.9774,654.50265 C 334.37425,654.69968 334.60734,654.89719 334.99567,655.06151 C 335.42539,655.24334 335.87372,655.33926 336.28408,655.5129 C 336.58943,655.64211 337.10925,655.58487 337.44781,655.59888 C 337.9044,655.61777 338.36468,655.60228 338.81934,655.62037 C 339.24942,655.63748 339.6741,655.66336 340.10776,655.66336 C 340.53671,655.66336 341.01777,655.58807 341.43773,655.55589 C 341.82799,655.52599 342.1927,655.50949 342.5599,655.42692 C 342.92963,655.34378 343.27456,655.32261 343.66129,655.27646 C 343.98726,655.23755 344.2473,655.2128 344.57564,655.14749 C 344.80834,655.1012 345.03396,655.02265 345.26141,654.95404 C 346.27212,654.64912 343.15582,654.88955 342.10272,654.88955 C 340.94896,654.88955 339.8445,654.80145 338.69466,654.88955 C 337.96829,654.94521 337.21082,654.948 336.51267,654.80358 C 335.92202,654.68139 335.18454,654.80524 334.58005,654.78208 C 334.15281,654.76571 333.82715,654.43569 333.45788,654.24471" style="fill:#2e8585;fill-opacity:0.71370598;fill-rule:evenodd;stroke:#000000;stroke-width:0.10142727px;stroke-linecap:butt;stroke-linejoin:miter;stroke-opacity:0"/>
      <path id="path6412" d="M 343.93144,629.74079 C 344.00941,630.10014 343.99378,630.62055 343.99378,631.05196 C 343.99378,631.27407 343.99378,631.49619 343.99378,631.7183 C 343.99378,631.97739 343.92066,632.25575 343.91066,632.5351 C 343.90179,632.7828 343.88832,633.01727 343.86909,633.26591 C 343.8481,633.5373 343.84831,633.83989 343.84831,634.1257 C 343.84831,634.47818 343.79916,634.84565 343.78597,635.20043 C 343.77272,635.55672 343.73786,635.83581 343.72363,636.18919 C 343.71642,636.36816 343.72363,636.54743 343.72363,636.72656 C 343.72363,637.12378 343.82334,635.93877 343.86909,635.54435 C 343.92086,635.09812 343.89515,634.63918 343.91066,634.19019 C 343.92616,633.74105 343.91969,633.32007 343.973,632.87901 C 344.02259,632.46867 344.08353,632.09998 344.13925,631.73979 C 344.19788,631.36071 344.19387,631.00526 344.22237,630.62207 C 344.28139,629.82845 344.23414,629.34647 344.38861,628.51559" style="fill:#2e8585;fill-opacity:0.71372645;fill-rule:evenodd;stroke:#000000;stroke-width:0.10142727px;stroke-linecap:butt;stroke-linejoin:miter;stroke-opacity:0"/>
      <path id="path6414" d="M 342.41443,625.77905 C 342.07411,627.14769 342.12961,628.58094 341.97804,629.99201 C 341.86057,631.08555 341.72177,632.1553 341.64554,633.2592 C 341.59067,634.05382 341.58726,634.84852 341.56242,635.6451 C 341.54119,636.32574 341.54164,637.00541 341.54164,637.6871 C 341.54164,638.4402 341.61661,639.24114 341.72866,639.96553 C 341.82233,640.57102 341.86276,641.17492 341.97804,641.77109 C 342.10137,642.40892 342.21122,641.94165 342.47678,641.96454 C 342.72243,641.98571 343.00135,639.40898 343.01708,639.14873 C 343.07547,638.18239 343.20056,637.18871 343.30801,636.22546 C 343.41729,635.24586 343.4327,634.2004 343.4327,633.21621 C 343.4327,632.55049 343.35159,631.89903 343.32879,631.2387 C 343.30493,630.54755 343.2041,629.86788 343.2041,629.17521 C 343.2041,628.52963 343.05177,627.89808 342.9963,627.30517 C 342.954,626.8531 342.93395,626.41155 342.93395,625.95101 C 342.93395,625.12442 342.38091,625.85128 342.91317,624.70432 C 343.04131,624.42821 342.97552,623.98033 342.97552,623.67257 C 342.97552,623.45038 343.12964,623.09636 343.16255,622.81279 C 343.20204,622.47233 343.0846,622.16249 343.03786,621.953 C 343.0159,621.85455 342.66436,623.33224 342.64302,623.60809 C 342.55678,624.72309 342.28875,625.7925 342.20662,626.89677 C 342.19866,627.00393 342.20662,627.11172 342.20662,627.21919" style="fill:#ffffff;fill-opacity:0.9665428;fill-rule:evenodd;stroke:#000000;stroke-width:0.10142727px;stroke-linecap:butt;stroke-linejoin:miter;stroke-opacity:0"/>
      <path id="path6416" d="M 349.40974,615.23426 C 349.41673,615.28129 349.42372,615.32832 349.43072,615.37535 C 349.47296,615.65938 349.08296,615.97069 348.91133,616.1405 C 348.56308,616.48505 348.12357,616.7155 347.75188,617.03588 C 347.33452,617.39564 346.83009,617.63249 346.34061,617.87157 C 345.84971,618.11135 345.39046,618.39438 345.01329,618.79952 C 344.73656,619.09675 344.34073,619.3045 344.02172,619.54838 C 343.82588,619.69811 343.64915,619.87406 343.47086,620.04763 C 343.4236,620.09363 343.39613,620.16197 343.37117,620.205 C 343.28588,620.35203 343.24923,620.44794 343.21903,620.62284 C 343.17952,620.85172 343.1198,620.86417 343.25051,620.99185 C 343.38163,621.11994 343.82578,620.86848 343.9168,620.78564 C 344.1245,620.59658 344.21681,620.48013 344.48865,620.39493 C 344.84484,620.28328 345.20963,620.23911 345.54841,620.0639 C 345.9271,619.86806 346.31287,619.7431 346.67638,619.50497 C 346.99455,619.29654 347.32175,619.15001 347.60499,618.88634 C 347.84335,618.66445 348.04286,618.39765 348.20832,618.11577 C 348.33238,617.90442 348.53089,617.73875 348.66475,617.53512 C 348.80674,617.31914 348.87275,617.03313 348.94805,616.79168 C 349.00188,616.61909 349.1063,616.42516 349.18939,616.25988 C 349.27521,616.08917 349.34957,615.92163 349.43596,615.74978 C 349.5303,615.56214 349.58481,615.39146 349.70878,615.21798 C 349.83943,615.03514 349.87936,614.8268 349.99208,614.63734 C 350.00692,614.6124 350.10475,614.52546 350.12324,614.5071" style="fill:#0d3c3b;fill-opacity:1;fill-rule:evenodd;stroke:#000000;stroke-width:0.10142727px;stroke-linecap:butt;stroke-linejoin:miter;stroke-opacity:0.01115244"/>
      <path id="path6418" d="M 333.48671,600.76985 C 334.08806,600.79312 334.66077,600.90355 335.19319,601.10752 C 335.70104,601.30207 336.2831,601.35896 336.81063,601.47589 C 337.31415,601.58749 337.86875,601.53728 338.38356,601.53728 C 338.81884,601.53728 339.25411,601.53728 339.68939,601.53728 C 340.14439,601.53728 340.5934,601.50059 341.03973,601.44519 C 341.42637,601.3972 341.81579,601.40349 342.19717,601.33775 C 342.62799,601.26348 343.05675,601.24652 343.48816,601.16891 C 343.90889,601.09323 344.39703,601.15587 344.82366,601.13822 C 345.24709,601.12069 345.69153,601.05058 346.11465,601.00008 C 346.47953,600.95653 346.83079,600.9062 347.19789,600.89264 C 347.44838,600.88338 347.73668,600.85511 347.95468,600.81589 C 348.10244,600.78931 348.31139,600.6827 348.42953,600.64706 C 348.62821,600.58712 348.9107,600.59517 349.09728,600.55496 C 349.49888,600.46843 349.43838,600.60397 349.66116,600.7238 C 350.07502,600.9464 349.15813,601.69223 349.0676,601.75216 C 348.66243,602.02038 347.98677,602.13507 347.52435,602.28936 C 347.09736,602.43183 346.87908,602.70529 346.39659,602.76517 C 345.81094,602.83787 345.20604,602.87261 344.61592,602.87261 C 344.0372,602.87261 343.45848,602.87261 342.87976,602.87261 C 342.32337,602.87261 341.76153,602.94063 341.20296,602.9647 C 340.70182,602.9863 340.21172,602.95166 339.71907,602.88796 C 339.19992,602.82084 338.66782,602.86903 338.14614,602.81122 C 337.67055,602.75852 337.1877,602.71381 336.7216,602.64238 C 336.30768,602.57896 335.90582,602.3976 335.51964,602.25867 C 335.11388,602.11268 334.88103,601.87272 334.58479,601.58333 C 334.37128,601.37475 334.10117,601.12649 333.93188,600.98473 C 333.92032,600.97505 333.93188,600.95403 333.93188,600.93868 C 333.93188,600.75338 333.19391,600.73711 334.03575,600.83124" style="fill:#ff5555;fill-opacity:0.68401483;fill-rule:evenodd;stroke:#000000;stroke-width:0.10142727px;stroke-linecap:butt;stroke-linejoin:miter;stroke-opacity:0.00743492"/>
      <path id="path6420" d="M 334.21382,601.93635 C 334.32527,601.81522 334.82203,601.81061 335.13383,601.79821 C 335.37999,601.78842 335.62932,601.79821 335.87578,601.79821 C 336.07823,601.79821 336.27271,601.81263 336.46934,601.82891 C 336.66612,601.84519 336.86179,601.86628 337.0629,601.87495 C 337.28709,601.88462 337.48173,601.91282 337.67129,601.93635 C 337.88447,601.96281 338.14081,601.95064 338.33904,601.96704 C 338.57197,601.98632 338.79031,602.02513 339.0068,602.04378 C 339.21155,602.06143 339.42425,602.04378 339.63003,602.04378 C 339.85046,602.04378 340.07077,602.03758 340.28295,602.02844 C 340.51996,602.01822 340.77515,601.95894 340.99521,601.921 C 341.20023,601.88566 341.39685,601.88633 341.60361,601.8596 C 341.78534,601.83611 341.98395,601.8596 342.16749,601.8596 C 342.40624,601.8596 342.60058,601.82212 342.80557,601.78286 C 343.05174,601.73571 343.34085,601.6597 343.56235,601.58333 C 343.89793,601.46763 344.28937,601.49123 344.66044,601.49123 C 345.10432,601.49123 345.16413,601.52108 345.46174,601.82891 C 345.76494,602.14253 345.44264,602.498 345.23915,602.68843 C 344.94268,602.96588 345.04889,603.04623 345.22432,603.36377 C 345.4201,603.71816 344.15589,603.57865 343.93333,603.57865 C 343.47758,603.57865 343.06351,603.68609 342.58298,603.68609 C 342.06442,603.68609 341.55495,603.80888 341.02489,603.80888 C 340.43212,603.80888 339.90486,603.67658 339.34809,603.5326 C 338.81043,603.39357 338.26605,603.28012 337.73065,603.08749 C 337.28122,602.9258 336.83215,602.74014 336.3803,602.59634 C 336.05116,602.49158 335.80775,602.359 335.50481,602.28936 C 335.24595,602.22987 335.0691,602.10292 334.82221,602.02844 C 334.71236,601.9953 334.65701,601.8006 334.21382,601.93635 z" style="fill:#740000;fill-opacity:0.68401483;fill-rule:evenodd;stroke:#000000;stroke-width:0.10142727px;stroke-linecap:butt;stroke-linejoin:miter;stroke-opacity:0"/>
      <path id="path6424" d="M 339.23693,594.48236 C 339.19972,595.4796 339.00626,595.89186 339.74009,596.23414 C 340.35578,596.52132 341.37817,596.45802 341.92047,596.60294 C 342.04956,596.63743 342.72238,597.86541 343.31016,598.04739 C 344.01271,598.26491 344.59194,597.9994 345.20301,597.77079 C 345.46508,597.67275 346.32687,598.40639 346.80833,598.47765 C 346.85703,598.48486 347.86669,597.44333 348.24594,597.37126 C 348.78557,597.26872 346.92474,596.30207 346.73646,596.23414 C 346.10986,596.0081 345.64393,596.04096 345.10717,595.71168 C 344.42606,595.29386 344.73967,594.99853 343.74144,595.09702 C 343.05922,595.16433 342.73418,595.42146 342.23195,595.28142 C 341.9263,595.19619 341.81597,594.54383 341.0579,594.54383 C 340.63914,594.54383 340.31348,594.4614 339.95574,594.35943 C 339.71979,594.29218 339.47604,594.43693 339.23693,594.48236 z" style="fill:#c7d4d5;fill-opacity:0.49442378;fill-rule:evenodd;stroke:#000000;stroke-width:0.33198309px;stroke-linecap:butt;stroke-linejoin:miter;stroke-opacity:0"/>
    </g>
    <path style="fill:none;fill-rule:evenodd;stroke:#000000;stroke-width:2.4581213px;stroke-linecap:butt;stroke-linejoin:miter;stroke-opacity:0.51301114" d="M 376.27037,718.68413 C 376.5856,718.74769 376.9008,718.81126 377.21603,718.87484 C 378.10809,719.05472 379.00033,719.06749 379.89546,719.22446 C 380.77558,719.3788 381.52182,719.48756 382.37785,719.63767 C 383.15608,719.77413 383.86792,720.11532 384.46621,720.4005 C 385.27895,720.7879 386.10616,721.1243 386.90921,721.51296 C 387.37429,721.73805 388.04802,722.91176 388.44594,723.29291 C 388.89692,723.72492 389.01071,724.30647 389.234,724.7868 C 389.51363,725.38831 389.6251,725.89654 389.94326,726.50317 C 390.21046,727.01263 390.16914,727.54853 390.21908,728.09241 C 390.25073,728.43705 389.81837,728.94922 389.66744,729.20488 C 389.47917,729.52382 391.04272,728.72084 391.16476,728.63276 C 391.60686,728.31367 391.71258,727.62348 391.83462,727.17065 C 391.97659,726.64384 391.82704,726.0224 391.75581,725.48607 C 391.67099,724.8475 391.22946,724.25548 390.88894,723.70612 C 390.55037,723.1599 390.28685,722.54435 389.90385,722.02152 C 389.48454,721.44912 389.12044,721.12111 388.44594,720.75012 C 387.76207,720.374 387.09248,720.11823 386.23935,719.86016 C 385.2626,719.5647 384.18919,719.43569 383.16592,719.25625 C 382.41471,719.12452 381.70338,719.01603 380.99874,718.84304 C 380.28348,718.66744 379.5466,718.5414 378.91038,718.42984 C 378.53878,718.36468 377.95747,718.30308 377.72828,718.27092" id="path6489"/>
  </g>
  <metadata>
    <rdf:RDF>
      <cc:Work>
        <dc:format>image/svg+xml</dc:format>
        <dc:type rdf:resource="http://purl.org/dc/dcmitype/StillImage"/>
        <cc:license rdf:resource="http://creativecommons.org/licenses/publicdomain/"/>
        <dc:publisher>
          <cc:Agent rdf:about="http://openclipart.org/">
            <dc:title>Open Clip Art Library</dc:title>
          </cc:Agent>
        </dc:publisher>
        <dc:title>Red Wine Glass</dc:title>
        <dc:date>2006-12-26T00:00:00</dc:date>
        <dc:description/>
        <dc:source>http://openclipart.org/detail/24931/-by--24931</dc:source>
        <dc:creator>
          <cc:Agent>
            <dc:title>Degri</dc:title>
          </cc:Agent>
        </dc:creator>
        <dc:subject>
          <rdf:Bag>
            <rdf:li>clip art</rdf:li>
            <rdf:li>clipart</rdf:li>
          </rdf:Bag>
        </dc:subject>
      </cc:Work>
      <cc:License rdf:about="http://creativecommons.org/licenses/publicdomain/">
        <cc:permits rdf:resource="http://creativecommons.org/ns#Reproduction"/>
        <cc:permits rdf:resource="http://creativecommons.org/ns#Distribution"/>
        <cc:permits rdf:resource="http://creativecommons.org/ns#DerivativeWorks"/>
      </cc:License>
    </rdf:RDF>
  </metadata>
</svg>
