<?xml version="1.0" encoding="UTF-8" standalone="no"?>
<!-- Created with Inkscape (http://www.inkscape.org/) -->
<svg xmlns:dc="http://purl.org/dc/elements/1.1/" xmlns:cc="http://web.resource.org/cc/" xmlns:rdf="http://www.w3.org/1999/02/22-rdf-syntax-ns#" xmlns:svg="http://www.w3.org/2000/svg" xmlns="http://www.w3.org/2000/svg" xmlns:sodipodi="http://sodipodi.sourceforge.net/DTD/sodipodi-0.dtd" xmlns:inkscape="http://www.inkscape.org/namespaces/inkscape" height="500" width="200" id="svg13692" sodipodi:version="0.32" inkscape:version="0.45.1" version="1.0" sodipodi:docbase="Z:\" sodipodi:docname="winebottle.svg" inkscape:output_extension="org.inkscape.output.svg.inkscape">
  <defs id="defs13694"/>
  <sodipodi:namedview id="base" pagecolor="#ffffff" bordercolor="#666666" borderopacity="1.0" inkscape:pageopacity="0.0" inkscape:pageshadow="2" inkscape:cx="100" inkscape:cy="250" inkscape:zoom="1.502" inkscape:document-units="px" inkscape:current-layer="layer1" height="500px" width="200px" inkscape:window-width="1280" inkscape:window-height="952" inkscape:window-x="-4" inkscape:window-y="-4"/>
  <g inkscape:groupmode="layer" inkscape:label="Warstwa 1" id="layer1">
    <g id="g2106" transform="matrix(0.4881965,0,0,0.4881965,-186.34577,31.182391)">
      <g id="g15946">
        <path id="path3793" d="M 543.15467,26.113206 L 540.54335,263.74338 L 507.90185,279.4113 L 489.6226,289.85658 L 466.12072,327.72073 L 456.9811,852.59616 L 520.95845,876.09805 L 590.15844,877.40371 L 714.19617,860.43012 L 710.27919,359.05658 L 688.08297,296.38488 L 650.21882,271.57734 L 626.71693,261.13206 L 628.02259,22.196225 L 543.15467,16.973584 L 543.15467,26.113206 z " style="fill:#993300;fill-opacity:0.9375;fill-rule:evenodd;stroke:#000000;stroke-width:1px;stroke-linecap:butt;stroke-linejoin:miter;stroke-opacity:1"/>
        <path sodipodi:nodetypes="ccccccccczszssczccc" id="path6069" d="M 543.15467,22.196225 L 547.07166,259.82639 L 492.23393,284.63394 L 477.87166,310.74715 L 463.5094,349.91696 L 455.67544,848.67918 L 479.17732,861.73578 L 481.78864,742.9207 L 492.23392,386.47544 C 492.23392,386.47544 488.64336,342.08299 520.95845,327.72073 C 553.27354,313.35847 596.58825,327.03541 621.49429,329.02639 C 651.17324,331.39891 665.88674,323.80375 654.1358,304.21885 C 642.71594,285.18575 584.60939,315.64337 566.65656,295.07922 C 548.70373,274.51507 577.42826,255.583 571.8792,218.04527 C 566.33014,180.50754 560.12826,138.39999 560.12826,138.39999 C 560.12826,138.39999 561.34342,75.661652 560.12826,52.226411 C 558.98581,30.193394 611.04901,35.252827 611.04901,35.252827 L 611.04901,24.807545 L 543.15467,22.196225 z " style="fill:#966600;fill-opacity:1;fill-rule:evenodd;stroke:none;stroke-width:1px;stroke-linecap:butt;stroke-linejoin:miter;stroke-opacity:1"/>
        <path sodipodi:nodetypes="ccccccc" id="path6829" d="M 459.59242,366.89054 C 596.68675,423.9874 710.27919,373.60781 710.27919,373.60781 L 711.58485,848.85527 L 631.93957,877.40371 L 484.39996,865.64846 L 455.67544,840.63906 L 459.59242,366.89054 z " style="fill:#000000;fill-opacity:0.33333333;fill-rule:evenodd;stroke:none;stroke-width:1px;stroke-linecap:butt;stroke-linejoin:miter;stroke-opacity:1"/>
        <path sodipodi:nodetypes="ccczcc" id="path3765" d="M 518.35987,414.38712 C 621.47257,431.66299 719.40606,410.03312 719.40606,410.03312 L 719.40607,788.83295 C 719.40607,788.83295 676.65214,810.60852 619.40056,812.05986 C 562.149,813.5112 518.35988,796.08966 518.35988,796.08966 L 518.35987,414.38712 z " style="fill:#f8f3c8;fill-opacity:1;fill-rule:evenodd;stroke:#000000;stroke-width:1.06466722px;stroke-linecap:butt;stroke-linejoin:miter;stroke-opacity:1"/>
        <g transform="matrix(1.070771,0,0,1.035497,-63.87859,-11.17824)" id="g3759">
          <path style="fill:#000000;fill-opacity:1;fill-rule:nonzero;stroke:none;stroke-width:1px;stroke-linecap:butt;stroke-linejoin:miter;stroke-opacity:1" id="path3730" d="M 577.2821,20.648327 C 576.99267,38.584436 575.03476,49.893904 575.37834,67.889476 C 576.07947,104.88333 572.97196,140.87987 575.49431,177.73553 C 578.07244,201.20219 575.03084,225.50509 575.36318,249.37805 C 577.94647,271.47131 561.70718,279.47638 550.23315,279.24677 C 534.47173,276.16863 510.3799,306.48952 504.85262,325.05012 C 496.54819,356.75515 496.41355,391.06197 496.22685,424.90419 C 496.1007,468.94135 496.26955,512.97905 496.29785,557.01641 C 496.24616,593.04151 496.34943,629.06774 496.57909,665.09106 C 495.7251,680.44247 498.26221,696.58862 496.07747,711.68215 C 495.09482,718.54601 495.31707,725.6781 495.33736,732.68206 C 495.19442,745.36066 495.10897,758.03622 495.27606,770.71523 C 495.36272,778.1009 495.33081,785.4878 495.34728,792.87426 C 495.34659,799.79321 495.33126,806.71226 495.3431,813.63128 C 495.34114,817.58937 495.33743,821.54719 495.34673,825.50539 L 478.39129,839.59484 C 478.40057,835.63463 478.39691,831.6748 478.39491,827.71471 C 478.40672,820.798 478.39147,813.88126 478.39074,806.96462 C 478.40723,799.53868 478.37563,792.11231 478.46204,784.68714 C 478.62517,772.04715 478.55444,759.41005 478.39075,746.77093 C 478.39448,739.53226 478.17878,732.21063 478.93394,725.05206 C 481.702,710.18227 479.55385,693.90357 480.36129,678.56755 C 480.58955,642.38828 480.69499,606.20617 480.64308,570.02514 C 480.66977,525.96909 480.78972,481.91272 480.62797,437.85694 C 480.56255,403.79284 480.43855,369.59586 488.27704,337.36866 C 493.45763,318.51529 500.84564,302.78014 511.73583,291.8961 C 529.5031,274.94076 544.2214,260.80778 565.25007,261.41707 C 588.12245,259.73566 551.72658,292.17788 558.55826,263.34704 C 558.76218,239.32824 563.45462,215.60723 563.12655,192.02548 C 560.47386,155.11251 567.18338,118.70944 566.21084,81.656334 C 565.69654,63.88563 564.38527,37.407521 548.73195,28.184053 L 577.2821,20.648327 z " sodipodi:nodetypes="cccccccccccccccccccccccccccccccc"/>
          <path sodipodi:nodetypes="ccccccccccccccccccccccccccccccccc" d="M 637.65555,23.259648 C 637.94498,41.195757 639.90289,52.505225 639.55931,70.500797 C 638.85818,107.49465 641.96569,143.49119 639.44334,180.34685 C 636.86521,203.81351 639.90681,228.11641 639.57447,251.98937 C 636.99118,274.08263 653.23047,282.0877 664.7045,281.85809 C 680.46592,278.77995 712.41193,307.88973 685.88408,283.49851 C 696.81519,294.12798 704.55775,309.10084 710.08503,327.66144 C 718.38946,359.36647 718.5241,393.67329 718.7108,427.51551 C 718.83695,471.55267 718.6681,515.59037 718.6398,559.62773 C 718.69149,595.65283 718.58822,631.67906 718.35856,667.70238 C 719.21255,683.05379 716.67544,699.19994 718.86018,714.29347 C 719.84283,721.15733 719.62058,728.28942 719.60029,735.29338 C 719.74323,747.97198 719.82868,760.64754 719.66159,773.32655 C 719.57493,780.71222 719.60684,788.09912 719.59037,795.48558 C 719.59106,802.40453 719.60639,809.32358 719.59455,816.2426 C 719.59651,820.20069 719.60022,824.15851 719.59092,828.11671 L 736.54636,842.20616 C 736.53708,838.24595 736.54074,834.28612 736.54274,830.32603 C 736.53093,823.40932 736.54618,816.49258 736.54691,809.57594 C 736.53042,802.15 736.56202,794.72363 736.47561,787.29846 C 736.31248,774.65847 736.38321,762.02137 736.5469,749.38225 C 736.54317,742.14358 736.75887,734.82195 736.00371,727.66338 C 733.23565,712.79359 735.3838,696.51489 734.57636,681.17887 C 734.3481,644.9996 734.24266,608.81749 734.29457,572.63646 C 734.26788,528.58041 734.14793,484.52404 734.30968,440.46826 C 734.3751,406.40416 734.4991,372.20718 726.66061,339.97998 C 721.48002,321.12661 714.09201,305.39146 703.20182,294.50742 C 685.43455,277.55208 670.71625,263.4191 649.68758,264.02839 C 626.8152,262.34698 663.21107,294.7892 656.37939,265.95836 C 656.17547,241.93956 651.48303,218.21855 651.8111,194.6368 C 654.46379,157.72383 647.75427,121.32076 648.72681,84.267655 C 649.24111,66.496951 650.55238,40.018842 666.2057,30.795374 L 637.65555,23.259648 z " id="path3734" style="fill:#000000;fill-opacity:1;fill-rule:nonzero;stroke:none;stroke-width:1px;stroke-linecap:butt;stroke-linejoin:miter;stroke-opacity:1"/>
          <path style="fill:#000000;fill-opacity:1;fill-rule:nonzero;stroke:none;stroke-width:1px;stroke-linecap:butt;stroke-linejoin:miter;stroke-opacity:1" id="path3738" d="M 736.24276,840.87857 C 734.64995,850.69878 732.7228,850.23755 712.11168,855.62713 C 691.50056,861.01671 643.6053,865.72669 622.81035,866.57371 C 599.63391,866.76996 576.45693,866.47765 553.28005,866.64221 C 535.81456,865.51253 520.53444,862.73617 507.08547,858.86948 C 493.63651,855.00279 480.03907,841.00767 478.28381,839.52547 L 490.37026,819.23762 C 492.06785,820.67705 498.50691,828.09678 500.25173,829.48022 C 507.56265,835.94712 515.76808,842.4274 529.01832,845.97565 C 542.26856,849.52391 572.79952,852.22877 590.11007,852.42001 C 613.32366,852.60226 625.83419,852.46731 648.81169,848.90244 C 721.90935,835.94354 714.08396,837.9515 723.34561,820.96714 L 736.24276,840.87857 z " sodipodi:nodetypes="czcczccczcccc"/>
          <path style="fill:#000000;fill-opacity:1;fill-rule:nonzero;stroke:none;stroke-width:1px;stroke-linecap:butt;stroke-linejoin:miter;stroke-opacity:1" id="path3744" d="M 642.56597,53.901692 C 635.37065,39.038274 619.30748,36.597124 603.14009,38.441468 C 593.56952,39.684017 576.34049,33.410201 566.7074,33.567064 L 576.82366,20.730033 C 586.18358,20.779386 592.94088,26.570372 602.25246,25.522056 C 618.87515,23.80595 621.0687,23.251349 637.79341,23.33306 L 642.56597,53.901692 z " sodipodi:nodetypes="ccccccc"/>
        </g>
        <path sodipodi:nodetypes="czzccccc" id="path9863" d="M 689.38863,306.83016 C 689.38863,306.83016 697.04722,800.32454 681.55467,827.78862 C 667.1924,853.249 655.76787,829.74711 617.57731,838.2339 C 579.38674,846.72069 500.06788,872.18106 500.06788,872.18106 L 591.4641,882.62634 L 714.19617,857.8188 L 712.89051,342.08299 L 689.38863,306.83016 z " style="fill:#000000;fill-opacity:0.16666667;fill-rule:evenodd;stroke:none;stroke-width:1px;stroke-linecap:butt;stroke-linejoin:miter;stroke-opacity:1"/>
      </g>
      <path style="fill:#000000;fill-opacity:0.20416667;fill-rule:evenodd;stroke:none;stroke-width:1px;stroke-linecap:butt;stroke-linejoin:miter;stroke-opacity:1" d="M 608.89451,20.430505 C 608.89451,20.430505 611.65447,204.9151 612.35467,268.96602 C 612.55068,286.26116 658.82387,282.37576 658.82387,282.37576 L 639.77354,271.57734 L 626.71693,240.24149 L 626.71693,27.418866 L 608.89451,20.430505 z " id="path15974" sodipodi:nodetypes="csccccc"/>
    </g>
  </g>
  <metadata>
    <rdf:RDF>
      <cc:Work>
        <dc:format>image/svg+xml</dc:format>
        <dc:type rdf:resource="http://purl.org/dc/dcmitype/StillImage"/>
        <cc:license rdf:resource="http://creativecommons.org/licenses/publicdomain/"/>
        <dc:publisher>
          <cc:Agent rdf:about="http://openclipart.org/">
            <dc:title>Open Clip Art Library</dc:title>
          </cc:Agent>
        </dc:publisher>
        <dc:title>wine bottle</dc:title>
        <dc:date>2007-08-28T11:03:29</dc:date>
        <dc:description/>
        <dc:source>http://openclipart.org/detail/5046/wine-bottle-by-piotr_halas-5046</dc:source>
        <dc:creator>
          <cc:Agent>
            <dc:title>piotr_halas</dc:title>
          </cc:Agent>
        </dc:creator>
        <dc:subject>
          <rdf:Bag>
            <rdf:li>bottle</rdf:li>
            <rdf:li>bottle</rdf:li>
            <rdf:li>clip art</rdf:li>
            <rdf:li>clipart</rdf:li>
            <rdf:li>image</rdf:li>
            <rdf:li>media</rdf:li>
            <rdf:li>public domain</rdf:li>
            <rdf:li>svg</rdf:li>
            <rdf:li>wine</rdf:li>
            <rdf:li>wine</rdf:li>
            <rdf:li>winemaking</rdf:li>
            <rdf:li>winemaking</rdf:li>
          </rdf:Bag>
        </dc:subject>
      </cc:Work>
      <cc:License rdf:about="http://creativecommons.org/licenses/publicdomain/">
        <cc:permits rdf:resource="http://creativecommons.org/ns#Reproduction"/>
        <cc:permits rdf:resource="http://creativecommons.org/ns#Distribution"/>
        <cc:permits rdf:resource="http://creativecommons.org/ns#DerivativeWorks"/>
      </cc:License>
    </rdf:RDF>
  </metadata>
</svg>
