<?xml version="1.0" encoding="UTF-8" standalone="no"?>
<!-- Created with Inkscape (http://www.inkscape.org/) -->

<svg
   xmlns:dc="http://purl.org/dc/elements/1.1/"
   xmlns:cc="http://creativecommons.org/ns#"
   xmlns:rdf="http://www.w3.org/1999/02/22-rdf-syntax-ns#"
   xmlns:svg="http://www.w3.org/2000/svg"
   xmlns="http://www.w3.org/2000/svg"
   xmlns:sodipodi="http://sodipodi.sourceforge.net/DTD/sodipodi-0.dtd"
   xmlns:inkscape="http://www.inkscape.org/namespaces/inkscape"
   width="1000"
   height="250"
   id="svg6848"
   version="1.1"
   inkscape:version="0.48.4 r9939"
   sodipodi:docname="New document 11">
  <defs
     id="defs6850" />
  <sodipodi:namedview
     id="base"
     pagecolor="#ffffff"
     bordercolor="#666666"
     borderopacity="1.0"
     inkscape:pageopacity="0.0"
     inkscape:pageshadow="2"
     inkscape:zoom="1.114"
     inkscape:cx="500"
     inkscape:cy="125"
     inkscape:document-units="pt"
     inkscape:current-layer="layer1"
     showgrid="false"
     units="pt"
     inkscape:window-width="1280"
     inkscape:window-height="963"
     inkscape:window-x="0"
     inkscape:window-y="0"
     inkscape:window-maximized="1" />
  <metadata
     id="metadata6853">
    <rdf:RDF>
      <cc:Work
         rdf:about="">
        <dc:format>image/svg+xml</dc:format>
        <dc:type
           rdf:resource="http://purl.org/dc/dcmitype/StillImage" />
        <dc:title></dc:title>
      </cc:Work>
    </rdf:RDF>
  </metadata>
  <g
     inkscape:label="Layer 1"
     inkscape:groupmode="layer"
     id="layer1"
     transform="translate(0,-802.36221)">
    <path
       inkscape:connector-curvature="0"
       style="fill:#000000"
       d="m 133.88052,1023.038 c -0.90218,-1.9801 -2.56441,-2.2128 -5.36669,-0.7513 -2.42643,1.2655 -2.79457,1.2277 -3.20164,-0.329 -0.18699,-0.715 -0.733,-1.277 -1.21336,-1.2487 -0.65683,0.038 -0.67192,0.1326 -0.0609,0.3791 0.77858,0.3143 1.17965,2.1697 0.46899,2.1697 -0.18895,0 -2.04249,-0.8576 -4.11897,-1.9059 -4.06333,-2.0511 -7.61932,-5.5729 -8.27833,-8.1986 -0.48829,-1.9455 -2.41594,-3.1244 -4.18868,-2.5618 -1.55595,0.4938 -8.249077,-0.7889 -10.046457,-1.9252 -0.71503,-0.4522 -3.49388,-1.3402 -6.17523,-1.9734 -2.68135,-0.6333 -6.19147,-1.6983 -7.80028,-2.3668 -1.60882,-0.6685 -4.533916,-1.6333 -6.500242,-2.1442 -1.966326,-0.5107 -5.037685,-1.3859 -6.825246,-1.9448 -1.787569,-0.55885 -3.789986,-1.01928 -4.449824,-1.02313 -0.659847,-0.007 -2.107184,-0.65325 -3.216317,-1.443 -1.109134,-0.78983 -3.201862,-1.59424 -4.650515,-1.78758 -1.751624,-0.23384 -2.6339,-0.67824 -2.6339,-1.32667 0,-0.74803 0.756687,-0.95525 3.250123,-0.89004 4.71168,0.12331 18.958339,2.06702 22.750831,3.10397 4.40881,1.20549 10.07208,2.16454 15.92559,2.69695 5.523887,0.5024 13.000467,2.5929 13.000467,3.635 0,0.4073 -0.46964,0.4984 -1.13754,0.2208 -3.60475,-1.4979 -7.58891,-2.3518 -12.187937,-2.6122 l -5.20019,-0.2945 6.17522,1.3081 c 3.396367,0.7194 7.491517,1.7646 9.100327,2.3228 5.03462,1.7465 5.98977,1.837 6.85812,0.6494 1.49857,-2.0493 0.41023,-3.3081 -4.13641,-4.784 -4.7982,-1.55741 -6.13665,-1.84168 -12.797067,-2.71772 -13.19788,-1.73592 -22.358094,-4.06043 -22.945497,-5.8226 -0.239188,-0.71762 0.786285,-0.81399 5.475376,-0.5147 12.228481,0.78057 20.512248,1.77365 25.140198,3.01384 6.74317,1.80703 10.41462,1.98666 10.71608,0.52429 0.33006,-1.60114 -2.59358,-2.6143 -7.33576,-2.54209 -2.14508,0.0329 -6.38649,-0.34437 -9.425347,-0.83784 l -5.5252,-0.89716 9.449597,0.23231 c 5.19729,0.12779 10.25182,0.53734 11.23231,0.91008 1.60216,0.60913 1.84658,0.5098 2.41334,-0.9809 0.97844,-2.57348 0.75148,-5.25333 -0.66943,-7.90447 -0.71502,-1.33406 -1.30978,-2.72244 -1.32167,-3.08523 -0.0749,-2.28368 -5.52702,-5.79848 -8.02285,-5.17204 -2.08238,0.52261 -6.17319,-1.6284 -8.113637,-4.26636 -0.89038,-1.21044 -1.83095,-3.82529 -2.24461,-6.24024 -0.39161,-2.28622 -0.91623,-4.15675 -1.16581,-4.15675 -1.05247,0 -3.1823,-4.81036 -3.1823,-7.1874 0,-6.11578 -4.91324,-0.6868 -6.03962,6.67362 -0.76246,4.98236 -1.2596,5.91105 -3.55399,6.63928 -2.043626,0.64861 -3.777176,-0.54151 -5.788891,-3.97425 -1.446057,-2.46748 -1.779266,-3.84302 -1.807955,-7.46313 -0.01934,-2.44091 -0.07125,-4.43816 -0.115366,-4.43826 -0.227381,0 -4.135074,10.35131 -4.539351,12.02521 -0.259036,1.0726 -0.934418,2.32168 -1.500847,2.77589 -1.348714,1.08139 -5.541022,0.48026 -8.226847,-1.17966 -1.131243,-0.69916 -2.78135,-1.27121 -3.666905,-1.27121 -2.238442,0 -3.737762,-1.90964 -4.062552,-5.1744 -0.36554,-3.67441 -0.708397,-3.85395 -1.684184,-0.88185 -0.44803,1.36461 -1.521822,3.60525 -2.386205,4.97921 -0.864383,1.37393 -1.423788,2.88328 -1.243126,3.35406 0.610901,1.59197 -1.118905,5.60074 -2.992446,6.93481 -1.777543,1.2657 -3.80478,1.36795 -6.343685,0.31993 -0.686157,-0.28322 -1.383481,0.41172 -2.35359,2.34566 -1.198719,2.38967 -1.689681,2.77464 -3.76374,2.9514 -1.965447,0.16756 -2.713547,-0.14816 -4.251025,-1.79406 -1.756433,-1.88024 -1.848061,-2.25424 -1.562789,-6.37849 0.461477,-6.67173 0.440713,-9.82744 -0.09575,-14.55069 -0.880406,-7.75154 2.658721,-21.68768 8.102207,-31.90439 5.91088,-11.09397 17.48631,-21.06777 27.975561,-24.10476 11.839456,-3.42792 18.689553,-3.46315 29.251073,-0.15043 8.5356,2.6773 9.88069,3.40534 14.55749,7.87961 2.39874,2.29488 4.83981,4.17249 5.42459,4.17249 1.11904,0 5.35679,-2.63341 5.36441,-3.33359 0.002,-0.22463 1.68522,-1.68718 3.73951,-3.25009 2.05429,-1.56291 4.02874,-3.07985 4.38766,-3.37104 0.35893,-0.29119 2.624,-1.78356 5.03351,-3.31643 2.4095,-1.53286 4.9091,-3.48841 5.55465,-4.34573 2.44746,-3.25037 4.48748,-9.61471 6.32522,-19.73304 1.20258,-6.62118 4.4366,-13.94727 9.05046,-20.50218 6.0548,-8.60204 6.99358,-12.8851 2.64543,-12.06939 -2.73966,0.51397 -9.11363,-1.79249 -10.40648,-3.76563 -0.51376,-0.78409 -1.67341,-3.69041 -2.57699,-6.45848 -1.88464,-5.77343 -1.69651,-6.48479 2.48279,-9.38808 2.41003,-1.67421 2.57582,-1.70011 4.35303,-0.68014 1.83442,1.05282 1.85692,1.0445 3.16351,-1.17001 1.57054,-2.66189 4.24483,-4.13834 5.4012,-2.98197 1.08753,1.08754 1.60212,0.94856 1.99078,-0.53765 0.22973,-0.8785 0.88663,-1.30005 2.02588,-1.30005 0.92725,0 1.68591,0.29251 1.68591,0.65003 0,1.34501 2.66714,3.25012 4.55017,3.25012 1.52676,0 1.95007,-0.28664 1.95007,-1.32046 0,-2.24141 1.8577,-2.27094 4.01556,-0.0638 2.40341,2.45826 4.2049,2.59996 5.20305,0.40925 0.7936,-1.74177 2.56044,-2.13768 3.62604,-0.81253 0.35936,0.44689 0.6478,2.07431 0.64098,3.61649 -0.007,1.54219 0.31999,3.13637 0.72626,3.54263 0.98038,0.98039 0.94901,7.15855 -0.0414,8.14894 -0.60669,0.60668 -0.60669,0.95336 0,1.56005 1.06939,1.0694 0.97884,3.01417 -0.19502,4.18801 -1.41284,1.41286 -1.23092,4.99927 0.32502,6.40738 1.8115,1.6394 1.62116,3.20223 -0.48752,4.00294 l -1.78756,0.67876 1.63936,0.67433 c 0.90166,0.37088 2.93144,1.75383 4.51065,3.07322 1.57922,1.31939 4.22037,3.08252 5.86924,3.91807 3.24536,1.64455 4.55635,3.68285 4.55635,7.08411 0,2.18754 -1.5163,5.88187 -3.04894,7.42849 -1.11486,1.12502 -1.08365,4.27666 0.0678,6.84308 2.16384,4.82302 2.38252,6.74793 1.97788,17.41014 -0.22206,5.85153 -0.68785,11.95541 -1.03507,13.56419 -1.22707,5.68555 -5.27866,12.64179 -11.50049,19.74555 -1.21389,1.38595 -3.09566,4.45729 -4.18171,6.82525 -1.08607,2.36797 -4.10575,7.52298 -6.7104,11.45561 -6.83704,10.32293 -14.7575,17.84559 -23.32426,22.15268 -5.40946,2.71974 -6.58518,3.71471 -8.25433,6.98517 -1.48233,2.90438 -2.77647,12.92646 -2.28093,17.66387 0.55263,5.28348 1.93073,7.28902 5.79767,8.43732 1.82983,0.5434 4.27643,0.988 5.43688,0.988 1.5127,0 2.49673,0.4917 3.47644,1.7373 0.75158,0.9554 2.00715,2.0566 2.79013,2.447 1.63723,0.8162 3.60479,3.9659 2.9109,4.6598 -0.25709,0.2571 -1.21373,0.1274 -2.12585,-0.2882 -3.19976,-1.4579 -8.62728,-0.6632 -6.10729,0.8943 1.25218,0.7739 1.95469,3.5522 1.23718,4.8929 -0.82529,1.5421 -2.10746,1.5953 -4.27144,0.1774 -1.22508,-0.8027 -3.23828,-1.0948 -7.83962,-1.1375 -3.40519,-0.031 -6.29952,0.1178 -6.43186,0.3321 -0.13234,0.2142 0.47625,0.7732 1.35241,1.2421 2.05955,1.1022 2.89002,4.8449 1.40465,6.3302 -0.93189,0.9319 -1.0948,0.8685 -1.81232,-0.7064 z m -12.5044,-4.2191 c -0.59169,-0.6538 -1.07578,-1.3979 -1.07578,-1.6533 0,-0.2557 -0.73128,-1.2535 -1.62506,-2.2174 -2.96248,-3.1949 -1.65751,-4.7056 1.49092,-1.726 2.64332,2.5016 9.29099,6.2528 10.35632,5.844 1.65117,-0.6336 0.49543,-1.9556 -2.58659,-2.9587 -6.30977,-2.0536 -9.96539,-6.8097 -8.89205,-11.5687 0.338,-1.4986 0.27948,-2.6676 -0.16,-3.1971 -0.51566,-0.6213 -0.42315,-0.8348 0.36184,-0.8348 1.24272,0 1.4432,-2.33493 0.24209,-2.81957 -0.4854,-0.19589 -0.35455,-0.34854 0.32501,-0.37918 1.19402,-0.0539 1.67164,-2.65143 0.48752,-2.65143 -0.35752,0 -0.65003,-0.26003 -0.65003,-0.57779 0,-0.3178 0.50069,-0.5372 1.11264,-0.48753 0.61195,0.0497 1.21842,-0.42162 1.34771,-1.04723 0.14486,-0.70101 -0.15742,-1.13753 -0.78763,-1.13753 -0.56248,0 -1.02269,-0.29254 -1.02269,-0.65006 0,-0.35751 0.58502,-0.64999 1.30004,-0.64999 1.60354,0 1.68988,-1.00845 0.16251,-1.89807 -1.0159,-0.59168 -0.98115,-0.66462 0.32502,-0.68231 1.67705,-0.0227 1.96264,-1.16868 0.43711,-1.75411 -1.61063,-0.61807 -2.80665,1.12744 -3.55819,5.19287 -0.73437,3.97262 -2.84626,8.23227 -4.0934,8.25641 -0.41157,0.008 -0.053,0.54906 0.7968,1.20262 1.4314,1.1006 1.48735,1.3632 0.76016,3.5665 -0.43173,1.3083 -1.17728,2.7708 -1.65679,3.2503 -0.47952,0.4796 -0.94952,1.2813 -1.04448,1.7817 -0.31397,1.6547 2.79302,7.0909 5.17481,9.0542 2.58941,2.1343 4.15837,2.6055 2.47219,0.7422 z m 28.02279,-4.824 c -0.25236,-0.7861 -4.17152,-3.5494 -8.24847,-5.8155 -2.29616,-1.2764 -5.97905,-6.7089 -5.46187,-8.0567 0.19329,-0.5037 0.0197,-0.91586 -0.38583,-0.91586 -0.49316,0 -0.63251,-1.06873 -0.42091,-3.22799 0.18103,-1.84729 0.0329,-3.40321 -0.34622,-3.63756 -0.3978,-0.24582 -0.19246,-0.76923 0.51387,-1.30976 0.95586,-0.73147 1.01108,-1.00923 0.29451,-1.4814 -0.61539,-0.40551 -0.6645,-0.71549 -0.1625,-1.02575 1.13002,-0.69837 0.84086,-2.31575 -0.41812,-2.33862 -1.08338,-0.0199 -1.08338,-0.0618 0,-0.88421 1.2896,-0.97896 1.51493,-2.34529 0.38677,-2.34529 -0.44274,0 -0.29873,-0.49943 0.351,-1.21738 1.04428,-1.15397 1.02411,-1.23821 -0.38677,-1.61494 -2.08929,-0.55789 -2.85612,0.77141 -3.37683,5.85385 -0.49201,4.80226 -1.2607,6.72889 -2.68475,6.72889 -0.52369,0 -0.95217,0.43875 -0.95217,0.97503 0,0.53627 0.28112,0.97501 0.6247,0.97501 1.24708,0 3.27545,2.88906 3.27545,4.66528 0,1.957 -1.71512,4.4351 -3.06957,4.4351 -0.45682,0 -0.83058,0.1223 -0.83058,0.2718 0,0.1496 -0.17754,0.7345 -0.39456,1.3 -0.5253,1.369 1.27117,1.3519 3.61789,-0.034 1.77237,-1.0469 1.83127,-1.0275 4.00044,1.3179 1.21086,1.3093 4.68792,3.6502 7.72678,5.2021 6.17198,3.152 6.72006,3.3403 6.34774,2.1804 z m -16.78293,-0.2805 c 1.47282,-0.394 1.49682,-0.462 0.32501,-0.9205 -1.80312,-0.7057 -6.14042,-0.6991 -6.14042,0.01 0,1.2013 2.98312,1.6686 5.81541,0.9111 z m 7.27295,-0.5574 c -1.20297,-0.5223 -2.51927,-0.9259 -2.92511,-0.8968 -1.02568,0.073 2.93608,1.8377 4.13728,1.8425 0.53627,0.01 -0.009,-0.4234 -1.21217,-0.9457 z m -4.46946,-2.9177 c -0.80107,-0.3221 -2.9949,-0.7839 -4.87518,-1.0262 -1.88028,-0.2424 -4.1014,-0.6936 -4.9358,-1.0029 -1.78219,-0.6605 -3.30076,-0.028 -1.96493,0.8183 0.48506,0.3074 2.05197,0.5925 3.48202,0.6337 1.43006,0.041 3.33138,0.3089 4.22516,0.5951 0.89378,0.2862 2.50259,0.531 3.57513,0.5441 1.79473,0.022 1.83405,-0.023 0.4936,-0.5621 z m -1.23356,-2.2571 c -0.4097,-1.0677 -3.82541,-1.3522 -4.43288,-0.3692 -0.32434,0.5247 0.68082,0.8369 4.01491,1.2469 0.45182,0.055 0.63138,-0.3215 0.41797,-0.8777 z m 15.92241,0.3963 c 0.6148,-0.3896 0.66402,-0.6935 0.1625,-1.0035 -0.39568,-0.2445 -0.98085,-0.283 -1.30038,-0.086 -0.31954,0.1976 -1.62644,-0.078 -2.90423,-0.6115 -1.27779,-0.534 -3.13706,-0.9619 -4.1317,-0.951 -1.68967,0.019 -1.72306,0.07 -0.5084,0.7782 1.75143,1.0219 5.62234,2.3907 6.82525,2.4136 0.53627,0.01 1.3719,-0.2329 1.85696,-0.5402 z m -48.65867,-2.0214 c -0.53627,-0.3465 -1.560057,-0.6054 -2.275077,-0.5753 -1.07101,0.045 -1.01375,0.1466 0.32501,0.5753 2.298267,0.7361 3.088997,0.7361 1.950067,0 z m 7.09609,-0.4057 c 0.62356,-0.5624 -0.74723,-0.9682 -7.39798,-2.1901 -3.856107,-0.7085 -8.071417,-1.5827 -9.367327,-1.9426 -2.93408,-0.815 -4.6313,-0.8409 -4.6313,-0.071 0,0.3251 2.1207,0.92 4.71267,1.3221 2.59197,0.4021 6.76025,1.4096 9.262837,2.239 3.94862,1.3085 6.44301,1.5244 7.4211,0.6424 z m -11.483747,-0.6747 c -0.44689,-0.1804 -1.17817,-0.1804 -1.62506,0 -0.44689,0.1803 -0.0812,0.3278 0.81253,0.3278 0.89378,0 1.25942,-0.1475 0.81253,-0.3278 z m 27.373557,-0.5447 c 0.2545,-0.6631 -0.0351,-0.9749 -0.90549,-0.9749 -0.70412,0 -1.27965,0.4385 -1.27965,0.9749 0,0.5364 0.40747,0.9751 0.90549,0.9751 0.49802,0 1.07385,-0.4387 1.27965,-0.9751 z m 25.11586,0.3251 c 0,-0.3576 -1.24317,-0.6115 -2.7626,-0.5644 l -2.7626,0.086 2.27507,0.4789 c 1.2513,0.2633 2.49447,0.5174 2.76261,0.5645 0.26813,0.047 0.48752,-0.207 0.48752,-0.5645 z m -21.10291,-2.9999 c 2.88338,-1.8892 2.20293,-2.82448 -2.78546,-3.82844 -2.73857,-0.5512 -2.85956,0.80912 -0.16251,1.82714 2.52899,0.9546 2.53592,1.8283 0.009,1.1035 -2.10604,-0.6039 -3.44777,0.3671 -1.87961,1.3603 1.36069,0.8619 3.04423,0.7003 4.81883,-0.4625 z m -50.724721,-2.20031 c -0.220954,-0.35749 -0.896366,-0.6294 -1.500913,-0.60432 -0.896052,0.0371 -0.858937,0.1489 0.200867,0.60432 1.739409,0.74741 1.761999,0.74741 1.300046,0 z m 13.447374,0.20601 c -0.46924,-0.18777 -1.02989,-0.16472 -1.24588,0.052 -0.216,0.216 0.16792,0.3696 0.85315,0.3414 0.75724,-0.031 0.91127,-0.1852 0.39273,-0.3927 z m -9.22222,-1.49127 c -1.966319,-0.63546 -5.183936,-1.34041 -7.150255,-1.56657 -3.532286,-0.40625 -3.517382,-0.39551 1.243396,0.89287 2.6502,0.71717 4.965904,1.45134 5.146029,1.6315 0.18012,0.18008 1.22939,0.2983 2.33173,0.2626 1.7208,-0.056 1.49866,-0.22836 -1.5709,-1.2204 z m 6.01272,0.85485 c -0.44689,-0.18038 -1.17816,-0.18038 -1.62506,0 -0.44689,0.18023 -0.0812,0.32782 0.81254,0.32782 0.89378,0 1.25942,-0.14759 0.81252,-0.32782 z m 22.588327,-1.49351 c 0,-1.92727 -7.15026,-3.91953 -15.600567,-4.34675 -3.75388,-0.18983 -7.70278,-0.58854 -8.77533,-0.88611 -1.07253,-0.29758 -3.70513,-0.7024 -5.850212,-0.89962 -3.682761,-0.33869 -3.791446,-0.30925 -1.950069,0.52849 2.051687,0.93341 8.391181,2.18301 21.610651,4.25974 4.378077,0.68782 8.473227,1.54939 9.100327,1.91457 1.50554,0.8768 1.4652,0.89258 1.4652,-0.57032 z m 17.84271,-0.85264 c -0.44491,-1.15943 -2.81973,-2.54506 -3.56863,-2.08224 -1.05699,0.65324 -0.69375,1.62238 0.83898,2.2385 2.10936,0.84783 3.09334,0.79155 2.72965,-0.15626 z m -57.981673,-0.90402 c -0.446896,-0.18033 -1.178173,-0.18033 -1.625061,0 -0.446889,0.18029 -0.08125,0.32785 0.81253,0.32785 0.893777,0 1.25942,-0.14756 0.812531,-0.32785 z m 58.768443,-8.54582 c 0.84667,-2.92437 0.20415,-4.1 -1.37674,-2.51909 -1.16393,1.16392 -1.92582,4.02651 -1.32878,4.9925 0.80023,1.29482 1.90764,0.2824 2.70552,-2.47341 z m -4.96111,-5.14755 c 3.57997,-2.5023 7.95243,-6.72358 7.46711,-7.20889 -0.14828,-0.14825 -1.08865,0.59409 -2.08971,1.64979 -1.00108,1.05565 -3.20957,2.89438 -4.90775,4.08611 -1.69819,1.19166 -3.08762,2.26342 -3.08762,2.38154 0,0.52151 1.13603,0.12729 2.61797,-0.90855 z m -0.27791,-2.0243 c 3.1692,-2.30974 8.06033,-7.59533 8.06033,-8.71036 0,-0.46018 0.57954,-1.91802 1.28787,-3.23959 0.85096,-1.58767 0.99977,-2.29233 0.43867,-2.07701 -0.46707,0.17927 -1.33513,1.42724 -1.92902,2.77334 -1.16609,2.64296 -6.81219,8.86403 -9.71038,10.69925 -1.71523,1.0861 -2.39184,2.40199 -1.23508,2.40199 0.30388,0 1.6933,-0.8314 3.08761,-1.84762 z m -1.44982,-1.90825 c 2.74659,-2.0479 6.91005,-7.05627 6.91005,-8.31235 0,-0.45916 -2.34008,1.51468 -5.20019,4.38638 -2.86011,2.87165 -5.20019,5.33604 -5.20019,5.47647 0,0.66537 1.28265,0.0956 3.49033,-1.5505 z m 14.06032,-0.54886 c 0,-0.86375 -0.17649,-0.90815 -0.97504,-0.24542 -0.53627,0.44505 -0.97504,0.91962 -0.97504,1.0546 0,0.13501 0.43877,0.24545 0.97504,0.24545 0.53627,0 0.97504,-0.47462 0.97504,-1.05463 z m -13.85402,-3.33305 c 3.30994,-3.61223 6.3998,-8.48341 5.77651,-9.1067 -0.83409,-0.83409 -2.65892,0.91545 -4.23604,4.06131 -0.87347,1.74231 -2.55541,4.16382 -3.73764,5.38121 -2.35513,2.42513 -2.52022,2.75181 -1.39078,2.75181 0.41729,0 2.03186,-1.38942 3.58795,-3.08763 z m -3.6166,-0.0526 c 0.56043,-0.65453 1.67487,-2.5034 2.47653,-4.10857 0.80166,-1.60516 3.04073,-4.64692 4.9757,-6.75947 3.30082,-3.60368 4.0935,-4.84249 3.09864,-4.84249 -1.17833,0 -8.01404,8.30064 -10.13718,12.30959 -2.3493,4.43605 -2.52307,5.86454 -0.41369,3.40094 z m -85.900214,-8.68432 c 0.0094,-0.60459 0.309557,-1.28 0.667071,-1.50098 0.357514,-0.22093 0.650023,-0.88171 0.650023,-1.46839 0,-0.66481 -0.226276,-0.83403 -0.600606,-0.44916 -0.825066,0.84829 -3.310957,7.5426 -3.24659,8.74285 0.06763,1.26103 2.507607,-3.87371 2.530102,-5.32432 z m 1.191556,3.68203 c -0.200132,-0.20014 -0.5636,0.16062 -0.80771,0.80168 -0.352755,0.92643 -0.27809,1.00109 0.363883,0.36391 0.444242,-0.44093 0.643959,-0.96544 0.443827,-1.16559 z m 83.576608,-0.0167 c 0.22198,-0.57849 0.113,-0.83941 -0.25547,-0.61168 -0.35342,0.21843 -0.64258,0.6724 -0.64258,1.00882 0,0.93498 0.46592,0.72896 0.89805,-0.39714 z m -13.91403,-10.55974 c 0.36603,-0.82121 0.66553,-2.22513 0.66553,-3.11985 0,-0.89476 0.39967,-2.41666 0.88815,-3.38205 0.4885,-0.96545 1.09615,-2.92535 1.35033,-4.35536 0.46309,-2.60528 1.82084,-7.39639 3.13157,-11.05043 0.9145,-2.54945 5.22649,-9.87117 7.27359,-12.35046 1.93686,-2.34579 2.35537,-0.74299 0.44387,1.69987 -4.54055,5.80279 -8.50144,14.69473 -9.52188,21.37599 -0.3251,2.12858 -0.2989,2.17042 0.40688,0.65 0.77127,-1.6615 1.69366,-3.89153 3.1591,-7.63776 0.45452,-1.16194 1.08342,-2.11261 1.39756,-2.11261 0.78156,0 0.81696,-0.15534 -1.43254,6.28703 -2.98266,8.54207 -2.97406,8.5043 -1.69989,7.45943 1.08176,-0.88699 4.35361,-7.25503 4.35361,-8.47338 0,-0.36177 0.93334,-2.04067 2.07408,-3.73091 2.33002,-3.45246 3.36436,-2.80783 1.17604,0.73294 -0.77417,1.25265 -1.28984,2.6307 -1.14594,3.0624 0.1439,0.43168 3.15964,-3.09905 6.70162,-7.84614 3.54199,-4.74709 6.54277,-8.32271 6.66839,-7.94585 0.12562,0.37686 -0.41148,1.58383 -1.19356,2.68216 -1.8617,2.61454 -1.11266,3.27767 1.19979,1.06223 2.03735,-1.95195 3.69036,-2.23753 4.26612,-0.73716 0.29192,0.76076 0.67925,0.84556 1.60322,0.35108 0.67006,-0.35858 2.22506,-0.48864 3.45553,-0.28897 2.76067,0.44801 6.79246,-1.33036 11.11593,-4.90312 3.0933,-2.55612 5.16257,-2.96367 8.45771,-1.66571 1.29067,0.50841 5.34545,-3.30077 6.36328,-5.97784 0.76397,-2.00943 1.90972,-1.94046 1.90972,0.11493 0,1.65432 -0.87194,3.60368 -2.54195,5.68286 -1.64881,2.05276 -0.34102,1.8185 1.87809,-0.33646 2.6242,-2.54834 6.28791,-8.12794 6.87627,-10.47215 0.23582,-0.93957 0.72367,-1.7083 1.08413,-1.7083 0.36045,0 0.49412,0.51188 0.29704,1.13753 -1.15961,3.68126 -1.20642,4.06266 -0.49873,4.06266 0.41043,0 0.9146,-0.4388 1.12039,-0.97507 0.20579,-0.53628 0.67419,-0.97502 1.0409,-0.97502 1.11231,0 2.98945,-2.57728 5.04347,-6.92459 1.07214,-2.26919 2.24973,-4.12583 2.61688,-4.12583 0.38344,0 0.24547,0.81621 -0.32419,1.91778 -0.54545,1.05478 -0.99174,2.6636 -0.99174,3.57512 0,0.91156 -0.2925,1.65738 -0.65001,1.65738 -0.35752,0 -0.65003,0.43874 -0.65003,0.97502 0,1.42844 1.09223,1.18993 1.4884,-0.32498 0.18698,-0.71503 0.78192,-1.30004 1.32209,-1.30004 0.57,0 1.46705,-1.26978 2.13775,-3.02602 0.63559,-1.66428 1.84305,-3.84289 2.68324,-4.84138 1.01169,-1.20233 1.85688,-3.56123 2.50254,-6.98447 0.87102,-4.61819 0.86855,-5.62756 -0.0231,-9.47238 -1.09449,-4.71932 -2.29046,-6.9313 -5.20596,-9.62844 -2.62369,-2.4272 -5.61239,-3.74873 -8.47802,-3.74873 -3.17496,0 -5.56001,-1.4925 -7.3471,-4.59765 -1.22458,-2.12777 -1.44518,-3.4105 -1.36005,-7.90884 0.15898,-8.40108 0.26861,-8.05733 -2.9635,-9.29169 -3.67358,-1.40294 -4.65111,-2.5546 -5.08469,-5.99032 -0.39985,-3.16846 0.50457,-3.76351 1.1631,-0.76525 0.4758,2.16631 3.54211,4.49627 5.92274,4.50045 2.65248,0.004 3.1793,1.62574 3.00483,9.24628 -0.24449,10.67886 0.85041,11.82892 11.32428,11.89473 7.75392,0.0487 7.70153,0.10742 5.11856,-5.73314 -1.14374,-2.5862 -3.44847,-5.49825 -8.14367,-10.28962 -7.38762,-7.53893 -7.76939,-8.75031 -2.53066,-8.02979 4.26905,0.58714 4.17018,-0.92748 -0.1286,-1.97012 -2.3014,-0.55818 -2.92261,-1.01243 -3.10311,-2.26909 -0.12412,-0.86416 -0.6747,-1.89954 -1.22352,-2.30084 -0.89324,-0.65315 -0.88472,-0.9023 0.0812,-2.37649 1.03832,-1.58467 1.01959,-1.6858 -0.49633,-2.67907 -3.16963,-2.07683 -4.59913,-1.9945 -8.32514,0.47943 -3.42874,2.27655 -5.93616,5.39286 -5.65831,7.03233 0.26475,1.56215 -0.86665,5.65381 -1.77086,6.40423 -0.49886,0.41403 -0.90704,1.15573 -0.90704,1.64822 0,0.49249 -0.2925,0.89544 -0.65002,0.89544 -0.35751,0 -0.65002,0.58502 -0.65002,1.30005 0,0.71503 -0.29251,1.30005 -0.65003,1.30005 -0.3575,0 -0.65152,0.5119 -0.65334,1.13754 -0.002,0.62565 -0.72399,2.30759 -1.60478,3.73763 -0.88079,1.43006 -1.61058,3.07856 -1.62173,3.66334 -0.0111,0.58478 -0.45726,1.90108 -0.99132,2.92511 -0.53406,1.02402 -0.97283,2.4641 -0.97504,3.20018 -0.002,0.73607 -0.43346,1.90612 -0.95836,2.60009 -1.17001,1.5469 -1.25699,3.78615 -0.21203,5.45938 0.63324,1.014 0.58846,1.48021 -0.23334,2.4288 -1.14237,1.31858 -2.05186,4.30023 -1.13974,3.73651 1.08583,-0.67111 0.60409,3.17183 -0.74767,5.96414 -1.19581,2.47027 -9.27683,9.95677 -10.8162,10.02055 -0.81935,0.0338 -3.4473,2.3918 -3.4473,3.09304 0,0.34715 -1.09691,1.45136 -2.43758,2.45378 -1.34068,1.00247 -4.04641,3.3841 -6.01273,5.29253 -1.96632,1.90839 -4.2009,3.63284 -4.96573,3.83209 -0.76483,0.19927 -2.51985,2.02064 -3.90005,4.04752 -1.38019,2.02688 -3.03592,4.26789 -3.6794,4.98005 -1.39304,1.54166 -4.35544,6.72898 -4.35544,7.62666 0,0.34784 -0.47705,1.63775 -1.06013,2.86647 -1.51727,3.19737 -0.63369,3.43552 1.31188,0.35354 2.19211,-3.47251 3.54897,-4.23086 1.83714,-1.02673 -3.92181,7.34056 -5.09074,12.29325 -5.60733,23.75793 -0.27785,6.16609 -0.16641,9.43706 0.36543,10.7254 0.74084,1.79466 0.78201,1.72953 1.29357,-2.04651 0.29061,-2.14505 0.82786,-4.57204 1.19392,-5.39329 z m 43.90086,-61.33301 c 0.41855,-4.7283 0.35582,-5.25559 -0.58237,-4.89558 -1.32207,0.5073 -1.36976,-0.4324 -0.0764,-1.50579 0.53626,-0.44508 0.97951,-1.43154 0.98498,-2.19216 0.0151,-2.08641 1.07262,-3.48551 1.96223,-2.59589 0.53503,0.53498 0.47021,1.58855 -0.24613,4.00068 -1.02034,3.43593 -0.89429,4.17637 0.61258,3.59812 0.50132,-0.19237 0.91149,-0.026 0.91149,0.36983 0,0.39575 -0.24556,0.71956 -0.54568,0.71956 -0.89166,0 -2.05442,3.14447 -2.05442,5.55576 0,1.2345 -0.32296,2.24452 -0.71767,2.24452 -0.50324,0 -0.57752,-1.58345 -0.24861,-5.29905 z m 13.31673,5.05359 c 0,-0.13492 0.43877,-0.60954 0.97504,-1.05459 0.79856,-0.66272 0.97504,-0.61834 0.97504,0.24541 0,0.58006 -0.43877,1.05464 -0.97504,1.05464 -0.53627,0 -0.97504,-0.11044 -0.97504,-0.24546 z m -0.002,-3.97711 c 0.83833,-0.8924 1.66756,-1.47922 1.84272,-1.30407 0.43152,0.43153 -1.8741,2.92655 -2.70439,2.92655 -0.36442,0 0.0233,-0.73012 0.86167,-1.62248 z m -3.89773,0.13043 c 0,-0.5739 0.41584,-1.27736 0.92411,-1.56327 0.50827,-0.28591 1.99952,-1.92931 3.31391,-3.652 1.31438,-1.72268 2.54234,-2.9796 2.7288,-2.7931 0.39964,0.39964 -3.65663,6.0562 -5.61139,7.82527 -1.16827,1.05722 -1.35543,1.0825 -1.35543,0.1831 z m -1.57087,-5.30618 c 2.65257,-2.34218 3.52093,-2.74964 3.52093,-1.65205 0,0.35747 -0.2618,0.65 -0.58179,0.65 -0.31999,0 -1.27065,0.72624 -2.11258,1.61382 -0.84193,0.88759 -1.94515,1.61887 -2.45161,1.62507 -0.50646,0.006 0.22482,-1.00038 1.62505,-2.23684 z m -11.5631,-1.89686 c 0.71224,-1.20715 1.49566,-3.10845 1.74092,-4.22511 0.40639,-1.85031 1.64268,-2.90248 1.64268,-1.39809 0,1.22108 -3.40938,7.81806 -4.04045,7.81806 -0.35096,0 -0.0554,-0.98766 0.65685,-2.19486 z m 32.47217,-24.82793 c -0.98316,-0.53337 -1.78757,-1.22901 -1.78757,-1.54586 0,-0.31686 -0.19197,-1.11192 -0.42662,-1.76681 -0.27141,-0.75748 0.0796,-0.5669 0.96476,0.52381 0.76525,0.94298 2.12728,1.89922 3.02671,2.12497 0.89944,0.22574 1.63534,0.69737 1.63534,1.04807 0,0.89857 -1.3226,0.74968 -3.41262,-0.38418 z m -2.34174,-6.60191 c 0.009,-0.63337 -0.19261,-2.32162 -0.44901,-3.75168 -0.31188,-1.73953 -0.2502,-2.38495 0.18638,-1.95007 0.86067,0.85733 1.49742,6.0796 0.79427,6.51416 -0.30184,0.18655 -0.54108,-0.17903 -0.53164,-0.81241 z m -9.90025,-18.11671 c -1.8049,-2.17477 -0.002,-7.41053 2.55213,-7.41053 0.75659,0 0.65397,0.31945 -0.42576,1.32537 -2.03015,1.89138 -1.75753,2.78135 0.49518,1.61643 2.43329,-1.2583 2.44466,-1.25701 3.31779,0.37445 0.6184,1.1555 0.45282,1.65668 -1.07377,3.25012 -2.02531,2.11396 -3.58688,2.38488 -4.86557,0.84416 z M 132.08559,965.2474 c 0.59504,-1.11185 0.52412,-1.16549 -0.68552,-0.51809 -0.74208,0.39714 -1.34924,0.83413 -1.34924,0.97105 0,0.13696 -0.20102,0.78479 -0.44672,1.43969 -0.39828,1.06157 -0.32396,1.09079 0.68551,0.26915 0.62273,-0.50688 1.43092,-1.47968 1.79597,-2.1618 z m -11.78512,0.96937 c 0,-0.26888 1.31629,-1.90232 2.9251,-3.62982 2.79823,-3.00464 3.53423,-4.33158 2.4026,-4.33158 -1.05307,0 -6.62775,6.81508 -6.62775,8.10244 0,0.19134 0.29251,0.34789 0.65002,0.34789 0.35752,0 0.65003,-0.22005 0.65003,-0.48893 z m -0.34769,-5.22134 c 0.36999,-0.4593 1.05923,-1.26371 1.53166,-1.78757 0.47242,-0.52387 0.57586,-0.95249 0.22985,-0.95249 -0.99457,0 -4.66394,4.47859 -4.66394,5.69244 0,0.83112 0.27027,0.70745 1.11486,-0.51012 0.61317,-0.88393 1.41758,-1.98295 1.78757,-2.44226 z M 82.174933,961.343 c 0.54087,-1.51944 1.15145,-4.8759 1.35682,-7.45882 0.20537,-2.58297 0.97524,-6.23932 1.71082,-8.12535 3.52645,-9.04159 12.09341,-19.35461 16.077757,-19.35461 1.51845,0 2.13118,-0.43935 2.94637,-2.11257 1.01745,-2.08839 1.01037,-2.115 -0.61809,-2.32301 -4.720717,-0.60307 -17.273467,8.67457 -21.608017,15.97029 -4.774856,8.0368 -6.166291,18.3639 -3.179138,23.59528 0.804403,1.40878 1.657742,2.56362 1.896313,2.5664 0.238563,0.004 0.876285,-1.23821 1.417165,-2.75761 z m 48.525907,1.78753 c 0.45141,-0.54386 0.52179,-0.97502 0.15919,-0.97502 -0.35751,0 -1.01416,0.4388 -1.45923,0.97502 -0.45139,0.54391 -0.52179,0.97508 -0.15919,0.97508 0.35752,0 1.01417,-0.43876 1.45923,-0.97508 z M 33.1248,957.28035 c 0.01453,-0.35752 -0.39162,0.0812 -0.902552,0.97502 -0.510933,0.89379 -0.917078,2.21009 -0.902548,2.92512 0.01731,0.85126 0.328864,0.51466 0.902548,-0.97502 0.481874,-1.25131 0.888018,-2.5676 0.902552,-2.92512 z m 32.289324,4.06265 c -0.09313,-0.4469 -0.396265,-1.33805 -0.673644,-1.98027 -0.44947,-1.0407 -0.194759,-4.94695 0.496058,-7.60759 0.139242,-0.53627 0.472102,-2.14505 0.739696,-3.57512 0.267589,-1.43006 0.919567,-3.56395 1.44883,-4.74194 0.529269,-1.17809 0.844636,-2.49438 0.700821,-2.92512 -0.299925,-0.89837 -2.781193,5.43903 -3.717087,9.49376 -1.010387,4.37749 -0.845909,12.14879 0.257117,12.14879 0.504637,0 0.841336,-0.36561 0.748209,-0.81251 z m -22.018405,-3.57512 c -0.163503,-0.62569 -0.297271,-0.11377 -0.297271,1.13754 0,1.25126 0.133768,1.76319 0.297271,1.13753 0.163497,-0.62565 0.163497,-1.64941 0,-2.27507 z m 25.617959,-7.89405 c 0.737552,-3.71606 1.561715,-7.22614 1.831461,-7.80023 3.232964,-6.88066 4.954896,-9.99476 5.680481,-10.27317 0.480303,-0.18432 0.873282,-0.85663 0.873282,-1.49408 0,-1.25492 4.738911,-7.96678 7.115141,-10.07734 0.80501,-0.71504 3.82471,-2.4735 6.71045,-3.90769 6.35087,-3.15636 7.05661,-4.2571 2.64167,-4.12023 -1.92389,0.0596 -2.44457,0.20278 -1.34319,0.36923 1.9989,0.30216 1.79563,1.48348 -0.25525,1.48348 -0.71779,0 -2.26381,0.73123 -3.43563,1.62502 -1.17181,0.89379 -2.4861,1.62507 -2.92064,1.62507 -0.94583,0 -7.696749,6.27597 -8.633276,8.02583 -0.468845,0.87607 -0.452727,1.10388 0.05591,0.78956 1.43609,-0.88754 0.666513,1.40316 -0.985762,2.93423 -1.570315,1.45511 -4.444487,6.96874 -6.920677,13.27628 -1.656557,4.2197 -3.40259,16.82576 -2.520918,18.20065 0.229257,0.35757 0.495396,-0.37376 0.591409,-1.62502 0.09601,-1.25131 0.778026,-5.31548 1.515577,-9.03159 z m 37.932732,5.53585 c 0.25199,-1.74393 0.6275,-3.64519 0.83445,-4.22516 0.20697,-0.57992 0.15047,-0.85083 -0.12554,-0.602 -0.46064,0.41529 -2.25568,7.79121 -2.26279,9.29792 -0.008,1.67131 1.14612,-1.649 1.55388,-4.47076 z m -70.298907,-1.96037 c 0.21561,-2.3089 0.861431,-5.75529 1.435166,-7.65873 0.573735,-1.90343 1.507012,-5.06956 2.07395,-7.0359 1.171411,-4.06284 2.881238,-8.02093 3.60355,-8.34197 0.268132,-0.11919 0.487516,-0.5989 0.487516,-1.06607 0,-0.46712 1.247794,-2.56343 2.772858,-4.6585 1.525072,-2.09501 3.256935,-4.56782 3.848585,-5.49512 3.926413,-6.15396 17.848522,-16.09226 25.392235,-18.12622 1.69818,-0.45786 3.087608,-1.09082 3.087608,-1.40664 0,-1.01048 -8.027041,0.004 -10.856492,1.37249 -1.502163,0.72636 -3.193285,1.32068 -3.758041,1.32068 -0.564763,0 -1.201656,0.4556 -1.415333,1.01243 -0.213669,0.55678 -0.768123,0.86671 -1.232119,0.68865 -0.463995,-0.17807 -1.193346,0.0976 -1.620771,0.61264 -0.427426,0.51503 -1.10973,0.93643 -1.516224,0.93643 -0.406495,0 -1.104437,0.58501 -1.550976,1.30004 -0.44654,0.71503 -1.111787,1.3 -1.478324,1.3 -1.334704,0 -9.755479,9.68728 -12.768231,14.68858 -5.993398,9.94931 -7.284517,14.49861 -7.79689,27.47255 -0.334473,8.46954 0.584248,10.66309 1.291933,3.08466 z m 6.69286,1.082 c -0.216003,-0.21602 -0.369626,0.16793 -0.34141,0.85315 0.03119,0.7572 0.18522,0.91124 0.392724,0.39274 0.187772,-0.46925 0.164682,-1.02992 -0.05133,-1.24589 z m 56.55207,0 c -0.216,-0.21602 -0.36963,0.16793 -0.3414,0.85315 0.0312,0.7572 0.18522,0.91124 0.39271,0.39274 0.187777,-0.46925 0.164687,-1.02992 -0.0513,-1.24589 z m -69.372151,-5.21375 c -0.05236,-4.31519 -0.235263,-5.7154 -0.573117,-4.38767 -0.933851,3.67 -0.674303,10.72539 0.394558,10.72539 0.140506,0 0.220856,-2.85193 0.178559,-6.33772 z m 67.600051,-6.20617 c 1.11617,-5.64787 2.025087,-10.62056 2.019817,-11.05042 -0.0105,-0.85028 -1.477587,1.49315 -2.562877,4.09361 -0.37302,0.89375 -0.96728,2.1277 -1.32058,2.74196 -1.45204,2.52475 -3.12327,14.09783 -2.24177,15.5241 1.017,1.64552 2.17636,-1.54819 4.10541,-11.30925 z m -54.299223,7.66873 c 0.275932,-1.81216 0.217413,-2.20611 -0.193095,-1.30005 -0.565359,1.24784 -0.933967,4.72946 -0.441603,4.17096 0.131333,-0.14895 0.416942,-1.44084 0.634698,-2.87091 z m 22.701474,-11.80285 c 2.420695,-4.75329 4.012408,-7.66017 4.392743,-8.0224 0.187998,-0.17905 1.334566,-1.64179 2.547942,-3.25061 1.213369,-1.60882 3.545897,-4.34912 5.183398,-6.08958 1.637486,-1.74046 2.392239,-2.86365 1.677204,-2.49599 -2.815536,1.44779 -10.951159,10.25151 -12.332459,13.3452 -0.347619,0.77859 -0.795976,1.56189 -0.996326,1.74065 -0.59399,0.52988 -3.947319,9.49816 -4.925854,13.17381 -1.587052,5.96141 -0.928522,6.20909 0.995061,0.37422 1.020398,-3.09521 2.576631,-7.04409 3.458291,-8.7753 z m 33.403369,8.05282 c -0.17805,-0.44005 -0.3129,0.0774 -0.29964,1.14993 0.0132,1.07255 0.15892,1.43262 0.32373,0.80016 0.164807,-0.63246 0.153967,-1.51 -0.0241,-1.95009 z m -53.78397,-5.67532 c 0.03177,-0.86667 -0.03432,-0.86667 -0.594383,0 -0.346565,0.53628 -0.614035,1.56003 -0.594383,2.27507 0.0357,1.30005 0.0357,1.30005 0.594383,0 0.307261,-0.71504 0.574731,-1.73879 0.594383,-2.27507 z m 85.533767,1.87951 c 3.12301,-0.79622 9.57331,-4.06349 11.8548,-6.00483 0.90483,-0.76993 2.83612,-2.49678 4.29176,-3.83747 1.66393,-1.53254 3.28361,-2.43758 4.3622,-2.43758 0.94356,0 2.24501,-0.58506 2.8921,-1.30009 1.26613,-1.39901 0.47467,-1.83572 -0.88355,-0.48749 -0.65669,0.6519 -0.72671,0.55548 -0.3541,-0.48753 0.25543,-0.71499 0.72573,-1.63961 1.0451,-2.05471 0.35501,-0.46133 0.2956,-0.93082 -0.15285,-1.20798 -0.40713,-0.25161 -1.19968,0.21214 -1.78111,1.04223 -2.50745,3.57993 -7.72502,7.87966 -12.07124,9.94778 -7.8233,3.72273 -9.05494,4.1488 -13.40212,4.63642 -5.79503,0.6501 -8.64038,2.50785 -4.73881,3.09406 2.15422,0.32368 5.42157,-0.007 8.93782,-0.90281 z m -97.88542,-9.35477 c 0.349742,-0.71503 1.270099,-2.7626 2.045238,-4.55018 0.775147,-1.78758 2.536048,-4.9139 3.913131,-6.9474 1.377076,-2.03355 2.691867,-4.44679 2.921756,-5.36275 0.229897,-0.91596 0.678792,-1.66533 0.997548,-1.66533 0.318755,0 0.578766,-0.36567 0.577791,-0.81256 -0.0029,-1.48769 -5.096196,4.98023 -7.037795,8.93781 -4.0872,8.33099 -6.626675,15.18079 -6.575982,17.73755 0.02439,1.23048 0.410727,0.58483 1.278689,-2.13695 0.684058,-2.1451 1.529889,-4.4852 1.879624,-5.20019 z m 26.71987,3.41261 c 3.708092,-7.83332 6.621569,-12.29895 10.592907,-16.2363 8.155631,-8.08587 15.228246,-11.08574 25.958886,-11.01061 3.494317,0.0245 6.337727,-0.22615 6.337727,-0.55868 0,-0.92998 -2.96092,-2.65471 -5.566357,-3.24231 -3.5622,-0.8034 -13.13348,0.33585 -18.499507,2.20193 -5.448345,1.89474 -9.798818,4.69548 -15.141941,9.7481 -4.541903,4.29487 -7.613923,10.51706 -8.065094,16.33527 -0.291251,3.756 0.515165,7.47525 1.620772,7.47525 0.292458,0 1.535636,-2.12066 2.762607,-4.71265 z m -13.05821,0.61168 c -0.04406,-1.37314 -0.06573,-1.37758 -0.604344,-0.12415 -0.768835,1.78916 -0.768835,2.42523 0,1.95005 0.357521,-0.22097 0.62947,-1.04264 0.604344,-1.8259 z m 23.392051,-3.37428 c 0,-0.35752 -0.560496,0.37376 -1.245555,1.62506 -0.685059,1.25127 -1.245562,2.56761 -1.245562,2.92512 0,0.35752 0.560503,-0.37381 1.245562,-1.62507 0.685059,-1.2513 1.245555,-2.5676 1.245555,-2.92511 z m -22.371333,-4.22516 c 0.905824,-1.78759 1.550787,-3.25014 1.433239,-3.25014 -0.467463,0 -2.903318,3.68786 -3.335717,5.05026 -0.797561,2.51288 0.190819,1.57767 1.902478,-1.80012 z m 7.475276,-6.86359 c 0,-0.15769 -0.292509,-0.28669 -0.650023,-0.28669 -0.357521,0 -0.65003,0.30979 -0.65003,0.68842 0,0.37857 0.292509,0.50762 0.65003,0.28665 0.357514,-0.22098 0.650023,-0.53073 0.650023,-0.68838 z m 20.534537,-3.6319 c 0.73348,-1.18679 -1.907778,0.49206 -3.316174,2.10788 l -1.292776,1.48316 2.092918,-1.45322 c 1.151105,-0.79927 2.283321,-1.76128 2.516032,-2.13782 z m 23.342072,-0.31054 c 0.715017,-0.44532 2.694447,-1.15721 4.398707,-1.58198 2.95772,-0.73725 4.25474,-1.60105 3.51487,-2.34089 -0.58938,-0.58941 -7.791577,1.78444 -9.840507,3.24343 -2.25038,1.60243 -4.24829,3.51328 -4.24829,4.0632 0,0.33308 1.72586,-0.61264 6.17522,-3.38376 z m -31.851168,-7.63745 c 4.22013,-3.16548 9.164026,-5.59237 13.494128,-6.62408 0.98655,-0.23505 1.93028,-0.64834 2.09719,-0.91842 0.48748,-0.78877 -7.540045,1.58045 -10.455694,3.08587 -4.042442,2.08719 -10.020618,6.74328 -13.82726,10.76927 -3.987536,4.21734 -3.75316,4.88261 0.309311,0.87796 2.107692,-2.07766 5.879733,-5.31345 8.382325,-7.1906 z m 34.934945,3.14655 c 3.99355,-1.26838 4.37432,-1.50606 2.48414,-1.55082 -2.69826,-0.0639 -6.709357,1.78892 -9.793067,4.52362 l -2.27509,2.01757 2.43376,-1.74624 c 1.33857,-0.9604 4.556187,-2.42027 7.150257,-3.24413 z m -17.699437,1.10805 c -0.43317,-0.14441 -1.27075,0.23098 -1.86129,0.83418 -1.0051,1.02663 -0.95478,1.04339 0.7876,0.26254 1.0237,-0.45879 1.50687,-0.95235 1.07369,-1.09672 z m 38.341527,-10.28701 c 0,-0.5734 -2.35042,1.02423 -3.58241,2.43499 -1.05877,1.21238 -0.85156,1.1505 1.14482,-0.34197 1.34067,-1.00228 2.43759,-1.94416 2.43759,-2.09302 z m -28.334697,-2.8188 c -0.40941,-0.40935 -2.05362,-0.43823 -4.51766,-0.0792 l -3.87399,0.56447 4.51767,0.0792 c 2.98209,0.0523 4.29887,-0.13952 3.87398,-0.56443 z m 47.486967,-14.13272 c 0.90666,-1.3343 1.63556,-2.86998 1.61976,-3.4126 -0.0158,-0.54266 -0.59809,0.0913 -1.29397,1.40882 -0.69588,1.31749 -1.56049,2.57792 -1.92134,2.80093 -0.65658,0.40579 -0.92278,1.62882 -0.35452,1.62882 0.16586,0 1.04339,-1.09166 1.95007,-2.42597 z m 48.33638,-26.87217 c -0.42334,-1.21439 -1.339,-2.7975 -2.03481,-3.51803 -1.41704,-1.46739 -1.3772,-1.29773 0.73754,3.14087 1.68203,3.53036 2.47706,3.7615 1.29727,0.37716 z m 1.75443,-1.20397 c -0.47134,-1.48504 -1.64061,-1.84424 -1.64061,-0.504 0,0.92519 1.37809,2.54371 1.80358,2.11822 0.14585,-0.14585 0.0725,-0.87225 -0.16297,-1.61422 z m -14.20511,-19.98043 c -0.19222,-0.19221 -0.69269,-0.13736 -1.11215,0.12188 -0.56549,0.34948 -0.53465,0.61302 0.11925,1.01929 0.86677,0.53853 1.70694,-0.42711 0.9929,-1.14117 z m -0.0441,-5.24418 c -0.69571,-0.69571 -3.56996,0.7738 -3.89682,1.99233 -0.69341,2.58502 -0.41016,2.65196 1.87005,0.4419 1.24594,-1.20762 2.15798,-2.30302 2.02677,-2.43423 z m -24.76787,1.224 c 0.35751,-0.2224 0.79628,-0.42322 0.97504,-0.44627 1.54204,-0.19883 4.10271,-1.488 6.82525,-3.43617 2.36155,-1.68986 4.22753,-2.44835 6.82525,-2.77436 1.96632,-0.24676 4.37953,-0.65904 5.36269,-0.91617 1.65374,-0.4325 1.78756,-0.32299 1.78756,1.46289 0,1.72435 0.17894,1.89619 1.6764,1.60994 2.48301,-0.47466 4.03085,-4.01944 2.99996,-6.87033 -0.42691,-1.18061 -0.77621,-3.05921 -0.77621,-4.17464 0,-2.49317 -0.99151,-3.24586 -1.94033,-1.47297 -0.95221,1.77922 -3.01503,1.6593 -5.61873,-0.32664 l -2.15657,-1.6449 -0.41284,1.6449 c -0.24359,0.97051 -0.87601,1.64489 -1.54255,1.64489 -1.343,0 -5.09824,-1.74724 -6.67562,-3.10604 -1.0145,-0.87392 -1.18283,-0.80312 -1.77148,0.74517 -0.7896,2.07679 -2.50367,2.20828 -4.50319,0.34544 -1.70584,-1.58923 -2.11574,-1.33077 -3.02296,1.90613 -0.77954,2.78133 -2.69459,3.4239 -5.23787,1.75748 -1.57239,-1.03026 -2.86917,-0.87648 -2.86917,0.34026 0,0.33641 0.32049,0.61165 0.71219,0.61165 0.3917,0 1.49245,0.55561 2.4461,1.23467 0.95365,0.67906 2.46136,1.35887 3.35046,1.51069 1.44457,0.24667 1.48782,0.33313 0.40655,0.81276 -0.77574,0.3441 -1.82552,0.18357 -2.92511,-0.44732 -2.22571,-1.27702 -5.29023,-1.99961 -5.29023,-1.24741 0,0.32346 0.43696,1.42595 0.97103,2.44997 0.53407,1.02404 0.97283,2.90116 0.97503,4.1714 0.004,2.07161 0.2886,2.44786 2.76661,3.65242 2.75783,1.34057 5.43365,1.72715 6.66274,0.96256 z m 9.58993,-13.91227 c -1.1507,-0.80439 -2.09725,-1.68193 -2.10343,-1.95007 -0.0225,-0.97634 1.76815,-0.45347 2.961,0.86461 1.22496,1.35357 1.68428,1.37083 6.29062,0.23655 2.50067,-0.61578 2.28522,0.71076 -0.25951,1.59786 -3.01364,1.05056 -4.55405,0.88309 -6.88868,-0.74895 z m -11.21499,0.29628 c 0,-0.34353 0.4725,-1.01675 1.05001,-1.49604 0.90843,-0.75393 1.01799,-0.70619 0.81253,0.35406 -0.24482,1.2634 -1.86254,2.25526 -1.86254,1.14198 z"
       id="path4377" />
  </g>
</svg>
