<?xml version="1.0" encoding="UTF-8" standalone="no"?>
<!-- Created with Inkscape (http://www.inkscape.org/) -->

<svg
   xmlns:dc="http://purl.org/dc/elements/1.1/"
   xmlns:cc="http://creativecommons.org/ns#"
   xmlns:rdf="http://www.w3.org/1999/02/22-rdf-syntax-ns#"
   xmlns:svg="http://www.w3.org/2000/svg"
   xmlns="http://www.w3.org/2000/svg"
   xmlns:sodipodi="http://sodipodi.sourceforge.net/DTD/sodipodi-0.dtd"
   xmlns:inkscape="http://www.inkscape.org/namespaces/inkscape"
   width="1000"
   height="250"
   id="svg6848"
   version="1.1"
   inkscape:version="0.48.4 r9939"
   sodipodi:docname="coq-au-vin-logo.svg.2013_10_03_18_45_02.0.svg">
  <defs
     id="defs6850" />
  <sodipodi:namedview
     id="base"
     pagecolor="#ffffff"
     bordercolor="#666666"
     borderopacity="1.0"
     inkscape:pageopacity="0.0"
     inkscape:pageshadow="2"
     inkscape:zoom="1.114"
     inkscape:cx="500"
     inkscape:cy="125"
     inkscape:document-units="pt"
     inkscape:current-layer="layer4"
     showgrid="false"
     units="pt"
     inkscape:window-width="1280"
     inkscape:window-height="963"
     inkscape:window-x="0"
     inkscape:window-y="0"
     inkscape:window-maximized="1" />
  <metadata
     id="metadata6853">
    <rdf:RDF>
      <cc:Work
         rdf:about="">
        <dc:format>image/svg+xml</dc:format>
        <dc:type
           rdf:resource="http://purl.org/dc/dcmitype/StillImage" />
        <dc:title></dc:title>
      </cc:Work>
    </rdf:RDF>
  </metadata>
  <g
     inkscape:label="Chicken"
     inkscape:groupmode="layer"
     id="layer1"
     transform="translate(0,-802.36221)"
     style="display:none"
     sodipodi:insensitive="true">
    <path
       inkscape:connector-curvature="0"
       style="fill:#000000"
       d="m 133.88052,1023.038 c -0.90218,-1.9801 -2.56441,-2.2128 -5.36669,-0.7513 -2.42643,1.2655 -2.79457,1.2277 -3.20164,-0.329 -0.18699,-0.715 -0.733,-1.277 -1.21336,-1.2487 -0.65683,0.038 -0.67192,0.1326 -0.0609,0.3791 0.77858,0.3143 1.17965,2.1697 0.46899,2.1697 -0.18895,0 -2.04249,-0.8576 -4.11897,-1.9059 -4.06333,-2.0511 -7.61932,-5.5729 -8.27833,-8.1986 -0.48829,-1.9455 -2.41594,-3.1244 -4.18868,-2.5618 -1.55595,0.4938 -8.249077,-0.7889 -10.046457,-1.9252 -0.71503,-0.4522 -3.49388,-1.3402 -6.17523,-1.9734 -2.68135,-0.6333 -6.19147,-1.6983 -7.80028,-2.3668 -1.60882,-0.6685 -4.533916,-1.6333 -6.500242,-2.1442 -1.966326,-0.5107 -5.037685,-1.3859 -6.825246,-1.9448 -1.787569,-0.55885 -3.789986,-1.01928 -4.449824,-1.02313 -0.659847,-0.007 -2.107184,-0.65325 -3.216317,-1.443 -1.109134,-0.78983 -3.201862,-1.59424 -4.650515,-1.78758 -1.751624,-0.23384 -2.6339,-0.67824 -2.6339,-1.32667 0,-0.74803 0.756687,-0.95525 3.250123,-0.89004 4.71168,0.12331 18.958339,2.06702 22.750831,3.10397 4.40881,1.20549 10.07208,2.16454 15.92559,2.69695 5.523887,0.5024 13.000467,2.5929 13.000467,3.635 0,0.4073 -0.46964,0.4984 -1.13754,0.2208 -3.60475,-1.4979 -7.58891,-2.3518 -12.187937,-2.6122 l -5.20019,-0.2945 6.17522,1.3081 c 3.396367,0.7194 7.491517,1.7646 9.100327,2.3228 5.03462,1.7465 5.98977,1.837 6.85812,0.6494 1.49857,-2.0493 0.41023,-3.3081 -4.13641,-4.784 -4.7982,-1.55741 -6.13665,-1.84168 -12.797067,-2.71772 -13.19788,-1.73592 -22.358094,-4.06043 -22.945497,-5.8226 -0.239188,-0.71762 0.786285,-0.81399 5.475376,-0.5147 12.228481,0.78057 20.512248,1.77365 25.140198,3.01384 6.74317,1.80703 10.41462,1.98666 10.71608,0.52429 0.33006,-1.60114 -2.59358,-2.6143 -7.33576,-2.54209 -2.14508,0.0329 -6.38649,-0.34437 -9.425347,-0.83784 l -5.5252,-0.89716 9.449597,0.23231 c 5.19729,0.12779 10.25182,0.53734 11.23231,0.91008 1.60216,0.60913 1.84658,0.5098 2.41334,-0.9809 0.97844,-2.57348 0.75148,-5.25333 -0.66943,-7.90447 -0.71502,-1.33406 -1.30978,-2.72244 -1.32167,-3.08523 -0.0749,-2.28368 -5.52702,-5.79848 -8.02285,-5.17204 -2.08238,0.52261 -6.17319,-1.6284 -8.113637,-4.26636 -0.89038,-1.21044 -1.83095,-3.82529 -2.24461,-6.24024 -0.39161,-2.28622 -0.91623,-4.15675 -1.16581,-4.15675 -1.05247,0 -3.1823,-4.81036 -3.1823,-7.1874 0,-6.11578 -4.91324,-0.6868 -6.03962,6.67362 -0.76246,4.98236 -1.2596,5.91105 -3.55399,6.63928 -2.043626,0.64861 -3.777176,-0.54151 -5.788891,-3.97425 -1.446057,-2.46748 -1.779266,-3.84302 -1.807955,-7.46313 -0.01934,-2.44091 -0.07125,-4.43816 -0.115366,-4.43826 -0.227381,0 -4.135074,10.35131 -4.539351,12.02521 -0.259036,1.0726 -0.934418,2.32168 -1.500847,2.77589 -1.348714,1.08139 -5.541022,0.48026 -8.226847,-1.17966 -1.131243,-0.69916 -2.78135,-1.27121 -3.666905,-1.27121 -2.238442,0 -3.737762,-1.90964 -4.062552,-5.1744 -0.36554,-3.67441 -0.708397,-3.85395 -1.684184,-0.88185 -0.44803,1.36461 -1.521822,3.60525 -2.386205,4.97921 -0.864383,1.37393 -1.423788,2.88328 -1.243126,3.35406 0.610901,1.59197 -1.118905,5.60074 -2.992446,6.93481 -1.777543,1.2657 -3.80478,1.36795 -6.343685,0.31993 -0.686157,-0.28322 -1.383481,0.41172 -2.35359,2.34566 -1.198719,2.38967 -1.689681,2.77464 -3.76374,2.9514 -1.965447,0.16756 -2.713547,-0.14816 -4.251025,-1.79406 -1.756433,-1.88024 -1.848061,-2.25424 -1.562789,-6.37849 0.461477,-6.67173 0.440713,-9.82744 -0.09575,-14.55069 -0.880406,-7.75154 2.658721,-21.68768 8.102207,-31.90439 5.91088,-11.09397 17.48631,-21.06777 27.975561,-24.10476 11.839456,-3.42792 18.689553,-3.46315 29.251073,-0.15043 8.5356,2.6773 9.88069,3.40534 14.55749,7.87961 2.39874,2.29488 4.83981,4.17249 5.42459,4.17249 1.11904,0 5.35679,-2.63341 5.36441,-3.33359 0.002,-0.22463 1.68522,-1.68718 3.73951,-3.25009 2.05429,-1.56291 4.02874,-3.07985 4.38766,-3.37104 0.35893,-0.29119 2.624,-1.78356 5.03351,-3.31643 2.4095,-1.53286 4.9091,-3.48841 5.55465,-4.34573 2.44746,-3.25037 4.48748,-9.61471 6.32522,-19.73304 1.20258,-6.62118 4.4366,-13.94727 9.05046,-20.50218 6.0548,-8.60204 6.99358,-12.8851 2.64543,-12.06939 -2.73966,0.51397 -9.11363,-1.79249 -10.40648,-3.76563 -0.51376,-0.78409 -1.67341,-3.69041 -2.57699,-6.45848 -1.88464,-5.77343 -1.69651,-6.48479 2.48279,-9.38808 2.41003,-1.67421 2.57582,-1.70011 4.35303,-0.68014 1.83442,1.05282 1.85692,1.0445 3.16351,-1.17001 1.57054,-2.66189 4.24483,-4.13834 5.4012,-2.98197 1.08753,1.08754 1.60212,0.94856 1.99078,-0.53765 0.22973,-0.8785 0.88663,-1.30005 2.02588,-1.30005 0.92725,0 1.68591,0.29251 1.68591,0.65003 0,1.34501 2.66714,3.25012 4.55017,3.25012 1.52676,0 1.95007,-0.28664 1.95007,-1.32046 0,-2.24141 1.8577,-2.27094 4.01556,-0.0638 2.40341,2.45826 4.2049,2.59996 5.20305,0.40925 0.7936,-1.74177 2.56044,-2.13768 3.62604,-0.81253 0.35936,0.44689 0.6478,2.07431 0.64098,3.61649 -0.007,1.54219 0.31999,3.13637 0.72626,3.54263 0.98038,0.98039 0.94901,7.15855 -0.0414,8.14894 -0.60669,0.60668 -0.60669,0.95336 0,1.56005 1.06939,1.0694 0.97884,3.01417 -0.19502,4.18801 -1.41284,1.41286 -1.23092,4.99927 0.32502,6.40738 1.8115,1.6394 1.62116,3.20223 -0.48752,4.00294 l -1.78756,0.67876 1.63936,0.67433 c 0.90166,0.37088 2.93144,1.75383 4.51065,3.07322 1.57922,1.31939 4.22037,3.08252 5.86924,3.91807 3.24536,1.64455 4.55635,3.68285 4.55635,7.08411 0,2.18754 -1.5163,5.88187 -3.04894,7.42849 -1.11486,1.12502 -1.08365,4.27666 0.0678,6.84308 2.16384,4.82302 2.38252,6.74793 1.97788,17.41014 -0.22206,5.85153 -0.68785,11.95541 -1.03507,13.56419 -1.22707,5.68555 -5.27866,12.64179 -11.50049,19.74555 -1.21389,1.38595 -3.09566,4.45729 -4.18171,6.82525 -1.08607,2.36797 -4.10575,7.52298 -6.7104,11.45561 -6.83704,10.32293 -14.7575,17.84559 -23.32426,22.15268 -5.40946,2.71974 -6.58518,3.71471 -8.25433,6.98517 -1.48233,2.90438 -2.77647,12.92646 -2.28093,17.66387 0.55263,5.28348 1.93073,7.28902 5.79767,8.43732 1.82983,0.5434 4.27643,0.988 5.43688,0.988 1.5127,0 2.49673,0.4917 3.47644,1.7373 0.75158,0.9554 2.00715,2.0566 2.79013,2.447 1.63723,0.8162 3.60479,3.9659 2.9109,4.6598 -0.25709,0.2571 -1.21373,0.1274 -2.12585,-0.2882 -3.19976,-1.4579 -8.62728,-0.6632 -6.10729,0.8943 1.25218,0.7739 1.95469,3.5522 1.23718,4.8929 -0.82529,1.5421 -2.10746,1.5953 -4.27144,0.1774 -1.22508,-0.8027 -3.23828,-1.0948 -7.83962,-1.1375 -3.40519,-0.031 -6.29952,0.1178 -6.43186,0.3321 -0.13234,0.2142 0.47625,0.7732 1.35241,1.2421 2.05955,1.1022 2.89002,4.8449 1.40465,6.3302 -0.93189,0.9319 -1.0948,0.8685 -1.81232,-0.7064 z m -12.5044,-4.2191 c -0.59169,-0.6538 -1.07578,-1.3979 -1.07578,-1.6533 0,-0.2557 -0.73128,-1.2535 -1.62506,-2.2174 -2.96248,-3.1949 -1.65751,-4.7056 1.49092,-1.726 2.64332,2.5016 9.29099,6.2528 10.35632,5.844 1.65117,-0.6336 0.49543,-1.9556 -2.58659,-2.9587 -6.30977,-2.0536 -9.96539,-6.8097 -8.89205,-11.5687 0.338,-1.4986 0.27948,-2.6676 -0.16,-3.1971 -0.51566,-0.6213 -0.42315,-0.8348 0.36184,-0.8348 1.24272,0 1.4432,-2.33493 0.24209,-2.81957 -0.4854,-0.19589 -0.35455,-0.34854 0.32501,-0.37918 1.19402,-0.0539 1.67164,-2.65143 0.48752,-2.65143 -0.35752,0 -0.65003,-0.26003 -0.65003,-0.57779 0,-0.3178 0.50069,-0.5372 1.11264,-0.48753 0.61195,0.0497 1.21842,-0.42162 1.34771,-1.04723 0.14486,-0.70101 -0.15742,-1.13753 -0.78763,-1.13753 -0.56248,0 -1.02269,-0.29254 -1.02269,-0.65006 0,-0.35751 0.58502,-0.64999 1.30004,-0.64999 1.60354,0 1.68988,-1.00845 0.16251,-1.89807 -1.0159,-0.59168 -0.98115,-0.66462 0.32502,-0.68231 1.67705,-0.0227 1.96264,-1.16868 0.43711,-1.75411 -1.61063,-0.61807 -2.80665,1.12744 -3.55819,5.19287 -0.73437,3.97262 -2.84626,8.23227 -4.0934,8.25641 -0.41157,0.008 -0.053,0.54906 0.7968,1.20262 1.4314,1.1006 1.48735,1.3632 0.76016,3.5665 -0.43173,1.3083 -1.17728,2.7708 -1.65679,3.2503 -0.47952,0.4796 -0.94952,1.2813 -1.04448,1.7817 -0.31397,1.6547 2.79302,7.0909 5.17481,9.0542 2.58941,2.1343 4.15837,2.6055 2.47219,0.7422 z m 28.02279,-4.824 c -0.25236,-0.7861 -4.17152,-3.5494 -8.24847,-5.8155 -2.29616,-1.2764 -5.97905,-6.7089 -5.46187,-8.0567 0.19329,-0.5037 0.0197,-0.91586 -0.38583,-0.91586 -0.49316,0 -0.63251,-1.06873 -0.42091,-3.22799 0.18103,-1.84729 0.0329,-3.40321 -0.34622,-3.63756 -0.3978,-0.24582 -0.19246,-0.76923 0.51387,-1.30976 0.95586,-0.73147 1.01108,-1.00923 0.29451,-1.4814 -0.61539,-0.40551 -0.6645,-0.71549 -0.1625,-1.02575 1.13002,-0.69837 0.84086,-2.31575 -0.41812,-2.33862 -1.08338,-0.0199 -1.08338,-0.0618 0,-0.88421 1.2896,-0.97896 1.51493,-2.34529 0.38677,-2.34529 -0.44274,0 -0.29873,-0.49943 0.351,-1.21738 1.04428,-1.15397 1.02411,-1.23821 -0.38677,-1.61494 -2.08929,-0.55789 -2.85612,0.77141 -3.37683,5.85385 -0.49201,4.80226 -1.2607,6.72889 -2.68475,6.72889 -0.52369,0 -0.95217,0.43875 -0.95217,0.97503 0,0.53627 0.28112,0.97501 0.6247,0.97501 1.24708,0 3.27545,2.88906 3.27545,4.66528 0,1.957 -1.71512,4.4351 -3.06957,4.4351 -0.45682,0 -0.83058,0.1223 -0.83058,0.2718 0,0.1496 -0.17754,0.7345 -0.39456,1.3 -0.5253,1.369 1.27117,1.3519 3.61789,-0.034 1.77237,-1.0469 1.83127,-1.0275 4.00044,1.3179 1.21086,1.3093 4.68792,3.6502 7.72678,5.2021 6.17198,3.152 6.72006,3.3403 6.34774,2.1804 z m -16.78293,-0.2805 c 1.47282,-0.394 1.49682,-0.462 0.32501,-0.9205 -1.80312,-0.7057 -6.14042,-0.6991 -6.14042,0.01 0,1.2013 2.98312,1.6686 5.81541,0.9111 z m 7.27295,-0.5574 c -1.20297,-0.5223 -2.51927,-0.9259 -2.92511,-0.8968 -1.02568,0.073 2.93608,1.8377 4.13728,1.8425 0.53627,0.01 -0.009,-0.4234 -1.21217,-0.9457 z m -4.46946,-2.9177 c -0.80107,-0.3221 -2.9949,-0.7839 -4.87518,-1.0262 -1.88028,-0.2424 -4.1014,-0.6936 -4.9358,-1.0029 -1.78219,-0.6605 -3.30076,-0.028 -1.96493,0.8183 0.48506,0.3074 2.05197,0.5925 3.48202,0.6337 1.43006,0.041 3.33138,0.3089 4.22516,0.5951 0.89378,0.2862 2.50259,0.531 3.57513,0.5441 1.79473,0.022 1.83405,-0.023 0.4936,-0.5621 z m -1.23356,-2.2571 c -0.4097,-1.0677 -3.82541,-1.3522 -4.43288,-0.3692 -0.32434,0.5247 0.68082,0.8369 4.01491,1.2469 0.45182,0.055 0.63138,-0.3215 0.41797,-0.8777 z m 15.92241,0.3963 c 0.6148,-0.3896 0.66402,-0.6935 0.1625,-1.0035 -0.39568,-0.2445 -0.98085,-0.283 -1.30038,-0.086 -0.31954,0.1976 -1.62644,-0.078 -2.90423,-0.6115 -1.27779,-0.534 -3.13706,-0.9619 -4.1317,-0.951 -1.68967,0.019 -1.72306,0.07 -0.5084,0.7782 1.75143,1.0219 5.62234,2.3907 6.82525,2.4136 0.53627,0.01 1.3719,-0.2329 1.85696,-0.5402 z m -48.65867,-2.0214 c -0.53627,-0.3465 -1.560057,-0.6054 -2.275077,-0.5753 -1.07101,0.045 -1.01375,0.1466 0.32501,0.5753 2.298267,0.7361 3.088997,0.7361 1.950067,0 z m 7.09609,-0.4057 c 0.62356,-0.5624 -0.74723,-0.9682 -7.39798,-2.1901 -3.856107,-0.7085 -8.071417,-1.5827 -9.367327,-1.9426 -2.93408,-0.815 -4.6313,-0.8409 -4.6313,-0.071 0,0.3251 2.1207,0.92 4.71267,1.3221 2.59197,0.4021 6.76025,1.4096 9.262837,2.239 3.94862,1.3085 6.44301,1.5244 7.4211,0.6424 z m -11.483747,-0.6747 c -0.44689,-0.1804 -1.17817,-0.1804 -1.62506,0 -0.44689,0.1803 -0.0812,0.3278 0.81253,0.3278 0.89378,0 1.25942,-0.1475 0.81253,-0.3278 z m 27.373557,-0.5447 c 0.2545,-0.6631 -0.0351,-0.9749 -0.90549,-0.9749 -0.70412,0 -1.27965,0.4385 -1.27965,0.9749 0,0.5364 0.40747,0.9751 0.90549,0.9751 0.49802,0 1.07385,-0.4387 1.27965,-0.9751 z m 25.11586,0.3251 c 0,-0.3576 -1.24317,-0.6115 -2.7626,-0.5644 l -2.7626,0.086 2.27507,0.4789 c 1.2513,0.2633 2.49447,0.5174 2.76261,0.5645 0.26813,0.047 0.48752,-0.207 0.48752,-0.5645 z m -21.10291,-2.9999 c 2.88338,-1.8892 2.20293,-2.82448 -2.78546,-3.82844 -2.73857,-0.5512 -2.85956,0.80912 -0.16251,1.82714 2.52899,0.9546 2.53592,1.8283 0.009,1.1035 -2.10604,-0.6039 -3.44777,0.3671 -1.87961,1.3603 1.36069,0.8619 3.04423,0.7003 4.81883,-0.4625 z m -50.724721,-2.20031 c -0.220954,-0.35749 -0.896366,-0.6294 -1.500913,-0.60432 -0.896052,0.0371 -0.858937,0.1489 0.200867,0.60432 1.739409,0.74741 1.761999,0.74741 1.300046,0 z m 13.447374,0.20601 c -0.46924,-0.18777 -1.02989,-0.16472 -1.24588,0.052 -0.216,0.216 0.16792,0.3696 0.85315,0.3414 0.75724,-0.031 0.91127,-0.1852 0.39273,-0.3927 z m -9.22222,-1.49127 c -1.966319,-0.63546 -5.183936,-1.34041 -7.150255,-1.56657 -3.532286,-0.40625 -3.517382,-0.39551 1.243396,0.89287 2.6502,0.71717 4.965904,1.45134 5.146029,1.6315 0.18012,0.18008 1.22939,0.2983 2.33173,0.2626 1.7208,-0.056 1.49866,-0.22836 -1.5709,-1.2204 z m 6.01272,0.85485 c -0.44689,-0.18038 -1.17816,-0.18038 -1.62506,0 -0.44689,0.18023 -0.0812,0.32782 0.81254,0.32782 0.89378,0 1.25942,-0.14759 0.81252,-0.32782 z m 22.588327,-1.49351 c 0,-1.92727 -7.15026,-3.91953 -15.600567,-4.34675 -3.75388,-0.18983 -7.70278,-0.58854 -8.77533,-0.88611 -1.07253,-0.29758 -3.70513,-0.7024 -5.850212,-0.89962 -3.682761,-0.33869 -3.791446,-0.30925 -1.950069,0.52849 2.051687,0.93341 8.391181,2.18301 21.610651,4.25974 4.378077,0.68782 8.473227,1.54939 9.100327,1.91457 1.50554,0.8768 1.4652,0.89258 1.4652,-0.57032 z m 17.84271,-0.85264 c -0.44491,-1.15943 -2.81973,-2.54506 -3.56863,-2.08224 -1.05699,0.65324 -0.69375,1.62238 0.83898,2.2385 2.10936,0.84783 3.09334,0.79155 2.72965,-0.15626 z m -57.981673,-0.90402 c -0.446896,-0.18033 -1.178173,-0.18033 -1.625061,0 -0.446889,0.18029 -0.08125,0.32785 0.81253,0.32785 0.893777,0 1.25942,-0.14756 0.812531,-0.32785 z m 58.768443,-8.54582 c 0.84667,-2.92437 0.20415,-4.1 -1.37674,-2.51909 -1.16393,1.16392 -1.92582,4.02651 -1.32878,4.9925 0.80023,1.29482 1.90764,0.2824 2.70552,-2.47341 z m -4.96111,-5.14755 c 3.57997,-2.5023 7.95243,-6.72358 7.46711,-7.20889 -0.14828,-0.14825 -1.08865,0.59409 -2.08971,1.64979 -1.00108,1.05565 -3.20957,2.89438 -4.90775,4.08611 -1.69819,1.19166 -3.08762,2.26342 -3.08762,2.38154 0,0.52151 1.13603,0.12729 2.61797,-0.90855 z m -0.27791,-2.0243 c 3.1692,-2.30974 8.06033,-7.59533 8.06033,-8.71036 0,-0.46018 0.57954,-1.91802 1.28787,-3.23959 0.85096,-1.58767 0.99977,-2.29233 0.43867,-2.07701 -0.46707,0.17927 -1.33513,1.42724 -1.92902,2.77334 -1.16609,2.64296 -6.81219,8.86403 -9.71038,10.69925 -1.71523,1.0861 -2.39184,2.40199 -1.23508,2.40199 0.30388,0 1.6933,-0.8314 3.08761,-1.84762 z m -1.44982,-1.90825 c 2.74659,-2.0479 6.91005,-7.05627 6.91005,-8.31235 0,-0.45916 -2.34008,1.51468 -5.20019,4.38638 -2.86011,2.87165 -5.20019,5.33604 -5.20019,5.47647 0,0.66537 1.28265,0.0956 3.49033,-1.5505 z m 14.06032,-0.54886 c 0,-0.86375 -0.17649,-0.90815 -0.97504,-0.24542 -0.53627,0.44505 -0.97504,0.91962 -0.97504,1.0546 0,0.13501 0.43877,0.24545 0.97504,0.24545 0.53627,0 0.97504,-0.47462 0.97504,-1.05463 z m -13.85402,-3.33305 c 3.30994,-3.61223 6.3998,-8.48341 5.77651,-9.1067 -0.83409,-0.83409 -2.65892,0.91545 -4.23604,4.06131 -0.87347,1.74231 -2.55541,4.16382 -3.73764,5.38121 -2.35513,2.42513 -2.52022,2.75181 -1.39078,2.75181 0.41729,0 2.03186,-1.38942 3.58795,-3.08763 z m -3.6166,-0.0526 c 0.56043,-0.65453 1.67487,-2.5034 2.47653,-4.10857 0.80166,-1.60516 3.04073,-4.64692 4.9757,-6.75947 3.30082,-3.60368 4.0935,-4.84249 3.09864,-4.84249 -1.17833,0 -8.01404,8.30064 -10.13718,12.30959 -2.3493,4.43605 -2.52307,5.86454 -0.41369,3.40094 z m -85.900214,-8.68432 c 0.0094,-0.60459 0.309557,-1.28 0.667071,-1.50098 0.357514,-0.22093 0.650023,-0.88171 0.650023,-1.46839 0,-0.66481 -0.226276,-0.83403 -0.600606,-0.44916 -0.825066,0.84829 -3.310957,7.5426 -3.24659,8.74285 0.06763,1.26103 2.507607,-3.87371 2.530102,-5.32432 z m 1.191556,3.68203 c -0.200132,-0.20014 -0.5636,0.16062 -0.80771,0.80168 -0.352755,0.92643 -0.27809,1.00109 0.363883,0.36391 0.444242,-0.44093 0.643959,-0.96544 0.443827,-1.16559 z m 83.576608,-0.0167 c 0.22198,-0.57849 0.113,-0.83941 -0.25547,-0.61168 -0.35342,0.21843 -0.64258,0.6724 -0.64258,1.00882 0,0.93498 0.46592,0.72896 0.89805,-0.39714 z m -13.91403,-10.55974 c 0.36603,-0.82121 0.66553,-2.22513 0.66553,-3.11985 0,-0.89476 0.39967,-2.41666 0.88815,-3.38205 0.4885,-0.96545 1.09615,-2.92535 1.35033,-4.35536 0.46309,-2.60528 1.82084,-7.39639 3.13157,-11.05043 0.9145,-2.54945 5.22649,-9.87117 7.27359,-12.35046 1.93686,-2.34579 2.35537,-0.74299 0.44387,1.69987 -4.54055,5.80279 -8.50144,14.69473 -9.52188,21.37599 -0.3251,2.12858 -0.2989,2.17042 0.40688,0.65 0.77127,-1.6615 1.69366,-3.89153 3.1591,-7.63776 0.45452,-1.16194 1.08342,-2.11261 1.39756,-2.11261 0.78156,0 0.81696,-0.15534 -1.43254,6.28703 -2.98266,8.54207 -2.97406,8.5043 -1.69989,7.45943 1.08176,-0.88699 4.35361,-7.25503 4.35361,-8.47338 0,-0.36177 0.93334,-2.04067 2.07408,-3.73091 2.33002,-3.45246 3.36436,-2.80783 1.17604,0.73294 -0.77417,1.25265 -1.28984,2.6307 -1.14594,3.0624 0.1439,0.43168 3.15964,-3.09905 6.70162,-7.84614 3.54199,-4.74709 6.54277,-8.32271 6.66839,-7.94585 0.12562,0.37686 -0.41148,1.58383 -1.19356,2.68216 -1.8617,2.61454 -1.11266,3.27767 1.19979,1.06223 2.03735,-1.95195 3.69036,-2.23753 4.26612,-0.73716 0.29192,0.76076 0.67925,0.84556 1.60322,0.35108 0.67006,-0.35858 2.22506,-0.48864 3.45553,-0.28897 2.76067,0.44801 6.79246,-1.33036 11.11593,-4.90312 3.0933,-2.55612 5.16257,-2.96367 8.45771,-1.66571 1.29067,0.50841 5.34545,-3.30077 6.36328,-5.97784 0.76397,-2.00943 1.90972,-1.94046 1.90972,0.11493 0,1.65432 -0.87194,3.60368 -2.54195,5.68286 -1.64881,2.05276 -0.34102,1.8185 1.87809,-0.33646 2.6242,-2.54834 6.28791,-8.12794 6.87627,-10.47215 0.23582,-0.93957 0.72367,-1.7083 1.08413,-1.7083 0.36045,0 0.49412,0.51188 0.29704,1.13753 -1.15961,3.68126 -1.20642,4.06266 -0.49873,4.06266 0.41043,0 0.9146,-0.4388 1.12039,-0.97507 0.20579,-0.53628 0.67419,-0.97502 1.0409,-0.97502 1.11231,0 2.98945,-2.57728 5.04347,-6.92459 1.07214,-2.26919 2.24973,-4.12583 2.61688,-4.12583 0.38344,0 0.24547,0.81621 -0.32419,1.91778 -0.54545,1.05478 -0.99174,2.6636 -0.99174,3.57512 0,0.91156 -0.2925,1.65738 -0.65001,1.65738 -0.35752,0 -0.65003,0.43874 -0.65003,0.97502 0,1.42844 1.09223,1.18993 1.4884,-0.32498 0.18698,-0.71503 0.78192,-1.30004 1.32209,-1.30004 0.57,0 1.46705,-1.26978 2.13775,-3.02602 0.63559,-1.66428 1.84305,-3.84289 2.68324,-4.84138 1.01169,-1.20233 1.85688,-3.56123 2.50254,-6.98447 0.87102,-4.61819 0.86855,-5.62756 -0.0231,-9.47238 -1.09449,-4.71932 -2.29046,-6.9313 -5.20596,-9.62844 -2.62369,-2.4272 -5.61239,-3.74873 -8.47802,-3.74873 -3.17496,0 -5.56001,-1.4925 -7.3471,-4.59765 -1.22458,-2.12777 -1.44518,-3.4105 -1.36005,-7.90884 0.15898,-8.40108 0.26861,-8.05733 -2.9635,-9.29169 -3.67358,-1.40294 -4.65111,-2.5546 -5.08469,-5.99032 -0.39985,-3.16846 0.50457,-3.76351 1.1631,-0.76525 0.4758,2.16631 3.54211,4.49627 5.92274,4.50045 2.65248,0.004 3.1793,1.62574 3.00483,9.24628 -0.24449,10.67886 0.85041,11.82892 11.32428,11.89473 7.75392,0.0487 7.70153,0.10742 5.11856,-5.73314 -1.14374,-2.5862 -3.44847,-5.49825 -8.14367,-10.28962 -7.38762,-7.53893 -7.76939,-8.75031 -2.53066,-8.02979 4.26905,0.58714 4.17018,-0.92748 -0.1286,-1.97012 -2.3014,-0.55818 -2.92261,-1.01243 -3.10311,-2.26909 -0.12412,-0.86416 -0.6747,-1.89954 -1.22352,-2.30084 -0.89324,-0.65315 -0.88472,-0.9023 0.0812,-2.37649 1.03832,-1.58467 1.01959,-1.6858 -0.49633,-2.67907 -3.16963,-2.07683 -4.59913,-1.9945 -8.32514,0.47943 -3.42874,2.27655 -5.93616,5.39286 -5.65831,7.03233 0.26475,1.56215 -0.86665,5.65381 -1.77086,6.40423 -0.49886,0.41403 -0.90704,1.15573 -0.90704,1.64822 0,0.49249 -0.2925,0.89544 -0.65002,0.89544 -0.35751,0 -0.65002,0.58502 -0.65002,1.30005 0,0.71503 -0.29251,1.30005 -0.65003,1.30005 -0.3575,0 -0.65152,0.5119 -0.65334,1.13754 -0.002,0.62565 -0.72399,2.30759 -1.60478,3.73763 -0.88079,1.43006 -1.61058,3.07856 -1.62173,3.66334 -0.0111,0.58478 -0.45726,1.90108 -0.99132,2.92511 -0.53406,1.02402 -0.97283,2.4641 -0.97504,3.20018 -0.002,0.73607 -0.43346,1.90612 -0.95836,2.60009 -1.17001,1.5469 -1.25699,3.78615 -0.21203,5.45938 0.63324,1.014 0.58846,1.48021 -0.23334,2.4288 -1.14237,1.31858 -2.05186,4.30023 -1.13974,3.73651 1.08583,-0.67111 0.60409,3.17183 -0.74767,5.96414 -1.19581,2.47027 -9.27683,9.95677 -10.8162,10.02055 -0.81935,0.0338 -3.4473,2.3918 -3.4473,3.09304 0,0.34715 -1.09691,1.45136 -2.43758,2.45378 -1.34068,1.00247 -4.04641,3.3841 -6.01273,5.29253 -1.96632,1.90839 -4.2009,3.63284 -4.96573,3.83209 -0.76483,0.19927 -2.51985,2.02064 -3.90005,4.04752 -1.38019,2.02688 -3.03592,4.26789 -3.6794,4.98005 -1.39304,1.54166 -4.35544,6.72898 -4.35544,7.62666 0,0.34784 -0.47705,1.63775 -1.06013,2.86647 -1.51727,3.19737 -0.63369,3.43552 1.31188,0.35354 2.19211,-3.47251 3.54897,-4.23086 1.83714,-1.02673 -3.92181,7.34056 -5.09074,12.29325 -5.60733,23.75793 -0.27785,6.16609 -0.16641,9.43706 0.36543,10.7254 0.74084,1.79466 0.78201,1.72953 1.29357,-2.04651 0.29061,-2.14505 0.82786,-4.57204 1.19392,-5.39329 z m 43.90086,-61.33301 c 0.41855,-4.7283 0.35582,-5.25559 -0.58237,-4.89558 -1.32207,0.5073 -1.36976,-0.4324 -0.0764,-1.50579 0.53626,-0.44508 0.97951,-1.43154 0.98498,-2.19216 0.0151,-2.08641 1.07262,-3.48551 1.96223,-2.59589 0.53503,0.53498 0.47021,1.58855 -0.24613,4.00068 -1.02034,3.43593 -0.89429,4.17637 0.61258,3.59812 0.50132,-0.19237 0.91149,-0.026 0.91149,0.36983 0,0.39575 -0.24556,0.71956 -0.54568,0.71956 -0.89166,0 -2.05442,3.14447 -2.05442,5.55576 0,1.2345 -0.32296,2.24452 -0.71767,2.24452 -0.50324,0 -0.57752,-1.58345 -0.24861,-5.29905 z m 13.31673,5.05359 c 0,-0.13492 0.43877,-0.60954 0.97504,-1.05459 0.79856,-0.66272 0.97504,-0.61834 0.97504,0.24541 0,0.58006 -0.43877,1.05464 -0.97504,1.05464 -0.53627,0 -0.97504,-0.11044 -0.97504,-0.24546 z m -0.002,-3.97711 c 0.83833,-0.8924 1.66756,-1.47922 1.84272,-1.30407 0.43152,0.43153 -1.8741,2.92655 -2.70439,2.92655 -0.36442,0 0.0233,-0.73012 0.86167,-1.62248 z m -3.89773,0.13043 c 0,-0.5739 0.41584,-1.27736 0.92411,-1.56327 0.50827,-0.28591 1.99952,-1.92931 3.31391,-3.652 1.31438,-1.72268 2.54234,-2.9796 2.7288,-2.7931 0.39964,0.39964 -3.65663,6.0562 -5.61139,7.82527 -1.16827,1.05722 -1.35543,1.0825 -1.35543,0.1831 z m -1.57087,-5.30618 c 2.65257,-2.34218 3.52093,-2.74964 3.52093,-1.65205 0,0.35747 -0.2618,0.65 -0.58179,0.65 -0.31999,0 -1.27065,0.72624 -2.11258,1.61382 -0.84193,0.88759 -1.94515,1.61887 -2.45161,1.62507 -0.50646,0.006 0.22482,-1.00038 1.62505,-2.23684 z m -11.5631,-1.89686 c 0.71224,-1.20715 1.49566,-3.10845 1.74092,-4.22511 0.40639,-1.85031 1.64268,-2.90248 1.64268,-1.39809 0,1.22108 -3.40938,7.81806 -4.04045,7.81806 -0.35096,0 -0.0554,-0.98766 0.65685,-2.19486 z m 32.47217,-24.82793 c -0.98316,-0.53337 -1.78757,-1.22901 -1.78757,-1.54586 0,-0.31686 -0.19197,-1.11192 -0.42662,-1.76681 -0.27141,-0.75748 0.0796,-0.5669 0.96476,0.52381 0.76525,0.94298 2.12728,1.89922 3.02671,2.12497 0.89944,0.22574 1.63534,0.69737 1.63534,1.04807 0,0.89857 -1.3226,0.74968 -3.41262,-0.38418 z m -2.34174,-6.60191 c 0.009,-0.63337 -0.19261,-2.32162 -0.44901,-3.75168 -0.31188,-1.73953 -0.2502,-2.38495 0.18638,-1.95007 0.86067,0.85733 1.49742,6.0796 0.79427,6.51416 -0.30184,0.18655 -0.54108,-0.17903 -0.53164,-0.81241 z m -9.90025,-18.11671 c -1.8049,-2.17477 -0.002,-7.41053 2.55213,-7.41053 0.75659,0 0.65397,0.31945 -0.42576,1.32537 -2.03015,1.89138 -1.75753,2.78135 0.49518,1.61643 2.43329,-1.2583 2.44466,-1.25701 3.31779,0.37445 0.6184,1.1555 0.45282,1.65668 -1.07377,3.25012 -2.02531,2.11396 -3.58688,2.38488 -4.86557,0.84416 z M 132.08559,965.2474 c 0.59504,-1.11185 0.52412,-1.16549 -0.68552,-0.51809 -0.74208,0.39714 -1.34924,0.83413 -1.34924,0.97105 0,0.13696 -0.20102,0.78479 -0.44672,1.43969 -0.39828,1.06157 -0.32396,1.09079 0.68551,0.26915 0.62273,-0.50688 1.43092,-1.47968 1.79597,-2.1618 z m -11.78512,0.96937 c 0,-0.26888 1.31629,-1.90232 2.9251,-3.62982 2.79823,-3.00464 3.53423,-4.33158 2.4026,-4.33158 -1.05307,0 -6.62775,6.81508 -6.62775,8.10244 0,0.19134 0.29251,0.34789 0.65002,0.34789 0.35752,0 0.65003,-0.22005 0.65003,-0.48893 z m -0.34769,-5.22134 c 0.36999,-0.4593 1.05923,-1.26371 1.53166,-1.78757 0.47242,-0.52387 0.57586,-0.95249 0.22985,-0.95249 -0.99457,0 -4.66394,4.47859 -4.66394,5.69244 0,0.83112 0.27027,0.70745 1.11486,-0.51012 0.61317,-0.88393 1.41758,-1.98295 1.78757,-2.44226 z M 82.174933,961.343 c 0.54087,-1.51944 1.15145,-4.8759 1.35682,-7.45882 0.20537,-2.58297 0.97524,-6.23932 1.71082,-8.12535 3.52645,-9.04159 12.09341,-19.35461 16.077757,-19.35461 1.51845,0 2.13118,-0.43935 2.94637,-2.11257 1.01745,-2.08839 1.01037,-2.115 -0.61809,-2.32301 -4.720717,-0.60307 -17.273467,8.67457 -21.608017,15.97029 -4.774856,8.0368 -6.166291,18.3639 -3.179138,23.59528 0.804403,1.40878 1.657742,2.56362 1.896313,2.5664 0.238563,0.004 0.876285,-1.23821 1.417165,-2.75761 z m 48.525907,1.78753 c 0.45141,-0.54386 0.52179,-0.97502 0.15919,-0.97502 -0.35751,0 -1.01416,0.4388 -1.45923,0.97502 -0.45139,0.54391 -0.52179,0.97508 -0.15919,0.97508 0.35752,0 1.01417,-0.43876 1.45923,-0.97508 z M 33.1248,957.28035 c 0.01453,-0.35752 -0.39162,0.0812 -0.902552,0.97502 -0.510933,0.89379 -0.917078,2.21009 -0.902548,2.92512 0.01731,0.85126 0.328864,0.51466 0.902548,-0.97502 0.481874,-1.25131 0.888018,-2.5676 0.902552,-2.92512 z m 32.289324,4.06265 c -0.09313,-0.4469 -0.396265,-1.33805 -0.673644,-1.98027 -0.44947,-1.0407 -0.194759,-4.94695 0.496058,-7.60759 0.139242,-0.53627 0.472102,-2.14505 0.739696,-3.57512 0.267589,-1.43006 0.919567,-3.56395 1.44883,-4.74194 0.529269,-1.17809 0.844636,-2.49438 0.700821,-2.92512 -0.299925,-0.89837 -2.781193,5.43903 -3.717087,9.49376 -1.010387,4.37749 -0.845909,12.14879 0.257117,12.14879 0.504637,0 0.841336,-0.36561 0.748209,-0.81251 z m -22.018405,-3.57512 c -0.163503,-0.62569 -0.297271,-0.11377 -0.297271,1.13754 0,1.25126 0.133768,1.76319 0.297271,1.13753 0.163497,-0.62565 0.163497,-1.64941 0,-2.27507 z m 25.617959,-7.89405 c 0.737552,-3.71606 1.561715,-7.22614 1.831461,-7.80023 3.232964,-6.88066 4.954896,-9.99476 5.680481,-10.27317 0.480303,-0.18432 0.873282,-0.85663 0.873282,-1.49408 0,-1.25492 4.738911,-7.96678 7.115141,-10.07734 0.80501,-0.71504 3.82471,-2.4735 6.71045,-3.90769 6.35087,-3.15636 7.05661,-4.2571 2.64167,-4.12023 -1.92389,0.0596 -2.44457,0.20278 -1.34319,0.36923 1.9989,0.30216 1.79563,1.48348 -0.25525,1.48348 -0.71779,0 -2.26381,0.73123 -3.43563,1.62502 -1.17181,0.89379 -2.4861,1.62507 -2.92064,1.62507 -0.94583,0 -7.696749,6.27597 -8.633276,8.02583 -0.468845,0.87607 -0.452727,1.10388 0.05591,0.78956 1.43609,-0.88754 0.666513,1.40316 -0.985762,2.93423 -1.570315,1.45511 -4.444487,6.96874 -6.920677,13.27628 -1.656557,4.2197 -3.40259,16.82576 -2.520918,18.20065 0.229257,0.35757 0.495396,-0.37376 0.591409,-1.62502 0.09601,-1.25131 0.778026,-5.31548 1.515577,-9.03159 z m 37.932732,5.53585 c 0.25199,-1.74393 0.6275,-3.64519 0.83445,-4.22516 0.20697,-0.57992 0.15047,-0.85083 -0.12554,-0.602 -0.46064,0.41529 -2.25568,7.79121 -2.26279,9.29792 -0.008,1.67131 1.14612,-1.649 1.55388,-4.47076 z m -70.298907,-1.96037 c 0.21561,-2.3089 0.861431,-5.75529 1.435166,-7.65873 0.573735,-1.90343 1.507012,-5.06956 2.07395,-7.0359 1.171411,-4.06284 2.881238,-8.02093 3.60355,-8.34197 0.268132,-0.11919 0.487516,-0.5989 0.487516,-1.06607 0,-0.46712 1.247794,-2.56343 2.772858,-4.6585 1.525072,-2.09501 3.256935,-4.56782 3.848585,-5.49512 3.926413,-6.15396 17.848522,-16.09226 25.392235,-18.12622 1.69818,-0.45786 3.087608,-1.09082 3.087608,-1.40664 0,-1.01048 -8.027041,0.004 -10.856492,1.37249 -1.502163,0.72636 -3.193285,1.32068 -3.758041,1.32068 -0.564763,0 -1.201656,0.4556 -1.415333,1.01243 -0.213669,0.55678 -0.768123,0.86671 -1.232119,0.68865 -0.463995,-0.17807 -1.193346,0.0976 -1.620771,0.61264 -0.427426,0.51503 -1.10973,0.93643 -1.516224,0.93643 -0.406495,0 -1.104437,0.58501 -1.550976,1.30004 -0.44654,0.71503 -1.111787,1.3 -1.478324,1.3 -1.334704,0 -9.755479,9.68728 -12.768231,14.68858 -5.993398,9.94931 -7.284517,14.49861 -7.79689,27.47255 -0.334473,8.46954 0.584248,10.66309 1.291933,3.08466 z m 6.69286,1.082 c -0.216003,-0.21602 -0.369626,0.16793 -0.34141,0.85315 0.03119,0.7572 0.18522,0.91124 0.392724,0.39274 0.187772,-0.46925 0.164682,-1.02992 -0.05133,-1.24589 z m 56.55207,0 c -0.216,-0.21602 -0.36963,0.16793 -0.3414,0.85315 0.0312,0.7572 0.18522,0.91124 0.39271,0.39274 0.187777,-0.46925 0.164687,-1.02992 -0.0513,-1.24589 z m -69.372151,-5.21375 c -0.05236,-4.31519 -0.235263,-5.7154 -0.573117,-4.38767 -0.933851,3.67 -0.674303,10.72539 0.394558,10.72539 0.140506,0 0.220856,-2.85193 0.178559,-6.33772 z m 67.600051,-6.20617 c 1.11617,-5.64787 2.025087,-10.62056 2.019817,-11.05042 -0.0105,-0.85028 -1.477587,1.49315 -2.562877,4.09361 -0.37302,0.89375 -0.96728,2.1277 -1.32058,2.74196 -1.45204,2.52475 -3.12327,14.09783 -2.24177,15.5241 1.017,1.64552 2.17636,-1.54819 4.10541,-11.30925 z m -54.299223,7.66873 c 0.275932,-1.81216 0.217413,-2.20611 -0.193095,-1.30005 -0.565359,1.24784 -0.933967,4.72946 -0.441603,4.17096 0.131333,-0.14895 0.416942,-1.44084 0.634698,-2.87091 z m 22.701474,-11.80285 c 2.420695,-4.75329 4.012408,-7.66017 4.392743,-8.0224 0.187998,-0.17905 1.334566,-1.64179 2.547942,-3.25061 1.213369,-1.60882 3.545897,-4.34912 5.183398,-6.08958 1.637486,-1.74046 2.392239,-2.86365 1.677204,-2.49599 -2.815536,1.44779 -10.951159,10.25151 -12.332459,13.3452 -0.347619,0.77859 -0.795976,1.56189 -0.996326,1.74065 -0.59399,0.52988 -3.947319,9.49816 -4.925854,13.17381 -1.587052,5.96141 -0.928522,6.20909 0.995061,0.37422 1.020398,-3.09521 2.576631,-7.04409 3.458291,-8.7753 z m 33.403369,8.05282 c -0.17805,-0.44005 -0.3129,0.0774 -0.29964,1.14993 0.0132,1.07255 0.15892,1.43262 0.32373,0.80016 0.164807,-0.63246 0.153967,-1.51 -0.0241,-1.95009 z m -53.78397,-5.67532 c 0.03177,-0.86667 -0.03432,-0.86667 -0.594383,0 -0.346565,0.53628 -0.614035,1.56003 -0.594383,2.27507 0.0357,1.30005 0.0357,1.30005 0.594383,0 0.307261,-0.71504 0.574731,-1.73879 0.594383,-2.27507 z m 85.533767,1.87951 c 3.12301,-0.79622 9.57331,-4.06349 11.8548,-6.00483 0.90483,-0.76993 2.83612,-2.49678 4.29176,-3.83747 1.66393,-1.53254 3.28361,-2.43758 4.3622,-2.43758 0.94356,0 2.24501,-0.58506 2.8921,-1.30009 1.26613,-1.39901 0.47467,-1.83572 -0.88355,-0.48749 -0.65669,0.6519 -0.72671,0.55548 -0.3541,-0.48753 0.25543,-0.71499 0.72573,-1.63961 1.0451,-2.05471 0.35501,-0.46133 0.2956,-0.93082 -0.15285,-1.20798 -0.40713,-0.25161 -1.19968,0.21214 -1.78111,1.04223 -2.50745,3.57993 -7.72502,7.87966 -12.07124,9.94778 -7.8233,3.72273 -9.05494,4.1488 -13.40212,4.63642 -5.79503,0.6501 -8.64038,2.50785 -4.73881,3.09406 2.15422,0.32368 5.42157,-0.007 8.93782,-0.90281 z m -97.88542,-9.35477 c 0.349742,-0.71503 1.270099,-2.7626 2.045238,-4.55018 0.775147,-1.78758 2.536048,-4.9139 3.913131,-6.9474 1.377076,-2.03355 2.691867,-4.44679 2.921756,-5.36275 0.229897,-0.91596 0.678792,-1.66533 0.997548,-1.66533 0.318755,0 0.578766,-0.36567 0.577791,-0.81256 -0.0029,-1.48769 -5.096196,4.98023 -7.037795,8.93781 -4.0872,8.33099 -6.626675,15.18079 -6.575982,17.73755 0.02439,1.23048 0.410727,0.58483 1.278689,-2.13695 0.684058,-2.1451 1.529889,-4.4852 1.879624,-5.20019 z m 26.71987,3.41261 c 3.708092,-7.83332 6.621569,-12.29895 10.592907,-16.2363 8.155631,-8.08587 15.228246,-11.08574 25.958886,-11.01061 3.494317,0.0245 6.337727,-0.22615 6.337727,-0.55868 0,-0.92998 -2.96092,-2.65471 -5.566357,-3.24231 -3.5622,-0.8034 -13.13348,0.33585 -18.499507,2.20193 -5.448345,1.89474 -9.798818,4.69548 -15.141941,9.7481 -4.541903,4.29487 -7.613923,10.51706 -8.065094,16.33527 -0.291251,3.756 0.515165,7.47525 1.620772,7.47525 0.292458,0 1.535636,-2.12066 2.762607,-4.71265 z m -13.05821,0.61168 c -0.04406,-1.37314 -0.06573,-1.37758 -0.604344,-0.12415 -0.768835,1.78916 -0.768835,2.42523 0,1.95005 0.357521,-0.22097 0.62947,-1.04264 0.604344,-1.8259 z m 23.392051,-3.37428 c 0,-0.35752 -0.560496,0.37376 -1.245555,1.62506 -0.685059,1.25127 -1.245562,2.56761 -1.245562,2.92512 0,0.35752 0.560503,-0.37381 1.245562,-1.62507 0.685059,-1.2513 1.245555,-2.5676 1.245555,-2.92511 z m -22.371333,-4.22516 c 0.905824,-1.78759 1.550787,-3.25014 1.433239,-3.25014 -0.467463,0 -2.903318,3.68786 -3.335717,5.05026 -0.797561,2.51288 0.190819,1.57767 1.902478,-1.80012 z m 7.475276,-6.86359 c 0,-0.15769 -0.292509,-0.28669 -0.650023,-0.28669 -0.357521,0 -0.65003,0.30979 -0.65003,0.68842 0,0.37857 0.292509,0.50762 0.65003,0.28665 0.357514,-0.22098 0.650023,-0.53073 0.650023,-0.68838 z m 20.534537,-3.6319 c 0.73348,-1.18679 -1.907778,0.49206 -3.316174,2.10788 l -1.292776,1.48316 2.092918,-1.45322 c 1.151105,-0.79927 2.283321,-1.76128 2.516032,-2.13782 z m 23.342072,-0.31054 c 0.715017,-0.44532 2.694447,-1.15721 4.398707,-1.58198 2.95772,-0.73725 4.25474,-1.60105 3.51487,-2.34089 -0.58938,-0.58941 -7.791577,1.78444 -9.840507,3.24343 -2.25038,1.60243 -4.24829,3.51328 -4.24829,4.0632 0,0.33308 1.72586,-0.61264 6.17522,-3.38376 z m -31.851168,-7.63745 c 4.22013,-3.16548 9.164026,-5.59237 13.494128,-6.62408 0.98655,-0.23505 1.93028,-0.64834 2.09719,-0.91842 0.48748,-0.78877 -7.540045,1.58045 -10.455694,3.08587 -4.042442,2.08719 -10.020618,6.74328 -13.82726,10.76927 -3.987536,4.21734 -3.75316,4.88261 0.309311,0.87796 2.107692,-2.07766 5.879733,-5.31345 8.382325,-7.1906 z m 34.934945,3.14655 c 3.99355,-1.26838 4.37432,-1.50606 2.48414,-1.55082 -2.69826,-0.0639 -6.709357,1.78892 -9.793067,4.52362 l -2.27509,2.01757 2.43376,-1.74624 c 1.33857,-0.9604 4.556187,-2.42027 7.150257,-3.24413 z m -17.699437,1.10805 c -0.43317,-0.14441 -1.27075,0.23098 -1.86129,0.83418 -1.0051,1.02663 -0.95478,1.04339 0.7876,0.26254 1.0237,-0.45879 1.50687,-0.95235 1.07369,-1.09672 z m 38.341527,-10.28701 c 0,-0.5734 -2.35042,1.02423 -3.58241,2.43499 -1.05877,1.21238 -0.85156,1.1505 1.14482,-0.34197 1.34067,-1.00228 2.43759,-1.94416 2.43759,-2.09302 z m -28.334697,-2.8188 c -0.40941,-0.40935 -2.05362,-0.43823 -4.51766,-0.0792 l -3.87399,0.56447 4.51767,0.0792 c 2.98209,0.0523 4.29887,-0.13952 3.87398,-0.56443 z m 47.486967,-14.13272 c 0.90666,-1.3343 1.63556,-2.86998 1.61976,-3.4126 -0.0158,-0.54266 -0.59809,0.0913 -1.29397,1.40882 -0.69588,1.31749 -1.56049,2.57792 -1.92134,2.80093 -0.65658,0.40579 -0.92278,1.62882 -0.35452,1.62882 0.16586,0 1.04339,-1.09166 1.95007,-2.42597 z m 48.33638,-26.87217 c -0.42334,-1.21439 -1.339,-2.7975 -2.03481,-3.51803 -1.41704,-1.46739 -1.3772,-1.29773 0.73754,3.14087 1.68203,3.53036 2.47706,3.7615 1.29727,0.37716 z m 1.75443,-1.20397 c -0.47134,-1.48504 -1.64061,-1.84424 -1.64061,-0.504 0,0.92519 1.37809,2.54371 1.80358,2.11822 0.14585,-0.14585 0.0725,-0.87225 -0.16297,-1.61422 z m -14.20511,-19.98043 c -0.19222,-0.19221 -0.69269,-0.13736 -1.11215,0.12188 -0.56549,0.34948 -0.53465,0.61302 0.11925,1.01929 0.86677,0.53853 1.70694,-0.42711 0.9929,-1.14117 z m -0.0441,-5.24418 c -0.69571,-0.69571 -3.56996,0.7738 -3.89682,1.99233 -0.69341,2.58502 -0.41016,2.65196 1.87005,0.4419 1.24594,-1.20762 2.15798,-2.30302 2.02677,-2.43423 z m -24.76787,1.224 c 0.35751,-0.2224 0.79628,-0.42322 0.97504,-0.44627 1.54204,-0.19883 4.10271,-1.488 6.82525,-3.43617 2.36155,-1.68986 4.22753,-2.44835 6.82525,-2.77436 1.96632,-0.24676 4.37953,-0.65904 5.36269,-0.91617 1.65374,-0.4325 1.78756,-0.32299 1.78756,1.46289 0,1.72435 0.17894,1.89619 1.6764,1.60994 2.48301,-0.47466 4.03085,-4.01944 2.99996,-6.87033 -0.42691,-1.18061 -0.77621,-3.05921 -0.77621,-4.17464 0,-2.49317 -0.99151,-3.24586 -1.94033,-1.47297 -0.95221,1.77922 -3.01503,1.6593 -5.61873,-0.32664 l -2.15657,-1.6449 -0.41284,1.6449 c -0.24359,0.97051 -0.87601,1.64489 -1.54255,1.64489 -1.343,0 -5.09824,-1.74724 -6.67562,-3.10604 -1.0145,-0.87392 -1.18283,-0.80312 -1.77148,0.74517 -0.7896,2.07679 -2.50367,2.20828 -4.50319,0.34544 -1.70584,-1.58923 -2.11574,-1.33077 -3.02296,1.90613 -0.77954,2.78133 -2.69459,3.4239 -5.23787,1.75748 -1.57239,-1.03026 -2.86917,-0.87648 -2.86917,0.34026 0,0.33641 0.32049,0.61165 0.71219,0.61165 0.3917,0 1.49245,0.55561 2.4461,1.23467 0.95365,0.67906 2.46136,1.35887 3.35046,1.51069 1.44457,0.24667 1.48782,0.33313 0.40655,0.81276 -0.77574,0.3441 -1.82552,0.18357 -2.92511,-0.44732 -2.22571,-1.27702 -5.29023,-1.99961 -5.29023,-1.24741 0,0.32346 0.43696,1.42595 0.97103,2.44997 0.53407,1.02404 0.97283,2.90116 0.97503,4.1714 0.004,2.07161 0.2886,2.44786 2.76661,3.65242 2.75783,1.34057 5.43365,1.72715 6.66274,0.96256 z m 9.58993,-13.91227 c -1.1507,-0.80439 -2.09725,-1.68193 -2.10343,-1.95007 -0.0225,-0.97634 1.76815,-0.45347 2.961,0.86461 1.22496,1.35357 1.68428,1.37083 6.29062,0.23655 2.50067,-0.61578 2.28522,0.71076 -0.25951,1.59786 -3.01364,1.05056 -4.55405,0.88309 -6.88868,-0.74895 z m -11.21499,0.29628 c 0,-0.34353 0.4725,-1.01675 1.05001,-1.49604 0.90843,-0.75393 1.01799,-0.70619 0.81253,0.35406 -0.24482,1.2634 -1.86254,2.25526 -1.86254,1.14198 z"
       id="path4377" />
  </g>
  <g
     transform="translate(0,-802.36221)"
     id="g8200"
     inkscape:groupmode="layer"
     inkscape:label="Chicken copy">
    <path
       id="path8202"
       d="m 147.38562,1019.1074 c -1.15552,-1.8437 -2.83392,-1.8551 -5.4189,-0.037 -2.23827,1.5746 -2.60818,1.5856 -3.21706,0.096 -0.27968,-0.6841 -0.89506,-1.1692 -1.36749,-1.0778 -0.64608,0.1244 -0.64855,0.2201 -0.0104,0.3839 0.81324,0.2088 1.45559,1.9951 0.75114,2.0888 -0.1873,0.025 -2.13778,-0.5806 -4.33441,-1.3458 -4.29841,-1.4971 -8.28794,-4.519 -9.28759,-7.0348 -0.74068,-1.8641 -2.80701,-2.7784 -4.49004,-1.9868 -1.4772,0.6947 -8.28105,0.3062 -10.21263,-0.583 -0.76843,-0.3539 -3.64015,-0.8676 -6.3816,-1.1415 -2.74146,-0.274 -6.361401,-0.8666 -8.044342,-1.317 -1.682951,-0.4504 -4.709763,-1.0209 -6.726304,-1.2679 -2.016514,-0.2469 -5.17649,-0.7092 -7.02216,-1.0274 -1.845672,-0.3181 -3.89133,-0.5104 -4.545909,-0.4271 -0.655003,0.08 -2.174947,-0.3696 -3.378575,-1.0061 -1.203639,-0.6366 -3.384199,-1.1579 -4.845696,-1.1584 -1.767164,-7e-4 -2.700357,-0.3249 -2.785902,-0.9676 -0.09869,-0.7415 0.62405,-1.0468 3.104295,-1.31106 4.686766,-0.49937 19.065329,-0.45216 22.961474,0.0754 4.529311,0.6134 10.269609,0.8169 16.142189,0.5724 5.54189,-0.2307 13.22891,0.8551 13.36639,1.8881 0.0537,0.4038 -0.39978,0.556 -1.09847,0.369 -3.77085,-1.0093 -7.83284,-1.3301 -12.42602,-0.9815 l -5.19359,0.3941 6.29382,0.482 c 3.46158,0.2651 7.65883,0.7609 9.32722,1.1019 5.22103,1.0671 6.17977,1.0308 6.88385,-0.261 1.21511,-2.2291 -0.0298,-3.3333 -4.73139,-4.19649 -4.96173,-0.91078 -6.32598,-1.01599 -13.04376,-1.00569 -13.311534,0.0204 -22.698348,-1.07531 -23.513094,-2.74458 -0.331771,-0.67979 0.672025,-0.91061 5.359615,-1.23255 12.224579,-0.83952 20.566949,-0.94797 25.318069,-0.32917 6.92262,0.90163 10.58568,0.59533 10.69158,-0.89403 0.11594,-1.63069 -2.91581,-2.24928 -7.60701,-1.55208 -2.12199,0.3156 -6.3761,0.50118 -9.4535,0.41293 l -5.59526,-0.16039 9.39765,-1.01638 c 5.16872,-0.55899 10.2331,-0.81984 11.25419,-0.57971 1.66852,0.39243 1.8977,0.26173 2.26284,-1.29071 0.63038,-2.68007 0.0519,-5.30656 -1.70639,-7.74707 -0.88477,-1.22807 -1.65749,-2.52585 -1.71714,-2.8839 -0.37552,-2.25384 -6.24368,-5.01864 -8.63506,-4.06841 -1.99523,0.79277 -6.33406,-0.79975 -8.60556,-3.15866 -1.04229,-1.08239 -2.31961,-3.5503 -3.04825,-5.88957 -0.6898,-2.21458 -1.4566,-3.99955 -1.704,-3.96662 -1.043274,0.13885 -3.789103,-4.34848 -4.102698,-6.70475 -0.806835,-6.06232 -4.960903,-0.0326 -5.106402,7.41208 -0.09849,5.0394 -0.468765,6.02556 -2.647028,7.05011 -1.940195,0.91255 -3.815601,-0.0385 -6.262603,-3.1758 -1.758944,-2.25514 -2.270711,-3.5747 -2.776738,-7.15938 -0.341193,-2.41702 -0.656139,-4.38997 -0.699883,-4.38425 -0.225394,0.03 -2.733317,10.80636 -2.913229,12.51897 -0.115267,1.0974 -0.619959,2.42466 -1.121514,2.94963 -1.194262,1.24987 -5.429232,1.20707 -8.310569,-0.084 -1.213593,-0.54381 -2.924746,-0.89317 -3.802561,-0.77634 -2.218877,0.29531 -3.957024,-1.39984 -4.709685,-4.59321 -0.847097,-3.59407 -1.210644,-3.72681 -1.785802,-0.65196 -0.264086,1.41179 -1.032892,3.77451 -1.708458,5.2505 -0.67557,1.47595 -1.030962,3.04591 -0.78977,3.48874 0.815584,1.49746 -0.370239,5.6994 -2.051404,7.26898 -1.595027,1.48914 -3.591055,1.85795 -6.246031,1.15404 -0.717524,-0.19022 -1.317072,0.59064 -2.023563,2.63566 -0.87298,2.52692 -1.308863,2.9733 -3.341475,3.42214 -1.926162,0.42539 -2.709375,0.21112 -4.450553,-1.21756 -1.989135,-1.63208 -2.129302,-1.99073 -2.390622,-6.11656 -0.422736,-6.6743 -0.859641,-9.79969 -2.014538,-14.41088 -1.895346,-7.56764 -0.225701,-21.84887 3.822349,-32.69443 4.395625,-11.7768 14.554069,-23.19053 24.550979,-27.58479 11.283738,-4.9599 18.069314,-5.89853 28.975557,-4.00811 8.814202,1.52782 10.243583,2.07204 15.469781,5.89021 2.68053,1.95837 5.34797,3.49752 5.92764,3.42037 1.10926,-0.14763 4.96255,-3.31709 4.87773,-4.01216 -0.0276,-0.22293 1.44791,-1.89476 3.27805,-3.71502 1.83015,-1.82027 3.58722,-3.58443 3.90458,-3.92043 0.31738,-0.33599 2.36577,-2.11414 4.55199,-3.95149 2.18622,-1.83734 4.40598,-4.10556 4.93278,-5.04056 1.99726,-3.54484 3.17982,-10.12269 3.66662,-20.39502 0.31856,-6.72196 2.55781,-14.41067 6.26657,-21.51698 4.86704,-9.32564 5.23257,-13.69512 1.03003,-12.3129 -2.6479,0.87091 -9.27044,-0.57449 -10.8123,-2.35982 -0.61272,-0.70946 -2.14565,-3.43739 -3.40652,-6.06206 -2.62983,-5.47433 -2.53719,-6.2043 1.22255,-9.63357 2.1681,-1.97752 2.32902,-2.02507 4.22526,-1.24848 1.95728,0.80161 1.97849,0.7904 2.9815,-1.57713 1.20564,-2.84582 3.66177,-4.66218 4.96059,-3.66847 1.2215,0.93456 1.71326,0.72891 1.90245,-0.79559 0.11182,-0.90113 0.70737,-1.40565 1.83666,-1.55595 0.91915,-0.12233 1.70977,0.0675 1.75693,0.42193 0.17744,1.33325 3.07261,2.86985 4.93918,2.62142 1.51341,-0.20142 1.89521,-0.5414 1.75882,-1.56618 -0.2957,-2.22182 1.54187,-2.49617 3.97205,-0.593 2.70671,2.1197 4.51115,2.02249 5.21156,-0.28075 0.55688,-1.83124 2.25604,-2.45679 3.48715,-1.2838 0.41518,0.39557 0.9158,1.97072 1.11249,3.50032 0.19652,1.52963 0.73096,3.06674 1.18728,3.41585 1.10115,0.84248 1.88512,6.97078 1.03402,8.08317 -0.52135,0.68142 -0.47561,1.02507 0.20582,1.54642 1.20112,0.91897 1.36793,2.85869 0.35919,4.17713 -1.2141,1.5869 -0.56062,5.11797 1.16749,6.3085 2.01194,1.38609 2.02944,2.96037 0.0448,4.03227 l -1.68239,0.90865 1.71399,0.45216 c 0.94271,0.24869 3.1372,1.35177 4.87667,2.45129 1.73948,1.09951 4.59015,2.49879 6.33484,3.10951 3.43395,1.20203 5.00239,3.04956 5.45111,6.42109 0.28859,2.16842 -0.72708,6.0305 -2.04228,7.7658 -0.95669,1.26226 -0.50997,4.38224 0.96999,6.77432 2.78122,4.4954 3.25193,6.37463 4.25746,16.99703 0.55185,5.82968 0.8954,11.94166 0.76345,13.58219 -0.46627,5.79773 -3.56473,13.22769 -8.795,21.09018 -1.02044,1.53398 -2.48057,4.82673 -3.24473,7.31727 -0.76418,2.49056 -3.07738,7.99889 -5.14045,12.24077 -5.41541,11.13469 -12.2742,19.63651 -20.19786,25.03614 -5.00337,3.40962 -6.03755,4.55101 -7.26065,8.01309 -1.08621,3.07455 -1.04686,13.17976 0.0693,17.81039 1.24483,5.16439 2.87547,6.97059 6.8601,7.59871 1.88553,0.29724 4.3694,0.41518 5.51971,0.26209 1.49947,-0.19957 2.53977,0.15802 3.67525,1.26348 0.87105,0.8479 2.26092,1.77383 3.08856,2.05752 1.7306,0.59305 4.09649,3.45565 3.50021,4.23505 -0.22092,0.2888 -1.18631,0.2864 -2.14529,-0.01 -3.36413,-1.0231 -8.63936,0.4807 -5.93592,1.6922 1.34333,0.6019 2.40623,3.2632 1.87187,4.6869 -0.61464,1.6375 -1.87858,1.8594 -4.2107,0.7394 -1.32027,-0.6341 -3.35441,-0.6581 -7.92117,-0.093 -3.37952,0.4186 -6.22892,0.9479 -6.33183,1.1778 -0.10292,0.2298 0.57409,0.7036 1.50446,1.0528 2.18696,0.8209 3.50393,4.4213 2.22749,6.0896 -0.8008,1.0467 -0.97065,1.0053 -1.88967,-0.4612 z m -12.95172,-2.5325 c -0.67277,-0.5701 -1.2508,-1.2438 -1.28449,-1.497 -0.0337,-0.2534 -0.89026,-1.146 -1.90339,-1.9836 -3.35808,-2.7761 -2.26382,-4.4458 1.25018,-1.9076 2.95025,2.131 10.0347,4.9724 11.03678,4.4267 1.55315,-0.8459 0.23311,-2.0039 -2.95431,-2.5916 -6.52554,-1.2033 -10.77667,-5.4355 -10.34055,-10.2945 0.13734,-1.5301 -0.0749,-2.6812 -0.58038,-3.14808 -0.59312,-0.54784 -0.52959,-0.77168 0.24854,-0.87524 1.23186,-0.16395 1.12255,-2.50492 -0.132,-2.82686 -0.507,-0.13014 -0.39743,-0.29872 0.27214,-0.41875 1.17648,-0.21095 1.30724,-2.84879 0.13347,-2.69257 -0.3544,0.0472 -0.67865,-0.172 -0.72058,-0.48698 -0.0419,-0.31503 0.42545,-0.59856 1.0386,-0.63006 0.61316,-0.0315 1.15215,-0.57868 1.19777,-1.21587 0.0511,-0.714 -0.30611,-1.10682 -0.93081,-1.02368 -0.55757,0.0742 -1.05235,-0.15507 -1.09951,-0.50946 -0.0472,-0.35439 0.49415,-0.72149 1.20292,-0.81582 1.58953,-0.21155 1.54207,-1.22257 -0.0893,-1.90292 -1.08508,-0.45248 -1.06026,-0.52937 0.23216,-0.71922 1.6594,-0.24375 1.79131,-1.41739 0.20188,-1.79645 -1.6781,-0.40018 -2.63338,1.48786 -2.84202,5.6169 -0.20385,4.03478 -1.73532,8.53582 -2.96838,8.72428 -0.40691,0.0622 0.0199,0.55125 0.9485,1.08699 1.56408,0.90214 1.65419,1.15509 1.22403,3.43499 -0.25536,1.3539 -0.80145,2.9019 -1.21351,3.4405 -0.41206,0.5387 -0.77218,1.3954 -0.8003,1.9039 -0.0929,1.6817 3.70409,6.6605 6.32407,8.2924 2.84835,1.774 4.46576,2.0341 2.5485,0.4096 z m 27.14144,-8.4788 c -0.35386,-0.746 -4.60332,-2.9681 -8.94359,-4.6765 -2.44448,-0.9623 -6.81187,-5.86146 -6.47702,-7.26571 0.12515,-0.5248 -0.1013,-0.91046 -0.50329,-0.85696 -0.48885,0.0651 -0.76797,-0.97594 -0.84309,-3.14424 -0.0643,-1.85503 -0.41636,-3.37781 -0.82308,-3.56009 -0.42676,-0.19119 -0.29226,-0.73712 0.33658,-1.36611 0.85101,-0.85118 0.8691,-1.1338 0.0965,-1.5073 -0.66351,-0.32078 -0.75308,-0.62158 -0.2964,-0.99535 1.02801,-0.84135 0.528,-2.40644 -0.72299,-2.26302 -1.07654,0.1232 -1.08207,0.0817 -0.11665,-0.87648 1.14917,-1.14054 1.19228,-2.52465 0.074,-2.37582 -0.43887,0.0584 -0.36201,-0.45565 0.18733,-1.25304 0.88291,-1.28165 0.8518,-1.3625 -0.59645,-1.5498 -2.14462,-0.27738 -2.72938,1.14146 -2.57503,6.24818 0.14584,4.82519 -0.36196,6.83639 -1.77356,7.02426 -0.51912,0.0691 -0.88597,0.56053 -0.81522,1.09213 0.0708,0.53158 0.40729,0.9294 0.74787,0.88407 1.23618,-0.16452 3.62796,2.43169 3.8623,4.19238 0.25818,1.9399 -1.11503,4.6226 -2.45764,4.8013 -0.45282,0.06 -0.80718,0.2308 -0.78746,0.379 0.0197,0.1483 -0.0791,0.7515 -0.21961,1.3407 -0.3401,1.4263 1.43842,1.1724 3.58179,-0.511 1.61876,-1.2716 1.67971,-1.2601 4.13934,0.7786 1.373,1.1381 5.1285,2.9998 8.34554,4.1373 6.53386,2.3102 7.10199,2.4245 6.57991,1.3239 z m -16.67324,1.936 c 1.40797,-0.5848 1.42279,-0.6554 0.20073,-0.9553 -1.88046,-0.4616 -6.17898,0.1171 -6.08543,0.82 0.15848,1.1908 3.17718,1.2605 5.88478,0.1359 z m 7.13584,-1.512 c -1.26136,-0.359 -2.6194,-0.5854 -3.01785,-0.503 -1.00708,0.2076 3.15286,1.4342 4.34419,1.2805 0.5329,-0.061 -0.0648,-0.4185 -1.32634,-0.7775 z m -4.81531,-2.3025 c -0.83656,-0.2136 -3.07214,-0.382 -4.96795,-0.3741 -1.89583,0.01 -4.15706,-0.1465 -5.02497,-0.343 -1.85375,-0.4196 -3.27561,0.4077 -1.8398,1.0704 0.52137,0.2407 2.1122,0.3166 3.53519,0.1688 1.42297,-0.148 3.34301,-0.1333 4.26674,0.033 0.92372,0.1658 2.55076,0.1962 3.61566,0.068 1.78194,-0.215 1.81498,-0.2648 0.41513,-0.6223 z m -1.52055,-2.0747 c -0.54698,-1.0043 -3.97037,-0.8357 -4.44284,0.2189 -0.25229,0.5629 0.78528,0.7397 4.14431,0.7063 0.45513,-0.01 0.58345,-0.402 0.29853,-0.9252 z m 15.83552,-1.7077 c 0.55803,-0.4673 0.56673,-0.7751 0.0287,-1.0162 -0.42448,-0.1902 -1.00961,-0.1511 -1.30036,0.086 -0.29068,0.238 -1.62251,0.1373 -2.95952,-0.223 -1.33707,-0.3608 -3.23654,-0.5396 -4.22105,-0.3976 -1.67239,0.2417 -1.69876,0.2967 -0.40129,0.8385 1.87094,0.7819 5.8886,1.628 7.08402,1.492 0.5329,-0.061 1.32918,-0.4118 1.76946,-0.7804 z m -48.50004,4.4156 c -0.5773,-0.2727 -1.62629,-0.3943 -2.33109,-0.2701 -1.05572,0.1859 -0.98555,0.2791 0.39806,0.5274 2.37529,0.4265 3.15911,0.3221 1.93303,-0.2573 z m 6.98054,-1.3383 c 0.54391,-0.6397 -0.86843,-0.8612 -7.62225,-1.195 -3.91587,-0.1935 -8.20967,-0.504 -9.54173,-0.6898 -3.015958,-0.4208 -4.70176,-0.2225 -4.60019,0.5406 0.04289,0.3223 2.22354,0.6322 4.8459,0.6888 2.62236,0.057 6.88712,0.5055 9.47726,0.9975 4.08673,0.7761 6.5878,0.661 7.44098,-0.3423 z m -11.47238,0.8462 c -0.46679,-0.1199 -1.19168,-0.023 -1.61086,0.2144 -0.4192,0.2377 -0.0372,0.3357 0.84867,0.2177 0.88597,-0.1179 1.22896,-0.3123 0.76219,-0.4321 z m 27.06243,-4.1512 c 0.1648,-0.6909 -0.16341,-0.9618 -1.02619,-0.8469 -0.69796,0.093 -1.21061,0.6034 -1.13985,1.1352 0.0708,0.5317 0.53255,0.9128 1.02622,0.8471 0.49367,-0.066 1.00659,-0.5766 1.13982,-1.1354 z m 24.93923,-2.99122 c -0.0472,-0.35448 -1.31298,-0.44215 -2.81292,-0.19501 l -2.7271,0.44971 2.31836,0.17457 c 1.2751,0.0959 2.54093,0.18379 2.81294,0.19511 0.27198,0.0112 0.45595,-0.26951 0.40878,-0.62389 z m -21.31423,-0.18964 c 2.60894,-2.25309 1.81105,-3.09042 -3.26619,-3.4275 -2.78735,-0.1851 -2.72782,1.1793 0.08,1.83261 2.63282,0.61261 2.75496,1.47776 0.1545,1.09266 -2.1673,-0.32078 -3.3692,0.81875 -1.68372,1.59639 1.46251,0.6748 3.11001,0.2926 4.7157,-1.0942 z m -50.57164,4.51086 c -0.266185,-0.3252 -0.971566,-0.5056 -1.56752,-0.401 -0.883325,0.155 -0.831785,0.2609 0.278837,0.5725 1.822809,0.5114 1.845202,0.5084 1.288683,-0.1715 z m 13.35702,-1.5699 c -0.48991,-0.1242 -1.04262,-0.027 -1.22813,0.216 -0.18562,0.2426 0.21521,0.3442 0.89073,0.2258 0.74653,-0.1306 0.87887,-0.3038 0.33749,-0.4411 z m -9.338356,-0.2615 c -2.032966,-0.3705 -5.315461,-0.6448 -7.29443,-0.6096 -3.555007,0.063 -3.538817,0.072 1.350321,0.721 2.72165,0.3613 5.11397,0.7835 5.316289,0.9384 0.202303,0.1547 1.257998,0.1335 2.345993,-0.047 1.698371,-0.2826 1.455434,-0.4241 -1.718173,-1.0025 z m 6.072943,0.054 c -0.46678,-0.1198 -1.191659,-0.023 -1.610856,0.2144 -0.419207,0.2376 -0.03724,0.3357 0.848686,0.2178 0.885968,-0.118 1.228941,-0.3125 0.76217,-0.4322 z m 22.193863,-4.46045 c -0.25426,-1.91043 -7.60486,-2.94196 -16.03767,-2.25063 -3.74611,0.30707 -7.713093,0.43281 -8.815526,0.27934 -1.102414,-0.15349 -3.765411,-0.20746 -5.917762,-0.11996 -3.695254,0.15012 -3.799105,0.19364 -1.863302,0.78114 2.156895,0.65458 8.605835,1.0569 21.98374,1.37148 4.43055,0.10422 8.60357,0.418 9.27336,0.69726 1.60806,0.67052 1.57015,0.69148 1.37716,-0.75863 z m 17.57427,-3.19912 c -0.59398,-1.0906 -3.13085,-2.15082 -3.81215,-1.59324 -0.96157,0.78697 -0.47365,1.69972 1.12697,2.10825 2.20277,0.56214 3.17073,0.37654 2.68518,-0.51501 z m -57.594151,6.75317 c -0.46678,-0.1198 -1.191665,-0.023 -1.610857,0.2144 -0.419198,0.2377 -0.03729,0.3357 0.84868,0.2178 0.885965,-0.1179 1.228945,-0.3124 0.762177,-0.4322 z m 57.127351,-16.22421 c 0.45347,-3.01051 -0.33853,-4.0911 -1.69704,-2.31544 -1.0002,1.3073 -1.37778,4.24538 -0.65852,5.12416 0.96406,1.17793 1.92822,0.0283 2.35556,-2.80872 z m -5.59684,-4.44805 c 3.21856,-2.95273 6.9959,-7.71395 6.4508,-8.131 -0.16655,-0.12739 -1.00076,0.73252 -1.8538,1.91106 -0.85306,1.17849 -2.79967,3.29251 -4.32579,4.69786 -1.52613,1.40528 -2.76202,2.65098 -2.74644,2.76806 0.0688,0.51696 1.14289,-0.0237 2.47523,-1.24598 z m -0.54254,-1.96995 c 2.83678,-2.70765 6.98785,-8.59231 6.84075,-9.6976 -0.0607,-0.45615 0.32143,-1.97771 0.84922,-3.38118 0.63407,-1.68605 0.68861,-2.40419 0.16082,-2.11672 -0.43933,0.23932 -1.13517,1.5909 -1.54628,3.00359 -0.80722,2.77369 -5.58324,9.68526 -8.21399,11.88679 -1.55695,1.30289 -2.05405,2.69654 -0.9074,2.54393 0.30123,-0.0401 1.56882,-1.04752 2.81688,-2.23881 z m -1.6889,-1.7003 c 2.45241,-2.39235 5.91874,-7.90621 5.75303,-9.15131 -0.0606,-0.45515 -2.1198,1.81016 -4.57606,5.03408 -2.45626,3.22388 -4.45077,5.97544 -4.43224,6.11465 0.0878,0.65955 1.28405,-0.0744 3.25527,-1.99742 z m 13.86502,-2.39899 c -0.11396,-0.8562 -0.29476,-0.87693 -0.9989,-0.11464 -0.47287,0.51191 -0.84519,1.04021 -0.82739,1.17401 0.0178,0.13383 0.46732,0.18542 0.9989,0.11467 0.53158,-0.0707 0.9039,-0.5991 0.82739,-1.17404 z m -14.17265,-1.4762 c 2.80446,-4.01733 5.22467,-9.25357 4.5246,-9.78918 -0.93684,-0.71676 -2.51491,1.25823 -3.66322,4.58466 -0.63598,1.84231 -1.98375,4.46455 -2.99504,5.82727 -2.01461,2.71463 -2.13516,3.06024 -1.01559,2.91123 0.41364,-0.055 1.8308,-1.64533 3.14925,-3.53398 z m -3.59193,0.42498 c 0.46918,-0.72274 1.32997,-2.70248 1.91285,-4.39938 0.58289,-1.69689 2.4011,-5.00746 4.04046,-7.35681 2.79655,-4.00765 3.41887,-5.34021 2.4327,-5.20896 -1.16803,0.15545 -6.84891,9.28535 -8.42461,13.53936 -1.74353,4.70721 -1.72733,6.14614 0.0386,3.42579 z m -86.295094,2.72412 c -0.07044,-0.60055 0.137985,-1.30965 0.463221,-1.57587 0.325243,-0.26616 0.52802,-0.95976 0.450622,-1.54131 -0.08771,-0.659 -0.334329,-0.79689 -0.654613,-0.366 -0.705942,0.94973 -2.286947,7.91348 -2.064798,9.09475 0.233403,1.24108 1.974644,-4.17067 1.805568,-5.61157 z m 1.666899,3.49265 c -0.224787,-0.17199 -0.537484,0.23357 -0.694887,0.90123 -0.227451,0.96487 -0.143589,1.02903 0.408712,0.31272 0.382188,-0.49568 0.510963,-1.04196 0.286175,-1.21395 z m 82.843905,-11.04254 c 0.14372,-0.60272 0.001,-0.84698 -0.33394,-0.57263 -0.32151,0.26314 -0.54825,0.75129 -0.50387,1.08477 0.12335,0.92681 0.55802,0.66112 0.83781,-0.51214 z m -15.18553,-8.63181 c 0.25449,-0.86232 0.36616,-2.29349 0.24812,-3.18038 -0.11804,-0.88694 0.0774,-2.44827 0.43421,-3.46966 0.35686,-1.02146 0.70063,-3.0444 0.76394,-4.49544 0.11533,-2.6436 0.82914,-7.57196 1.64635,-11.36698 0.57016,-2.64782 3.87853,-10.47441 5.58066,-13.20209 1.61046,-2.58081 2.23676,-1.04724 0.66425,1.62645 -3.73532,6.35109 -6.48851,15.68786 -6.61859,22.44534 -0.0414,2.15287 -0.01,2.19089 0.48907,0.59064 0.54533,-1.74873 1.16546,-4.08095 2.12387,-7.98777 0.29725,-1.21175 0.79524,-2.23707 1.10663,-2.27852 0.77473,-0.10311 0.78933,-0.26176 -0.59059,6.42107 -1.82966,8.8609 -1.82612,8.82233 -0.70094,7.61849 0.95529,-1.02195 3.35843,-7.76597 3.1977,-8.97367 -0.0477,-0.35861 0.65596,-2.14597 1.56374,-3.97193 1.85418,-3.72968 2.96453,-3.22714 1.26246,0.57138 -0.60215,1.34384 -0.93151,2.77787 -0.73192,3.18682 0.1996,0.40892 2.72318,-3.48881 5.60793,-8.66169 2.88477,-5.17288 5.3876,-9.11313 5.56184,-8.75614 0.17424,0.357 -0.19894,1.62428 -0.82928,2.81618 -1.5005,2.8373 -0.67052,3.39581 1.32944,0.89466 1.76203,-2.20367 3.36291,-2.70483 4.13158,-1.29353 0.38973,0.7156 0.78487,0.74856 1.63552,0.13651 0.6169,-0.44385 2.14115,-0.77792 3.38721,-0.74232 2.79564,0.0799 6.55758,-2.21484 10.37192,-6.32676 2.72904,-2.94186 4.72646,-3.61884 8.16403,-2.76694 1.34646,0.33369 4.86327,-3.97713 5.51902,-6.76508 0.4922,-2.09266 1.63703,-2.17544 1.9082,-0.13802 0.21824,1.63986 -0.3889,3.68721 -1.77002,5.96854 -1.36358,2.25234 -0.0981,1.8476 1.81729,-0.58129 2.26507,-2.87227 5.16066,-8.88644 5.43461,-11.28778 0.10981,-0.96247 0.49198,-1.78884 0.84929,-1.83639 0.3573,-0.0476 0.55733,0.44221 0.44451,1.0884 -0.66382,3.80206 -0.6599,4.1863 0.0416,4.09294 0.40685,-0.0541 0.84872,-0.55562 0.98196,-1.11436 0.13324,-0.55874 0.53967,-1.05544 0.90317,-1.10382 1.10259,-0.14674 2.62331,-2.94914 4.08585,-7.52943 0.7634,-2.3908 1.68576,-4.38657 2.0497,-4.435 0.38009,-0.0506 0.35101,0.77669 -0.0684,1.94378 -0.40153,1.11752 -0.63167,2.77116 -0.51142,3.67471 0.12026,0.90359 -0.0713,1.68148 -0.42567,1.72865 -0.3544,0.0472 -0.58647,0.52066 -0.51572,1.05225 0.18845,1.41596 1.23967,1.03544 1.43252,-0.5185 0.091,-0.73344 0.60357,-1.39183 1.13902,-1.46309 0.56502,-0.0752 1.28671,-1.45223 1.71985,-3.2816 0.41048,-1.73358 1.31997,-4.05245 2.02108,-5.15305 0.84423,-1.32529 1.37083,-3.77508 1.55923,-7.25358 0.25415,-4.69273 0.11854,-5.69296 -1.27255,-9.38654 -1.70753,-4.53368 -3.18487,-6.56854 -6.43071,-8.85747 -2.92097,-2.05985 -6.05789,-2.97554 -8.89848,-2.59749 -3.1472,0.41886 -5.70831,-0.74594 -7.88943,-3.58819 -1.49459,-1.94761 -1.88249,-3.19003 -2.39155,-7.66028 -0.95074,-8.34863 -0.79672,-8.02234 -4.16342,-8.81951 -3.82656,-0.90604 -4.94748,-1.91867 -5.83053,-5.26716 -0.81436,-3.08801 0.004,-3.79718 1.05198,-0.912 0.75743,2.0846 4.10433,3.98967 6.4647,3.67974 2.62982,-0.34597 3.36599,1.1921 4.1984,8.76905 1.16647,10.61777 2.40352,11.61333 12.79453,10.29679 7.69257,-0.97468 7.64838,-0.90956 4.31747,-6.35831 -1.47494,-2.4127 -4.1437,-4.99524 -9.42997,-9.12531 -8.31763,-6.49841 -8.85588,-7.64884 -3.56788,-7.62575 4.30919,0.0188 4.01137,-1.46953 -0.38739,-1.93593 -2.35493,-0.24969 -3.03063,-0.61801 -3.37534,-1.83988 -0.23704,-0.84023 -0.91941,-1.79392 -1.51637,-2.11931 -0.9716,-0.5296 -0.99603,-0.7777 -0.23303,-2.36643 0.82018,-1.7078 0.78827,-1.80558 -0.84544,-2.59017 -3.41591,-1.64052 -4.82205,-1.37032 -8.18912,1.57354 -3.09843,2.709 -5.17281,6.12886 -4.6811,7.71735 0.46852,1.51357 -0.11319,5.71873 -0.91049,6.58188 -0.43988,0.47622 -0.74664,1.26529 -0.68167,1.75347 0.065,0.48819 -0.17181,0.9262 -0.52621,0.97337 -0.35438,0.0472 -0.56716,0.66566 -0.47283,1.37444 0.0943,0.70878 -0.11844,1.32728 -0.47283,1.37445 -0.35438,0.0472 -0.57829,0.59337 -0.49756,1.21379 0.0806,0.62044 -0.41323,2.38293 -1.09766,3.91667 -0.68443,1.53376 -1.19036,3.26413 -1.12426,3.84527 0.0661,0.58113 -0.20246,1.94479 -0.59676,3.03033 -0.39429,1.08552 -0.63924,2.5709 -0.54433,3.30084 0.0951,0.7299 -0.1782,1.94664 -0.60696,2.70379 -0.95571,1.68774 -0.74651,3.91889 0.51006,5.43964 0.76148,0.9216 0.7786,1.38964 0.0891,2.43835 -0.95843,1.45777 -1.46662,4.53334 -0.63684,3.85422 0.9878,-0.8085 1.01726,3.06441 0.0457,6.01065 -0.85947,2.60643 -7.88219,11.0936 -9.39969,11.35991 -0.80773,0.14159 -3.10162,2.82568 -3.00911,3.52079 0.0458,0.34412 -0.89585,1.58339 -2.09256,2.75392 -1.1967,1.17058 -3.56458,3.88835 -5.26194,6.03951 -1.69737,2.15112 -3.68492,4.15529 -4.41678,4.4537 -0.73185,0.29843 -2.23125,2.33542 -3.33198,4.52667 -1.10073,2.19125 -2.44634,4.6311 -2.99024,5.42193 -1.17748,1.71196 -3.42964,7.24476 -3.31121,8.1346 0.0459,0.3448 -0.25682,1.68637 -0.6727,2.98127 -1.08219,3.3696 -0.17492,3.4891 1.34705,0.17738 1.71484,-3.73136 2.95979,-4.66208 1.68563,-1.26012 -2.91911,7.79379 -3.42443,12.8574 -2.42401,24.29003 0.53805,6.14885 1.08004,9.37653 1.7772,10.58344 0.97113,1.68124 1.00335,1.61125 1.01227,-2.19928 0.005,-2.16464 0.21745,-4.64129 0.47197,-5.50366 z m 35.42568,-66.58863 c -0.20889,-4.74219 -0.34064,-5.25659 -1.22313,-4.77596 -1.24359,0.67729 -1.41484,-0.24791 -0.27439,-1.48254 0.47285,-0.51194 0.78209,-1.54826 0.68717,-2.30295 -0.26029,-2.07017 0.60341,-3.59655 1.60261,-2.83207 0.60093,0.45972 0.67567,1.51263 0.28382,3.99818 -0.55814,3.54051 -0.3355,4.25785 1.08191,3.48586 0.47156,-0.25683 0.90009,-0.14603 0.95231,0.24635 0.0522,0.39229 -0.14848,0.74566 -0.44598,0.78526 -0.88386,0.11763 -1.62162,3.38801 -1.30351,5.77823 0.16286,1.22371 -0.024,2.26751 -0.41528,2.31958 -0.49885,0.0664 -0.78138,-1.49342 -0.94553,-5.21994 z m 13.86704,3.25259 c -0.0178,-0.13374 0.35452,-0.6621 0.82739,-1.174 0.70415,-0.76228 0.88494,-0.74157 0.99889,0.11463 0.0765,0.57499 -0.2958,1.1033 -0.82738,1.17405 -0.53158,0.0707 -0.98109,0.0192 -0.9989,-0.11468 z m -0.52667,-3.94208 c 0.71327,-0.9952 1.45784,-1.68629 1.65457,-1.53578 0.48468,0.37083 -1.47163,3.14822 -2.29466,3.25775 -0.36123,0.0481 -0.0732,-0.72681 0.64009,-1.72197 z m -3.84645,0.6435 c -0.0757,-0.56888 0.24368,-1.32105 0.70979,-1.67152 0.46611,-0.35046 1.72752,-2.17624 2.80315,-4.05727 1.07563,-1.88103 2.12703,-3.28896 2.33647,-3.12869 0.44887,0.34342 -2.8257,6.48567 -4.52999,8.49716 -1.01858,1.20211 -1.20077,1.25186 -1.31942,0.36032 z m -2.25717,-5.05256 c 2.32039,-2.67165 3.1274,-3.19011 3.27221,-2.10211 0.0472,0.35434 -0.17376,0.67885 -0.49096,0.72107 -0.31719,0.0422 -1.16373,0.88752 -1.88121,1.87842 -0.71747,0.9909 -1.71457,1.86134 -2.21579,1.9343 -0.50124,0.0728 0.0909,-1.0213 1.31575,-2.43168 z m -11.71228,-0.3548 c 0.54676,-1.29056 1.0725,-3.2786 1.1683,-4.41785 0.15873,-1.88775 1.24541,-3.09383 1.44388,-1.60259 0.16109,1.21041 -2.34817,8.19952 -2.97373,8.28277 -0.34789,0.0463 -0.18521,-0.97172 0.36155,-2.26233 z m 28.91288,-28.89487 c -1.04493,-0.399 -1.93408,-0.98244 -1.97588,-1.29652 -0.0418,-0.31409 -0.33699,-1.07687 -0.65599,-1.69508 -0.36896,-0.71505 0.004,-0.57245 1.02544,0.39195 0.88296,0.83378 2.35924,1.60198 3.28059,1.7071 0.92136,0.1051 1.71305,0.47553 1.75932,0.82316 0.11854,0.89072 -1.21214,0.91761 -3.43348,0.0694 z m -3.19224,-6.23526 c -0.0746,-0.62902 -0.49721,-2.27592 -0.94003,-3.65966 -0.53865,-1.68318 -0.56265,-2.33109 -0.0725,-1.95761 0.96626,0.73629 2.2864,5.82891 1.64672,6.35244 -0.27459,0.22474 -0.55997,-0.10608 -0.63417,-0.73517 z m -12.20379,-16.65226 c -2.07604,-1.91764 -0.97963,-7.34549 1.55217,-7.68245 0.74998,-0.0998 0.6904,0.23038 -0.24718,1.36996 -1.76289,2.14268 -1.37524,2.9889 0.7041,1.53697 2.24602,-1.56832 2.25746,-1.56854 3.33819,-0.0665 0.76544,1.06382 0.66742,1.58246 -0.63561,3.36337 -1.72872,2.36268 -3.2409,2.83724 -4.71167,1.47868 z m -15.84153,126.27961 c 0.44315,-1.18063 0.36577,-1.22444 -0.74788,-0.42312 -0.6832,0.49157 -1.22741,1.00484 -1.20934,1.14056 0.0181,0.13577 -0.0957,0.80445 -0.25288,1.48605 -0.25475,1.10483 -0.17723,1.12399 0.71502,0.17636 0.55042,-0.58461 1.22321,-1.65553 1.49508,-2.37985 z m -11.55423,2.51567 c -0.0355,-0.26653 1.05382,-2.05934 2.42066,-3.98399 2.37738,-3.34754 2.93189,-4.75998 1.81015,-4.61069 -1.04386,0.13893 -5.67073,7.62989 -5.50089,8.906 0.0252,0.18967 0.33585,0.30626 0.69023,0.2591 0.3544,-0.0472 0.61532,-0.30389 0.57985,-0.57042 z m -1.03349,-5.12983 c 0.30617,-0.5041 0.88326,-1.3924 1.28245,-1.97401 0.39918,-0.58162 0.44517,-1.02014 0.10218,-0.97449 -0.98588,0.13121 -4.03233,5.05474 -3.87219,6.25798 0.10965,0.82386 0.36124,0.66561 1.03782,-0.65274 0.49119,-0.9571 1.14358,-2.15263 1.44974,-2.65674 z m -37.401791,5.32844 c 0.335688,-1.57752 0.498124,-4.98519 0.360943,-7.57263 -0.137188,-2.58749 0.143583,-6.31344 0.623916,-8.28003 2.3028,-9.4278 9.434318,-20.78089 13.383842,-21.30653 1.50518,-0.20032 2.05459,-0.71667 2.64191,-2.48281 0.73304,-2.20436 0.72251,-2.22981 -0.91915,-2.22116 -4.759021,0.025 -15.978085,10.87758 -19.312249,18.68138 -3.672852,8.59648 -3.689705,19.01688 -0.0385,23.80845 0.983228,1.29035 1.981462,2.32252 2.218315,2.2938 0.237005,-0.0275 0.705273,-1.34299 1.040976,-2.92047 z m 48.337591,-4.62996 c 0.37571,-0.59866 0.38859,-1.03533 0.0292,-0.9875 -0.35438,0.0472 -0.9474,0.56876 -1.31784,1.15901 -0.37569,0.59871 -0.38859,1.0354 -0.0292,0.98756 0.3544,-0.0472 0.94742,-0.56872 1.31784,-1.15907 z m -97.494972,7.07384 c -0.03276,-0.35631 -0.377485,0.13216 -0.766032,1.08557 -0.388553,0.95338 -0.617493,2.31176 -0.508758,3.01862 0.129462,0.84154 0.393887,0.46678 0.766028,-1.08557 0.312581,-1.30394 0.541521,-2.66231 0.508762,-3.01862 z m 32.54307,-0.23268 c -0.151274,-0.43071 -0.569326,-1.27408 -0.929006,-1.87409 -0.582838,-0.97231 -0.845692,-4.87802 -0.511922,-7.60654 0.06728,-0.54995 0.184986,-2.18859 0.261576,-3.64146 0.07659,-1.45286 0.44135,-3.65411 0.810578,-4.89163 0.369222,-1.23762 0.508179,-2.58401 0.308795,-2.99201 -0.415823,-0.85095 -2.039331,5.7584 -2.432118,9.90116 -0.424048,4.47253 0.764235,12.1542 1.85762,12.00868 0.500226,-0.0666 0.785748,-0.47341 0.634477,-0.90411 z m -22.297606,-0.63906 c -0.244619,-0.59865 -0.309682,-0.0736 -0.144601,1.16682 0.165074,1.24032 0.365211,1.73013 0.444743,1.08837 0.07953,-0.64176 -0.05553,-1.65657 -0.300142,-2.25519 z M 73.43344,955.14042 c 0.240858,-3.78089 0.594744,-7.36902 0.786395,-7.97367 2.296963,-7.24704 3.593012,-10.56109 4.275525,-10.93279 0.451788,-0.24607 0.752637,-0.96435 0.66854,-1.59623 -0.165557,-1.24395 3.64646,-8.52233 5.723481,-10.92793 0.703641,-0.815 3.464959,-2.95647 6.136269,-4.75883 5.878951,-3.96662 6.433306,-5.15084 2.075012,-4.43272 -1.899212,0.31289 -2.396451,0.52351 -1.282739,0.5432 2.021292,0.0358 1.975646,1.23363 -0.05731,1.50419 -0.711516,0.0947 -2.147555,1.0235 -3.191218,2.06407 -1.043653,1.04057 -2.24998,1.93885 -2.680722,1.99618 -0.937562,0.12478 -6.801507,7.23652 -7.498995,9.09464 -0.34917,0.93026 -0.303139,1.15395 0.159585,0.77528 1.306448,-1.06924 0.845802,1.30296 -0.590042,3.03863 -1.364622,1.64956 -3.486277,7.49418 -5.108691,14.07326 -1.085387,4.40136 -1.153083,17.12759 -0.09773,18.37414 0.274426,0.3242 0.441757,-0.43584 0.371856,-1.68883 -0.06991,-1.25304 0.06997,-5.37167 0.310822,-9.1526 z m 38.33151,0.48312 c 0.0197,-1.76193 0.14111,-3.69611 0.26974,-4.29832 0.12866,-0.60215 0.0369,-0.86324 -0.20386,-0.58017 -0.40183,0.47243 -1.2081,8.02069 -1.01637,9.51517 0.21256,1.65776 0.91856,-1.78579 0.95049,-4.63668 z m -69.943086,7.33107 c -0.09088,-2.31717 0.09463,-5.81863 0.412231,-7.78113 0.317607,-1.96248 0.82503,-5.22406 1.1276,-7.24801 0.625175,-4.18187 1.797879,-8.33094 2.471524,-8.74446 0.250064,-0.15352 0.404244,-0.65798 0.342612,-1.12107 -0.06163,-0.46304 0.898703,-2.70564 2.134041,-4.9836 1.235354,-2.27789 2.62585,-4.95757 3.089993,-5.95482 3.080223,-6.61817 15.569518,-18.3063 22.778962,-21.3177 1.622933,-0.67789 2.916712,-1.48862 2.875047,-1.80168 -0.133309,-1.00165 -7.956353,1.06295 -10.580532,2.79275 -1.393207,0.91819 -2.991142,1.73042 -3.550961,1.80493 -0.559827,0.0745 -1.131047,0.61014 -1.269396,1.1903 -0.138347,0.5801 -0.647067,0.96047 -1.130498,0.84518 -0.483432,-0.1153 -1.17004,0.25418 -1.525781,0.82111 -0.355744,0.56691 -0.976491,1.07464 -1.379432,1.12827 -0.402942,0.0536 -1.017605,0.7256 -1.365909,1.49329 -0.348306,0.76769 -0.930565,1.43532 -1.293898,1.48367 -1.323038,0.17608 -8.3922,10.88962 -10.718814,16.24467 -4.628433,10.65303 -5.308093,15.3329 -4.104379,28.26104 0.785809,8.43964 1.985888,10.49281 1.68759,2.88726 z m 6.777106,0.18957 c -0.242614,-0.18563 -0.344241,0.21523 -0.225873,0.89074 0.130812,0.74646 0.303818,0.87884 0.441104,0.33749 0.124224,-0.48992 0.02737,-1.04264 -0.215247,-1.22822 z m 56.05777,-7.46072 c -0.24261,-0.18564 -0.34424,0.21522 -0.22586,0.89073 0.13082,0.74646 0.30382,0.87884 0.44109,0.3375 0.12423,-0.48992 0.0274,-1.04265 -0.21522,-1.22824 z m -69.45363,3.98385 c -0.621191,-4.27056 -0.987221,-5.6344 -1.146958,-4.27371 -0.441518,3.76113 0.746556,10.72061 1.806074,10.5796 0.139278,-0.0185 -0.15732,-2.85614 -0.659116,-6.30589 z m 66.19043,-15.07017 c 0.36131,-5.74576 0.60625,-10.79489 0.54432,-11.2203 -0.12258,-0.84147 -1.26769,1.67503 -2.000421,4.39594 -0.25185,0.93515 -0.678125,2.23671 -0.947299,2.89221 -1.106267,2.69425 -1.236091,14.38665 -0.174133,15.68416 1.225203,1.49697 1.953093,-1.82177 2.577533,-11.75201 z m -52.812908,14.76522 c 0.03445,-1.83273 -0.07553,-2.21551 -0.362918,-1.26322 -0.395794,1.31152 -0.301862,4.81134 0.112518,4.19277 0.110534,-0.16498 0.223212,-1.48325 0.2504,-2.92955 z m 20.945941,-14.69462 c 1.772451,-5.0311 2.966756,-8.12256 3.295979,-8.5318 0.162733,-0.20229 1.106305,-1.80351 2.09683,-3.55834 0.990517,-1.75483 2.941139,-4.7789 4.334714,-6.72018 1.39356,-1.94128 1.993537,-3.15422 1.333256,-2.69544 -2.599924,1.80658 -9.502992,11.60665 -10.464078,14.85553 -0.241864,0.81765 -0.582964,1.65325 -0.75798,1.85688 -0.518893,0.60361 -2.659756,9.9359 -3.144822,13.70852 -0.786711,6.11867 -0.101261,6.27731 1.035733,0.23967 0.603139,-3.20277 1.624807,-7.32245 2.270368,-9.15484 z m 34.173787,3.57564 c -0.23455,-0.41272 -0.29995,0.118 -0.14531,1.17941 0.15458,1.06143 0.34653,1.39913 0.42646,0.75045 0.0799,-0.64867 -0.0466,-1.51711 -0.28116,-1.92986 z m -54.062595,1.46982 c -0.08284,-0.86328 -0.148357,-0.85456 -0.589188,0.0784 -0.272786,0.57731 -0.402859,1.6274 -0.289046,2.3336 0.2069,1.28398 0.2069,1.28398 0.589188,-0.0784 0.210243,-0.74932 0.340315,-1.79941 0.289046,-2.3336 z m 85.034115,-9.4211 c 2.99067,-1.20127 8.95355,-5.29095 10.95898,-7.51631 0.79535,-0.88257 2.48194,-2.84912 3.74799,-4.37013 1.4472,-1.73866 2.93333,-2.84947 4.00249,-2.99176 0.93531,-0.12448 2.1482,-0.87612 2.6953,-1.67027 1.0705,-1.55382 0.22834,-1.8823 -0.94014,-0.36667 -0.56494,0.73284 -0.64707,0.6465 -0.41532,-0.43655 0.15887,-0.74244 0.50308,-1.72102 0.76489,-2.17463 0.29105,-0.50413 0.17022,-0.96168 -0.31088,-1.17726 -0.43676,-0.19569 -1.1612,0.36856 -1.62804,1.2681 -2.01324,3.87944 -6.61796,8.82993 -10.65335,11.45335 -7.2638,4.72229 -8.42846,5.30713 -12.67331,6.36399 -5.65862,1.40894 -8.23401,3.62583 -4.2892,3.6922 2.17809,0.0367 5.37325,-0.72219 8.74059,-2.07406 z m -98.263995,3.64069 c 0.252354,-0.75492 0.894537,-2.90601 1.427072,-4.78023 0.532542,-1.87421 1.865607,-5.20552 2.96238,-7.40292 1.09676,-2.19745 2.081689,-4.76305 2.188729,-5.70133 0.107048,-0.93829 0.453157,-1.74033 0.769127,-1.78238 0.315969,-0.0421 0.525466,-0.43883 0.465543,-0.88168 -0.199141,-1.47431 -4.394628,5.60902 -5.797146,9.78816 -2.952396,8.79738 -4.566003,15.92234 -4.178448,18.45006 0.18651,1.21651 0.484292,0.52553 0.985592,-2.28696 0.395083,-2.2166 0.924799,-4.64784 1.177151,-5.40272 z m 26.936539,-0.14228 c 2.642257,-8.25405 4.941133,-13.06501 8.358318,-17.49187 7.017604,-9.09114 13.632638,-12.99786 24.279398,-14.33904 3.467007,-0.43671 6.2525,-1.06029 6.20863,-1.38991 -0.12269,-0.92186 -3.28527,-2.24089 -5.945454,-2.47962 -3.637054,-0.32643 -12.974379,2.06557 -18.047318,4.62326 -5.150757,2.59696 -9.093712,5.94716 -13.723558,11.66052 -3.935597,4.85653 -6.159892,11.42962 -5.839543,17.25649 0.206812,3.7616 1.496847,7.34195 2.592791,7.19609 0.289902,-0.0386 1.242442,-2.30471 2.116736,-5.03592 z m -12.863378,2.32906 c -0.224828,-1.35532 -0.246895,-1.35686 -0.61544,-0.0433 -0.526077,1.87495 -0.442162,2.50546 0.257264,1.933 0.325244,-0.2662 0.486416,-1.11657 0.358176,-1.88967 z m 22.742435,-6.43082 c -0.04717,-0.3544 -0.506288,0.44444 -1.020279,1.77518 -0.513996,1.33071 -0.895939,2.70949 -0.848774,3.06387 0.04717,0.3544 0.506288,-0.44448 1.020285,-1.77519 0.513991,-1.33074 0.895933,-2.70947 0.848768,-3.06386 z M 50.490274,938.4519 c 0.662076,-1.89147 1.108452,-3.42633 0.991931,-3.41082 -0.463377,0.0617 -2.391414,4.03865 -2.640297,5.44619 -0.459074,2.59614 0.397288,1.53871 1.648366,-2.03537 z m 6.504447,-7.78979 c -0.0208,-0.15631 -0.327774,-0.2456 -0.682163,-0.19843 -0.354396,0.0472 -0.603479,0.39284 -0.553528,0.76816 0.04994,0.37526 0.356921,0.46459 0.682165,0.19839 0.325236,-0.26622 0.574324,-0.61185 0.553526,-0.76812 z m 19.87591,-6.30921 c 0.5705,-1.27318 -1.826187,0.73945 -3.009103,2.52695 l -1.085808,1.64075 1.882906,-1.71663 c 1.035599,-0.94415 2.031004,-2.04712 2.212005,-2.45107 z m 23.097082,-3.38727 c 0.650017,-0.53576 2.518227,-1.50256 4.151557,-2.14846 2.8346,-1.12101 4.00633,-2.14837 3.17532,-2.78413 -0.66199,-0.50651 -7.48806,2.79676 -9.326601,4.5133 -2.019308,1.88531 -3.747663,4.04304 -3.675114,4.58815 0.04394,0.33017 1.629952,-0.83497 5.674838,-4.16886 z m -32.580356,-3.36867 c 3.765632,-3.69456 8.346145,-6.75247 12.502289,-8.34642 0.946918,-0.36315 1.827875,-0.89733 1.957696,-1.18707 0.379159,-0.84619 -7.265638,2.56137 -9.957198,4.43828 -3.731752,2.60226 -9.043413,8.00633 -12.285648,12.49933 -3.396303,4.70654 -3.076209,5.33507 0.422434,0.82948 1.815171,-2.33756 5.127355,-6.0427 7.360427,-8.2336 z m 35.044713,-1.48981 c 3.79131,-1.78415 4.13739,-2.06998 2.25783,-1.86499 -2.68311,0.29263 -6.414709,2.65843 -9.110685,5.77605 l -1.989034,2.30008 2.182112,-2.05205 c 1.200168,-1.1286 4.197066,-3.0002 6.659777,-4.15909 z m -17.398557,3.4334 c -0.448436,-0.086 -1.229171,0.3966 -1.734971,1.07244 -0.860875,1.15025 -0.808784,1.16023 0.815352,0.15634 0.954226,-0.58984 1.368059,-1.14282 0.919619,-1.22878 z m 36.649267,-15.25537 c -0.0756,-0.56839 -2.19475,1.32536 -3.22985,2.88632 -0.88957,1.34146 -0.69234,1.25279 1.08969,-0.49001 1.19673,-1.17039 2.1598,-2.24875 2.14016,-2.39631 z m -28.458908,0.94394 c -0.459836,-0.35176 -2.093485,-0.16347 -4.488622,0.51749 l -3.765661,1.07062 4.488632,-0.51749 c 2.962925,-0.34158 4.242889,-0.70544 3.765656,-1.07058 z m 45.207418,-20.27399 c 0.72271,-1.44225 1.24264,-3.06067 1.15539,-3.59646 -0.0873,-0.53584 -0.58081,0.1694 -1.09679,1.56721 -0.51599,1.39778 -1.20676,2.76126 -1.53503,3.02993 -0.59731,0.48886 -0.69983,1.73632 -0.13654,1.66135 0.16441,-0.0219 0.89025,-1.21977 1.61297,-2.66203 z m 44.36874,-33.01415 c -0.57985,-1.14793 -1.69636,-2.5964 -2.48114,-3.21884 -1.59825,-1.26762 -1.53637,-1.1047 1.14545,3.01612 2.13308,3.2776 2.95166,3.40183 1.33569,0.20272 z m 1.58026,-1.42491 c -0.66313,-1.40987 -1.86957,-1.61168 -1.69276,-0.28315 0.12206,0.9171 1.70163,2.33967 2.06727,1.86176 0.12533,-0.16381 -0.0432,-0.87419 -0.37451,-1.57861 z m -16.7169,-17.93175 c -0.2159,-0.16518 -0.70476,-0.0448 -1.08635,0.26753 -0.51444,0.42103 -0.4491,0.6782 0.25268,0.99465 0.93024,0.41947 1.63567,-0.64857 0.83367,-1.26218 z m -0.73556,-5.19253 c -0.78141,-0.59785 -3.43667,1.23801 -3.59992,2.48901 -0.34632,2.65391 -0.0567,2.68289 1.912,0.19133 1.07574,-1.36144 1.83529,-2.56759 1.68792,-2.68034 z m -24.38991,4.48085 c 0.32505,-0.26763 0.73349,-0.52458 0.90764,-0.57101 1.50233,-0.40053 3.87055,-2.01625 6.31227,-4.30657 2.11798,-1.98664 3.86758,-2.98467 6.39959,-3.65054 1.91658,-0.50401 4.2543,-1.23106 5.19495,-1.61564 1.58222,-0.6469 1.72932,-0.556 1.96493,1.21427 0.22748,1.70928 0.42753,1.85601 1.87414,1.37471 2.39868,-0.79809 3.46534,-4.51609 2.06736,-7.20606 -0.57894,-1.11397 -1.17302,-2.93006 -1.32018,-4.03574 -0.32891,-2.47138 -1.41105,-3.08669 -2.11769,-1.20412 -0.70916,1.88929 -2.76977,2.04256 -5.61271,0.41748 l -2.35473,-1.34602 -0.19222,1.68499 c -0.11343,0.99416 -0.65135,1.74608 -1.31207,1.83402 -1.33126,0.17718 -5.28418,-1.05938 -7.02704,-2.1982 -1.12092,-0.73244 -1.27844,-0.64006 -1.65769,0.97236 -0.50871,2.16281 -2.19045,2.51928 -4.41825,0.93651 -1.90059,-1.35029 -2.27281,-1.04001 -2.74507,2.28828 -0.4058,2.85986 -2.21934,3.74946 -4.96023,2.43313 -1.69457,-0.81381 -2.95972,-0.49029 -2.7992,0.71581 0.0444,0.33347 0.39838,0.56402 0.78665,0.51235 0.38828,-0.0517 1.55271,0.35386 2.58761,0.90117 1.0349,0.54731 2.61912,1.02227 3.52048,1.05547 1.46448,0.0539 1.51876,0.13394 0.51022,0.75202 -0.72357,0.44344 -1.78535,0.4228 -2.95856,-0.0575 -2.37473,-0.97223 -5.50779,-1.28421 -5.40856,-0.53858 0.0427,0.32063 0.62127,1.35584 1.28576,2.30045 0.6645,0.94463 1.34707,2.74746 1.51683,4.00631 0.27727,2.05297 0.60902,2.38839 3.22428,3.2555 2.91058,0.96502 5.61401,0.99521 6.73149,0.0752 z m 7.67071,-15.05584 c -1.24676,-0.64555 -2.30081,-1.39055 -2.34231,-1.65553 -0.15111,-0.96484 1.69287,-0.68277 3.04918,0.46642 1.39283,1.18013 1.85041,1.13665 6.26685,-0.59542 2.39757,-0.9403 2.35901,0.40307 -0.0464,1.61813 -2.84871,1.43896 -4.39775,1.47617 -6.92728,0.1664 z m -11.07788,1.77325 c -0.0453,-0.34053 0.33424,-1.0702 0.84347,-1.62149 0.80102,-0.86719 0.91592,-0.83432 0.85214,0.24377 -0.076,1.28465 -1.54874,2.48126 -1.69561,1.37772 z"
       style="fill:#000000"
       inkscape:connector-curvature="0" />
  </g>
  <g
     inkscape:groupmode="layer"
     id="layer2"
     inkscape:label="Whine Glass"
     style="display:inline">
    <g
       id="g8241"
       transform="matrix(0.19774647,-0.05569343,0.05569343,0.19774647,102.69453,54.491195)">
      <path
         style="font-size:12px;fill-opacity:1;fill-rule:evenodd"
         id="path624"
         d="m 544.69281,338.39517 c -12.4837,-10.3053 48.3308,-29.4928 45.5029,-43.9162 -2.898,-25.4548 -30.6952,-69.4016 -43.9813,-82.729 -29.5275,-12.9283 -177.6719,-198.448166 -176.1133,-225.003467 0.7336,-17.84412 102.5723,-53.21249 126.7459,-47.68249 36.2445,8.29128 95.3604,221.413357 84.5035,259.922857 3.4402,20.2498 30.12048,76.6463 47.40841,81.7741 17.49202,6.5593 63.88791,-10.3554 63.25078,-1.0596 -1.66101,29.0685 -120.93079,78.4634 -147.31689,58.6938 z"
         inkscape:connector-curvature="0" />
      <path
         style="font-size:12px;fill:#ab0000;fill-opacity:1;fill-rule:evenodd"
         id="path626"
         d="m 534.03341,188.15127 c -14.0313,-9.1546 -96.3104,-110.408603 -103.3482,-119.700803 -6.0706,-9.7647 -16.7302,-12.7697 -7.8978,-23.9719 5.7952,-5.9224 34.6391,14.7619 58.6242,8.8574 23.9853,-5.9042 42.4713,-28.4853 54.0952,-33.2097 8.2437,12.1734 6.4659,11.5319 8.81,17.597 4.6469,10.3046 32.5313,117.308303 29.4984,134.925503 -2.7233,12.0843 -28.5531,22.046 -39.7818,15.5025 z"
         inkscape:connector-curvature="0" />
      <path
         style="font-size:12px;fill:#ffffff;fill-opacity:1;fill-rule:evenodd;stroke:#000000;stroke-width:9.0125618"
         id="path627"
         d="m 416.71041,56.038967 c -8.4786,-11.7553 -26.6059,-39.729404 -32.2914,-61.5698635 -6.2787,-17.1140605 92.7048,-56.2445205 111.9465,-43.1627505 14.0503,8.53514 25.4554,31.14822 35.7798,62.997511 3.9711,9.978403 -38.3989,40.977203 -53.6473,44.942603 -13.2573,3.5421 -41.8765,-9.712 -53.0235,-13.0387 -5.6386,-2.3677 -0.578,10.7362 -8.7641,9.8312 z"
         inkscape:connector-curvature="0" />
      <path
         style="font-size:12px;fill:#ffffff;fill-opacity:0.62239996;fill-rule:evenodd;stroke-width:1"
         id="path628"
         d="m 547.87741,136.21227 c -14.5287,-40.815803 -27.9035,-46.880203 -39.9335,-61.487903 -12.0305,-14.6078 23.9597,-45.1324 27.7324,-38.4991 3.7727,6.6333 20.559,79.778103 24.2513,88.451803 3.6926,8.6736 -3.2404,18.2983 -12.0502,11.5352 z"
         inkscape:connector-curvature="0" />
    </g>
  </g>
  <g
     inkscape:groupmode="layer"
     id="layer3"
     inkscape:label="Bottle"
     style="display:none">
    <g
       id="g2106"
       transform="matrix(0.13674166,-0.09843992,0.09843992,0.13674166,141.76687,31.86203)">
      <g
         id="g8312"
         transform="matrix(0.84588965,0,0,0.84588965,-245.25541,118.78242)">
        <path
           inkscape:connector-curvature="0"
           id="path3793"
           d="m 543.15467,26.113206 -2.61132,237.630174 -32.6415,15.66792 -18.27925,10.44528 -23.50188,37.86415 -9.13962,524.87543 63.97735,23.50189 69.19999,1.30566 124.03773,-16.97359 -3.91698,-501.37354 -22.19622,-62.6717 -37.86415,-24.80754 -23.50189,-10.44528 1.30566,-238.935835 -84.86792,-5.222641 0,9.139622 z"
           style="fill:#993300;fill-opacity:0.9375;fill-rule:evenodd;stroke:#000000;stroke-width:1px;stroke-linecap:butt;stroke-linejoin:miter;stroke-opacity:1" />
        <path
           inkscape:connector-curvature="0"
           sodipodi:nodetypes="ccccccccczszssczccc"
           id="path6069"
           d="m 543.15467,22.196225 3.91699,237.630165 -54.83773,24.80755 -14.36227,26.11321 -14.36226,39.16981 -7.83396,498.76222 23.50188,13.0566 2.61132,-118.81508 10.44528,-356.44526 c 0,0 -3.59056,-44.39245 28.72453,-58.75471 32.31509,-14.36226 75.6298,-0.68532 100.53584,1.30566 29.67895,2.37252 44.39245,-5.22264 32.64151,-24.80754 -11.41986,-19.0331 -69.52641,11.42452 -87.47924,-9.13963 -17.95283,-20.56415 10.7717,-39.49622 5.22264,-77.03395 -5.54906,-37.53773 -11.75094,-79.64528 -11.75094,-79.64528 0,0 1.21516,-62.738338 0,-86.173579 -1.14245,-22.033017 50.92075,-16.973584 50.92075,-16.973584 l 0,-10.445282 -67.89434,-2.61132 z"
           style="fill:#966600;fill-opacity:1;fill-rule:evenodd;stroke:none" />
        <path
           inkscape:connector-curvature="0"
           sodipodi:nodetypes="ccccccc"
           id="path6829"
           d="m 459.59242,366.89054 c 137.09433,57.09686 250.68677,6.71727 250.68677,6.71727 l 1.30566,475.24746 -79.64528,28.54844 -147.53961,-11.75525 -28.72452,-25.0094 3.91698,-473.74852 z"
           style="fill:#000000;fill-opacity:0.33333333;fill-rule:evenodd;stroke:none" />
        <path
           inkscape:connector-curvature="0"
           sodipodi:nodetypes="ccczcc"
           id="path3765"
           d="m 518.35987,414.38712 c 103.1127,17.27587 201.04619,-4.354 201.04619,-4.354 l 10e-6,378.79983 c 0,0 -42.75393,21.77557 -100.00551,23.22691 -57.25156,1.45134 -101.04068,-15.9702 -101.04068,-15.9702 l -10e-6,-381.70254 z"
           style="fill:#f8f3c8;fill-opacity:1;fill-rule:evenodd;stroke:#000000;stroke-width:1.06466722px;stroke-linecap:butt;stroke-linejoin:miter;stroke-opacity:1" />
        <g
           transform="matrix(1.070771,0,0,1.035497,-63.87859,-11.17824)"
           id="g3759">
          <path
             inkscape:connector-curvature="0"
             style="fill:#000000;fill-opacity:1;fill-rule:nonzero;stroke:none"
             id="path3730"
             d="m 577.2821,20.648327 c -0.28943,17.936109 -2.24734,29.245577 -1.90376,47.241149 0.70113,36.993854 -2.40638,72.990394 0.11597,109.846054 2.57813,23.46666 -0.46347,47.76956 -0.13113,71.64252 2.58329,22.09326 -13.656,30.09833 -25.13003,29.86872 -15.76142,-3.07814 -39.85325,27.24275 -45.38053,45.80335 -8.30443,31.70503 -8.43907,66.01185 -8.62577,99.85407 -0.12615,44.03716 0.0427,88.07486 0.071,132.11222 -0.0517,36.0251 0.0516,72.05133 0.28124,108.07465 -0.85399,15.35141 1.68312,31.49756 -0.50162,46.59109 -0.98265,6.86386 -0.7604,13.99595 -0.74011,20.99991 -0.14294,12.6786 -0.22839,25.35416 -0.0613,38.03317 0.0867,7.38567 0.0548,14.77257 0.0712,22.15903 -6.9e-4,6.91895 -0.016,13.838 -0.004,20.75702 -0.002,3.95809 -0.006,7.91591 0.004,11.87411 l -16.95544,14.08945 c 0.009,-3.96021 0.006,-7.92004 0.004,-11.88013 0.0118,-6.91671 -0.003,-13.83345 -0.004,-20.75009 0.0165,-7.42594 -0.0151,-14.85231 0.0713,-22.27748 0.16313,-12.63999 0.0924,-25.27709 -0.0713,-37.91621 0.004,-7.23867 -0.21197,-14.5603 0.54319,-21.71887 2.76806,-14.86979 0.61991,-31.14849 1.42735,-46.48451 0.22826,-36.17927 0.3337,-72.36138 0.28179,-108.54241 0.0267,-44.05605 0.14664,-88.11242 -0.0151,-132.1682 -0.0654,-34.0641 -0.18942,-68.26108 7.64907,-100.48828 5.18059,-18.85337 12.5686,-34.58852 23.45879,-45.47256 17.76727,-16.95534 32.48557,-31.08832 53.51424,-30.47903 22.87238,-1.68141 -13.52349,30.76081 -6.69181,1.92997 0.20392,-24.0188 4.89636,-47.73981 4.56829,-71.32156 -2.65269,-36.91297 4.05683,-73.31604 3.08429,-110.369146 -0.5143,-17.770704 -1.82557,-44.248813 -17.47889,-53.472281 l 28.55015,-7.535726 z"
             sodipodi:nodetypes="cccccccccccccccccccccccccccccccc" />
          <path
             inkscape:connector-curvature="0"
             sodipodi:nodetypes="ccccccccccccccccccccccccccccccccc"
             d="m 637.65555,23.259648 c 0.28943,17.936109 2.24734,29.245577 1.90376,47.241149 -0.70113,36.993853 2.40638,72.990393 -0.11597,109.846053 -2.57813,23.46666 0.46347,47.76956 0.13113,71.64252 -2.58329,22.09326 13.656,30.09833 25.13003,29.86872 15.76142,-3.07814 47.70743,26.03164 21.17958,1.64042 10.93111,10.62947 18.67367,25.60233 24.20095,44.16293 8.30443,31.70503 8.43907,66.01185 8.62577,99.85407 0.12615,44.03716 -0.0427,88.07486 -0.071,132.11222 0.0517,36.0251 -0.0516,72.05133 -0.28124,108.07465 0.85399,15.35141 -1.68312,31.49756 0.50162,46.59109 0.98265,6.86386 0.7604,13.99595 0.74011,20.99991 0.14294,12.6786 0.22839,25.35416 0.0613,38.03317 -0.0867,7.38567 -0.0548,14.77257 -0.0712,22.15903 6.9e-4,6.91895 0.016,13.838 0.004,20.75702 0.002,3.95809 0.006,7.91591 -0.004,11.87411 l 16.95544,14.08945 c -0.009,-3.96021 -0.006,-7.92004 -0.004,-11.88013 -0.0118,-6.91671 0.003,-13.83345 0.004,-20.75009 -0.0165,-7.42594 0.0151,-14.85231 -0.0713,-22.27748 -0.16313,-12.63999 -0.0924,-25.27709 0.0713,-37.91621 -0.004,-7.23867 0.21197,-14.5603 -0.54319,-21.71887 -2.76806,-14.86979 -0.61991,-31.14849 -1.42735,-46.48451 -0.22826,-36.17927 -0.3337,-72.36138 -0.28179,-108.54241 -0.0267,-44.05605 -0.14664,-88.11242 0.0151,-132.1682 0.0654,-34.0641 0.18942,-68.26108 -7.64907,-100.48828 -5.18059,-18.85337 -12.5686,-34.58852 -23.45879,-45.47256 -17.76727,-16.95534 -32.48557,-31.08832 -53.51424,-30.47903 -22.87238,-1.68141 13.52349,30.76081 6.69181,1.92997 -0.20392,-24.0188 -4.89636,-47.73981 -4.56829,-71.32156 2.65269,-36.91297 -4.05683,-73.31604 -3.08429,-110.369145 0.5143,-17.770704 1.82557,-44.248813 17.47889,-53.472281 l -28.55015,-7.535726 z"
             id="path3734"
             style="fill:#000000;fill-opacity:1;fill-rule:nonzero;stroke:none" />
          <path
             inkscape:connector-curvature="0"
             style="fill:#000000;fill-opacity:1;fill-rule:nonzero;stroke:none"
             id="path3738"
             d="m 736.24276,840.87857 c -1.59281,9.82021 -3.51996,9.35898 -24.13108,14.74856 -20.61112,5.38958 -68.50638,10.09956 -89.30133,10.94658 -23.17644,0.19625 -46.35342,-0.0961 -69.5303,0.0685 -17.46549,-1.12968 -32.74561,-3.90604 -46.19458,-7.77273 -13.44896,-3.86669 -27.0464,-17.86181 -28.80166,-19.34401 l 12.08645,-20.28785 c 1.69759,1.43943 8.13665,8.85916 9.88147,10.2426 7.31092,6.4669 15.51635,12.94718 28.76659,16.49543 13.25024,3.54826 43.7812,6.25312 61.09175,6.44436 23.21359,0.18225 35.72412,0.0473 58.70162,-3.51757 73.09766,-12.9589 65.27227,-10.95094 74.53392,-27.9353 l 12.89715,19.91143 z"
             sodipodi:nodetypes="czcczccczcccc" />
          <path
             inkscape:connector-curvature="0"
             style="fill:#000000;fill-opacity:1;fill-rule:nonzero;stroke:none"
             id="path3744"
             d="m 642.56597,53.901692 c -7.19532,-14.863418 -23.25849,-17.304568 -39.42588,-15.460224 -9.57057,1.242549 -26.7996,-5.031267 -36.43269,-4.874404 l 10.11626,-12.837031 c 9.35992,0.04935 16.11722,5.840339 25.4288,4.792023 16.62269,-1.716106 18.81624,-2.270707 35.54095,-2.188996 l 4.77256,30.568632 z"
             sodipodi:nodetypes="ccccccc" />
        </g>
        <path
           inkscape:connector-curvature="0"
           sodipodi:nodetypes="czzccccc"
           id="path9863"
           d="m 689.38863,306.83016 c 0,0 7.65859,493.49438 -7.83396,520.95846 -14.36227,25.46038 -25.7868,1.95849 -63.97736,10.44528 -38.19057,8.48679 -117.50943,33.94716 -117.50943,33.94716 l 91.39622,10.44528 122.73207,-24.80754 -1.30566,-515.73581 -23.50188,-35.25283 z"
           style="fill:#000000;fill-opacity:0.16666667;fill-rule:evenodd;stroke:none" />
        <path
           sodipodi:nodetypes="csccccc"
           id="path15974"
           d="m 608.89451,20.430505 c 0,0 2.75996,184.484595 3.46016,248.535515 0.19601,17.29514 46.4692,13.40974 46.4692,13.40974 l -19.05033,-10.79842 -13.05661,-31.33585 0,-212.822624 -17.82242,-6.988361 z"
           style="fill:#000000;fill-opacity:0.20416667;fill-rule:evenodd;stroke:none"
           inkscape:connector-curvature="0" />
      </g>
    </g>
  </g>
  <g
     inkscape:groupmode="layer"
     id="layer4"
     inkscape:label="Wingtip">
    <path
       style="fill:black;stroke:none;stroke-opacity:1;stroke-width:1px;stroke-linejoin:miter;stroke-linecap:butt;fill-opacity:1;fill-rule:nonzero"
       id="path8482" />
  </g>
</svg>
