<?xml version="1.0" encoding="UTF-8" standalone="no"?>
<!-- Created with Inkscape (http://www.inkscape.org/) -->
<svg xmlns:dc="http://purl.org/dc/elements/1.1/" xmlns:cc="http://creativecommons.org/ns#" xmlns:rdf="http://www.w3.org/1999/02/22-rdf-syntax-ns#" xmlns:svg="http://www.w3.org/2000/svg" xmlns="http://www.w3.org/2000/svg" xmlns:sodipodi="http://sodipodi.sourceforge.net/DTD/sodipodi-0.dtd" xmlns:inkscape="http://www.inkscape.org/namespaces/inkscape" width="433.86948" height="514.45709" id="svg2" sodipodi:version="0.32" inkscape:version="0.46" sodipodi:docname="chicken.svg" inkscape:output_extension="org.inkscape.output.svg.inkscape" version="1.0">
  <defs id="defs4">
    <inkscape:perspective sodipodi:type="inkscape:persp3d" inkscape:vp_x="0 : 526.18109 : 1" inkscape:vp_y="0 : 1000 : 0" inkscape:vp_z="744.09448 : 526.18109 : 1" inkscape:persp3d-origin="372.04724 : 350.78739 : 1" id="perspective10"/>
    <inkscape:perspective id="perspective2798" inkscape:persp3d-origin="372.04724 : 350.78739 : 1" inkscape:vp_z="744.09448 : 526.18109 : 1" inkscape:vp_y="0 : 1000 : 0" inkscape:vp_x="0 : 526.18109 : 1" sodipodi:type="inkscape:persp3d"/>
    <inkscape:perspective id="perspective2873" inkscape:persp3d-origin="372.04724 : 350.78739 : 1" inkscape:vp_z="744.09448 : 526.18109 : 1" inkscape:vp_y="0 : 1000 : 0" inkscape:vp_x="0 : 526.18109 : 1" sodipodi:type="inkscape:persp3d"/>
  </defs>
  <sodipodi:namedview id="base" pagecolor="#ffffff" bordercolor="#666666" borderopacity="1.0" gridtolerance="10000" guidetolerance="10" objecttolerance="10" inkscape:pageopacity="0.0" inkscape:pageshadow="2" inkscape:zoom="0.49064792" inkscape:cx="274.9848" inkscape:cy="540.5862" inkscape:document-units="px" inkscape:current-layer="layer1" showgrid="false" inkscape:window-width="1280" inkscape:window-height="965" inkscape:window-x="0" inkscape:window-y="28"/>
  <g inkscape:label="Layer 1" inkscape:groupmode="layer" id="layer1" transform="translate(-118.01739,-226.09755)">
    <g id="g3433" transform="matrix(1.1768112,0,0,1.1768112,-73.460144,-90.844241)">
      <g transform="matrix(0.9182818,0.3959274,-0.3959274,0.9182818,361.82582,-56.462308)" id="g2499">
        <path style="opacity:1;fill:#ebdf44;fill-opacity:1;fill-rule:evenodd;stroke:none;stroke-width:0;stroke-linecap:butt;stroke-linejoin:miter;marker:none;marker-start:none;marker-mid:none;marker-end:none;stroke-miterlimit:4;stroke-dasharray:none;stroke-dashoffset:0;stroke-opacity:1;visibility:visible;display:inline;overflow:visible;enable-background:accumulate" d="M 336.46273,660.78801 C 336.46273,660.78801 324.73976,669.54655 324.33552,672.24149 C 323.93128,674.93643 323.79653,678.84408 323.79653,678.84408 C 323.79653,678.84408 329.72539,674.66693 329.4559,672.51098 C 329.18641,670.35503 345.76026,666.17788 345.76026,666.17788" id="path2501"/>
        <path id="path2503" d="M 336.46273,660.78801 C 336.46273,660.78801 324.73976,669.54655 324.33552,672.24149 C 323.93128,674.93643 323.79653,678.84408 323.79653,678.84408 C 323.79653,678.84408 329.72539,674.66693 329.4559,672.51098 C 329.18641,670.35503 345.76026,666.17788 345.76026,666.17788" style="opacity:1;fill:none;fill-opacity:1;fill-rule:evenodd;stroke:#000000;stroke-width:3;stroke-linecap:butt;stroke-linejoin:miter;marker:none;marker-start:none;marker-mid:none;marker-end:none;stroke-miterlimit:4;stroke-dasharray:none;stroke-dashoffset:0;stroke-opacity:1;visibility:visible;display:inline;overflow:visible;enable-background:accumulate"/>
      </g>
      <g transform="matrix(0.9742904,0.2252958,-0.2252958,0.9742904,89.355595,-104.37487)" id="g2471">
        <g id="g2473">
          <path sodipodi:nodetypes="czczc" id="path2475" d="M 413.47855,683.65142 C 413.47855,683.65142 432.70571,676.21279 438.29676,675.69534 C 443.88781,675.17789 451.12148,677.12031 451.12148,677.12031 C 451.12148,677.12031 440.87302,678.21922 438.29676,679.614 C 435.7205,681.00878 431.76565,686.14511 431.76565,686.14511" style="opacity:1;fill:#ebdf44;fill-opacity:1;fill-rule:evenodd;stroke:none;stroke-width:0;stroke-linecap:butt;stroke-linejoin:miter;marker:none;marker-start:none;marker-mid:none;marker-end:none;stroke-miterlimit:4;stroke-dasharray:none;stroke-dashoffset:0;stroke-opacity:1;visibility:visible;display:inline;overflow:visible;enable-background:accumulate"/>
          <path style="opacity:1;fill:none;fill-opacity:1;fill-rule:evenodd;stroke:#000000;stroke-width:3;stroke-linecap:butt;stroke-linejoin:miter;marker:none;marker-start:none;marker-mid:none;marker-end:none;stroke-miterlimit:4;stroke-dasharray:none;stroke-dashoffset:0;stroke-opacity:1;visibility:visible;display:inline;overflow:visible;enable-background:accumulate" d="M 413.47855,683.65142 C 413.47855,683.65142 432.70571,676.21279 438.29676,675.69534 C 443.88781,675.17789 451.12148,677.12031 451.12148,677.12031 C 451.12148,677.12031 440.87302,678.21922 438.29676,679.614 C 435.7205,681.00878 431.76565,686.14511 431.76565,686.14511" id="path2477" sodipodi:nodetypes="czczc"/>
        </g>
        <g id="g2479">
          <path sodipodi:nodetypes="czc" id="path2481" d="M 433.75064,695.17796 C 431.71093,694.01241 463.72482,682.15188 463.9246,680.09098 C 464.12438,678.03008 417.53214,683.86272 417.53214,683.86272" style="opacity:1;fill:#ebdf44;fill-opacity:1;fill-rule:evenodd;stroke:none;stroke-width:0;stroke-linecap:butt;stroke-linejoin:miter;marker:none;marker-start:none;marker-mid:none;marker-end:none;stroke-miterlimit:4;stroke-dasharray:none;stroke-dashoffset:0;stroke-opacity:1;visibility:visible;display:inline;overflow:visible;enable-background:accumulate"/>
          <path style="opacity:1;fill:none;fill-opacity:1;fill-rule:evenodd;stroke:#000000;stroke-width:3;stroke-linecap:butt;stroke-linejoin:miter;marker:none;marker-start:none;marker-mid:none;marker-end:none;stroke-miterlimit:4;stroke-dasharray:none;stroke-dashoffset:0;stroke-opacity:1;visibility:visible;display:inline;overflow:visible;enable-background:accumulate" d="M 433.75064,695.17796 C 428.60807,694.93877 457.80118,683.12976 463.9246,680.09098 C 470.04802,677.0522 417.65089,685.28769 417.65089,685.28769" id="path2483" sodipodi:nodetypes="czc"/>
        </g>
        <g id="g2485">
          <path sodipodi:nodetypes="czscscc" id="path2487" d="M 373.40273,627.66372 C 377.17448,635.96156 409.08613,696.04343 415.64627,696.30948 C 422.20641,696.57553 442.87558,699.36661 444.68871,699.70405 C 446.91355,700.11811 457.13546,704.98449 457.13546,704.98449 C 457.13546,704.98449 449.2148,695.17795 446.57458,695.17795 C 443.93436,695.17795 424.32128,687.63447 422.81259,685.37142 C 406.68085,666.68532 391.69272,635.66183 387.35819,623.5148" style="opacity:1;fill:#ebdf44;fill-opacity:1;fill-rule:evenodd;stroke:none;stroke-width:0;stroke-linecap:butt;stroke-linejoin:miter;marker:none;marker-start:none;marker-mid:none;marker-end:none;stroke-miterlimit:4;stroke-dasharray:none;stroke-dashoffset:0;stroke-opacity:1;visibility:visible;display:inline;overflow:visible;enable-background:accumulate"/>
          <path style="opacity:1;fill:none;fill-opacity:1;fill-rule:evenodd;stroke:#000000;stroke-width:3;stroke-linecap:butt;stroke-linejoin:miter;marker:none;marker-start:none;marker-mid:none;marker-end:none;stroke-miterlimit:4;stroke-dasharray:none;stroke-dashoffset:0;stroke-opacity:1;visibility:visible;display:inline;overflow:visible;enable-background:accumulate" d="M 373.40273,627.66372 C 377.17448,635.96156 409.08613,696.04343 415.64627,696.30948 C 422.20641,696.57553 442.87558,699.36661 444.68871,699.70405 C 446.91355,700.11811 457.13546,704.98449 457.13546,704.98449 C 457.13546,704.98449 449.2148,695.17795 446.57458,695.17795 C 443.93436,695.17795 424.32128,687.63447 422.81259,685.37142 C 406.68085,666.68532 391.69272,635.66183 387.35819,623.5148" id="path2489" sodipodi:nodetypes="czscscc"/>
        </g>
      </g>
      <g id="g2456">
        <path id="path2454" d="M 255.59589,538.48346 C 255.59589,538.48346 261.30565,575.76486 276.7556,579.45941 C 292.20555,583.15396 309.33484,601.29086 312.69352,601.96259 C 316.05221,602.63433 328.47934,608.00823 330.49455,608.00823 C 332.50976,608.00823 373.14984,584.49744 373.14984,584.49744" style="opacity:1;fill:#cecea2;fill-opacity:1;fill-rule:evenodd;stroke:none;stroke-width:0;stroke-linecap:butt;stroke-linejoin:miter;marker:none;marker-start:none;marker-mid:none;marker-end:none;stroke-miterlimit:4;stroke-dasharray:none;stroke-dashoffset:0;stroke-opacity:1;visibility:visible;display:inline;overflow:visible;enable-background:accumulate"/>
        <path style="opacity:1;fill:none;fill-opacity:1;fill-rule:evenodd;stroke:#000000;stroke-width:3;stroke-linecap:butt;stroke-linejoin:miter;marker:none;marker-start:none;marker-mid:none;marker-end:none;stroke-miterlimit:4;stroke-dasharray:none;stroke-dashoffset:0;stroke-opacity:1;visibility:visible;display:inline;overflow:visible;enable-background:accumulate" d="M 255.59589,538.48346 C 255.59589,538.48346 261.30565,575.76486 276.7556,579.45941 C 292.20555,583.15396 309.33484,601.29086 312.69352,601.96259 C 316.05221,602.63433 328.47934,608.00823 330.49455,608.00823 C 332.50976,608.00823 373.14984,584.49744 373.14984,584.49744" id="path2452"/>
      </g>
      <g id="g2928">
        <path id="path2926" d="M 414.43047,385.86716 C 379.23226,415.38823 375.82599,407.06177 373.17666,407.81872 C 370.52733,408.57567 345.54796,427.49944 334.57218,427.49944 C 323.59639,427.49944 298.9955,422.95774 285.37039,426.36401 C 271.74528,429.77029 204.75514,453.61424 204.75514,453.61424 C 204.75514,453.61424 209.29685,525.52455 232.00537,540.28508 C 254.71389,555.04562 295.21074,562.9936 295.21074,562.9936 C 295.21074,562.9936 449.62867,572.83396 470.06634,528.17387 C 490.50401,483.51379 486.71925,447.93711 486.71925,447.93711 L 448.87172,385.1102" style="opacity:1;fill:#cecea2;fill-opacity:1;fill-rule:evenodd;stroke:none;stroke-width:0;stroke-linecap:butt;stroke-linejoin:miter;marker:none;marker-start:none;marker-mid:none;marker-end:none;stroke-miterlimit:4;stroke-dasharray:none;stroke-dashoffset:0;stroke-opacity:1;visibility:visible;display:inline;overflow:visible;enable-background:accumulate"/>
        <path style="opacity:1;fill:none;fill-opacity:1;fill-rule:evenodd;stroke:#000000;stroke-width:3;stroke-linecap:butt;stroke-linejoin:miter;marker:none;marker-start:none;marker-mid:none;marker-end:none;stroke-miterlimit:4;stroke-dasharray:none;stroke-dashoffset:0;stroke-opacity:1;visibility:visible;display:inline;overflow:visible;enable-background:accumulate" d="M 414.43047,385.86716 C 379.23226,415.38823 375.82599,407.06177 373.17666,407.81872 C 370.52733,408.57567 345.54796,427.49944 334.57218,427.49944 C 323.59639,427.49944 298.9955,422.95774 285.37039,426.36401 C 271.74528,429.77029 204.75514,453.61424 204.75514,453.61424 C 204.75514,453.61424 209.29685,525.52455 232.00537,540.28508 C 254.71389,555.04562 295.21074,562.9936 295.21074,562.9936 C 295.21074,562.9936 449.62867,572.83396 470.06634,528.17387 C 490.50401,483.51379 486.71925,447.93711 486.71925,447.93711 L 448.87172,385.1102" id="path2924"/>
      </g>
      <g id="g2448">
        <path sodipodi:nodetypes="czczc" id="path2446" d="M 413.47855,683.65142 C 413.47855,683.65142 432.70571,676.21279 438.29676,675.69534 C 443.88781,675.17789 451.12148,677.12031 451.12148,677.12031 C 451.12148,677.12031 440.87302,678.21922 438.29676,679.614 C 435.7205,681.00878 431.76565,686.14511 431.76565,686.14511" style="opacity:1;fill:#ebdf44;fill-opacity:1;fill-rule:evenodd;stroke:none;stroke-width:0;stroke-linecap:butt;stroke-linejoin:miter;marker:none;marker-start:none;marker-mid:none;marker-end:none;stroke-miterlimit:4;stroke-dasharray:none;stroke-dashoffset:0;stroke-opacity:1;visibility:visible;display:inline;overflow:visible;enable-background:accumulate"/>
        <path style="opacity:1;fill:none;fill-opacity:1;fill-rule:evenodd;stroke:#000000;stroke-width:3;stroke-linecap:butt;stroke-linejoin:miter;marker:none;marker-start:none;marker-mid:none;marker-end:none;stroke-miterlimit:4;stroke-dasharray:none;stroke-dashoffset:0;stroke-opacity:1;visibility:visible;display:inline;overflow:visible;enable-background:accumulate" d="M 413.47855,683.65142 C 413.47855,683.65142 432.70571,676.21279 438.29676,675.69534 C 443.88781,675.17789 451.12148,677.12031 451.12148,677.12031 C 451.12148,677.12031 440.87302,678.21922 438.29676,679.614 C 435.7205,681.00878 431.76565,686.14511 431.76565,686.14511" id="path2444" sodipodi:nodetypes="czczc"/>
      </g>
      <g id="g2440">
        <path sodipodi:nodetypes="czc" id="path2438" d="M 433.75064,695.17796 C 431.71093,694.01241 463.72482,682.15188 463.9246,680.09098 C 464.12438,678.03008 417.53214,683.86272 417.53214,683.86272" style="opacity:1;fill:#ebdf44;fill-opacity:1;fill-rule:evenodd;stroke:none;stroke-width:0;stroke-linecap:butt;stroke-linejoin:miter;marker:none;marker-start:none;marker-mid:none;marker-end:none;stroke-miterlimit:4;stroke-dasharray:none;stroke-dashoffset:0;stroke-opacity:1;visibility:visible;display:inline;overflow:visible;enable-background:accumulate"/>
        <path style="opacity:1;fill:none;fill-opacity:1;fill-rule:evenodd;stroke:#000000;stroke-width:3;stroke-linecap:butt;stroke-linejoin:miter;marker:none;marker-start:none;marker-mid:none;marker-end:none;stroke-miterlimit:4;stroke-dasharray:none;stroke-dashoffset:0;stroke-opacity:1;visibility:visible;display:inline;overflow:visible;enable-background:accumulate" d="M 433.75064,695.17796 C 428.60807,694.93877 457.80118,683.12976 463.9246,680.09098 C 470.04802,677.0522 417.65089,685.28769 417.65089,685.28769" id="path2436" sodipodi:nodetypes="czc"/>
      </g>
      <g id="g3714">
        <path sodipodi:nodetypes="czscscc" id="path2942" d="M 373.40273,627.66372 C 377.17448,635.96156 409.08613,696.04343 415.64627,696.30948 C 422.20641,696.57553 442.87558,699.36661 444.68871,699.70405 C 446.91355,700.11811 457.13546,704.98449 457.13546,704.98449 C 457.13546,704.98449 449.2148,695.17795 446.57458,695.17795 C 443.93436,695.17795 424.32128,687.63447 422.81259,685.37142 C 406.68085,666.68532 391.69272,635.66183 387.35819,623.5148" style="opacity:1;fill:#ebdf44;fill-opacity:1;fill-rule:evenodd;stroke:none;stroke-width:0;stroke-linecap:butt;stroke-linejoin:miter;marker:none;marker-start:none;marker-mid:none;marker-end:none;stroke-miterlimit:4;stroke-dasharray:none;stroke-dashoffset:0;stroke-opacity:1;visibility:visible;display:inline;overflow:visible;enable-background:accumulate"/>
        <path style="opacity:1;fill:none;fill-opacity:1;fill-rule:evenodd;stroke:#000000;stroke-width:3;stroke-linecap:butt;stroke-linejoin:miter;marker:none;marker-start:none;marker-mid:none;marker-end:none;stroke-miterlimit:4;stroke-dasharray:none;stroke-dashoffset:0;stroke-opacity:1;visibility:visible;display:inline;overflow:visible;enable-background:accumulate" d="M 373.40273,627.66372 C 377.17448,635.96156 409.08613,696.04343 415.64627,696.30948 C 422.20641,696.57553 442.87558,699.36661 444.68871,699.70405 C 446.91355,700.11811 457.13546,704.98449 457.13546,704.98449 C 457.13546,704.98449 449.2148,695.17795 446.57458,695.17795 C 443.93436,695.17795 424.32128,687.63447 422.81259,685.37142 C 406.68085,666.68532 391.69272,635.66183 387.35819,623.5148" id="path2940" sodipodi:nodetypes="czscscc"/>
      </g>
      <path sodipodi:nodetypes="cssccc" id="path3396" d="M 282.37473,580.82381 C 282.37473,580.82381 308.419,600.47124 310.24666,600.92816 C 312.07433,601.38507 326.69568,607.32499 329.43718,607.32499 C 332.17868,607.32499 344.51544,600.01432 344.51544,600.01432 L 345.88619,577.16847 C 327.37315,578.57567 326.94385,591.38311 282.37473,580.82381 z" style="opacity:1;fill:#000000;fill-opacity:0.09134617;fill-rule:evenodd;stroke:none;stroke-width:0;stroke-linecap:butt;stroke-linejoin:miter;marker:none;marker-start:none;marker-mid:none;marker-end:none;stroke-miterlimit:4;stroke-dasharray:none;stroke-dashoffset:0;stroke-opacity:1;visibility:visible;display:inline;overflow:visible;enable-background:accumulate"/>
      <g id="g2936">
        <path sodipodi:nodetypes="ccssssc" id="path2934" d="M 443.21227,542.45967 C 435.65513,575.05607 436.0415,586.78741 414.72998,609.14991 C 413.3406,613.31805 399.44679,632.76938 394.58396,633.46407 C 389.72113,634.15876 374.43795,633.46407 370.9645,630.68531 C 367.49105,627.90655 359.15477,607.06584 354.29194,604.98177 C 349.42911,602.8977 308.44239,579.97293 307.05301,576.49948 C 305.66363,573.02603 288.99107,553.57471 288.99107,553.57471" style="opacity:1;fill:#cecea2;fill-opacity:1;fill-rule:evenodd;stroke:none;stroke-width:0;stroke-linecap:butt;stroke-linejoin:miter;marker:none;marker-start:none;marker-mid:none;marker-end:none;stroke-miterlimit:4;stroke-dasharray:none;stroke-dashoffset:0;stroke-opacity:1;visibility:visible;display:inline;overflow:visible;enable-background:accumulate"/>
        <path sodipodi:nodetypes="ccssssc" style="opacity:1;fill:none;fill-opacity:1;fill-rule:evenodd;stroke:#000000;stroke-width:3;stroke-linecap:butt;stroke-linejoin:miter;marker:none;marker-start:none;marker-mid:none;marker-end:none;stroke-miterlimit:4;stroke-dasharray:none;stroke-dashoffset:0;stroke-opacity:1;visibility:visible;display:inline;overflow:visible;enable-background:accumulate" d="M 443.21227,542.45967 C 435.65513,575.05607 436.0415,586.78741 414.72998,609.14991 C 413.3406,613.31805 399.44679,632.76938 394.58396,633.46407 C 389.72113,634.15876 374.43795,633.46407 370.9645,630.68531 C 367.49105,627.90655 359.15477,607.06584 354.29194,604.98177 C 349.42911,602.8977 308.44239,579.97293 307.05301,576.49948 C 305.66363,573.02603 288.99107,553.57471 288.99107,553.57471" id="path2932"/>
      </g>
      <g id="g3424">
        <g id="g3669">
          <path style="opacity:1;fill:#cecea2;fill-opacity:1;fill-rule:evenodd;stroke:none;stroke-width:0;stroke-linecap:butt;stroke-linejoin:miter;marker:none;marker-start:none;marker-mid:none;marker-end:none;stroke-miterlimit:4;stroke-dasharray:none;stroke-dashoffset:0;stroke-opacity:1;visibility:visible;display:inline;overflow:visible;enable-background:accumulate" d="M 468.90815,455.79317 C 467.92615,506.85752 454.66906,528.46166 427.17287,532.88069 C 399.67669,537.29972 333.88224,555.95785 327.9902,553.99383 C 322.09817,552.02982 293.12897,553.01183 293.12897,547.11979 C 293.12897,541.22775 360.39642,523.55163 360.39642,523.55163 C 360.39642,523.55163 298.53001,544.66477 296.56599,537.29972 C 294.60198,529.93467 354.01338,510.29454 354.01338,510.29454 C 354.01338,510.29454 309.82308,528.46166 308.84108,518.64159 C 307.85907,508.82153 345.66632,500.47447 345.66632,500.47447 C 345.66632,500.47447 310.80509,508.82153 312.2781,502.43849 C 313.75111,496.05544 336.33726,493.10942 336.33726,493.10942 C 336.33726,493.10942 323.57118,492.12742 324.06218,488.69039 C 324.55318,485.25337 341.7383,480.34334 341.7383,480.34334 L 396.23966,510.78554" id="path3667"/>
          <path id="path3665" d="M 468.90815,455.79317 C 467.92615,506.85752 435.1111,506.18701 427.17287,532.88069 C 423.30372,545.89137 338.59367,557.6711 327.9902,553.99383 C 322.1223,551.95885 293.12897,553.01183 293.12897,547.11979 C 293.12897,541.22775 360.39642,523.55163 360.39642,523.55163 C 360.39642,523.55163 298.53001,544.66477 296.56599,537.29972 C 294.60198,529.93467 354.01338,510.29454 354.01338,510.29454 C 354.01338,510.29454 309.82308,528.46166 308.84108,518.64159 C 307.85907,508.82153 345.66632,500.47447 345.66632,500.47447 C 345.66632,500.47447 310.80509,508.82153 312.2781,502.43849 C 313.75111,496.05544 336.33726,493.10942 336.33726,493.10942 C 336.33726,493.10942 323.57118,492.12742 324.06218,488.69039 C 324.55318,485.25337 357.44188,477.17243 357.44188,477.17243 L 396.23966,510.78554" style="opacity:1;fill:none;fill-opacity:1;fill-rule:evenodd;stroke:#000000;stroke-width:3;stroke-linecap:butt;stroke-linejoin:miter;marker:none;marker-start:none;marker-mid:none;marker-end:none;stroke-miterlimit:4;stroke-dasharray:none;stroke-dashoffset:0;stroke-opacity:1;visibility:visible;display:inline;overflow:visible;enable-background:accumulate" sodipodi:nodetypes="cssscscscscscc"/>
        </g>
        <path style="opacity:1;fill:#cecea2;fill-opacity:1;fill-rule:evenodd;stroke:#000000;stroke-width:0.73540938;stroke-linecap:butt;stroke-linejoin:miter;marker:none;marker-start:none;marker-mid:none;marker-end:none;stroke-miterlimit:4;stroke-dasharray:none;stroke-dashoffset:0;stroke-opacity:1;visibility:visible;display:inline;overflow:visible;enable-background:accumulate" d="M 361.61659,503.54817 C 320.34804,514.76147 314.79184,517.10213 317.17571,521.02978 C 322.19077,529.29257 376.62428,514.96397 376.61334,514.93852" id="path3295" sodipodi:nodetypes="csc"/>
        <path sodipodi:nodetypes="csc" id="path3297" d="M 362.35788,479.4564 C 321.08933,490.6697 315.53313,493.01036 317.917,496.93801 C 322.93206,505.2008 377.36557,490.8722 377.35463,490.84675" style="opacity:1;fill:#cecea2;fill-opacity:1;fill-rule:evenodd;stroke:#000000;stroke-width:0.73540938;stroke-linecap:butt;stroke-linejoin:miter;marker:none;marker-start:none;marker-mid:none;marker-end:none;stroke-miterlimit:4;stroke-dasharray:none;stroke-dashoffset:0;stroke-opacity:1;visibility:visible;display:inline;overflow:visible;enable-background:accumulate"/>
        <path style="opacity:1;fill:none;fill-opacity:1;fill-rule:evenodd;stroke:#000000;stroke-width:1;stroke-linecap:butt;stroke-linejoin:miter;marker:none;marker-start:none;marker-mid:none;marker-end:none;stroke-miterlimit:4;stroke-dasharray:none;stroke-dashoffset:0;stroke-opacity:1;visibility:visible;display:inline;overflow:visible;enable-background:accumulate" d="M 382.47269,527.65133 C 328.41615,541.08997 321.08066,544.08657 323.88627,549.84773 C 329.78855,561.96772 401.05754,544.90192 401.04519,544.86487" id="path3279" sodipodi:nodetypes="csc"/>
      </g>
      <g id="g3417">
        <g id="g3677" transform="matrix(0.9541007,0,0,1.071571,27.993464,-33.389412)">
          <path style="opacity:1;fill:#cecea2;fill-opacity:1;fill-rule:evenodd;stroke:none;stroke-width:0;stroke-linecap:butt;stroke-linejoin:miter;marker:none;marker-start:none;marker-mid:none;marker-end:none;stroke-miterlimit:4;stroke-dasharray:none;stroke-dashoffset:0;stroke-opacity:1;visibility:visible;display:inline;overflow:visible;enable-background:accumulate" d="M 476.51986,463.37697 C 476.51986,495.03388 440.28103,530.0231 422.78642,530.0231 C 405.29181,530.0231 341.97798,515.02772 337.81259,488.36927 C 333.64721,461.71082 401.9595,455.0462 401.9595,455.0462" id="path3675"/>
          <path id="path3673" d="M 476.51986,463.37697 C 476.51986,495.03388 440.28103,530.0231 422.78642,530.0231 C 405.29181,530.0231 341.97798,515.02772 337.81259,488.36927 C 333.64721,461.71082 401.9595,455.0462 401.9595,455.0462" style="opacity:1;fill:none;fill-opacity:1;fill-rule:evenodd;stroke:#000000;stroke-width:3;stroke-linecap:butt;stroke-linejoin:miter;marker:none;marker-start:none;marker-mid:none;marker-end:none;stroke-miterlimit:4;stroke-dasharray:none;stroke-dashoffset:0;stroke-opacity:1;visibility:visible;display:inline;overflow:visible;enable-background:accumulate"/>
        </g>
        <path style="opacity:1;fill:none;fill-opacity:1;fill-rule:evenodd;stroke:#000000;stroke-width:1;stroke-linecap:butt;stroke-linejoin:miter;marker:none;marker-start:none;marker-mid:none;marker-end:none;stroke-miterlimit:4;stroke-dasharray:none;stroke-dashoffset:0;stroke-opacity:1;visibility:visible;display:inline;overflow:visible;enable-background:accumulate" d="M 404.23183,454.98204 L 376.17934,473.49209 L 414.46409,469.92804 L 400.20791,483.1495 L 450.90934,476.48129 L 424.35144,499.70507 L 456.6578,493.49673 L 451.02431,513.50138 L 467.23497,506.14335" id="path2505"/>
        <path style="opacity:1;fill:none;fill-opacity:1;fill-rule:evenodd;stroke:#000000;stroke-width:1;stroke-linecap:butt;stroke-linejoin:miter;marker:none;marker-start:none;marker-mid:none;marker-end:none;stroke-miterlimit:4;stroke-dasharray:none;stroke-dashoffset:0;stroke-opacity:1;visibility:visible;display:inline;overflow:visible;enable-background:accumulate" d="M 370.20094,466.59393 L 356.5196,483.95429 L 382.84755,483.72435 L 369.51112,498.21047 L 407.79587,498.55538 L 392.27503,516.26064 L 432.16935,513.15647 L 422.05206,529.02223 L 446.08063,527.75757" id="path3277"/>
      </g>
      <g transform="matrix(1.2454769,0,0,1.5556757,-123.58091,-191.54363)" id="g3639">
        <path sodipodi:nodetypes="cccccc" id="path3609" d="M 504.62329,361.5154 C 515.07331,358.69742 511.93363,346.45737 511.93363,346.45737 L 505.828,341.29106 L 487.04145,349.86243 L 489.15494,356.90739 C 489.15494,356.90739 494.4081,362.80698 504.62329,361.5154 z" style="fill:#ff1616;fill-opacity:1;fill-rule:evenodd;stroke:none;stroke-width:0;stroke-linecap:butt;stroke-linejoin:miter;marker:none;marker-start:none;marker-mid:none;marker-end:none;stroke-miterlimit:4;stroke-dasharray:none;stroke-dashoffset:0;stroke-opacity:1;visibility:visible;display:inline;overflow:visible;enable-background:accumulate"/>
        <path style="fill:none;fill-opacity:1;fill-rule:evenodd;stroke:#000000;stroke-width:3;stroke-linecap:butt;stroke-linejoin:miter;marker:none;marker-start:none;marker-mid:none;marker-end:none;stroke-miterlimit:4;stroke-dasharray:none;stroke-dashoffset:0;stroke-opacity:1;visibility:visible;display:inline;overflow:visible;enable-background:accumulate" d="M 505.3857,362.12579 C 515.83572,359.30781 511.93363,346.45737 511.93363,346.45737 L 505.828,341.29106 L 487.04145,349.86243 L 489.15494,356.90739 C 489.15494,356.90739 495.17051,363.41737 505.3857,362.12579 z" id="path3607" sodipodi:nodetypes="cccccc"/>
      </g>
      <g id="g3625">
        <path sodipodi:nodetypes="csscccccccccccccssscc" id="path3621" d="M 465.62885,310.21867 C 435.40752,327.8201 430.40486,336.68126 425.75543,345.98013 C 421.10599,355.279 412.13922,385.50033 406.49348,391.14607 C 400.84774,396.79181 396.1983,399.11653 396.1983,399.11653 L 412.47133,393.47079 L 410.47871,416.05376 C 416.2633,408.95711 419.41843,401.48483 421.10599,393.80289 L 425.42332,422.69581 C 427.45513,413.5599 431.08507,406.55483 438.37532,404.43017 L 439.03953,425.02053 C 447.68479,424.81502 453.52724,420.40529 456.30886,411.40432 L 455.64465,438.30463 C 458.64566,432.24025 462.51908,427.9207 469.59296,430.00207 C 472.27203,444.35646 470.46527,451.23447 467.93245,456.90237 L 478.22762,452.25293 L 477.23132,468.85806 C 477.23132,468.85806 488.8549,452.91714 488.1907,448.2677 C 487.52649,443.61827 482.87706,439.63304 484.20547,434.3194 C 486.97937,423.22382 493.17224,399.44863 491.17962,393.13869 C 489.18701,386.82874 476.89921,341.9949 476.89921,341.9949 L 465.62885,310.21867 z" style="opacity:1;fill:#cecea2;fill-opacity:1;fill-rule:evenodd;stroke:none;stroke-width:0;stroke-linecap:butt;stroke-linejoin:miter;marker:none;marker-start:none;marker-mid:none;marker-end:none;stroke-miterlimit:4;stroke-dasharray:none;stroke-dashoffset:0;stroke-opacity:1;visibility:visible;display:inline;overflow:visible;enable-background:accumulate"/>
        <path style="opacity:1;fill:none;fill-opacity:1;fill-rule:evenodd;stroke:#000000;stroke-width:3;stroke-linecap:butt;stroke-linejoin:miter;marker:none;marker-start:none;marker-mid:none;marker-end:none;stroke-miterlimit:4;stroke-dasharray:none;stroke-dashoffset:0;stroke-opacity:1;visibility:visible;display:inline;overflow:visible;enable-background:accumulate" d="M 464.38493,309.90769 C 434.1636,327.50912 430.40486,336.68126 425.75543,345.98013 C 421.10599,355.279 412.13922,385.50033 406.49348,391.14607 C 400.84774,396.79181 396.1983,399.11653 396.1983,399.11653 L 412.47133,393.47079 L 410.47871,416.05376 C 416.2633,408.95711 419.41843,401.48483 421.10599,393.80289 L 425.42332,422.69581 C 427.45513,413.5599 431.08507,406.55483 438.37532,404.43017 L 439.03953,425.02053 C 447.68479,424.81502 453.52724,420.40529 456.30886,411.40432 L 455.64465,438.30463 C 458.64566,432.24025 462.51908,427.9207 469.59296,430.00207 C 472.27203,444.35646 470.46527,451.23447 467.93245,456.90237 L 478.22762,452.25293 L 477.23132,468.85806 C 477.23132,468.85806 488.8549,452.91714 488.1907,448.2677 C 487.52649,443.61827 482.87706,439.63304 484.20547,434.3194 C 486.97937,423.22382 493.17224,399.44863 491.17962,393.13869 C 489.18701,386.82874 476.89921,341.9949 476.89921,341.9949 L 464.38493,309.90769 z" id="path3619" sodipodi:nodetypes="csscccccccccccccssscc"/>
      </g>
      <path style="fill:#cecea2;fill-opacity:1;fill-rule:evenodd;stroke:none;stroke-width:0;stroke-linecap:butt;stroke-linejoin:miter;marker:none;marker-start:none;marker-mid:none;marker-end:none;stroke-miterlimit:4;stroke-dasharray:none;stroke-dashoffset:0;stroke-opacity:1;visibility:visible;display:inline;overflow:visible;enable-background:accumulate" d="M 502.8931,315.04795 C 497.41247,304.31925 472.66741,305.9188 463.99947,309.90249 C 455.1489,313.97011 449.16844,330.333 449.16844,330.333 L 461.88075,321.85812 L 450.68181,340.47258 L 462.03209,332.45172 L 451.58983,358.63303 L 462.78878,345.16403 L 459.15669,361.3571 L 463.84814,353.94158 L 463.24279,371.19401 L 471.41499,358.02768 L 473.83638,382.24161 L 476.56045,372.25337 L 481.2519,388.90044 L 483.21928,373.16139 L 490.18079,389.35446 C 490.18079,389.35446 488.41131,371.17165 486.5487,367.86459 C 481.51693,358.93066 501.00254,342.88118 504.68299,346.43472 L 517.84673,332.71785 L 502.8931,315.04795 z" id="path3591" sodipodi:nodetypes="czcccccccccccccccsccc"/>
      <path sodipodi:nodetypes="czcccccccccccccccssscc" id="path3589" d="M 502.8931,315.04795 C 497.41247,304.31925 472.66741,305.9188 463.99947,309.90249 C 455.1489,313.97011 449.16844,330.333 449.16844,330.333 L 461.88075,321.85812 L 450.68181,340.47258 L 462.03209,332.45172 L 451.58983,358.63303 L 462.78878,345.16403 L 459.15669,361.3571 L 463.84814,353.94158 L 463.24279,371.19401 L 471.41499,358.02768 L 473.83638,382.24161 L 476.56045,372.25337 L 481.2519,388.90044 L 483.21928,373.16139 L 490.18079,389.35446 C 490.18079,389.35446 486.24602,371.64802 486.5487,367.86459 C 486.85137,364.08116 486.82117,356.89222 492.23689,351.48361 C 494.37425,349.34906 504.18178,345.71743 511.51083,344.66564 C 520.93208,343.3136 521.01697,335.18359 521.01697,335.18359 L 502.8931,315.04795 z" style="fill:none;fill-opacity:1;fill-rule:evenodd;stroke:#000000;stroke-width:3;stroke-linecap:butt;stroke-linejoin:miter;marker:none;marker-start:none;marker-mid:none;marker-end:none;stroke-miterlimit:4;stroke-dasharray:none;stroke-dashoffset:0;stroke-opacity:1;visibility:visible;display:inline;overflow:visible;enable-background:accumulate"/>
      <g id="g3655">
        <path sodipodi:nodetypes="csssccccc" id="path3653" d="M 485.02069,320.81381 C 481.8852,320.81381 472.6747,323.9493 472.6747,330.41624 C 472.6747,336.88318 481.10133,347.46545 482.66907,347.46545 C 484.23681,347.46545 486.58843,346.09368 488.74408,346.09368 C 490.89972,346.09368 492.66344,350.40497 492.66344,350.40497 L 502.46183,345.50578 L 500.50215,334.72754 L 506.38119,329.24043 C 506.38119,329.24043 495.79892,320.61784 485.02069,320.81381 z" style="opacity:1;fill:#ff1616;fill-opacity:1;fill-rule:evenodd;stroke:none;stroke-width:0;stroke-linecap:butt;stroke-linejoin:miter;marker:none;marker-start:none;marker-mid:none;marker-end:none;stroke-miterlimit:4;stroke-dasharray:none;stroke-dashoffset:0;stroke-opacity:1;visibility:visible;display:inline;overflow:visible;enable-background:accumulate"/>
        <path style="opacity:1;fill:none;fill-opacity:1;fill-rule:evenodd;stroke:#000000;stroke-width:2;stroke-linecap:butt;stroke-linejoin:miter;marker:none;marker-start:none;marker-mid:none;marker-end:none;stroke-miterlimit:4;stroke-dasharray:none;stroke-dashoffset:0;stroke-opacity:1;visibility:visible;display:inline;overflow:visible;enable-background:accumulate" d="M 485.02069,320.81381 C 481.8852,320.81381 472.6747,323.9493 472.6747,330.41624 C 472.6747,336.88318 481.10133,347.46545 482.66907,347.46545 C 484.23681,347.46545 486.58843,346.09368 488.74408,346.09368 C 490.89972,346.09368 492.66344,350.40497 492.66344,350.40497 L 502.46183,345.50578 L 500.50215,334.72754 L 506.38119,329.24043 C 506.38119,329.24043 495.79892,320.61784 485.02069,320.81381 z" id="path3651" sodipodi:nodetypes="csssccccc"/>
      </g>
      <g id="g3584">
        <path sodipodi:nodetypes="csscc" id="path2808" d="M 512.80341,327.37132 C 526.9672,338.07247 534.53513,349.1898 527.67357,349.51083 C 521.89236,349.78131 521.68093,346.72854 520.39679,346.72854 C 519.11265,346.72854 506.37829,346.08647 506.37829,346.08647 L 504.5695,335.82824" style="opacity:1;fill:#ffeb04;fill-opacity:1;fill-rule:evenodd;stroke:none;stroke-width:0;stroke-linecap:butt;stroke-linejoin:miter;marker:none;marker-start:none;marker-mid:none;marker-end:none;stroke-miterlimit:4;stroke-dasharray:none;stroke-dashoffset:0;stroke-opacity:1;visibility:visible;display:inline;overflow:visible;enable-background:accumulate"/>
        <path sodipodi:nodetypes="cssscc" style="opacity:1;fill:none;fill-opacity:1;fill-rule:evenodd;stroke:#000000;stroke-width:3;stroke-linecap:butt;stroke-linejoin:miter;marker:none;marker-start:none;marker-mid:none;marker-end:none;stroke-miterlimit:4;stroke-dasharray:none;stroke-dashoffset:0;stroke-opacity:1;visibility:visible;display:inline;overflow:visible;enable-background:accumulate" d="M 504.57689,336.179 C 509.44734,332.77125 509.26722,325.90309 512.23067,327.546 C 527.39996,335.95571 533.59256,349.81962 527.67357,349.51083 C 521.8939,349.20931 521.68093,346.72854 520.39679,346.72854 C 519.11265,346.72854 506.37829,346.08647 506.37829,346.08647 L 504.57689,336.179 z" id="path2806"/>
        <path style="opacity:1;fill:#000000;fill-opacity:0.09134617;fill-rule:evenodd;stroke:none;stroke-width:0;stroke-linecap:butt;stroke-linejoin:miter;marker:none;marker-start:none;marker-mid:none;marker-end:none;stroke-miterlimit:4;stroke-dasharray:none;stroke-dashoffset:0;stroke-opacity:1;visibility:visible;display:inline;overflow:visible;enable-background:accumulate" d="M 525.74736,348.86876 C 519.21966,344.37428 514.72518,336.66946 513.013,337.73957 C 511.30081,338.80969 507.02036,345.55141 507.02036,345.55141" id="path3580"/>
      </g>
      <g transform="translate(-40.281204,57.455736)" id="g3635">
        <path sodipodi:nodetypes="cccccccccccc" id="path3633" d="M 518.8137,248.01028 C 515.70215,242.34725 509.44959,223.72303 511.37724,223.15359 C 517.21785,227.63651 518.21958,230.87901 523.18192,233.16534 C 523.18192,233.16534 524.68568,219.22403 525.95909,217.61707 C 528.78444,219.54509 533.97287,235.42178 533.97287,235.42178 C 533.97287,235.42178 542.78535,216.29826 545.29703,213.36681 C 548.15358,216.12582 545.08485,242.71407 545.08485,242.71407 C 545.08485,242.71407 553.30856,227.17946 556.70454,225.88618 C 558.46236,229.59359 557.7834,243.87743 557.7834,243.87743 C 563.18236,236.0435 561.48347,242.25492 563.57643,240.89242 C 567.43239,250.23442 566.77454,267.14475 556.43392,271.21782 C 547.6558,273.04276 520.57494,256.22939 518.8137,248.01028 z" style="opacity:1;fill:#ff1616;fill-opacity:1;fill-rule:evenodd;stroke:none;stroke-width:0;stroke-linecap:butt;stroke-linejoin:miter;marker:none;marker-start:none;marker-mid:none;marker-end:none;stroke-miterlimit:4;stroke-dasharray:none;stroke-dashoffset:0;stroke-opacity:1;visibility:visible;display:inline;overflow:visible;enable-background:accumulate"/>
        <path style="fill:none;fill-opacity:1;fill-rule:evenodd;stroke:#000000;stroke-width:3;stroke-linecap:butt;stroke-linejoin:miter;marker:none;marker-start:none;marker-mid:none;marker-end:none;stroke-miterlimit:4;stroke-dasharray:none;stroke-dashoffset:0;stroke-opacity:1;visibility:visible;display:inline;overflow:visible;enable-background:accumulate" d="M 518.8137,248.01028 C 515.70215,242.34725 509.44959,223.72303 511.37724,223.15359 C 517.21785,227.63651 518.21958,230.87901 523.18192,233.16534 C 523.18192,233.16534 524.68568,219.22403 525.95909,217.61707 C 528.78444,219.54509 533.97287,235.42178 533.97287,235.42178 C 533.97287,235.42178 542.78535,216.29826 545.29703,213.36681 C 548.15358,216.12582 545.08485,242.71407 545.08485,242.71407 C 545.08485,242.71407 553.30856,227.17946 556.70454,225.88618 C 558.46236,229.59359 557.7834,243.87743 557.7834,243.87743 C 563.18236,236.0435 561.48347,242.25492 563.57643,240.89242 C 567.43239,250.23442 566.77454,267.14475 556.43392,271.21782 C 547.6558,273.04276 520.57494,256.22939 518.8137,248.01028 z" id="path3603" sodipodi:nodetypes="cccccccccccc"/>
      </g>
      <g id="g3659">
        <path sodipodi:type="arc" style="opacity:1;fill:#000000;fill-opacity:1;fill-rule:evenodd;stroke:none;stroke-width:0;stroke-linecap:butt;stroke-linejoin:miter;marker:none;marker-start:none;marker-mid:none;marker-end:none;stroke-miterlimit:4;stroke-dasharray:none;stroke-dashoffset:0;stroke-opacity:1;visibility:visible;display:inline;overflow:visible;enable-background:accumulate" id="path3601" sodipodi:cx="487.39371" sodipodi:cy="330.6062" sodipodi:rx="5.8707986" sodipodi:ry="5.7533827" d="M 493.26451,330.6062 A 5.8707986,5.7533827 0 1 1 481.52291,330.6062 A 5.8707986,5.7533827 0 1 1 493.26451,330.6062 z" transform="matrix(1.16,0,0,1.122449,-78.452657,-40.130143)"/>
        <path transform="matrix(1.0325274,0,0,0.9991029,-16.39754,0.5956004)" d="M 493.26451,330.6062 A 5.8707986,5.7533827 0 1 1 481.52291,330.6062 A 5.8707986,5.7533827 0 1 1 493.26451,330.6062 z" sodipodi:ry="5.7533827" sodipodi:rx="5.8707986" sodipodi:cy="330.6062" sodipodi:cx="487.39371" id="path3643" style="opacity:1;fill:#ffba24;fill-opacity:1;fill-rule:evenodd;stroke:none;stroke-width:0;stroke-linecap:butt;stroke-linejoin:miter;marker:none;marker-start:none;marker-mid:none;marker-end:none;stroke-miterlimit:4;stroke-dasharray:none;stroke-dashoffset:0;stroke-opacity:1;visibility:visible;display:inline;overflow:visible;enable-background:accumulate" sodipodi:type="arc"/>
        <path sodipodi:type="arc" style="opacity:1;fill:#000000;fill-opacity:1;fill-rule:evenodd;stroke:none;stroke-width:0;stroke-linecap:butt;stroke-linejoin:miter;marker:none;marker-start:none;marker-mid:none;marker-end:none;stroke-miterlimit:4;stroke-dasharray:none;stroke-dashoffset:0;stroke-opacity:1;visibility:visible;display:inline;overflow:visible;enable-background:accumulate" id="path3645" sodipodi:cx="487.39371" sodipodi:cy="330.6062" sodipodi:rx="5.8707986" sodipodi:ry="5.7533827" d="M 493.26451,330.6062 A 5.8707986,5.7533827 0 1 1 481.52291,330.6062 A 5.8707986,5.7533827 0 1 1 493.26451,330.6062 z" transform="matrix(0.7681043,0,0,0.7191545,112.52496,93.045646)"/>
        <path style="opacity:1;fill:#ffffff;fill-opacity:1;fill-rule:evenodd;stroke:none;stroke-width:3;stroke-linecap:butt;stroke-linejoin:miter;marker:none;marker-start:none;marker-mid:none;marker-end:none;stroke-miterlimit:4;stroke-dasharray:none;stroke-dashoffset:0;stroke-opacity:1;visibility:visible;display:inline;overflow:visible;enable-background:accumulate" d="M 484.50058,326.24115 C 485.46244,330.87945 488.70786,330.85096 492.69711,329.80718 C 488.17416,329.53542 486.90108,329.24875 484.50058,326.24115 z" id="path3647" sodipodi:nodetypes="ccc"/>
      </g>
      <path id="path3649" d="M 528.33379,349.15271 C 528.33379,349.15271 521.95956,343.05562 516.8671,341.39277 C 511.77465,339.72993 505.08863,336.40424 505.08863,336.40424" style="opacity:1;fill:none;fill-opacity:1;fill-rule:evenodd;stroke:#000000;stroke-width:1;stroke-linecap:butt;stroke-linejoin:miter;marker:none;marker-start:none;marker-mid:none;marker-end:none;stroke-miterlimit:4;stroke-dasharray:none;stroke-dashoffset:0;stroke-opacity:1;visibility:visible;display:inline;overflow:visible;enable-background:accumulate"/>
      <g id="g3285">
        <path id="path3283" d="M 214.41422,473.74578 C 176.36324,462.27009 163.0756,469.5179 164.28357,472.53782 C 165.49154,475.55773 214.41422,484.01351 214.41422,484.01351 C 214.41422,484.01351 171.53138,476.7657 171.53138,487.63741 C 171.53138,498.50912 230.1178,492.46928 230.1178,492.46928 C 230.1178,492.46928 186.02698,501.52903 192.67081,512.40074 C 199.31463,523.27245 254.88113,497.90513 254.88113,497.90513" style="opacity:1;fill:#cecea2;fill-opacity:1;fill-rule:evenodd;stroke:none;stroke-width:0;stroke-linecap:butt;stroke-linejoin:miter;marker:none;marker-start:none;marker-mid:none;marker-end:none;stroke-miterlimit:4;stroke-dasharray:none;stroke-dashoffset:0;stroke-opacity:1;visibility:visible;display:inline;overflow:visible;enable-background:accumulate"/>
        <path style="opacity:1;fill:none;fill-opacity:1;fill-rule:evenodd;stroke:#000000;stroke-width:3;stroke-linecap:butt;stroke-linejoin:miter;marker:none;marker-start:none;marker-mid:none;marker-end:none;stroke-miterlimit:4;stroke-dasharray:none;stroke-dashoffset:0;stroke-opacity:1;visibility:visible;display:inline;overflow:visible;enable-background:accumulate" d="M 214.41422,473.74578 C 176.36324,462.27009 163.0756,469.5179 164.28357,472.53782 C 165.49154,475.55773 214.41422,484.01351 214.41422,484.01351 C 214.41422,484.01351 171.53138,476.7657 171.53138,487.63741 C 171.53138,498.50912 230.1178,492.46928 230.1178,492.46928 C 230.1178,492.46928 186.02698,501.52903 192.67081,512.40074 C 199.31463,523.27245 254.88113,497.90513 254.88113,497.90513" id="path3281"/>
      </g>
      <path style="opacity:1;fill:#cecea2;fill-opacity:1;fill-rule:evenodd;stroke:#000000;stroke-width:1;stroke-linecap:butt;stroke-linejoin:miter;marker:none;marker-start:none;marker-mid:none;marker-end:none;stroke-miterlimit:4;stroke-dasharray:none;stroke-dashoffset:0;stroke-opacity:1;visibility:visible;display:inline;overflow:visible;enable-background:accumulate" d="M 231.44893,478.84742 C 178.1066,494.88807 170.92484,498.23639 174.00615,503.85491 C 180.48844,515.67486 250.84736,495.17775 250.83323,495.14134" id="path3293" sodipodi:nodetypes="csc"/>
      <path style="opacity:1;fill:#cecea2;fill-opacity:1;fill-rule:evenodd;stroke:none;stroke-width:0;stroke-linecap:butt;stroke-linejoin:miter;marker:none;marker-start:none;marker-mid:none;marker-end:none;stroke-miterlimit:4;stroke-dasharray:none;stroke-dashoffset:0;stroke-opacity:1;visibility:visible;display:inline;overflow:visible;enable-background:accumulate" d="M 281.17621,436.0688 C 238.73112,434.16373 221.71496,318.86815 199.06529,327.70198 C 186.44236,331.53118 247.50119,430.31796 247.50119,430.31796 C 247.50119,430.31796 203.47189,344.01213 191.44741,347.44776 C 174.39192,352.32086 228.412,441.50818 228.412,441.50818 C 228.412,441.50818 183.81515,355.98013 175.19997,361.20194 C 166.58479,366.42375 208.00632,446.77416 208.00632,446.77416 C 208.00957,446.77199 175.35524,385.69489 167.38531,394.58751 C 159.41538,403.48014 203.39859,463.8886 203.39859,463.8886 C 203.39859,463.8886 168.83084,420.11601 165.0148,428.34488 C 161.06365,436.86509 193.52487,477.05356 193.52487,477.05356 C 193.52487,477.05356 223.14602,507.99121 260.66615,501.40873 C 298.18628,494.82625 298.18628,494.82625 298.18628,494.82625" id="path2918" sodipodi:nodetypes="cccsczczczcsc"/>
      <path sodipodi:nodetypes="cccsczczczcsc" id="path2916" d="M 281.17621,436.0688 C 238.73112,434.16373 221.71496,318.86815 199.06529,327.70198 C 186.44236,331.53118 247.50119,430.31796 247.50119,430.31796 C 247.50119,430.31796 203.47189,344.01213 191.44741,347.44776 C 174.39192,352.32086 228.412,441.50818 228.412,441.50818 C 228.412,441.50818 183.81515,355.98013 175.19997,361.20194 C 166.58479,366.42375 208.00632,446.77416 208.00632,446.77416 C 208.00957,446.77199 175.02174,385.54489 167.05181,394.43751 C 159.08188,403.33014 203.39859,463.8886 203.39859,463.8886 C 203.39859,463.8886 168.83084,420.11601 165.0148,428.34488 C 161.06365,436.86509 193.52487,477.05356 193.52487,477.05356 C 193.52487,477.05356 223.14602,507.99121 260.66615,501.40873 C 298.18628,494.82625 298.18628,494.82625 298.18628,494.82625" style="opacity:1;fill:none;fill-opacity:1;fill-rule:evenodd;stroke:#000000;stroke-width:3;stroke-linecap:butt;stroke-linejoin:miter;marker:none;marker-start:none;marker-mid:none;marker-end:none;stroke-miterlimit:4;stroke-dasharray:none;stroke-dashoffset:0;stroke-opacity:1;visibility:visible;display:inline;overflow:visible;enable-background:accumulate"/>
      <path style="opacity:1;fill:#cecea2;fill-opacity:1;fill-rule:evenodd;stroke:none;stroke-width:0;stroke-linecap:butt;stroke-linejoin:miter;marker:none;marker-start:none;marker-mid:none;marker-end:none;stroke-miterlimit:4;stroke-dasharray:none;stroke-dashoffset:0;stroke-opacity:1;visibility:visible;display:inline;overflow:visible;enable-background:accumulate" d="M 310.7695,470.75178 C 310.7695,470.75178 250.15501,482.2974 247.74968,477.48672 C 245.34434,472.67605 272.28411,470.75178 272.28411,470.75178 C 272.28411,470.75178 238.39035,476.37568 237.16619,471.71392 C 235.93615,467.02976 269.87877,463.0547 269.87877,463.0547 C 269.87877,463.0547 234.25602,462.95013 234.27979,456.31976 C 234.30356,449.6894 259.77636,451.99015 259.77636,451.99015 C 259.77636,451.99015 229.85968,449.54027 229.46911,440.9256 C 229.08261,432.40051 259.29529,444.77414 259.29529,444.77414 C 259.29529,444.77414 227.55574,430.2362 231.80376,424.32427 C 236.37044,417.96886 265.0681,439.96347 265.0681,439.96347 C 265.0681,439.96347 234.67421,419.14309 240.53367,413.50477 C 246.34419,407.91354 253.52248,419.27758 258.33316,424.08825 C 263.14383,428.89892 279.30201,427.65845 285.06774,427.82622 C 290.54986,427.98574 317.82464,440.74608 317.82464,440.74608" id="path2922" sodipodi:nodetypes="cszcsczczczcszc"/>
      <g transform="matrix(0.9627196,0.2705013,-0.2705013,0.9627196,190.76606,-67.443469)" id="g2495">
        <path id="path2493" d="M 336.46273,660.78801 C 336.46273,660.78801 324.73976,669.54655 324.33552,672.24149 C 323.93128,674.93643 323.79653,678.84408 323.79653,678.84408 C 323.79653,678.84408 329.72539,674.66693 329.4559,672.51098 C 329.18641,670.35503 345.76026,666.17788 345.76026,666.17788" style="opacity:1;fill:#ebdf44;fill-opacity:1;fill-rule:evenodd;stroke:none;stroke-width:0;stroke-linecap:butt;stroke-linejoin:miter;marker:none;marker-start:none;marker-mid:none;marker-end:none;stroke-miterlimit:4;stroke-dasharray:none;stroke-dashoffset:0;stroke-opacity:1;visibility:visible;display:inline;overflow:visible;enable-background:accumulate"/>
        <path style="opacity:1;fill:none;fill-opacity:1;fill-rule:evenodd;stroke:#000000;stroke-width:3;stroke-linecap:butt;stroke-linejoin:miter;marker:none;marker-start:none;marker-mid:none;marker-end:none;stroke-miterlimit:4;stroke-dasharray:none;stroke-dashoffset:0;stroke-opacity:1;visibility:visible;display:inline;overflow:visible;enable-background:accumulate" d="M 336.46273,660.78801 C 336.46273,660.78801 324.73976,669.54655 324.33552,672.24149 C 323.93128,674.93643 323.79653,678.84408 323.79653,678.84408 C 323.79653,678.84408 329.72539,674.66693 329.4559,672.51098 C 329.18641,670.35503 345.76026,666.17788 345.76026,666.17788" id="path2491"/>
      </g>
      <path style="opacity:1;fill:#cecea2;fill-opacity:1;fill-rule:evenodd;stroke:#000000;stroke-width:1;stroke-linecap:butt;stroke-linejoin:miter;marker:none;marker-start:none;marker-mid:none;marker-end:none;stroke-miterlimit:4;stroke-dasharray:none;stroke-dashoffset:0;stroke-opacity:1;visibility:visible;display:inline;overflow:visible;enable-background:accumulate" d="M 218.81239,436.73716 C 183.44734,393.70206 177.58916,388.36627 173.59283,393.37543 C 165.18558,403.91342 211.22277,460.93173 211.25092,460.90465" id="path3289" sodipodi:nodetypes="csc"/>
      <path sodipodi:nodetypes="csc" id="path3291" d="M 234.84354,434.06815 C 206.13273,386.3356 201.11534,380.20252 196.43122,384.57531 C 186.57702,393.77454 223.80659,456.89719 223.83839,456.87451" style="opacity:1;fill:#cecea2;fill-opacity:1;fill-rule:evenodd;stroke:#000000;stroke-width:1;stroke-linecap:butt;stroke-linejoin:miter;marker:none;marker-start:none;marker-mid:none;marker-end:none;stroke-miterlimit:4;stroke-dasharray:none;stroke-dashoffset:0;stroke-opacity:1;visibility:visible;display:inline;overflow:visible;enable-background:accumulate"/>
      <path sodipodi:nodetypes="cszcsczczczcszc" id="path2920" d="M 310.7695,470.75178 C 310.7695,470.75178 250.15501,482.2974 247.74968,477.48672 C 245.34434,472.67605 272.28411,470.75178 272.28411,470.75178 C 272.28411,470.75178 238.39035,476.37568 237.16619,471.71392 C 235.93615,467.02976 269.87877,463.0547 269.87877,463.0547 C 269.87877,463.0547 234.25602,462.95013 234.27979,456.31976 C 234.30356,449.6894 259.77636,451.99015 259.77636,451.99015 C 259.77636,451.99015 229.85968,449.54027 229.46911,440.9256 C 229.08261,432.40051 259.29529,444.77414 259.29529,444.77414 C 259.29529,444.77414 227.55574,430.2362 231.80376,424.32427 C 236.37044,417.96886 265.0681,439.96347 265.0681,439.96347 C 265.0681,439.96347 234.67421,419.14309 240.53367,413.50477 C 246.34419,407.91354 253.52248,419.27758 258.33316,424.08825 C 263.14383,428.89892 279.30201,427.65845 285.06774,427.82622 C 290.54986,427.98574 317.82464,440.74608 317.82464,440.74608" style="opacity:1;fill:none;fill-opacity:1;fill-rule:evenodd;stroke:#000000;stroke-width:3;stroke-linecap:butt;stroke-linejoin:miter;marker:none;marker-start:none;marker-mid:none;marker-end:none;stroke-miterlimit:4;stroke-dasharray:none;stroke-dashoffset:0;stroke-opacity:1;visibility:visible;display:inline;overflow:visible;enable-background:accumulate"/>
      <path sodipodi:nodetypes="cscscccc" id="path3394" d="M 440.46802,556.15029 C 440.46802,556.15029 434.98501,586.30681 430.87276,590.41906 C 426.76051,594.53132 415.7945,607.78191 415.7945,607.78191 C 415.7945,607.78191 398.43165,633.36927 395.69015,633.82618 C 392.94865,634.2831 371.47355,631.08468 371.47355,631.08468 L 396.14706,610.0665 L 410.31149,564.3748 C 428.35335,547.50198 433.22629,558.96142 440.46802,556.15029 z" style="opacity:1;fill:#000000;fill-opacity:0.09134617;fill-rule:evenodd;stroke:none;stroke-width:0;stroke-linecap:butt;stroke-linejoin:miter;marker:none;marker-start:none;marker-mid:none;marker-end:none;stroke-miterlimit:4;stroke-dasharray:none;stroke-dashoffset:0;stroke-opacity:1;visibility:visible;display:inline;overflow:visible;enable-background:accumulate"/>
      <path sodipodi:nodetypes="ccccccc" id="path3407" d="M 419.6396,689.0661 L 432.1483,690.91521 L 423.4466,686.23805 L 400.27832,652.51895 L 392.12047,633.48398 L 384.83279,633.26643 C 397.90847,659.73761 408.45629,677.80875 419.6396,689.0661 z" style="opacity:1;fill:#000000;fill-opacity:0.09134617;fill-rule:evenodd;stroke:none;stroke-width:0;stroke-linecap:butt;stroke-linejoin:miter;marker:none;marker-start:none;marker-mid:none;marker-end:none;stroke-miterlimit:4;stroke-dasharray:none;stroke-dashoffset:0;stroke-opacity:1;visibility:visible;display:inline;overflow:visible;enable-background:accumulate"/>
      <path sodipodi:nodetypes="ccccccc" id="path3409" d="M 341.75937,659.9154 L 347.52425,660.02417 L 336.21203,632.61381 L 331.86118,616.95074 L 330.22961,608.0315 L 324.46473,606.18239 C 325.86132,625.68475 333.13268,642.65366 341.75937,659.9154 z" style="opacity:1;fill:#000000;fill-opacity:0.09134617;fill-rule:evenodd;stroke:none;stroke-width:0;stroke-linecap:butt;stroke-linejoin:miter;marker:none;marker-start:none;marker-mid:none;marker-end:none;stroke-miterlimit:4;stroke-dasharray:none;stroke-dashoffset:0;stroke-opacity:1;visibility:visible;display:inline;overflow:visible;enable-background:accumulate"/>
      <path sodipodi:nodetypes="cssscsssccccccsscc" id="path3411" d="M 490.78125,353.71875 C 490.78125,353.71875 473.87664,368.70746 469.40625,375.09375 C 464.93586,381.48002 468.75847,399.03195 463.96875,409.25 C 459.17904,419.46804 475.78126,449.18468 475.78125,450.78125 C 475.78125,451.89238 473.47412,462.52939 471.78125,470.25 C 466.36223,473.16548 461.12239,476.1029 458.5625,478.625 C 454.23306,482.89052 445.65437,496.77842 432.15625,507.09375 C 418.65812,517.40907 384.5937,535.33187 366.21875,541.625 C 347.84379,547.91813 312.03126,551.34374 312.03125,551.34375 L 331.46875,554.28125 C 331.46875,554.28125 359.69531,550.66022 382.5,549.53125 C 422.60269,538.86881 424.92962,531.53956 433.5,534.40625 C 478.88359,510.47262 486.65109,470.15391 486.65108,470.1539 L 488.21875,449.8125 C 488.21875,449.8125 482.81648,437.69713 484.09375,435.78125 C 485.37101,433.86536 492.06249,401.92034 492.0625,393.9375 C 492.0625,385.95466 487.92389,379.2514 486.64662,373.50376 L 490.78125,353.71875 z" style="opacity:1;fill:#000000;fill-opacity:0.09134617;fill-rule:evenodd;stroke:none;stroke-width:0;stroke-linecap:butt;stroke-linejoin:miter;marker:none;marker-start:none;marker-mid:none;marker-end:none;stroke-miterlimit:4;stroke-dasharray:none;stroke-dashoffset:0;stroke-opacity:1;visibility:visible;display:inline;overflow:visible;enable-background:accumulate"/>
      <path sodipodi:nodetypes="cccsccc" id="path3413" d="M 290.5756,548.16562 L 289.29834,555.19053 L 296.96188,562.53474 C 296.96188,562.53474 238.52744,549.12356 229.58666,538.90552 C 220.64587,528.68748 215.85616,513.0411 215.85616,513.0411 L 229.26734,508.25139 C 243.46904,525.30111 263.09198,540.26385 290.5756,548.16562 z" style="opacity:1;fill:#000000;fill-opacity:0.09134617;fill-rule:evenodd;stroke:none;stroke-width:0;stroke-linecap:butt;stroke-linejoin:miter;marker:none;marker-start:none;marker-mid:none;marker-end:none;stroke-miterlimit:4;stroke-dasharray:none;stroke-dashoffset:0;stroke-opacity:1;visibility:visible;display:inline;overflow:visible;enable-background:accumulate"/>
    </g>
  </g>
  <metadata>
    <rdf:RDF>
      <cc:Work>
        <dc:format>image/svg+xml</dc:format>
        <dc:type rdf:resource="http://purl.org/dc/dcmitype/StillImage"/>
        <cc:license rdf:resource="http://creativecommons.org/licenses/publicdomain/"/>
        <dc:publisher>
          <cc:Agent rdf:about="http://openclipart.org/">
            <dc:title>Open Clip Art Library</dc:title>
          </cc:Agent>
        </dc:publisher>
        <dc:title>Chicken</dc:title>
        <dc:date>2009-10-30T07:41:00</dc:date>
        <dc:description>A Chicken</dc:description>
        <dc:source>http://openclipart.org/detail/27980/chicken-by-davidone</dc:source>
        <dc:creator>
          <cc:Agent>
            <dc:title>davidone</dc:title>
          </cc:Agent>
        </dc:creator>
        <dc:subject>
          <rdf:Bag>
            <rdf:li>animal</rdf:li>
            <rdf:li>animal</rdf:li>
            <rdf:li>bird</rdf:li>
            <rdf:li>bird</rdf:li>
            <rdf:li>cartoon</rdf:li>
            <rdf:li>cartoon</rdf:li>
            <rdf:li>chicken</rdf:li>
            <rdf:li>chicken</rdf:li>
            <rdf:li>clip art</rdf:li>
            <rdf:li>clipart</rdf:li>
            <rdf:li>image</rdf:li>
            <rdf:li>media</rdf:li>
            <rdf:li>png</rdf:li>
            <rdf:li>public domain</rdf:li>
            <rdf:li>svg</rdf:li>
          </rdf:Bag>
        </dc:subject>
      </cc:Work>
      <cc:License rdf:about="http://creativecommons.org/licenses/publicdomain/">
        <cc:permits rdf:resource="http://creativecommons.org/ns#Reproduction"/>
        <cc:permits rdf:resource="http://creativecommons.org/ns#Distribution"/>
        <cc:permits rdf:resource="http://creativecommons.org/ns#DerivativeWorks"/>
      </cc:License>
    </rdf:RDF>
  </metadata>
</svg>
