<?xml version="1.0" encoding="UTF-8" standalone="no"?>
<!-- Created with Inkscape (http://www.inkscape.org/) -->
<svg xmlns:dc="http://purl.org/dc/elements/1.1/" xmlns:cc="http://creativecommons.org/ns#" xmlns:rdf="http://www.w3.org/1999/02/22-rdf-syntax-ns#" xmlns:svg="http://www.w3.org/2000/svg" xmlns="http://www.w3.org/2000/svg" xmlns:sodipodi="http://sodipodi.sourceforge.net/DTD/sodipodi-0.dtd" xmlns:inkscape="http://www.inkscape.org/namespaces/inkscape" width="559.2403" height="689.04559" id="svg3876" sodipodi:version="0.32" inkscape:version="0.46" sodipodi:docname="rooster_02.svg" inkscape:output_extension="org.inkscape.output.svg.inkscape" version="1.0" inkscape:export-filename="C:\Documents and Settings\gganson\My Documents\General Storage\OpenClip\UL_SVG\Church_PD\rooster_02.png" inkscape:export-xdpi="16.718777" inkscape:export-ydpi="16.718777">
  <defs id="defs3878">
    <inkscape:perspective sodipodi:type="inkscape:persp3d" inkscape:vp_x="0 : 526.18109 : 1" inkscape:vp_y="0 : 1000 : 0" inkscape:vp_z="744.09448 : 526.18109 : 1" inkscape:persp3d-origin="372.04724 : 350.78739 : 1" id="perspective3884"/>
    <inkscape:perspective id="perspective4304" inkscape:persp3d-origin="372.04724 : 350.78739 : 1" inkscape:vp_z="744.09448 : 526.18109 : 1" inkscape:vp_y="0 : 1000 : 0" inkscape:vp_x="0 : 526.18109 : 1" sodipodi:type="inkscape:persp3d"/>
    <inkscape:perspective id="perspective4371" inkscape:persp3d-origin="372.04724 : 350.78739 : 1" inkscape:vp_z="744.09448 : 526.18109 : 1" inkscape:vp_y="0 : 1000 : 0" inkscape:vp_x="0 : 526.18109 : 1" sodipodi:type="inkscape:persp3d"/>
  </defs>
  <sodipodi:namedview id="base" pagecolor="#ffffff" bordercolor="#666666" borderopacity="1.0" gridtolerance="10000" guidetolerance="10" objecttolerance="10" inkscape:pageopacity="0.0" inkscape:pageshadow="2" inkscape:zoom="0.35" inkscape:cx="375" inkscape:cy="520" inkscape:document-units="px" inkscape:current-layer="layer1" showgrid="false" inkscape:window-width="640" inkscape:window-height="667" inkscape:window-x="1346" inkscape:window-y="87"/>
  <g inkscape:label="Layer 1" inkscape:groupmode="layer" id="layer1" transform="translate(-65.763222,-110.36218)">
    <path style="fill:#000000" d="M 420.41349,795.09934 C 417.45896,788.61483 412.01536,787.85278 402.83825,792.63898 C 394.89197,796.78324 393.68635,796.65935 392.35323,791.56149 C 391.74087,789.21987 389.95277,787.37963 388.37964,787.47206 C 386.22861,787.59844 386.1792,787.90634 388.18035,788.71382 C 390.73008,789.74267 392.04356,795.81898 389.7162,795.81898 C 389.09741,795.81898 383.02731,793.01038 376.22709,789.57764 C 362.9202,782.86034 351.27476,771.32704 349.11659,762.7282 C 347.5175,756.35685 341.20467,752.49586 335.39919,754.33844 C 330.30363,755.95571 308.38445,751.7552 302.49825,748.03343 C 300.15662,746.55284 291.05623,743.64474 282.27514,741.57093 C 273.49406,739.49715 261.99882,736.00926 256.73017,733.82008 C 251.46152,731.63089 241.88215,728.47113 235.44269,726.7984 C 229.00323,725.12568 218.94489,722.25955 213.09084,720.42925 C 207.23678,718.59893 200.6791,717.09104 198.51822,717.07835 C 196.35733,717.06568 191.61747,714.93915 187.98518,712.35274 C 184.3529,709.76633 177.49947,707.13201 172.75533,706.49868 C 167.01898,705.73291 164.12963,704.27761 164.12963,702.15408 C 164.12963,699.70438 166.60768,699.02578 174.77337,699.23942 C 190.20355,699.6431 236.8596,706.00848 249.27955,709.40445 C 263.71787,713.35227 282.26435,716.49305 301.43387,718.23654 C 319.52395,719.88187 344.00883,726.72818 344.00883,730.14109 C 344.00883,731.47447 342.47081,731.77295 340.28352,730.86406 C 328.47842,725.95857 315.43077,723.16208 300.3695,722.30928 L 283.33952,721.34502 L 303.56262,725.62863 C 314.68533,727.9846 328.09644,731.40767 333.36509,733.23544 C 349.85286,738.95526 352.98084,739.25149 355.82455,735.3625 C 360.73223,728.65084 357.16805,724.52865 342.27835,719.69545 C 326.56483,714.59487 322.18156,713.66396 300.3695,710.79501 C 257.14808,705.11008 227.14953,697.4977 225.22585,691.72669 C 224.44253,689.3767 227.80082,689.06103 243.15702,690.04123 C 283.20381,692.59743 310.33212,695.84956 325.48808,699.91106 C 347.57112,705.8289 359.59467,706.41715 360.58192,701.62809 C 361.66286,696.38454 352.08826,693.06658 336.55821,693.30298 C 329.53334,693.40991 315.64326,692.17526 305.69137,690.5593 L 287.59701,687.6212 L 318.54328,688.38196 C 335.56375,688.80036 352.11674,690.14154 355.32772,691.36235 C 360.5746,693.35722 361.37505,693.03189 363.2311,688.15011 C 366.43538,679.72219 365.69213,670.94596 361.03881,662.26386 C 358.69719,657.8949 356.74945,653.34817 356.71049,652.16003 C 356.46533,644.6814 338.6102,633.17088 330.43668,635.22229 C 323.61713,636.93391 310.22022,629.8895 303.86548,621.25053 C 300.94958,617.28653 297.86935,608.72317 296.51466,600.81455 C 295.23217,593.32749 293.51412,587.2017 292.69677,587.2017 C 289.25007,587.2017 282.27514,571.44839 282.27514,563.66379 C 282.27514,543.63541 266.18491,561.41469 262.49614,585.51907 C 259.99917,601.83563 258.37108,604.87708 250.85723,607.26189 C 244.16462,609.38604 238.48745,605.48849 231.89934,594.24675 C 227.1637,586.16598 226.07245,581.66138 225.9785,569.80596 C 225.91515,561.81217 225.74514,555.27148 225.6007,555.27114 C 224.85606,555.26929 212.05885,589.17049 210.73489,594.65232 C 209.88657,598.16475 207.67477,602.25548 205.81979,603.74284 C 201.40292,607.28435 187.67363,605.3157 178.8779,599.87965 C 175.17321,597.59003 169.76931,595.71669 166.86923,595.71669 C 159.53861,595.71669 154.62853,589.46279 153.56488,578.77109 C 152.36777,566.73785 151.24495,566.14994 148.04938,575.88315 C 146.58214,580.35213 143.0656,587.68997 140.23486,592.18946 C 137.40411,596.68893 135.57212,601.63182 136.16377,603.17361 C 138.1644,608.38719 132.49948,621.51528 126.36389,625.8842 C 120.54264,630.0293 113.90369,630.36413 105.58907,626.93197 C 103.34201,626.00441 101.05836,628.28036 97.881374,634.6137 C 93.955712,642.43953 92.347875,643.70037 85.555583,644.2793 C 79.118983,644.82792 76.669047,643.79397 71.633994,638.40392 C 65.881896,632.24628 65.581821,631.02153 66.516052,617.51505 C 68.027333,595.66596 67.95933,585.33134 66.202498,569.86337 C 63.319275,544.47809 74.909481,498.83885 92.736227,465.38036 C 112.09363,429.04904 150.00174,396.38605 184.35274,386.44028 C 223.1255,375.21427 245.55874,375.09891 280.14639,385.94769 C 308.09943,394.71543 312.50443,397.09975 327.8204,411.75252 C 335.67597,419.26791 343.67015,425.41687 345.58525,425.41687 C 349.24998,425.41687 363.12807,416.79267 363.15302,414.49982 C 363.16103,413.76408 368.67193,408.9744 375.39947,403.85608 C 382.12702,398.73774 388.59309,393.76984 389.76852,392.81629 C 390.94395,391.86273 398.36179,386.97536 406.25263,381.9555 C 414.14347,376.93561 422.32934,370.53128 424.44346,367.72363 C 432.45856,357.07916 439.13938,336.23679 445.15778,303.10044 C 449.09604,281.41688 459.68708,257.42483 474.79691,235.95831 C 494.62562,207.78769 497.70002,193.76117 483.46036,196.43255 C 474.48832,198.11571 453.61435,190.56236 449.3804,184.10055 C 447.69793,181.53275 443.90022,172.01492 440.94107,162.94982 C 434.76912,144.04258 435.38523,141.71295 449.07193,132.20503 C 456.96447,126.7222 457.50743,126.63737 463.32753,129.97765 C 469.33505,133.4255 469.40873,133.39826 473.68766,126.146 C 478.83101,117.42864 487.58896,112.59345 491.37594,116.38043 C 494.93746,119.94197 496.62268,119.48684 497.89548,114.61969 C 498.64782,111.74272 500.79912,110.36219 504.53,110.36219 C 507.56664,110.36219 510.05116,111.32013 510.05116,112.49094 C 510.05116,116.89572 518.78569,123.13468 524.9524,123.13468 C 529.95236,123.13468 531.33864,122.19599 531.33864,118.81037 C 531.33864,111.47002 537.42239,111.3733 544.48911,118.60131 C 552.35999,126.65183 558.25962,127.11587 561.52844,119.94156 C 564.12739,114.2375 569.91358,112.94092 573.4033,117.28062 C 574.58015,118.74413 575.52477,124.07374 575.50241,129.1242 C 575.48006,134.17465 576.55035,139.39541 577.88082,140.72587 C 581.09144,143.93651 580.98875,164.16924 577.74535,167.41263 C 575.75852,169.39946 575.75852,170.5348 577.74535,172.52163 C 581.2475,176.02377 580.95094,182.39263 577.10672,186.23684 C 572.47983,190.86375 573.07558,202.60884 578.1711,207.22022 C 584.10356,212.58902 583.48022,217.70713 576.57454,220.32933 L 570.72048,222.5522 L 576.0892,224.76055 C 579.04201,225.97514 585.68932,230.50413 590.86103,234.82497 C 596.03276,239.14581 604.68222,244.91985 610.08207,247.65617 C 620.71021,253.04185 625.00355,259.71705 625.00355,270.85576 C 625.00355,278.01967 620.03786,290.11816 615.01864,295.18312 C 611.3676,298.86743 611.46982,309.1887 615.2406,317.59339 C 622.32691,333.38814 623.04306,339.69198 621.71793,374.60945 C 620.99069,393.77243 619.46531,413.76197 618.3282,419.03062 C 614.30968,437.64993 601.04124,460.43087 580.66548,483.69479 C 576.69017,488.23357 570.52759,498.29191 566.97088,506.04664 C 563.41417,513.80137 553.52509,530.68344 544.99518,543.56237 C 522.60471,577.36871 496.66617,602.00435 468.61109,616.10969 C 450.89577,625.01648 447.04544,628.27476 441.57916,638.98515 C 436.72474,648.49663 432.48657,681.31771 434.10938,696.83221 C 435.91922,714.13484 440.43232,720.70275 453.09607,724.46349 C 459.08854,726.24303 467.10084,727.69905 470.90119,727.69905 C 475.85509,727.69905 479.07767,729.30943 482.2861,733.3883 C 484.74744,736.51739 488.85925,740.12351 491.42343,741.40189 C 496.78517,744.075 503.22866,754.38987 500.95628,756.66224 C 500.11432,757.50423 496.98146,757.07956 493.99438,755.71857 C 483.51556,750.94409 465.74109,753.54663 473.99375,758.64705 C 478.09449,761.18145 480.39511,770.28031 478.04536,774.67088 C 475.34265,779.72093 471.14366,779.89535 464.05691,775.25194 C 460.04492,772.62317 453.45195,771.66653 438.38312,771.52663 C 427.23157,771.42309 417.75298,771.91247 417.31956,772.61412 C 416.88617,773.31576 418.87921,775.14627 421.74857,776.6819 C 428.49332,780.29158 431.21301,792.54829 426.34861,797.41269 C 423.29679,800.46451 422.76328,800.25657 420.41349,795.09934 z M 379.4631,781.28232 C 377.52541,779.1412 375.94005,776.70455 375.94005,775.86755 C 375.94005,775.03053 373.54521,771.76296 370.61818,768.60629 C 360.91643,758.14341 365.19002,753.1959 375.50076,762.95374 C 384.15731,771.14609 405.92761,783.43097 409.41642,782.0922 C 414.8238,780.01718 411.03891,775.68776 400.94568,772.40276 C 380.28197,765.67743 368.31025,750.102 371.82533,734.51658 C 372.93219,729.60897 372.74058,725.7808 371.30132,724.04657 C 369.61258,722.01176 369.91554,721.31281 372.48628,721.31281 C 376.55604,721.31281 377.21261,713.66609 373.27911,712.0789 C 371.68949,711.43746 372.11801,710.93753 374.34349,710.83714 C 378.25376,710.66073 379.81788,702.15408 375.94005,702.15408 C 374.76924,702.15408 373.8113,701.30258 373.8113,700.26186 C 373.8113,699.22113 375.45099,698.50268 377.45506,698.6653 C 379.4591,698.82791 381.44522,697.28457 381.86863,695.23565 C 382.34302,692.94007 381.35309,691.51034 379.28925,691.51034 C 377.4472,691.51034 375.94005,690.55241 375.94005,689.38159 C 375.94005,688.21078 377.85592,687.25285 380.19754,687.25285 C 385.44893,687.25285 385.73167,683.95048 380.72973,681.03712 C 377.40277,679.09934 377.5166,678.86041 381.7941,678.80259 C 387.28625,678.72836 388.22152,674.97519 383.2256,673.05808 C 377.95097,671.03402 374.03418,676.75024 371.57299,690.06411 C 369.16799,703.07391 362.25182,717.02377 358.1676,717.10266 C 356.81974,717.12869 357.99398,718.90098 360.77702,721.04108 C 365.46467,724.64577 365.64789,725.50544 363.26644,732.7213 C 361.85259,737.00534 359.41098,741.79528 357.84065,743.3656 C 356.27031,744.93593 354.73108,747.56151 354.42013,749.2002 C 353.39188,754.61911 363.56694,772.42198 371.36699,778.85146 C 379.84698,785.84139 384.98516,787.38412 379.4631,781.28232 z M 471.2343,765.48433 C 470.40785,762.90986 457.57308,753.86068 444.22157,746.43895 C 436.70194,742.25901 424.64092,724.46815 426.33464,720.05442 C 426.9676,718.40492 426.39902,717.05532 425.07108,717.05532 C 423.45606,717.05532 422.99966,713.55514 423.69263,706.48387 C 424.28549,700.4342 423.80052,695.33881 422.5588,694.5714 C 421.25605,693.76624 421.92852,692.05221 424.24168,690.28205 C 427.37202,687.88653 427.55286,686.97694 425.20617,685.43064 C 423.19084,684.1027 423.02999,683.08746 424.67398,682.07143 C 428.37468,679.78428 427.42769,674.4876 423.30469,674.41267 C 419.75677,674.34819 419.75677,674.21029 423.30469,671.51704 C 427.528,668.3111 428.26591,663.83662 424.57131,663.83662 C 423.1214,663.83662 423.59303,662.20083 425.7208,659.84967 C 429.14071,656.07069 429.07464,655.79479 424.45417,654.56101 C 417.61201,652.73399 415.10073,657.0874 413.39547,673.7317 C 411.78422,689.45844 409.26683,695.76784 404.60326,695.76784 C 402.88823,695.76784 401.48502,697.20474 401.48502,698.96096 C 401.48502,700.71718 402.40564,702.15408 403.53083,702.15408 C 407.61488,702.15408 414.25751,711.61539 414.25751,717.43238 C 414.25751,723.84123 408.64074,731.95655 404.20505,731.95655 C 402.70903,731.95655 401.48502,732.35718 401.48502,732.84681 C 401.48502,733.33647 400.90358,735.25234 400.19289,737.10431 C 398.47259,741.58735 404.35581,741.5314 412.04102,736.99163 C 417.84532,733.56295 418.03821,733.62649 425.14197,741.30752 C 429.1074,745.59522 440.49433,753.26157 450.44622,758.34385 C 470.65873,768.66606 472.45358,769.28257 471.2343,765.48433 z M 416.27226,764.56543 C 421.09556,763.27535 421.17415,763.05274 417.33664,761.551 C 411.43166,759.24018 397.22753,759.26181 397.22753,761.58163 C 397.22753,765.51571 406.99688,767.04632 416.27226,764.56543 z M 440.09027,762.74007 C 436.1507,761.02969 431.83999,759.70808 430.5109,759.80317 C 427.15191,760.04348 440.12622,765.82154 444.05998,765.83717 C 445.8162,765.84415 444.02984,764.45046 440.09027,762.74007 z M 425.45334,753.18506 C 422.82996,752.13025 415.64543,750.6179 409.48773,749.8243 C 403.33003,749.0307 396.05616,747.55276 393.32357,746.53998 C 387.48714,744.37684 382.514,746.44809 386.88871,749.22003 C 388.47722,750.22657 393.60866,751.16024 398.2919,751.29488 C 402.97515,751.4295 409.20173,752.30663 412.12876,753.24403 C 415.05579,754.18142 420.32444,754.98315 423.83688,755.02564 C 429.71437,755.09676 429.84314,754.95013 425.45334,753.18506 z M 421.41357,745.79341 C 420.07187,742.29701 408.88585,741.36523 406.89643,744.58415 C 405.83427,746.30278 409.12608,747.32509 420.04477,748.66758 C 421.52444,748.84951 422.11248,747.61477 421.41357,745.79341 z M 473.55753,747.09129 C 475.57092,745.81553 475.73211,744.82017 474.08972,743.80512 C 472.7939,743.00426 470.87754,742.87818 469.83109,743.52489 C 468.78466,744.17162 464.50473,743.27023 460.3201,741.52178 C 456.13549,739.77333 450.04662,738.37191 446.78929,738.40753 C 441.25582,738.46801 441.14649,738.63539 445.12435,740.95619 C 450.86007,744.30256 463.53681,748.78543 467.47621,748.86049 C 469.23242,748.89395 471.96901,748.09782 473.55753,747.09129 z M 314.20636,740.47154 C 312.45014,739.33658 309.09736,738.4888 306.75574,738.58758 C 303.24833,738.73555 303.43585,739.06746 307.82012,740.47154 C 315.34669,742.88197 317.93622,742.88197 314.20636,740.47154 z M 337.4452,739.14271 C 339.48728,737.30105 334.9981,735.97209 313.21773,731.97047 C 300.58942,729.65031 286.78483,726.7875 282.54085,725.60867 C 272.9321,722.93964 267.37391,722.85475 267.37391,725.37697 C 267.37391,726.44145 274.31895,728.38981 282.80733,729.70666 C 291.29571,731.02352 304.94631,734.3231 313.14199,737.03908 C 326.07326,741.3244 334.24207,742.03147 337.4452,739.14271 z M 299.83731,736.93297 C 298.3738,736.34243 295.97896,736.34243 294.51544,736.93297 C 293.05193,737.5235 294.24935,738.00669 297.17638,738.00669 C 300.10341,738.00669 301.30083,737.5235 299.83731,736.93297 z M 389.48235,735.14967 C 390.3158,732.97773 389.36744,731.95655 386.51699,731.95655 C 384.21109,731.95655 382.32629,733.39269 382.32629,735.14967 C 382.32629,736.90589 383.66072,738.34279 385.29166,738.34279 C 386.92262,738.34279 388.80841,736.90589 389.48235,735.14967 z M 471.7337,736.21405 C 471.7337,735.04323 467.66247,734.2114 462.68652,734.36553 L 453.63935,734.64575 L 461.08996,736.21405 C 465.1878,737.07659 469.25903,737.90844 470.13714,738.06257 C 471.01525,738.21669 471.7337,737.38486 471.7337,736.21405 z M 402.62429,726.38985 C 412.06701,720.20275 409.83861,717.13993 393.50222,713.85198 C 384.53376,712.04695 384.13754,716.50178 392.97003,719.83567 C 401.25216,722.96182 401.27489,725.82337 392.99873,723.4498 C 386.10173,721.47176 381.70772,724.65167 386.84324,727.90446 C 391.29933,730.7269 396.81272,730.19774 402.62429,726.38985 z M 236.50706,719.18406 C 235.78346,718.01325 233.57157,717.12265 231.59175,717.20495 C 228.65728,717.3269 228.77884,717.69264 232.24957,719.18406 C 237.94591,721.63187 238.01989,721.63187 236.50706,719.18406 z M 280.54553,719.85864 C 279.00885,719.24371 277.1728,719.31932 276.46543,720.02669 C 275.75807,720.73405 277.01536,721.23718 279.25941,721.14475 C 281.73929,721.04261 282.2437,720.53818 280.54553,719.85864 z M 250.34392,714.97502 C 243.90446,712.89387 233.36716,710.58518 226.9277,709.84459 C 215.35991,708.51423 215.40872,708.54929 230.99969,712.76859 C 239.67875,715.11737 247.26241,717.52172 247.85228,718.11158 C 248.44214,718.70145 251.8784,719.08842 255.4884,718.97151 C 261.12383,718.78901 260.39632,718.22383 250.34392,714.97502 z M 270.03484,717.77424 C 268.57133,717.1837 266.17649,717.1837 264.71297,717.77424 C 263.24946,718.36477 264.44688,718.84796 267.37391,718.84796 C 270.30093,718.84796 271.49836,718.36477 270.03484,717.77424 z M 344.00883,712.88335 C 344.00883,706.57185 320.5926,700.04743 292.91888,698.64825 C 280.62536,698.02667 267.69322,696.72084 264.18078,695.74638 C 260.66835,694.77192 252.04692,693.44612 245.02205,692.80017 C 232.96145,691.69114 232.60551,691.78761 238.63581,694.53101 C 245.35481,697.58775 266.11591,701.68005 309.40801,708.48123 C 323.7457,710.73368 337.15682,713.55516 339.21048,714.75122 C 344.14092,717.62265 344.00883,717.67408 344.00883,712.88335 z M 402.44149,710.0911 C 400.98447,706.29418 393.20722,701.75624 390.75469,703.27197 C 387.29319,705.4113 388.48274,708.58516 393.50222,710.60274 C 400.41013,713.37937 403.63255,713.19494 402.44149,710.0911 z M 212.55865,707.1305 C 211.09513,706.53996 208.70029,706.53996 207.23678,707.1305 C 205.77326,707.72103 206.97069,708.20422 209.89771,708.20422 C 212.82474,708.20422 214.02216,707.72103 212.55865,707.1305 z M 405.01808,679.14396 C 407.79082,669.56712 405.68666,665.71711 400.50942,670.89436 C 396.6977,674.70607 394.20262,684.08063 396.15783,687.24422 C 398.77847,691.48452 402.40511,688.16895 405.01808,679.14396 z M 388.77105,662.28642 C 400.49503,654.09168 414.81428,640.26757 413.2249,638.67821 C 412.73933,638.19264 409.65973,640.62392 406.38136,644.08105 C 403.10296,647.53816 395.87045,653.55983 390.3091,657.46253 C 384.74774,661.36523 380.19754,664.87494 380.19754,665.26186 C 380.19754,666.96982 383.91789,665.67867 388.77105,662.28642 z M 387.86095,655.65716 C 398.23966,648.09306 414.25751,630.7834 414.25751,627.13175 C 414.25751,625.62475 416.15544,620.8506 418.47513,616.52256 C 421.26192,611.32303 421.74928,609.01545 419.91172,609.72059 C 418.38213,610.30753 415.53936,614.39456 413.59443,618.80283 C 409.77564,627.4583 391.28534,647.83161 381.7941,653.84164 C 376.17696,657.3985 373.96114,661.70787 377.7494,661.70787 C 378.74455,661.70787 383.29474,658.98505 387.86095,655.65716 z M 383.11295,649.40788 C 392.1077,642.70122 405.74252,626.29943 405.74252,622.18599 C 405.74252,620.68226 398.07903,627.1464 388.71254,636.55074 C 379.34604,645.95505 371.68255,654.02571 371.68255,654.48556 C 371.68255,656.66459 375.88306,654.79864 383.11295,649.40788 z M 429.15875,647.61037 C 429.15875,644.78169 428.58081,644.63623 425.96562,646.80664 C 424.20941,648.26417 422.7725,649.81837 422.7725,650.2604 C 422.7725,650.70246 424.20941,651.06413 425.96562,651.06413 C 427.72184,651.06413 429.15875,649.50993 429.15875,647.61037 z M 383.78855,636.69509 C 394.62822,624.86551 404.74714,608.91297 402.70592,606.87175 C 399.97438,604.14021 393.99828,609.86978 388.83341,620.172 C 385.97288,625.87785 380.46474,633.80812 376.59311,637.79484 C 368.88035,645.73686 368.33969,646.80664 372.03846,646.80664 C 373.40503,646.80664 378.69256,642.25644 383.78855,636.69509 z M 371.94462,636.52306 C 373.77999,634.37952 377.42964,628.32476 380.05496,623.06803 C 382.6803,617.8113 390.01297,607.84991 396.34978,600.93161 C 407.15956,589.12988 409.75551,585.07295 406.49744,585.07295 C 402.63857,585.07295 380.25244,612.25651 373.29944,625.38537 C 365.60574,639.91286 365.03669,644.59093 371.94462,636.52306 z M 90.632015,608.08263 C 90.662718,606.10281 91.645776,603.89091 92.816587,603.16731 C 93.987399,602.4437 94.945334,600.2797 94.945334,598.35842 C 94.945334,596.18125 94.204314,595.62709 92.978425,596.8875 C 90.276425,599.6656 82.135448,621.58862 82.346238,625.51916 C 82.567708,629.64885 90.558341,612.8334 90.632015,608.08263 z M 94.534214,620.14096 C 93.878801,619.48554 92.688488,620.667 91.889077,622.76641 C 90.733838,625.8003 90.978354,626.04481 93.080739,623.95809 C 94.535564,622.51407 95.189624,620.79638 94.534214,620.14096 z M 368.2373,620.08672 C 368.96425,618.19231 368.60738,617.33783 367.40068,618.08361 C 366.24328,618.79892 365.29631,620.28559 365.29631,621.3873 C 365.29631,624.44936 366.82213,623.77461 368.2373,620.08672 z M 322.67056,585.50498 C 323.8693,582.81556 324.8501,578.21779 324.8501,575.28771 C 324.8501,572.35762 326.15898,567.37354 327.75871,564.21195 C 329.35847,561.05035 331.34842,554.63186 332.18087,549.94861 C 333.69741,541.41676 338.14387,525.72646 342.43635,513.7599 C 345.43126,505.41074 359.55246,481.43314 366.25648,473.31369 C 372.59947,465.63151 373.97004,470.88051 367.71007,478.88066 C 352.84035,497.884 339.86891,527.00393 336.52711,548.88424 C 335.46244,555.85508 335.54825,555.99215 337.8596,551.01299 C 340.38538,545.57186 343.40612,538.26866 348.20525,526.0002 C 349.69374,522.19506 351.75332,519.08177 352.78208,519.08177 C 355.34158,519.08177 355.45753,518.57289 348.09068,539.67091 C 338.32284,567.64511 338.35102,567.52143 342.52379,564.09976 C 346.06639,561.19481 356.78132,540.34032 356.78132,536.3503 C 356.78132,535.16567 359.83788,529.66748 363.57366,524.1321 C 371.2042,512.82576 374.59151,514.93682 367.42506,526.53239 C 364.88976,530.63459 363.20098,535.14764 363.67224,536.56141 C 364.14349,537.97515 374.01964,526.41233 385.61923,510.86621 C 397.21882,495.32009 407.04599,483.61034 407.45737,484.84452 C 407.86878,486.07871 406.10981,490.03141 403.54859,493.62833 C 397.45177,502.19054 399.90481,504.36227 407.47777,497.10692 C 414.14984,490.71467 419.56324,489.77932 421.44878,494.69296 C 422.40478,497.18426 423.67326,497.46201 426.69915,495.84261 C 428.89352,494.6682 433.98594,494.24237 438.01559,494.89628 C 447.05645,496.36341 460.26005,490.5395 474.41891,478.83928 C 484.54906,470.46822 491.32568,469.13358 502.11685,473.38426 C 506.34363,475.04922 519.62253,462.57454 522.95578,453.80742 C 525.45772,447.22687 529.2099,447.45271 529.2099,454.18385 C 529.2099,459.60168 526.35441,465.98552 520.88534,472.79455 C 515.48569,479.51718 519.76854,478.74996 527.03585,471.69276 C 535.62979,463.34728 547.62797,445.0747 549.55479,437.39761 C 550.32705,434.32063 551.92474,431.80311 553.10518,431.80311 C 554.28561,431.80311 554.72336,433.4795 554.07795,435.52842 C 550.28035,447.58418 550.12704,448.83309 552.44465,448.83309 C 553.78876,448.83309 555.43988,447.39619 556.1138,445.63997 C 556.78774,443.88375 558.32169,442.44685 559.52261,442.44685 C 563.16532,442.44685 569.31272,434.00658 576.03935,419.76966 C 579.55048,412.33831 583.40697,406.25814 584.60932,406.25814 C 585.86505,406.25814 585.41322,408.93103 583.54763,412.53867 C 581.76136,415.99296 580.29984,421.26161 580.29984,424.24678 C 580.29984,427.23194 579.34191,429.67436 578.1711,429.67436 C 577.00029,429.67436 576.04235,431.11127 576.04235,432.86748 C 576.04235,437.54543 579.61924,436.76437 580.91665,431.80311 C 581.529,429.46149 583.47736,427.54561 585.24635,427.54561 C 587.11305,427.54561 590.05077,423.38732 592.24723,417.63597 C 594.32872,412.18568 598.283,405.05088 601.03451,401.78089 C 604.34765,397.84345 607.11558,390.11831 609.23,378.90766 C 612.0825,363.7837 612.07443,360.47812 609.1543,347.88674 C 605.57,332.4315 601.65336,325.18767 592.10543,316.35481 C 583.51315,308.40601 573.72555,304.07824 564.34096,304.07824 C 553.94337,304.07824 546.13261,299.19044 540.28011,289.02147 C 536.26974,282.0533 535.54733,277.85248 535.82611,263.12101 C 536.34674,235.6085 536.70577,236.73421 526.121,232.69185 C 514.09051,228.09737 510.88919,224.32584 509.46927,213.07427 C 508.15981,202.69798 511.12169,200.74925 513.27828,210.56817 C 514.83648,217.66258 524.87826,225.29292 532.67456,225.30661 C 541.36109,225.32188 543.08633,230.63071 542.51497,255.58703 C 541.71431,290.55898 545.29999,294.32529 579.60061,294.54084 C 604.99375,294.70041 604.82217,294.89259 596.36327,275.76548 C 592.61765,267.296 585.06994,257.75939 569.69376,242.06826 C 545.5002,217.37918 544.24995,213.41208 561.40616,215.77166 C 575.38678,217.69449 575.06298,212.73429 560.98499,209.31979 C 553.44818,207.4918 551.4138,206.00419 550.82269,201.88878 C 550.41623,199.05877 548.61311,195.66803 546.81581,194.35381 C 543.89057,192.21482 543.91846,191.39888 547.08173,186.57111 C 550.48209,181.3815 550.42074,181.05031 545.45629,177.79747 C 535.07613,170.99614 530.39469,171.26573 518.19248,179.36754 C 506.96378,186.82297 498.75228,197.02852 499.66222,202.39758 C 500.52923,207.51341 496.82404,220.91309 493.86287,223.37063 C 492.22914,224.72652 490.89243,227.15549 490.89243,228.76835 C 490.89243,230.3812 489.9345,231.70082 488.76369,231.70082 C 487.59287,231.70082 486.63494,233.61669 486.63494,235.95831 C 486.63494,238.29993 485.677,240.21581 484.50619,240.21581 C 483.33538,240.21581 482.37252,241.8922 482.36654,243.94111 C 482.36054,245.99003 479.99559,251.49817 477.11111,256.18141 C 474.22662,260.86466 471.83667,266.2633 471.80014,268.17838 C 471.76359,270.09347 470.30269,274.40419 468.55369,277.75775 C 466.80469,281.11131 465.36779,285.8274 465.36057,288.23795 C 465.35336,290.6485 463.94102,294.48025 462.22203,296.75294 C 458.39039,301.81884 458.10557,309.15215 461.52766,314.63178 C 463.60146,317.95248 463.45479,319.47925 460.7635,322.5857 C 457.02239,326.90393 454.04394,336.66848 457.03099,334.82238 C 460.58696,332.62468 459.0093,345.20967 454.58247,354.35428 C 450.66634,362.44395 424.202,386.96146 419.16076,387.17023 C 416.47745,387.28135 407.87127,395.00311 407.87127,397.29951 C 407.87127,398.43639 404.279,402.05256 399.88846,405.33543 C 395.49792,408.6183 386.63701,416.41782 380.19754,422.66769 C 373.75808,428.91755 366.44011,434.56495 363.93538,435.21747 C 361.43065,435.87 355.68318,441.83477 351.16321,448.47255 C 346.64326,455.1103 341.22094,462.44935 339.11363,464.78154 C 334.55157,469.83038 324.8501,486.81828 324.8501,489.75789 C 324.8501,490.897 323.28779,495.12131 321.3783,499.14526 C 316.40942,509.61638 319.30305,510.39622 325.67454,500.30311 C 332.85342,488.93102 337.29699,486.44758 331.69094,496.94062 C 318.8475,520.98017 315.01941,537.19956 313.32761,574.74501 C 312.4177,594.93827 312.78267,605.65024 314.52435,609.86935 C 316.95051,615.74659 317.08534,615.53329 318.76065,603.16731 C 319.71234,596.14244 321.4718,588.1944 322.67056,585.50498 z M 466.44049,384.6469 C 467.81119,369.1623 467.60576,367.43546 464.5333,368.61447 C 460.20368,370.27591 460.04752,367.19838 464.28309,363.68318 C 466.0393,362.22565 467.49087,358.99506 467.5088,356.5041 C 467.55797,349.67138 471.02147,345.08946 473.93487,348.00287 C 475.687,349.755 475.47474,353.20523 473.12884,361.10467 C 469.7873,372.35689 470.20013,374.78179 475.13495,372.88812 C 476.77669,372.25812 478.11995,372.8031 478.11995,374.09916 C 478.11995,375.39525 477.31577,376.45567 476.33291,376.45567 C 473.41286,376.45567 469.60495,386.75348 469.60495,394.65018 C 469.60495,398.69293 468.54731,402.00064 467.25465,402.00064 C 465.60663,402.00064 465.36336,396.81507 466.44049,384.6469 z M 510.05116,401.19691 C 510.05116,400.75488 511.48807,399.20068 513.24429,397.74314 C 515.85947,395.57274 516.43741,395.71819 516.43741,398.54687 C 516.43741,400.44644 515.0005,402.00064 513.24429,402.00064 C 511.48807,402.00064 510.05116,401.63897 510.05116,401.19691 z M 510.04329,388.17217 C 512.78873,385.24976 515.50436,383.32801 516.07797,383.90162 C 517.49114,385.31481 509.94051,393.48565 507.22142,393.48565 C 506.02798,393.48565 507.29782,391.09458 510.04329,388.17217 z M 497.27868,388.59949 C 497.27868,386.71998 498.64054,384.41616 500.30505,383.47987 C 501.96956,382.54359 506.85325,377.16169 511.15769,371.5201 C 515.46214,365.87851 519.48356,361.76226 520.09417,362.37287 C 521.40293,363.68163 508.11916,382.20627 501.71756,387.99963 C 497.89161,391.46208 497.27868,391.54491 497.27868,388.59949 z M 492.13432,371.22242 C 500.82113,363.55194 503.66492,362.21756 503.66492,365.81193 C 503.66492,366.98274 502.80753,367.94067 501.75961,367.94067 C 500.71169,367.94067 497.59839,370.31898 494.84118,373.22576 C 492.08396,376.13256 488.47105,378.52741 486.81245,378.54763 C 485.15386,378.56787 487.5487,375.27151 492.13432,371.22242 z M 454.26658,365.01039 C 456.59907,361.05711 459.16466,354.83053 459.96786,351.17353 C 461.29875,345.11407 465.34746,341.66824 465.34746,346.595 C 465.34746,350.59383 454.18211,372.19817 452.11548,372.19817 C 450.96611,372.19817 451.93409,368.96367 454.26658,365.01039 z M 560.60893,283.70192 C 557.3892,281.95519 554.75487,279.67705 554.75487,278.63938 C 554.75487,277.60172 554.12617,274.99799 553.35773,272.85331 C 552.46891,270.37265 553.61844,270.99679 556.51718,274.56873 C 559.02331,277.65689 563.48378,280.78844 566.42931,281.52772 C 569.37486,282.26701 571.78485,283.81156 571.78485,284.96007 C 571.78485,287.90277 567.45349,287.41516 560.60893,283.70192 z M 552.94003,262.08148 C 552.97094,260.00726 552.30924,254.47842 551.46957,249.79517 C 550.44818,244.09841 550.6502,241.98474 552.07993,243.40893 C 554.8985,246.21657 556.9838,263.31886 554.68109,264.74201 C 553.69258,265.35294 552.9091,264.1557 552.94003,262.08148 z M 520.51892,202.75067 C 514.60811,195.62858 520.51324,178.48212 528.87685,178.48212 C 531.35459,178.48212 531.01852,179.52828 527.48254,182.82254 C 520.83404,189.01658 521.72686,191.93111 529.10418,188.11615 C 537.07289,183.99537 537.11013,183.99957 539.96952,189.34242 C 541.99473,193.12655 541.45247,194.76786 536.45305,199.98616 C 529.82042,206.90911 524.70647,207.79636 520.51892,202.75067 z M 414.53486,605.84219 C 416.48358,602.20096 416.25127,602.02538 412.28989,604.14545 C 409.85964,605.44607 407.87127,606.87714 407.87127,607.3256 C 407.87127,607.77405 407.21295,609.8957 406.40833,612.04038 C 405.104,615.517 405.34742,615.61256 408.6533,612.92174 C 410.69265,611.26183 413.33936,608.07603 414.53486,605.84219 z M 375.94005,609.01679 C 375.94005,608.13617 380.25076,602.78692 385.51941,597.12958 C 394.68325,587.28968 397.09354,582.9442 393.38763,582.9442 C 389.93895,582.9442 371.68255,605.26266 371.68255,609.47866 C 371.68255,610.10526 372.64049,610.61793 373.8113,610.61793 C 374.98211,610.61793 375.94005,609.89741 375.94005,609.01679 z M 374.80138,591.91751 C 376.01306,590.41336 378.27026,587.77904 379.81741,586.06346 C 381.36454,584.34786 381.70327,582.9442 380.57012,582.9442 C 377.31305,582.9442 365.29631,597.61094 365.29631,601.58629 C 365.29631,604.30802 366.18142,603.903 368.94732,599.91567 C 370.95539,597.02083 373.58972,593.42164 374.80138,591.91751 z M 251.0836,593.05576 C 252.85489,588.07981 254.85444,577.08774 255.52702,568.62893 C 256.1996,560.17014 258.72083,548.19593 261.12976,542.01958 C 272.67843,512.40946 300.73417,478.63556 313.78244,478.63556 C 318.75517,478.63556 320.76178,477.1968 323.43142,471.71713 C 326.76344,464.87787 326.74028,464.79082 321.40725,464.10956 C 305.9475,462.13466 264.83878,492.51772 250.64365,516.41025 C 235.0066,542.72975 230.44982,576.54985 240.23237,593.68199 C 242.8667,598.29548 245.66128,602.07752 246.44255,602.08654 C 247.22382,602.09555 249.31229,598.0317 251.0836,593.05576 z M 410.00001,598.90981 C 411.47828,597.1286 411.7088,595.71669 410.52132,595.71669 C 409.35051,595.71669 407.20005,597.1536 405.74252,598.90981 C 404.26425,600.69102 404.03373,602.10293 405.22121,602.10293 C 406.39202,602.10293 408.54248,600.66603 410.00001,598.90981 z M 90.450456,579.75108 C 90.49804,578.58027 89.167958,580.01718 87.494718,582.9442 C 85.821477,585.87123 84.491395,590.18195 84.53898,592.52357 C 84.595631,595.31133 85.615975,594.20905 87.494718,589.33045 C 89.072788,585.23261 90.40287,580.92189 90.450456,579.75108 z M 196.19402,593.05576 C 195.88905,591.59224 194.89631,588.67392 193.98793,586.57061 C 192.51597,583.16238 193.35011,570.36997 195.61246,561.65673 C 196.06845,559.90051 197.15853,554.63186 198.03486,549.94861 C 198.91118,545.26537 201.04632,538.27716 202.77961,534.41923 C 204.51289,530.56132 205.54568,526.2506 205.0747,524.83986 C 204.09249,521.89787 195.96663,542.65207 192.9017,555.93082 C 189.59281,570.26655 190.13145,595.71669 193.74374,595.71669 C 195.39636,595.71669 196.49899,594.51927 196.19402,593.05576 z M 124.08645,581.34764 C 123.55101,579.29872 123.11293,580.97511 123.11293,585.07295 C 123.11293,589.17079 123.55101,590.84718 124.08645,588.79826 C 124.62189,586.74934 124.62189,583.39656 124.08645,581.34764 z M 207.98212,555.49572 C 210.39752,543.3261 213.09654,531.83086 213.97993,529.95075 C 224.56749,507.41761 230.20659,497.21932 232.5828,496.30749 C 234.15574,495.70388 235.44269,493.50203 235.44269,491.41448 C 235.44269,487.30487 250.96206,465.32442 258.74389,458.41246 C 261.3802,456.07083 271.26936,450.3121 280.71979,445.6153 C 301.51811,435.27865 303.82931,431.67385 289.37096,432.12206 C 283.07042,432.31737 281.36527,432.78612 284.97216,433.33132 C 291.51831,434.32078 290.85263,438.18935 284.13622,438.18935 C 281.78557,438.18935 276.72253,440.58419 272.88499,443.51122 C 269.04746,446.43825 264.74332,448.83309 263.32024,448.83309 C 260.22278,448.83309 238.11433,469.38607 235.04733,475.1168 C 233.51192,477.98574 233.56472,478.73184 235.23031,477.70245 C 239.93332,474.79581 237.41306,482.29767 232.00206,487.31168 C 226.85947,492.07694 217.44693,510.13351 209.33769,530.78988 C 203.91267,544.60886 198.19464,585.89222 201.082,590.39482 C 201.8328,591.56563 202.70436,589.17079 203.01879,585.07295 C 203.33322,580.97511 205.56672,567.66537 207.98212,555.49572 z M 332.20714,573.62486 C 333.03239,567.91382 334.26212,561.68723 334.93987,559.788 C 335.61765,557.88878 335.43264,557.0016 334.52873,557.81653 C 333.02019,559.17656 327.14165,583.33174 327.11837,588.26607 C 327.09252,593.7394 330.87179,582.86582 332.20714,573.62486 z M 101.98689,567.20486 C 102.69297,559.64361 104.80796,548.35699 106.68686,542.12351 C 108.56577,535.89002 111.62214,525.52123 113.4788,519.08177 C 117.31503,505.77656 122.9145,492.81417 125.27999,491.76285 C 126.15809,491.37256 126.87655,489.80157 126.87655,488.27172 C 126.87655,486.74185 130.9629,479.87664 135.95732,473.01569 C 140.95174,466.15471 146.62338,458.05655 148.56095,455.01976 C 161.41947,434.86631 207.01267,402.31968 231.71738,395.65867 C 237.27873,394.15918 241.82893,392.08623 241.82893,391.05211 C 241.82893,387.74286 215.54137,391.06614 206.27524,395.54681 C 201.35585,397.9256 195.81765,399.87189 193.96813,399.87189 C 192.11861,399.87189 190.03285,401.36385 189.3331,403.18735 C 188.63336,405.01086 186.81758,406.02574 185.29805,405.44263 C 183.77852,404.85955 181.39,405.76241 179.99023,407.44904 C 178.59046,409.13567 176.35601,410.51563 175.02478,410.51563 C 173.69356,410.51563 171.4079,412.4315 169.94553,414.77313 C 168.48316,417.11475 166.30457,419.03062 165.10422,419.03062 C 160.73321,419.03062 133.15621,450.75514 123.28983,467.13379 C 103.66217,499.71661 99.433914,514.615 97.755974,557.10308 C 96.660594,584.83979 99.669304,592.02342 101.98689,567.20486 z M 123.90517,570.74825 C 123.1978,570.04088 122.69468,571.29819 122.78711,573.54223 C 122.88925,576.02211 123.39368,576.52652 124.07323,574.82835 C 124.68816,573.29165 124.61253,571.45563 123.90517,570.74825 z M 309.10624,570.74825 C 308.39886,570.04088 307.89575,571.29819 307.98818,573.54223 C 308.09032,576.02211 308.59475,576.52652 309.27429,574.82835 C 309.88922,573.29165 309.8136,571.45563 309.10624,570.74825 z M 81.920986,553.67392 C 81.7495,539.54229 81.150528,534.95667 80.0441,539.30487 C 76.985849,551.32361 77.835839,574.42921 81.336226,574.42921 C 81.796368,574.42921 82.05951,565.08933 81.920986,553.67392 z M 303.30283,533.34945 C 306.95814,514.85342 309.93475,498.5685 309.91749,497.16073 C 309.88334,494.37612 305.07857,502.05064 301.52437,510.56678 C 300.30276,513.49381 298.35664,517.53464 297.19962,519.54639 C 292.44436,527.81455 286.97133,565.71497 289.85812,570.38589 C 293.18866,575.77479 296.98543,565.3157 303.30283,533.34945 z M 125.47956,558.4636 C 126.38319,552.52908 126.19156,551.23885 124.8472,554.20611 C 122.99573,558.29269 121.78857,569.69456 123.40102,567.86558 C 123.83111,567.37774 124.76645,563.14685 125.47956,558.4636 z M 199.82452,519.81065 C 207.752,504.24429 212.96465,494.72455 214.21021,493.53841 C 214.82587,492.95211 218.58076,488.16171 222.5544,482.89306 C 226.52804,477.62441 234.16678,468.65022 239.52938,462.95041 C 244.89197,457.25061 247.36368,453.5723 245.02205,454.77639 C 235.8015,459.51768 209.15832,488.34878 204.63475,498.4803 C 203.49633,501.03003 202.02804,503.59513 201.37189,504.18053 C 199.42666,505.91602 188.44492,535.28586 185.24034,547.32316 C 180.04294,566.84604 182.19956,567.65713 188.49905,548.54875 C 191.84074,538.41231 196.9372,525.48017 199.82452,519.81065 z M 309.21645,546.18279 C 308.63332,544.74157 308.19173,546.43618 308.23512,549.94861 C 308.2785,553.46105 308.75559,554.64024 309.29532,552.56904 C 309.83504,550.49783 309.79955,547.62402 309.21645,546.18279 z M 133.08057,527.59676 C 133.18459,524.75844 132.96831,524.75844 131.13404,527.59676 C 129.99909,529.35298 129.12315,532.70576 129.18751,535.04738 C 129.30453,539.30487 129.30453,539.30487 131.13404,535.04738 C 132.14027,532.70576 133.01621,529.35298 133.08057,527.59676 z M 413.19314,533.75195 C 423.4206,531.14447 444.54455,520.44449 452.01613,514.08683 C 454.97935,511.56539 461.30409,505.91014 466.07113,501.5196 C 471.5203,496.5008 476.82454,493.5368 480.35677,493.5368 C 483.44684,493.5368 487.70891,491.62092 489.82806,489.2793 C 493.97448,484.69755 491.38256,483.2674 486.93456,487.68274 C 484.78397,489.81753 484.55468,489.50186 485.7749,486.08618 C 486.61142,483.74456 488.15159,480.71654 489.1975,479.35727 C 490.3601,477.84635 490.16555,476.30884 488.69693,475.40118 C 487.36363,474.57717 484.76811,476.09601 482.86401,478.8145 C 474.65243,490.53818 457.56552,504.61929 443.33218,511.3922 C 417.71185,523.5836 413.67838,524.97895 399.44189,526.57592 C 380.46387,528.70475 371.14572,534.78873 383.92285,536.70857 C 390.97767,537.7686 401.67784,536.68775 413.19314,533.75195 z M 92.63042,503.11616 C 93.775767,500.77454 96.789824,494.06898 99.328324,488.21493 C 101.86682,482.36087 107.63358,472.12247 112.14334,465.46293 C 116.6531,458.80338 120.95889,450.9004 121.71175,447.90076 C 122.46462,444.9011 123.93469,442.44685 124.97857,442.44685 C 126.02246,442.44685 126.87396,441.24943 126.87079,439.78591 C 126.86024,434.91383 110.18136,456.09557 103.82286,469.0562 C 90.437797,496.33914 82.121323,518.77133 82.287326,527.14442 C 82.367217,531.17406 83.632417,529.05964 86.47489,520.14614 C 88.715086,513.12128 91.485075,505.45778 92.63042,503.11616 z M 180.13472,514.29209 C 192.27824,488.63902 201.81952,474.0146 214.82516,461.12022 C 241.53386,434.64003 264.69579,424.81575 299.83731,425.06179 C 311.2808,425.14192 320.5926,424.32114 320.5926,423.23232 C 320.5926,420.1866 310.89594,414.53837 302.36343,412.61398 C 290.6977,409.98293 259.35292,413.71384 241.77986,419.82516 C 223.9372,426.03022 209.68994,435.20231 192.19188,451.74886 C 177.3177,465.8142 167.25721,486.19104 165.7797,505.24491 C 164.82588,517.54526 167.46677,529.72551 171.08752,529.72551 C 172.04529,529.72551 176.11653,522.78047 180.13472,514.29209 z M 137.37067,516.2952 C 137.22641,511.79851 137.1554,511.78391 135.39154,515.88865 C 132.87369,521.74798 132.87369,523.83101 135.39154,522.27489 C 136.56235,521.55129 137.45296,518.86042 137.37067,516.2952 z M 213.97675,505.24491 C 213.97675,504.0741 212.14119,506.46894 209.89771,510.56678 C 207.65424,514.66462 205.81867,518.97533 205.81867,520.14614 C 205.81867,521.31695 207.65424,518.92211 209.89771,514.82427 C 212.14119,510.72643 213.97675,506.41572 213.97675,505.24491 z M 140.71341,491.40805 C 143.67988,485.55399 145.79204,480.76431 145.40709,480.76431 C 143.87621,480.76431 135.89908,492.84161 134.48301,497.30327 C 131.87112,505.53261 135.10794,502.46992 140.71341,491.40805 z M 165.19401,468.93056 C 165.19401,468.41425 164.23607,467.99182 163.06526,467.99182 C 161.89445,467.99182 160.93651,469.0063 160.93651,470.24621 C 160.93651,471.48612 161.89445,471.90855 163.06526,471.18494 C 164.23607,470.46134 165.19401,469.44686 165.19401,468.93056 z M 232.44208,457.03658 C 234.84415,453.14996 226.19434,458.64807 221.58201,463.93962 L 217.34833,468.79674 L 224.20239,464.03767 C 227.97212,461.42019 231.67998,458.26968 232.44208,457.03658 z M 308.88449,456.01964 C 311.22611,454.56125 317.70847,452.22985 323.28973,450.83873 C 332.97589,448.42448 337.22347,445.59563 334.80048,443.17264 C 332.87035,441.24251 309.28401,449.01659 302.57403,453.79452 C 295.2043,459.04225 288.66139,465.30011 288.66139,467.10107 C 288.66139,468.19173 294.31338,465.09466 308.88449,456.01964 z M 204.57584,431.00789 C 218.39625,420.64134 234.5869,412.69357 248.76747,409.31485 C 251.99827,408.54507 255.08888,407.19161 255.63549,406.30716 C 257.23193,403.72407 230.94276,411.48302 221.39438,416.41301 C 208.15588,423.24829 188.57809,438.49636 176.11181,451.6811 C 163.05312,465.4924 163.82067,467.671 177.12478,454.55629 C 184.02719,447.75218 196.38016,437.15538 204.57584,431.00789 z M 318.9835,441.31246 C 332.06189,437.15872 333.30887,436.38024 327.11875,436.23369 C 318.28229,436.02448 305.14643,442.0922 295.04763,451.04797 L 287.59701,457.65528 L 295.56728,451.9367 C 299.95094,448.7915 310.48825,444.01058 318.9835,441.31246 z M 261.02003,444.94119 C 259.60144,444.46831 256.85846,445.69764 254.92453,447.67299 C 251.63294,451.03509 251.79773,451.09003 257.5038,448.53275 C 260.85632,447.03026 262.43863,445.41405 261.02003,444.94119 z M 386.58379,411.25245 C 386.58379,409.37479 378.88647,414.60672 374.85185,419.22677 C 371.38449,423.19724 372.06309,422.99454 378.60098,418.10689 C 382.99153,414.82458 386.58379,411.74009 386.58379,411.25245 z M 293.79116,402.02142 C 292.45039,400.68065 287.0658,400.58617 278.99636,401.76184 L 266.30953,403.61023 L 281.10433,403.86981 C 290.8703,404.04115 295.18261,403.41287 293.79116,402.02142 z M 449.30511,355.73842 C 452.27435,351.36878 454.66138,346.33961 454.60963,344.56249 C 454.5579,342.78535 452.65099,344.86151 450.37206,349.17619 C 448.09313,353.49086 445.26166,357.61863 444.07988,358.34901 C 441.92968,359.6779 441.05791,363.68318 442.91887,363.68318 C 443.46206,363.68318 446.33587,360.10803 449.30511,355.73842 z M 607.60082,267.73532 C 606.21445,263.75836 603.21577,258.57385 600.93708,256.2142 C 596.29645,251.40868 596.42692,251.96432 603.35244,266.50016 C 608.86085,278.06166 611.4645,278.81863 607.60082,267.73532 z M 613.34636,263.79246 C 611.8028,258.92916 607.97357,257.7528 607.97357,262.14191 C 607.97357,265.17181 612.48666,270.47225 613.88008,269.07885 C 614.35772,268.60119 614.11756,266.22231 613.34636,263.79246 z M 566.82636,198.35901 C 566.19689,197.72954 564.55792,197.90916 563.18422,198.75815 C 561.33234,199.90268 561.43331,200.76573 563.57478,202.09622 C 566.41334,203.85982 569.16479,200.69745 566.82636,198.35901 z M 566.68229,181.18496 C 564.40391,178.90659 554.99112,183.71907 553.9207,187.70959 C 551.64984,196.17524 552.57746,196.39444 560.04485,189.15677 C 564.12515,185.20198 567.112,181.61467 566.68229,181.18496 z M 485.57056,185.19343 C 486.74138,184.46509 488.17828,183.80743 488.76369,183.73194 C 493.81367,183.0808 502.19958,178.85893 511.11554,172.47891 C 518.84934,166.94483 524.96019,164.46086 533.46739,163.39324 C 539.90685,162.58511 547.80983,161.23495 551.02956,160.39288 C 556.44535,158.97647 556.88362,159.33514 556.88362,165.18366 C 556.88362,170.83068 557.46962,171.39346 562.37359,170.45601 C 570.50516,168.90156 575.57415,157.29284 572.19811,147.95653 C 570.80001,144.09016 569.65611,137.93801 569.65611,134.2851 C 569.65611,126.12026 566.40904,123.6553 563.30177,129.4613 C 560.18341,135.28802 553.42792,134.89529 544.90111,128.39158 L 537.8386,123.00475 L 536.48659,128.39158 C 535.68889,131.56989 533.61779,133.77842 531.43493,133.77842 C 527.03678,133.77842 514.73884,128.05641 509.57311,123.6065 C 506.25075,120.74453 505.69951,120.9764 503.77174,126.04685 C 501.18591,132.84809 495.57253,133.27869 489.02435,127.17812 C 483.43792,121.97358 482.09555,122.82001 479.12452,133.42046 C 476.57162,142.52899 470.30006,144.63331 461.97114,139.176 C 456.82176,135.80201 452.57497,136.30564 452.57497,140.29029 C 452.57497,141.39201 453.62451,142.29341 454.90729,142.29341 C 456.19008,142.29341 459.79488,144.11292 462.91798,146.33676 C 466.04107,148.5606 470.97864,150.7869 473.89034,151.28409 C 478.62112,152.09191 478.76276,152.37508 475.22172,153.94579 C 472.68125,155.07269 469.24337,154.54695 465.64235,152.48086 C 458.35342,148.29879 448.31748,145.93238 448.31748,148.39576 C 448.31748,149.45505 449.74848,153.06556 451.49748,156.41912 C 453.24649,159.77269 454.68339,165.92005 454.69061,170.07992 C 454.70238,176.8642 455.63571,178.09638 463.7509,182.04116 C 472.78245,186.43137 481.54544,187.69736 485.57056,185.19343 z M 516.97641,139.63247 C 513.20799,136.99815 510.10817,134.12434 510.08795,133.24623 C 510.01427,130.04882 515.87842,131.76114 519.78486,136.0777 C 523.79645,140.51046 525.30066,140.56702 540.38582,136.85237 C 548.5752,134.83578 547.86965,139.18003 539.53598,142.08516 C 529.66666,145.52562 524.62202,144.97717 516.97641,139.63247 z M 480.24869,140.60271 C 480.24869,139.47769 481.79608,137.273 483.68735,135.70339 C 486.66236,133.23436 487.02114,133.3907 486.34828,136.8629 C 485.54651,141.00038 480.24869,144.2486 480.24869,140.60271 z" id="path4377"/>
  </g>
  <metadata>
    <rdf:RDF>
      <cc:Work>
        <dc:format>image/svg+xml</dc:format>
        <dc:type rdf:resource="http://purl.org/dc/dcmitype/StillImage"/>
        <cc:license rdf:resource="http://creativecommons.org/licenses/publicdomain/"/>
        <dc:publisher>
          <cc:Agent rdf:about="http://openclipart.org/">
            <dc:title>Open Clip Art Library</dc:title>
          </cc:Agent>
        </dc:publisher>
        <dc:title>Rooster</dc:title>
        <dc:date>2008-04-08T23:38:14</dc:date>
        <dc:description>http://www.churchcontent.info/cbr/&#13;\nFrom site home page...&#13;\nFREE public domain Clipart</dc:description>
        <dc:source>http://openclipart.org/detail/16244/rooster-by-gerald_g-16244</dc:source>
        <dc:creator>
          <cc:Agent>
            <dc:title>Gerald_G</dc:title>
          </cc:Agent>
        </dc:creator>
        <dc:subject>
          <rdf:Bag>
            <rdf:li>animal</rdf:li>
            <rdf:li>chicken</rdf:li>
            <rdf:li>clip art</rdf:li>
            <rdf:li>clipart</rdf:li>
            <rdf:li>colouring book</rdf:li>
            <rdf:li>externalsource</rdf:li>
            <rdf:li>farm</rdf:li>
            <rdf:li>outline</rdf:li>
            <rdf:li>rooster</rdf:li>
          </rdf:Bag>
        </dc:subject>
      </cc:Work>
      <cc:License rdf:about="http://creativecommons.org/licenses/publicdomain/">
        <cc:permits rdf:resource="http://creativecommons.org/ns#Reproduction"/>
        <cc:permits rdf:resource="http://creativecommons.org/ns#Distribution"/>
        <cc:permits rdf:resource="http://creativecommons.org/ns#DerivativeWorks"/>
      </cc:License>
    </rdf:RDF>
  </metadata>
</svg>
