<?xml version="1.0" encoding="utf-8"?>
<!-- Generator: Adobe Illustrator 12.0.1, SVG Export Plug-In . SVG Version: 6.00 Build 51448)  -->
<!DOCTYPE svg PUBLIC "-//W3C//DTD SVG 1.1//EN" "http://www.w3.org/Graphics/SVG/1.1/DTD/svg11.dtd" [
<!ENTITY ns_svg "http://www.w3.org/2000/svg">
<!ENTITY ns_xlink "http://www.w3.org/1999/xlink">
]>
<svg xmlns="http://www.w3.org/2000/svg" xmlns:xlink="http://www.w3.org/1999/xlink" xmlns:svg="http://www.w3.org/2000/svg" xmlns:dc="http://purl.org/dc/elements/1.1/" xmlns:cc="http://web.resource.org/cc/" xmlns:rdf="http://www.w3.org/1999/02/22-rdf-syntax-ns#" version="1.1" id="Layer_1" width="314.655" height="471.005" viewBox="0 0 314.655 471.005" overflow="visible" enable-background="new 0 0 314.655 471.005" xml:space="preserve">
<g>
	<path fill-rule="evenodd" clip-rule="evenodd" d="M58.655,52.005c-3.289,2.049-4.866-4.721-10-4c-0.81,0.19-0.997,1.003-2,1   c-0.434,4.386,3.064,3.285,1,7c-4.858,3.049-8.551-1.656-9-4C37.026,43.496,57.379,38.911,58.655,52.005z"/>
	<path fill-rule="evenodd" clip-rule="evenodd" d="M58.655,56.005c-3.731,4.571,1.419,7.292,0,11   C49.309,68.157,50.625,52.044,58.655,56.005z"/>
	<path fill-rule="evenodd" clip-rule="evenodd" fill="#FFFFFF" d="M15.655,68.005c3.521-2.476,10.921-0.289,12,3   C21.556,72.104,19.384,69.276,15.655,68.005z"/>
	<path fill-rule="evenodd" clip-rule="evenodd" d="M214.655,79.005c4.095,0.772,6.729,12.518,2,13   C216.99,86.67,215.411,83.25,214.655,79.005z"/>
	<path fill-rule="evenodd" clip-rule="evenodd" d="M213.655,116.005c2.97,8.65-4.569,15.42-8,21c-4.044-2.145,3.147-7.406,5-10   C209.991,121.674,211.428,118.445,213.655,116.005z"/>
	<path fill-rule="evenodd" clip-rule="evenodd" d="M255.655,134.005c-7.046-0.712-12.18,0.487-16,3c1.326,3.007,7.927,0.74,10,3   c-1.906,3.479-8.142,0.588-13,1c-4.234,0.359-7.559,2.376-11,2c-0.078-3.744,3.922-3.412,7-4   C236.512,134.921,249.512,126.04,255.655,134.005z"/>
	<path fill-rule="evenodd" clip-rule="evenodd" d="M222.655,148.005c-14.859-2.402-28.865,3.493-38,6c-0.355-3.644,8.478-8.5,15-10   C207.594,142.178,219.045,142.221,222.655,148.005z"/>
	<path fill-rule="evenodd" clip-rule="evenodd" d="M26.655,144.005c4.648,2.685,0.197,14.469,3,19   C24.995,160.493,24.782,149.917,26.655,144.005z"/>
	<path fill-rule="evenodd" clip-rule="evenodd" d="M250.655,150.005c11.505,3.495,19.448,10.552,22,23c-3.804-0.561-2.654-3.812-4-6   C264.136,159.655,256.402,156.135,250.655,150.005z"/>
	<path fill-rule="evenodd" clip-rule="evenodd" d="M63.655,151.005c3.816-0.467,1.895,7.812,1,9c-0.305,4.365,2.958,4.446,1,8   c-8.659,3.597-16.139-7.954-12-14c3.545,2.122,2.649,8.684,7,10C63.547,161.408,64.403,154.255,63.655,151.005z"/>
	<path fill-rule="evenodd" clip-rule="evenodd" d="M207.655,166.005c19.494,6.84,30.633,22.033,41,38   c-7.885-4.298-12.154-12.649-18-19c-6.057-6.58-12.438-11.722-21-16C207.521,169.472,207.75,167.576,207.655,166.005z"/>
	<path fill-rule="evenodd" clip-rule="evenodd" d="M17.655,168.005c4.16,1.198,7.53,8.437,5,13   C19.005,178.654,17.901,173.759,17.655,168.005z"/>
	<path fill-rule="evenodd" clip-rule="evenodd" d="M36.655,173.005c3.503,0.497,2.423,5.577,5,7c3.624,0.958,1.017-4.316,3-5   c4.836,2.504-0.518,8.545-2,11c-0.89-0.777-2.258-1.075-4-1C38.157,181.089,33.515,177.384,36.655,173.005z"/>
	<path fill-rule="evenodd" clip-rule="evenodd" d="M98.655,173.005c4.891,3.442,5.04,11.627,10,15c4.06-0.393,6.968,0.366,7,4   C104.49,191.17,101.483,182.177,98.655,173.005z"/>
	<path fill-rule="evenodd" clip-rule="evenodd" d="M154.655,173.005c7.595,6.406,19.33,8.669,23,19c-4.275-0.755-5.128-5.311-9-8   C163.358,180.325,153.542,180.115,154.655,173.005z"/>
	<path fill-rule="evenodd" clip-rule="evenodd" d="M135.655,182.005c5.817-4.666,8.737,9.579,19,7c2.994-1.006,1.974-6.026,3-9   c3.315,0.351,1.569,5.764,2,9C150.446,197.849,141.955,185.475,135.655,182.005z"/>
	<path fill-rule="evenodd" clip-rule="evenodd" d="M59.655,181.005c5.585,0.391,2.942,12.787,1,15c-4.995-0.338-6.828-3.838-8-8   c2.101-2.117,3.899,1.176,6,2C62.631,188.999,59.614,183.979,59.655,181.005z"/>
	<path fill-rule="evenodd" clip-rule="evenodd" d="M124.655,181.005c5.391,2.994,9.42,11.38,8,18c-5.086,0.086-10.438,0.438-13-2   c0.634-3.552,5.615,0.294,10-1C131.399,187.594,124.148,188.178,124.655,181.005z"/>
	<path fill-rule="evenodd" clip-rule="evenodd" d="M242.655,182.005c5.609,1.39,8.416,5.584,12,9c-2.024,4.325-5.411-2.666-8-5   C244.791,184.323,240.849,185.459,242.655,182.005z"/>
	<path fill-rule="evenodd" clip-rule="evenodd" d="M15.655,186.005c1.778,1.888,3.295,4.038,3,8c3.467-0.233,4.935,4.226,6,9   C16.802,202.71,14.435,192.092,15.655,186.005z"/>
	<path fill-rule="evenodd" clip-rule="evenodd" d="M257.655,187.005c3.808,0.859,5.414,3.919,6,8   C260.944,193.049,258.201,191.126,257.655,187.005z"/>
	<path fill-rule="evenodd" clip-rule="evenodd" d="M211.655,201.005c8.575,9.424,17.621,18.379,18,36   c-6.861,1.846-11.481,4.479-19,2c0.914-3.357,1.859-0.495,5-1c0.261-2.928-2.261-3.072-2-6c4.013,4.233,8.742,3.167,13,3   c0.276-10.034-6.248-19.886-11-27C214.238,205.884,210.17,204.091,211.655,201.005z"/>
	<path fill-rule="evenodd" clip-rule="evenodd" d="M187.655,202.005c10.812,7.187,16.013,19.987,22,32   c-7.152-0.948-6.466-9.394-9-14C197.005,213.373,190.049,208.977,187.655,202.005z"/>
	<path fill-rule="evenodd" clip-rule="evenodd" d="M90.655,209.005c1.615-0.282,1.722,0.945,3,1c4.121,16.545,19.771,21.562,31,31   c4.3,0.17,8.719-3.303,12-1c-8.452,8.006-14.106,2.618-22-3c-5.907-4.204-8.425-6.051-13-11c-1.26-1.363-4.071-1.751-5-3   C93.411,218.643,91.653,211.962,90.655,209.005z"/>
	<path fill-rule="evenodd" clip-rule="evenodd" d="M24.655,219.005c4.18,0.487,5.533,3.8,8,6c4.538,1.871,1.361-3.973,5-3   c2.769,2.753-0.898,4.177-1,7C28.362,229.964,25.99,225.003,24.655,219.005z"/>
	<path fill-rule="evenodd" clip-rule="evenodd" d="M144.655,220.005c8.48,4.528,9.057,21.138,21,19c3.14-0.473,2.642,2.691,5,3   c3.469,0.802,3.844-1.489,7-1c-3.397,9.308-14.075-0.449-20-1C153.234,233.426,147.513,228.146,144.655,220.005z"/>
	<path fill-rule="evenodd" clip-rule="evenodd" d="M171.655,230.005c8.001-1.323,10.053,11.938,21,11c3.356,0.023,2.703-3.963,4-6   c2.065,4.815,7.373,0.674,10,4c-0.351,3.315-5.764,1.569-9,2C187.957,251.813,176.081,237.042,171.655,230.005z"/>
	<path fill-rule="evenodd" clip-rule="evenodd" d="M61.655,233.005c1,0,2,0,3,0c2.429,3.454,2.958,10.047-3,10   C63.298,238.895,64.261,236.874,61.655,233.005z"/>
	<path fill-rule="evenodd" clip-rule="evenodd" d="M40.655,234.005c4.289,2.377,7.958,5.375,10,10   C44.484,246.034,40.067,241.617,40.655,234.005z"/>
	<path fill-rule="evenodd" clip-rule="evenodd" d="M49.655,235.005c5.387,0.946,5.018,7.648,11,8   C55.031,246.266,49.746,240.604,49.655,235.005z"/>
	<path fill-rule="evenodd" clip-rule="evenodd" d="M139.655,235.005c3.37,2.963,7.738,4.929,12,7   C147.999,246.542,140.24,239.982,139.655,235.005z"/>
	<path fill-rule="evenodd" clip-rule="evenodd" d="M232.655,252.005c8.63-1.915,11.062,10.187,16,16c3.114,3.668,10.176,4.9,8,10   C245.113,272.88,243.356,257.971,232.655,252.005z"/>
	<path fill-rule="evenodd" clip-rule="evenodd" d="M249.655,255.005c5.526-0.193,7.404,3.263,9,7   C254.369,260.957,252.222,257.771,249.655,255.005z"/>
	<path fill-rule="evenodd" clip-rule="evenodd" d="M206.655,260.005c10.473,0.534,16.923,13.739,23,22c-2.951,2.885-6.351-2.266-6-6   C219.85,268.81,212.855,264.805,206.655,260.005z"/>
	<path fill-rule="evenodd" clip-rule="evenodd" d="M73.655,278.005c5.578,1.178,16.077,4.88,15,12c-3.906-0.65-3.887-6.333-9-3   C78.299,283.36,74.596,282.063,73.655,278.005z"/>
	<path fill-rule="evenodd" clip-rule="evenodd" d="M89.655,282.005c6.541,4.564,10.771,8.237,19,5c0.509,5.158,5.084,6.249,6,11   c-4.814,0.147-4.435-4.898-7-7C101.1,294.852,91.37,289.164,89.655,282.005z"/>
	<path fill-rule="evenodd" clip-rule="evenodd" d="M243.655,287.005c2.232,0.435,3.565,1.768,4,4   C243.817,291.918,241.272,289.372,243.655,287.005z"/>
	<path fill-rule="evenodd" clip-rule="evenodd" d="M114.655,291.005c6.472,3.528,7.859,12.141,15,15   C122.46,307.187,118.104,296.899,114.655,291.005z"/>
	<path fill-rule="evenodd" clip-rule="evenodd" d="M239.655,292.005c1.182,1.151,3.535,1.132,6,1c-1.129,1.871-1.183,4.817-5,4   c0.378,7.247-9.154,10.796-9,2c2.043-0.719,3.957-3.135,6-1C239.042,296.727,238.267,293.283,239.655,292.005z"/>
	<path fill-rule="evenodd" clip-rule="evenodd" d="M124.655,296.005c6.866,5.134,12.908,11.092,16,20   C135.942,308.718,128.771,303.888,124.655,296.005z"/>
	<path fill-rule="evenodd" clip-rule="evenodd" fill="#FFFFFF" d="M78.655,304.005c6.31,1.733,6.82,8.2,11,11   c0.112,0.075,2.089-1.18,3-1c1.331,0.263,1.278,2.649,2,3c1.864,0.903,5.31-0.79,6,3c2.145,2.197,2.275-2.967,4-3   c3.194-0.062,5.227,8.068,9,9c5.928,1.463,8.004,2.992,15,4c3.358,5.976,13.552,5.114,13,15c-2.182,0.182-3.182-0.818-3-3   c-1.459,1.207-0.962,4.371-5,3c0.91,3.29,0.667,13.058-2,16c-6.491,0.824-8.206-3.128-11-6c3.117-1.684,8.839-0.694,10,1   c1.486-1.514,1.611-4.389,2-7c-1.376-0.868-4.985-1.799-6,1c-10.551-1.782-19.136-5.53-23-14c-2.356,0.022-2.944-1.723-6-1   C88.441,327.552,87.108,312.219,78.655,304.005z"/>
	<path fill-rule="evenodd" clip-rule="evenodd" d="M225.655,306.005c2.936,0.731,3.567,3.766,5,6c-1.329,2.021-6.688,3.019-9,1   c0-1.667,0-3.333,0-5C223.934,308.284,225.414,307.764,225.655,306.005z"/>
	<path fill-rule="evenodd" clip-rule="evenodd" d="M161.655,309.005c4.131,0.38,10.297,12.561,2,13   C167.46,316.564,162.777,314.649,161.655,309.005z"/>
	<path fill-rule="evenodd" clip-rule="evenodd" d="M150.655,315.005c5.028,2.972,9.399,6.601,12,12   C158.603,323.057,153.691,319.969,150.655,315.005z"/>
	<path fill-rule="evenodd" clip-rule="evenodd" d="M214.655,316.005c3.523,1.477,4.422,5.578,9,6c-4.899,4.182-14.142,10.158-20,5   c-5.355,4.531-5.91-2.854-10-5c1.404-2.178,7.312-1.22,9,2c3.336-0.615,3.414-2.936,7-1   C210.807,320.157,214.243,319.593,214.655,316.005z"/>
	<path fill-rule="evenodd" clip-rule="evenodd" fill="#FFFFFF" d="M223.655,359.005c-0.844,4.178,1.944,4.723,2,8   c-5.073,2.784-6.835-2.929-8-7C220.713,360.73,220.596,358.279,223.655,359.005z"/>
	<path fill-rule="evenodd" clip-rule="evenodd" fill="#FFFFFF" d="M121.655,361.005c2.357,0.977,6.343,0.323,6,4   c-2.091,2.18-2.854-0.5-6,0C121.655,363.672,121.655,362.338,121.655,361.005z"/>
	<path fill-rule="evenodd" clip-rule="evenodd" fill="#FFFFFF" d="M120.655,366.005c1.528,2.805,6.746,1.921,7,6   c-4.427,0.476-4.973-1.376-8,0C118.932,368.949,120.677,368.36,120.655,366.005z"/>
	<path fill-rule="evenodd" clip-rule="evenodd" fill="#FFFFFF" d="M229.655,373.005c-1.162-0.162-1.779,0.221-2,1   c-2.545-0.122-3.878-1.455-4-4C226.679,368.576,229.426,369.174,229.655,373.005z"/>
	<path fill-rule="evenodd" clip-rule="evenodd" fill="#FFFFFF" d="M116.655,381.005c1.278,1.388,4.722,0.612,6,2   c0.336,4.003-2.858,4.475-7,4C115.523,384.54,115.503,382.187,116.655,381.005z"/>
	<path fill-rule="evenodd" clip-rule="evenodd" fill="#FFFFFF" d="M121.655,388.005c3.424,2.847-3.854,3.412-3,7   c-3.056,0.723-3.644-1.022-6-1c-0.154-2.487,1.571-3.096,2-5C116.003,390.369,121.636,390.911,121.655,388.005z"/>
	<path fill-rule="evenodd" clip-rule="evenodd" fill="#FFFFFF" d="M235.655,390.005c5.371-1.704,3.889,3.444,4,7   C236.02,396.973,235.262,394.064,235.655,390.005z"/>
	<path fill-rule="evenodd" clip-rule="evenodd" d="M151.655,395.005c4.529,1.138,6.289,5.044,7,10   C156.136,401.856,152.585,399.74,151.655,395.005z"/>
	<path fill-rule="evenodd" clip-rule="evenodd" d="M196.655,398.005c-7.17,8.83-19,13-27,21c-1.904-1.874-2.513-0.109-5,0   c2.675-3.325,7.535-4.465,11-7c-3.009-4.622-9.602,1.717-12,0c1.815-4.954,10.261-4.812,15-4   C185.398,405.415,188.564,399.247,196.655,398.005z"/>
	<path fill-rule="evenodd" clip-rule="evenodd" d="M300.655,398.005c-3.107,6.56-9.771,9.563-15,14c8.973,2.693,21.071,2.262,29,6   c-3.821,3.24-9.277-0.393-14-1c-5.428-0.698-12.327,1.133-15-3c-4.045-0.007-6.039,7.243-9,5   C284.105,411.455,289.915,402.265,300.655,398.005z"/>
	<path fill-rule="evenodd" clip-rule="evenodd" d="M110.655,401.005c3.22-0.22,4.231,1.769,8,1c0.409,2.409-1.826,2.174-1,5   C115.02,405.307,110.832,405.161,110.655,401.005z"/>
	<path fill-rule="evenodd" clip-rule="evenodd" d="M224.655,404.005c-3.697,4.303-15.072,0.928-22,2   C203.544,399.388,220.816,401.345,224.655,404.005z"/>
	<path fill-rule="evenodd" clip-rule="evenodd" d="M108.655,407.005c4.585,0.538,4.142,3.883,9,2c-1.192,2.808-1.625,6.375-6,6   C112.752,410.312,104.571,411.589,108.655,407.005z"/>
	<path fill-rule="evenodd" clip-rule="evenodd" d="M85.655,408.005c4.378,0.955,13.128-2.462,13,3   C94.276,410.05,85.526,413.467,85.655,408.005z"/>
	<path fill-rule="evenodd" clip-rule="evenodd" d="M58.655,414.005c-3.553,4.78-16.64,0.027-22,3   C41.703,410.247,50.279,412.226,58.655,414.005z"/>
	<path fill-rule="evenodd" clip-rule="evenodd" d="M216.655,415.005c-11.47,0.818-26.8,1.202-40,3c7.852-6.148,22.173-5.827,36-6   C212.336,414.657,218.256,411.069,216.655,415.005z"/>
	<path fill-rule="evenodd" clip-rule="evenodd" fill="#FFFFFF" d="M92.655,421.005c0.336,1.71-3.188,8.115-8,8   C84.022,423.039,90.484,424.168,92.655,421.005z"/>
	<path fill-rule="evenodd" clip-rule="evenodd" d="M273.655,421.005c14.961-1.545,26.27,3.336,37,3c-4.59,6.743-13.065,9.602-18,16   c-1.367-5.056,7.392-8.593,10-13c-7.518-4.636-20.957-1.576-27-3C273.521,424.472,273.75,422.576,273.655,421.005z"/>
	<path fill-rule="evenodd" clip-rule="evenodd" d="M252.655,423.005c2.408,1.592,3.313,4.687,6,6c10.397-3.461,27.155-2.027,38,0   c-10.734,0.929-21.299-1.352-31,2c6.753,4.914,16.363,6.97,25,10c-0.929,3.781-7.271-2.521-6,2c-10.706-2.294-16.97-9.03-28-11   C256.406,428.123,249.75,426.887,252.655,423.005z"/>
	<path fill-rule="evenodd" clip-rule="evenodd" d="M71.655,425.005c-3.676,4.01-10.583,1.34-16,2c-3.928,0.479-6.852,2.563-11,2   C50.496,425.17,63.274,422.97,71.655,425.005z"/>
	<path fill-rule="evenodd" clip-rule="evenodd" d="M205.655,426.005c0.667,0,1.333,0,2,0c0.467,2.134-1.429,1.904-3,2   C204.845,427.195,205.658,427.008,205.655,426.005z"/>
	<path fill-rule="evenodd" clip-rule="evenodd" d="M164.655,434.005c3.137-4.863,11.007-4.993,19-5c2.475-0.127,1.7,1.225,0,1   C175.813,429.829,170.938,432.622,164.655,434.005z"/>
	<path fill-rule="evenodd" clip-rule="evenodd" d="M189.655,432.005c0.027-0.973,1.224-0.776,2-1c10.054,5.994,24.775,11.719,33,22   C211.731,447.263,201.102,439.224,189.655,432.005z"/>
	<path fill-rule="evenodd" clip-rule="evenodd" d="M141.655,433.005c-3.517,3.881-9.551,1.619-14,2c-11.977,1.025-24.052,3.09-36,4   c2.567-3.334,10.668-4.294,16-5C117.855,432.653,130.006,433.146,141.655,433.005z"/>
	<path fill-rule="evenodd" clip-rule="evenodd" d="M151.655,443.005c3.395-6.271,12.509-6.824,22-7c4.709-0.489,2.418,1.802-1,1   C165.14,438.49,157.86,440.21,151.655,443.005z"/>
	<path fill-rule="evenodd" clip-rule="evenodd" d="M31.655,439.005c6.097,1.236,10.548,4.118,14,8   C40.571,444.755,33.293,444.699,31.655,439.005z"/>
	<path fill-rule="evenodd" clip-rule="evenodd" d="M259.655,439.005c-4.073,8.594-14.097,11.237-22,16c2.119-4.948,8.106-6.163,12-9   C252.944,443.609,255.09,439.235,259.655,439.005z"/>
	<path fill-rule="evenodd" clip-rule="evenodd" d="M117.655,443.005c-3.507,5.901-10.486,8.379-16,12c-3.371,2.214-6.138,6.342-11,6   C97.452,452.802,106.767,447.117,117.655,443.005z"/>
	<path fill-rule="evenodd" clip-rule="evenodd" d="M164.655,444.005c11.617,5.972,35.255-6.263,42,6c-5.228-2.708-18.149-2.62-27-1   c0.744,2.923,5.398,1.936,5,6C180.045,449.28,168.887,450.105,164.655,444.005z"/>
	<path fill-rule="evenodd" clip-rule="evenodd" d="M265.655,450.005c-4.14,5.193-9.408,9.258-15,13   C253.542,457.096,260.509,450.369,265.655,450.005z"/>
	<path fill-rule="evenodd" clip-rule="evenodd" d="M157.655,455.005c-9.61,1.399-22.921,1.521-36,0c3.702-4.556,13.764-2.618,21-2   C145.94,453.285,153.913,451.756,157.655,455.005z"/>
	<path fill-rule="evenodd" clip-rule="evenodd" d="M74.655,418.005c2.594-2.851,3.77,4.173,6,5c5.133,0.067,8.235-5.01,12-7   c1.176-0.622,3.793-0.048,5-1c9.076-7.165,13.157-26.807,17-42c1.499-5.927,4.494-11.291,4-17c-3.372-4.218-8.925-5.867-13-10   c-1.605-1.628-2.146-4.646-4-6c-2.16-1.578-5.86-1.246-8-3c-3.323-2.725-4.364-7.562-8-10c-0.635-18.035-16.402-23.332-27-34   c-1.632-1.643-2.332-4.41-4-6c-1.612-1.536-4.284-1.521-6-3c-2.053-1.771-2.978-4.972-5-7c-11.128-11.16-25.032-22.289-31-40   c1.736-3.332-0.504-4.436,0-9c-6.009-19.562-2.837-50.009,0-70c2.336-16.458,5.607-30.977,10-45c3.9-1.1,2.226-7.774,5-10   c-2.251-4.416-5.471-7.862-9-11c-0.763-6.571-1.078-13.589-2-20c-2.677-5.511-12.113-1.997-16,0c-2.327-5.352,1.91-12.738,7-14   c-2.51-10.54-2.869-22.578,6-26c-0.718-4.949-1.373-9.96-1-16c4.118-0.785,5.132,1.535,9,1c3.617-2.383,1.22-10.779,6-12   c4.281,0.719,4.833,5.167,8,7c3.564-1.102,2.098-7.236,4-10c1,0,2,0,3,0c3.024,1.31,4.181,4.486,4,9c8.933,2.266,2.03-11.304,9-11   c5.977,3.222,3.768,8.468,5,16c6.597,0.597,4.768-7.232,9-9c11.602,7.833-3.97,24.349-9,29c16.749,0.999,31.739,12.193,38,27   c1.605,3.796,1.78,8.135,3,12c2.927,9.269,6.563,16.521,7,29c0.468,13.388-1.035,26.105,4,36c3.984,7.83,14.357,15.814,24,17   c5.708,0.702,9.495-1.665,15-3c15.078-3.657,32.852-7.733,44-21c6.338-17.83,13.396-36.791,15-58c0.689-9.116-0.809-19.031,2-24   c4.807,0.527,6.467,4.2,7,9c4.629-7.704,4.462-20.205,12-25c6.584,0.25,8.466-4.201,14-5c4.519,1.148,6.767,4.567,11,6   c1.423,12.397,7.281,14.168,10,25c-1.581,2.752-3.601,5.066-5,8c2.733,0.343,9.085-5.251,14-1c-4.594,17.209-14.592,33.889-18,49   c5.766,2.704,16.501,12.454,18,20c1.001,5.039-2.159,11.187-1,18c0.987,5.8,7.534,12.141,7,19c-6.598,9.572-6.477,20.26-6,33   c-3.703,0.297-6.568,1.432-6,6c-2,0-4,0-6,0c0.921,8.754,0.578,12.47-5,16c0.181,3.152,3.289,3.378,7,3   c0.518,7.815,1.974,14.693,5,20c-5.365,3.974,1.635,9.227,1,17c-3.14,0.493-2.642-3.447-5-1c-0.22,5.554,5.94,4.726,7,9   c0.127,1.794-1.224,2.109-1,4c-2.678,1.623-3.803,2.297-6,0c6.145,6.208-7.208,6.225-3,14c-1.926,1.407-4.023,2.643-7,3   c-1.881,9.785-12.278,11.055-14,21c-1.313,1.02-3.687,0.98-5,2c-0.974,10.182-6.535,14.39-3,23c-3.463-0.129-2.268,4.399-5,5   c7.293,19.374,16.583,36.75,27,53c8.871,0.537,11.388,7.867,18,8c1.627,6.627-2.768,7.232-6,9c-2.762,0.429-0.938-3.729-3-4   c-4.962-1.296-1.412,5.921-4,7c-4.002-1.331-2.977-7.69-4-12c3.977-0.311,5.023,2.311,9,2c2.709-0.903-2.286-2.237-2-4   c-4.428,1.094-4.973-1.693-8-2c-13.758-13.908-22.122-33.211-31-52c-2.878,6.897,3.47,13.182,7,17c-0.134,3.866-4.056,3.944-5,7   c2.184,6.784,5.601-1.902,9,1c-0.053,4.505-7.074,3.146-4,8c1.331,2.537,4.438-1.467,7-1c1.432,2.568,1.666,6.334,4,8   c-0.134,3.866-4.056,3.944-5,7c0.19,0.81,1.003,0.997,1,2c1.656,3.805,6.575-2.572,7,0c1.525,4.526-3.837,2.163-5,4   c0.581,3.085,3.615,3.718,6,5c-0.097,2.57-3.903,1.43-4,4c6.549,4.73-0.275,9.73-3,15c5.2,0.482,8.777-4.198,12,0   c-6.135,4.199-16.477,4.189-25,6c2.454,3.545,6.396,5.604,11,7c-5.657,2.081-12.139-4.437-18-7c-3.147-1.377-9.491-1.236-10-6   c4.374-1.994,9.386,3.004,13,5c5.521-0.146,8.397-2.937,14-3c-1.766-4.497,1.256-9.992,1-16c-2.582,3.084-4.694,6.639-7,10   c-5.104-2.283,1.022-5.704,0-10c-4.364,1.316-15.85,4.141-20,9c-5.524-2.777-5.913,0.041-12,1c9.275-6.392,21.11-10.223,33-14   c10.99-10.505-11.254-34.767-17-45c-1.41-2.512-1.439-6.061-3-8c-2.091,0.576-2.854,2.479-6,2c-8.419-7.247-25.678-5.655-31-16   c-8.143,0.476-11.404-3.929-15-8c-2.208,0.125-0.425,4.242-1,6c-6.973-3.36-9.473-11.193-14-17c6.266,1.067,5.973,8.693,11,11   c0.396-4.525-3.32-8.702-2-11c3.743,1.536,2.515,6.502,8,4c1.07,3.596,2.781,6.552,5,9c3.078,0.745,1.922-2.745,5-2   c6.661,7.677,18.288,15.706,30,15c1.167,1.5,2.889,2.445,3,5c5.068-0.347,8.98,0.254,12-1c5.008-2.079,5.227-9.109,11-10   c-2.638-6.104,6.093-9.345,1-16c2.803-3.197,5.471-6.529,5-13c2.442-0.997,2.131-0.332,6-1c-0.218-3.658-1.374-3.836,0-7   c2.223-0.777,3.899-2.101,7-2c1.919-1.187-1.977-6.128,4-5c0.483-3.149-3.069-2.264-2-6c3.994-1.869,4.894-2.957,9-3   c0.75-3.417-4.062-1.271-3-5c5.838-1.829,8.459-6.874,10-13c1.615-0.282,1.722,0.945,3,1c-6.647-8.569-3.767-15.856-2-27   c-2.083-1.251-4.218-2.449-6-4c6.547-15.01-16.05-17.67-17-34c3.674,3.993,6.211,9.122,10,13c4.353,1.019,4.598-2.069,7-3   c0.211-7.825,0.879-13.408,4-18c1.127-1.658,6.478-0.996,4-5c1.161-0.839,2.681-1.319,5-1c-7.133-17.201-18.988-29.679-37-36   c0.159-2.618,11.262,1.267,14,3c2.475,1.567,4.323,4.038,5,6c3.078-0.745,1.922,2.745,5,2c1.98,4.686,6.156,7.177,9,11   c4.468-1.533,5.11-6.89,8-10c-2.051-8.675-2.296-14.153-8-20c5-18.817-5.396-30.494-17-36c-8.801,1.302-20.226,4.969-26,6   c-0.074-7.074,3.964-10.036,9-12c-0.003,3.997-3.654,4.346-5,7c6.459-0.329,13.605-4.872,23-2c6.335-14.665,12.835-29.165,17-46   c-1.709-2.286-5.636,1.631-9,1c-0.909,11.924-12.112,21.765-17,33c-5.526-2.418,2.967-6.628,2-11c2.358-0.309,1.86-3.473,5-3   c0.566-5.434,3.335-8.665,6-12c-2.882-8.811,3.71-12.52,7-18c0.745-3.078-2.745-1.922-2-5c-7.762-1.429-8.087,4.58-12,7   c-1.15,2.932,4.797,3.714,2,5c-10.043,13.156-15.389,24.874-22,41c-5.706-1.273,0.877-12.016,4-14c-0.068-4.402,0.5-8.167,4-9   c-0.872-4.872,1.367-6.633,2-10c2.882-0.451,3.128-3.539,7-3c-5.304-9.355,7.938-14.646,10-23c-0.847-2.931-3.22,0.598-5,0   c-0.965-5.378,4.465-8.295,1-13c-6.483,0.334-6.18,6.395-7,10c-1.762,0.905-1.652,3.681-4,4c0.542,6.038-4.627,9.097-7,14   c-5.425,11.205-7.085,24.68-15,34c0,1.667,0,3.333,0,5c-4.134-2.474,0.559-10.727,1-15c-1.68-2.877-2.801-7.419-1-11   c2.784-0.451-0.784,5.451,2,5c8.441-15.892,18.487-30.179,25-48c-5.342-3.223-14.757,4.682-20,8c-3.251,7.749-0.676,21.324-8,25   c-0.811-4.522-3.517-7.15-4-12c-1.992,28.008-6.611,53.388-14,76c-9.964,15.703-29.515,21.818-49,28c4.149,2.851,9.977,4.024,16,5   c4.446,3.887,9.142,7.525,17,8c2.371,6.629,13.296,4.705,14,13c-5.645-1.688-7.374-7.292-15-7c-16.726-17.349-49.831-13.438-69-27   c-11.522-12.444-9.521-32.158-12-55c-1.126-10.37-6.015-20.678-10-30c-1.886-4.411-2.814-10.487-6-14   c-6.664-7.347-16.827-9.111-30-13c-0.56-1.44-1.56-2.44-3-3c-15.062-0.062-29.364,0.636-29,16c-2.925,0.408-3.245,3.422-5,5   c-10.371-1.038-13.566,5.1-18,10c9.54-6.489,23.557-4.585,34-2c1.19,4.19-4.215,1.785-5,4c3.974,2.693,9.316,4.017,11,9   c5.088-1.246,6.833-5.833,11-8c3.467,4.707-2.584,7.002-4,10c0.334,2.333,1.025,4.309,3,5c3.697-0.303,3.75-4.25,6-6   c-3.13-5.165,2.249-13.658,8-16c0.096-4.763-4.59-4.744-5-9c4.826-4.831,10.717,2.114,10,9c-9.249,7.751-5.854,28.146-22,29   c-2.322-0.678-1.458-4.542-4-5c-3.923,5.743-6.004,13.329-14,15c-19.369,43.904-33.214,132.251,7,163   c-0.327-4.673-5.183-4.817-5-10c6.972,3.694,7.765,13.568,16,16c3.344,6.322,5.321,14.013,14,15c4.116-7.141-4.542-10.105-10-11   c-1.246-2.421-2.476-4.857-3-8c2.85,0.483,2.87,3.797,4,6c4.448-3.379,4.834,0.356,11,0c-1.903,7.498,6.887,14.863,0,18   c3.12,3.547,7.235,6.098,10,10c4.455-2.532,7.152,1.08,9,4c1.57-0.43,0.854-3.146,4-2c0.963,4.703,4.091,7.242,7,10   c2.107-0.67-2.317-5.819,0-7c3.107,1.893,3.078,6.923,5,10c3.104,0.104,2.854-3.146,7-2c2.146,2.521,2.483,6.85,6,8   c3.506-0.271-1.807-4.428,1-4c3.152-0.152,1.945,4.055,4,5c3.048-1.223-1.462-3.816,1-5c1.664,2.003,3.629,3.704,4,7   c2.168,0.169,0.453-3.547,1-5c3.01,1.323,3.646,5.02,5,8c1.44-0.227,0.349-2.984,2-3c3.531,1.469,1.89,8.11,9,6   c1.61,3.39,0.036,9.964,5,10c3.035-5.729-5.604-8.376-5-15c3.143-0.703,1.908,2.619,3,4c3.571,4.515,9.958,6.975,12,13   c-2.036,7.485-12.454,1.052-17,5c1.308,3.402-2.228,6.979,0,8c-4.348,9.406-12.681,28.285-14,43c-0.716,7.986,0.316,13.223,5,17   c3.976-5.024,11.587-6.412,18-9c-2.266,8.734-14.844,7.156-18,15c7.629,1.616,19.62-1.037,30,0c-5.354,5.906-23.552,1.595-33,6   c-4.396-0.604-4.988-5.012-10-5c-5.411,1.198-9.954,11.871-16,6c0.443-2.531,4.572-1.305,7-4c3.047-2.62,5.896-5.438,9-8   c2.726,1.607,4.47,4.196,10,3c-2.536-6.261-9.798-12.692-6-22c-1.373-1.961-6.127-0.54-8-2c-4.09,3.577-4.952,10.381-8,15   c-0.164,2.831,6.164-0.831,6,2c-0.306,5.239-6.248-1.375-8,2c0.923,2.743,3.153,4.18,6,5c-1.852,1.481-1.498,5.169-5,5   c0-1.667,0-3.333,0-5c-1.667,0-3.333,0-5,0c-0.973,3.64,4.871,0.462,3,5c-9.8-2.56-6.865,3.797-11,8   c-13.915-0.086-26.336-1.664-41-1c7.911-3.756,21.731-1.603,31-4C80.601,427.355,76.435,421.252,74.655,418.005z M27.655,71.005   c-1.079-3.289-8.479-5.476-12-3C19.384,69.276,21.556,72.104,27.655,71.005z M97.655,335.005c3.056-0.723,3.644,1.022,6,1   c3.864,8.47,12.449,12.218,23,14c1.015-2.799,4.624-1.868,6-1c-0.389,2.611-0.514,5.486-2,7c-1.161-1.694-6.883-2.684-10-1   c2.794,2.872,4.509,6.824,11,6c2.667-2.942,2.91-12.71,2-16c4.038,1.371,3.541-1.793,5-3c-0.182,2.182,0.818,3.182,3,3   c0.552-9.886-9.642-9.024-13-15c-6.996-1.008-9.072-2.537-15-4c-3.773-0.932-5.806-9.062-9-9c-1.725,0.033-1.855,5.197-4,3   c-0.69-3.79-4.136-2.097-6-3c-0.722-0.351-0.669-2.737-2-3c-0.911-0.18-2.888,1.075-3,1c-4.18-2.8-4.69-9.267-11-11   C87.108,312.219,88.441,327.552,97.655,335.005z M151.655,342.005c-1.44,0.534-2.44-3.896-3-1   C149.678,340.888,150.678,345.318,151.655,342.005z M217.655,360.005c1.165,4.071,2.927,9.784,8,7c-0.056-3.277-2.844-3.822-2-8   C220.596,358.279,220.713,360.73,217.655,360.005z M121.655,365.005c3.146-0.5,3.909,2.18,6,0c0.343-3.677-3.643-3.023-6-4   C121.655,362.338,121.655,363.672,121.655,365.005z M119.655,372.005c3.027-1.376,3.573,0.476,8,0c-0.254-4.079-5.472-3.195-7-6   C120.677,368.36,118.932,368.949,119.655,372.005z M223.655,370.005c0.122,2.545,1.455,3.878,4,4c0.221-0.779,0.838-1.162,2-1   C229.426,369.174,226.679,368.576,223.655,370.005z M117.655,375.005c0,1.333,0,2.667,0,4c4.63,1.248,9.397-2.536,8-4   C125.34,376.547,120.006,371.681,117.655,375.005z M115.655,387.005c4.142,0.475,7.336,0.003,7-4c-1.278-1.388-4.722-0.612-6-2   C115.503,382.187,115.523,384.54,115.655,387.005z M114.655,389.005c-0.429,1.904-2.154,2.513-2,5c2.356-0.022,2.944,1.723,6,1   c-0.854-3.588,6.424-4.153,3-7C121.636,390.911,116.003,390.369,114.655,389.005z M239.655,397.005c-0.111-3.556,1.371-8.704-4-7   C235.262,394.064,236.02,396.973,239.655,397.005z M84.655,429.005c4.812,0.115,8.336-6.29,8-8   C90.484,424.168,84.022,423.039,84.655,429.005z"/>
	<path fill-rule="evenodd" clip-rule="evenodd" fill="#FFFFFF" d="M148.655,341.005c0.56-2.896,1.56,1.534,3,1   C150.678,345.318,149.678,340.888,148.655,341.005z"/>
	<path fill-rule="evenodd" clip-rule="evenodd" fill="#FFFFFF" d="M125.655,375.005c1.397,1.464-3.37,5.248-8,4c0-1.333,0-2.667,0-4   C120.006,371.681,125.34,376.547,125.655,375.005z"/>
	<path fill-rule="evenodd" clip-rule="evenodd" d="M164.655,406.005c-7.734,5.266-15.125,10.875-24,15   C146.542,413.892,155.273,409.623,164.655,406.005z"/>
	<path fill-rule="evenodd" clip-rule="evenodd" d="M71.655,409.005c2.565,0.102,1.607,3.727,3,5   C74.204,415.662,71.116,411.639,71.655,409.005z"/>
	<path fill-rule="evenodd" clip-rule="evenodd" d="M75.655,439.005c-1.145,4.19-6.433,6.085-10,8c-6.384,3.427-12.623,6.203-21,9   c1.571-4.186,8.382-6.762,14-10C63.961,442.946,69.983,437.075,75.655,439.005z"/>
	<path fill-rule="evenodd" clip-rule="evenodd" d="M84.655,449.005c0.275,3.509,3.725-2.509,4,1c-0.204,3.797-4.54,3.461-7,5   c-7.414,4.919-13.383,11.284-21,16c-0.248-1.086-1.988-0.679-2-2c1.914-5.087,8.56-5.44,11-10c-8.734,0.401-17.291,1.796-27,7   c13.247-9.42,28.828-16.505,48-20C90.077,448.428,86.878,448.229,84.655,449.005z"/>
</g>
<metadata><rdf:RDF><cc:Work><dc:format>image/svg+xml</dc:format><dc:type rdf:resource="http://purl.org/dc/dcmitype/StillImage"/><cc:license rdf:resource="http://creativecommons.org/licenses/publicdomain/"/><dc:publisher><cc:Agent rdf:about="http://openclipart.org/"><dc:title>Open Clip Art Library</dc:title></cc:Agent></dc:publisher><dc:title>rooster</dc:title><dc:date>2006-11-02T19:13:35</dc:date><dc:description>a rooster from http://www.harvestfields.ca/clipart/Real-Birds/01/clipart.htm</dc:description><dc:source>http://openclipart.org/detail/1184/rooster-by-johnny_automatic</dc:source><dc:creator><cc:Agent><dc:title>johnny_automatic</dc:title></cc:Agent></dc:creator><dc:subject><rdf:Bag><rdf:li>animal</rdf:li><rdf:li>animal</rdf:li><rdf:li>bird</rdf:li><rdf:li>bird</rdf:li><rdf:li>chicken</rdf:li><rdf:li>chicken</rdf:li><rdf:li>clip art</rdf:li><rdf:li>clipart</rdf:li><rdf:li>externalsource</rdf:li><rdf:li>image</rdf:li><rdf:li>media</rdf:li><rdf:li>png</rdf:li><rdf:li>poultry</rdf:li><rdf:li>poultry</rdf:li><rdf:li>public domain</rdf:li><rdf:li>rooster</rdf:li><rdf:li>rooster</rdf:li><rdf:li>svg</rdf:li></rdf:Bag></dc:subject></cc:Work><cc:License rdf:about="http://creativecommons.org/licenses/publicdomain/"><cc:permits rdf:resource="http://creativecommons.org/ns#Reproduction"/><cc:permits rdf:resource="http://creativecommons.org/ns#Distribution"/><cc:permits rdf:resource="http://creativecommons.org/ns#DerivativeWorks"/></cc:License></rdf:RDF></metadata></svg>
