<?xml version="1.0" encoding="utf-8"?>
<!-- Generator: Adobe Illustrator 12.0.1, SVG Export Plug-In . SVG Version: 6.00 Build 51448)  -->
<!DOCTYPE svg PUBLIC "-//W3C//DTD SVG 1.1//EN" "http://www.w3.org/Graphics/SVG/1.1/DTD/svg11.dtd" [
<!ENTITY ns_svg "http://www.w3.org/2000/svg">
<!ENTITY ns_xlink "http://www.w3.org/1999/xlink">
]>
<svg xmlns="http://www.w3.org/2000/svg" xmlns:xlink="http://www.w3.org/1999/xlink" xmlns:svg="http://www.w3.org/2000/svg" xmlns:dc="http://purl.org/dc/elements/1.1/" xmlns:cc="http://web.resource.org/cc/" xmlns:rdf="http://www.w3.org/1999/02/22-rdf-syntax-ns#" version="1.1" id="Layer_1" width="367.654" height="427.612" viewBox="0 0 367.654 427.612" overflow="visible" enable-background="new 0 0 367.654 427.612" xml:space="preserve">
<g>
	<path fill-rule="evenodd" clip-rule="evenodd" d="M295.335,110.938c1.155,3.671-2.202,9.278-2.998,13.493   C291.067,120.644,294.703,115.315,295.335,110.938z"/>
	<path fill-rule="evenodd" clip-rule="evenodd" d="M310.327,119.933c2.084,1.651-0.104,5.342,0,7.496   C308.033,125.567,311.224,122.879,310.327,119.933z"/>
	<path fill-rule="evenodd" clip-rule="evenodd" d="M253.359,168.656c2.562,2.25-4.271,7.583-8.245,8.246   C248.071,174.362,251.889,172.683,253.359,168.656z"/>
	<path fill-rule="evenodd" clip-rule="evenodd" d="M246.613,182.148c5.147-3.098,8.966-7.525,11.243-13.493   C258.13,174.185,253.017,180.802,246.613,182.148z"/>
	<path fill-rule="evenodd" clip-rule="evenodd" d="M230.872,170.905c-3.353,2.395-9.621,1.873-14.992,2.249   C219.493,171.02,225.333,171.114,230.872,170.905z"/>
	<path fill-rule="evenodd" clip-rule="evenodd" d="M243.615,173.153c-1.011,2.238-3.186,3.311-5.997,3.748   C238.966,175.002,241.296,174.083,243.615,173.153z"/>
	<path fill-rule="evenodd" clip-rule="evenodd" d="M298.333,198.639c1.477,2.015-2.612,4.854-5.247,5.247   C294.083,201.384,297.472,201.275,298.333,198.639z"/>
	<path fill-rule="evenodd" clip-rule="evenodd" d="M220.377,406.274c2.505-1.476,6.089,2.384,7.496,4.497   C224.105,410.424,219.349,409.177,220.377,406.274z"/>
	<path fill-rule="evenodd" clip-rule="evenodd" d="M129.678,290.837c4.469,3.777,7.724,8.768,12.743,11.994   c-3.447-7.298-10.662-10.826-14.992-17.241c-0.649,2.174,2.465,7.012,2.998,10.494c-2.737-2.259-4.739-5.255-5.997-8.994   c-3.301,4.444-3,12.491-9.745,13.492c0.802-2.801-1.861-2.137-1.499-4.498c1.109-0.868,1.889-0.868,2.999,0   c-0.699-3.903,0.06-11.312,3.748-10.494c0-1.499,0-2.998,0-4.497c1.006,0.493,1.396,1.603,1.5,2.998   c2.334-2.194,2.025-4.611,1.499-8.245c-7.447,11.293-18.083,19.396-24.736,31.482c-1.312-1.605,2.063-4.9,2.999-6.746   c-0.852-1.755-2.507,1.92-2.999,2.998c-2.709-6.457,1.696-17.158,3.748-25.485c-3.357-0.326-6.73,8.877-11.993,6.746   c2.308-5.551,1.048-11.945,0.75-17.24c-3.144-0.275-0.535,2.441-0.75,3.748c-4.494-1.753-5.937-6.557-7.496-11.244   c-5.827,23.2-18.803,47.69-48.723,39.728c18.711-8.772,29.528-25.441,34.48-47.973c-2.31,0.677-3.487,0.108-2.998-5.247   c-6.027,7.466-8.28,18.704-19.489,20.988c3.345-2.902,6.831-5.663,8.995-9.745c-0.603,0.396-1.217,0.782-2.249,0.75   c2.416-6.829,3.951-14.539,5.997-21.738c0.729,0.021,0.582,0.918,0.75,1.499c2.488-2.64,1.195-4.403,5.247-5.247   c1.82-7.254,4.317-29.867,7.496-26.984c0.154-11.09,4.518-17.97,8.995-24.736c-3.056-0.042-6.428,6.054-7.496,10.494   c-1.512-3.085-3.797,1.526-5.247,2.998c0.677,2.046,1.677-2.28,2.999,0c-1.332,3.666-3.583,6.411-5.247,9.745   c0.225,2.27,3.153-2.64,3.748,0c-9.327,13.911-11.656,34.819-17.99,51.721c-1.343-5.103,3.167-10.816,2.999-17.24   c-1.89,1.025-3.079-0.77-1.5-4.497c-1.209-1.039-2.373-2.124-3.748-2.999c0.892,5.495,0.042,10.8-1.499,15.741   c-4.305-4.19-5.22-11.771-8.246-17.24c-5.7,5.093-20.72,14.37-27.734,4.498c1.189-1.965,1.801-3.119-0.75-4.498   c2.273-1.979,4.216,2.748,6.747,2.998c10.056-2.187,15.307-9.18,18.739-17.99c-5.799-9.803-6.822-33.289,0.75-41.977   c0-1.999,0-3.998,0-5.997c-5.766,1.264-5.173,8.254-6.746,11.993C24.653,193.602,14.387,208.694,0,215.879   c10.457-14.779,21.516-28.956,23.987-51.721c-4.986,1.511-15.054,7.59-11.244,17.99c-5.32-3.956-4.765-12.784-4.498-18.74   c5.606-4.922,12.394-6.633,16.491-14.242c1.49-1.249,0.953,0.068,2.999,0c0.3-5.947,2.903-9.59,5.997-12.743   c1.53,1.581-0.93,5.53,0,8.995c3.478-5.187,0.644-14.463-0.75-19.489c-1.466,6.28-5.682,9.81-11.244,11.994   c0.368,3.366-0.38,5.616-0.75,8.245c-1.655-0.093-0.318-3.18-0.75-4.498c-1.901,3.071-1.807-0.857-4.498,0.75   c3.843-10.213,10.797-16.431,13.493-29.233c2.254-0.755,1.328,1.67,1.499,2.998c2.715-19.549,6.688-39.747,20.988-50.222   C62.77,57.87,75.84,49.187,96.696,52.471c8.254,1.299,17.603,3.39,23.987,10.494c15.022,5.106,18.947,17.005,25.485,35.23   c4.339,12.093,10.4,21.51,12.743,31.482c2.076,8.835,6.714,15.978,8.245,24.736c25.873-9.607,55.141-15.82,78.706-27.735   c19.307-19.422,23.275-54.182,46.475-69.711c-5.896-14.481-34.387-36.978-13.493-53.22c2.119-0.62,1.942,1.056,3.748,0.75   c2.213-1.036,3.035-3.462,5.247-4.498c7.979,0.517,14.243,2.748,16.491,8.995c5.242-2.215,9.947,1.168,11.993,4.498   c1.597-2.651,6.09-2.405,10.494-2.249c2.034,3.962,4.96,7.033,5.997,11.993c16.154,0.689,15.814,24.088,16.49,42.727   c8.408,3.185,20.596,6.254,17.99,17.99c-5.366-0.51-11.967-1.354-15.741,2.249c1.696,3.755-1.029,8.339-2.249,9.745   c0.143,0.851,0.752,0.416,0.75,0c1.012,1.686,0.454,4.215,0,5.997c6.354,7.029,5.422,17.267,1.499,26.235   c-6.122,7.299-17.608,6.592-24.736,0.75c-3.481-12.812,0.265-21.524-0.749-34.481c-2.68,0.819-4.429,2.568-5.248,5.247   c2.865,0.616,0.884-3.614,3.748-2.998c-1.259,9.175-8.28,16.546-8.245,29.233c-2.104-3.133,0.384-8.089,0.75-11.244   c-3.181,7.242-4.576,14.311-3.748,18.74c-3.675-4.537-0.418-14.147,0-19.489c-2.664,3.589,0.072-4.756,0-5.997   c-1.896,0.602-1.912,3.085-2.999,4.498c-1.131-3.231,5.6-11.316,8.246-15.741c1.429,0.076-0.598,2.793-0.75,3.748   c1.896-0.602,1.912-3.085,2.998-4.497c-11.052,0.059-14.836-7.152-17.989-14.992c-1.786,1.712-4.297,2.699-6.746,3.748   c0.082,1.865,1.404,2.321,0,3.748c1.765,1.471,2.973-3.991,4.497-5.247c0.183,5.188-6.465,10.02-8.245,15.741   c1.504,0.255,2.345-0.153,2.248-1.499c-0.604,7.646-8.603,14.38-8.245,25.486c-1.122-1.459-1.277-6.274-1.499-0.75   c-1.735-3.012-0.26-9.235-0.75-13.493c-0.699,0.549-1.135,1.363-1.499,2.249c-2.149-1.614,0.463-7.029,1.499-11.244   c-8.92,15.815-8.905,40.567-23.236,50.972c3.139-4.612,9.117-12.866,11.243-20.988c-12.274,13.971-14.021,34.793-38.229,37.479   c2.17-5.418-5.602-0.895-5.247-4.498c14.802-0.439,18.419-12.064,26.985-18.739c0.514,5.722-9.809,12.348-14.992,17.24   c13.22-1.54,17.861-15.198,22.487-22.487c-1.083-2.216-1.576,2.334-2.248,2.998c2.019-11.226,7.67-25.31,13.492-35.23   c-9.466,5.028-10.034,25.444-16.491,35.979c-0.436-4.444,3.954-10.53,4.498-16.491c-2.78,4.216-3.869,10.123-5.997,14.992   c1.791-15.451,12.145-28.832,18.74-41.977c-0.678-0.828-1.677-0.519-2.999,0c0.143,0.851,0.752,0.416,0.75,0   c-3.776,10.234-15.704,26.749-19.489,34.481c13.29-25.938,23.265-55.192,53.221-64.464c-15.023-0.279-22.763,13.216-30.733,22.488   c1.08-4.674,7.804-10.182,11.244-14.992c-14.033,10.483-16.381,24.169-26.235,39.728c-0.049,0.077-4.295,4.92-2.999,1.5   c-1.068,1.43-1.742,3.254-2.248,5.247c1.006-0.493,1.396-1.603,1.499-2.999c1.368,3.636-3.497,7.483-3.748,11.993   c-2.199-0.637,0.975-1.886,0-3.748c-2.853,1.023-2.677,11.24-1.499,6.746c-0.607,2.318-2,4.35-5.247,8.246   c3.334-1.414,3.705-5.79,8.245-5.997c-5.762,9.73-14.11,16.873-26.235,20.239c10.536-0.211,19.071-8.911,24.736-16.491   c-3.04,16.2-25.609,19.365-41.977,24.736c-2.323-2.861,4.505-2.962,6.746-3.748c-0.094-1.655-3.18-0.318-4.497-0.75   c-10.022,9.082-29.524,8.801-34.481,20.988c4.282-4.217,12.683-10.8,22.488-11.993c-2.189,3.308-6.948,4.046-9.745,6.746   c0.843,1.975,2.905-1.006,3.748-1.499c-0.392,2.372-4.788,7.193-8.995,8.245c0.021,0.729,0.917,0.582,1.499,0.75   c-6.171,6.822-11.01,14.975-14.991,23.987c-4.069-4.179-5.215,8.647-5.997,12.743c-3.477,18.226-15.46,48.668,0,64.464   c-6.529-10.445-7.539-28.149-4.497-41.977c5.791,3.385-1.039,11.353,0.75,17.99c2.004-13.237,7.581-22.902,11.244-34.48   c1.43-0.319,1.356-2.142,3.748-1.499c2.228-5.018,2.182-12.31,6.746-14.992c-1.939,5.557-4.412,10.58-5.247,17.24   c3.115-5.88,4.549-13.441,7.496-19.489c1.425,3.744-2.231,9.2,0,14.242c2.887-7.856,4.506-16.982,7.496-24.736   c4.461,8.675-10.07,23.139-2.998,36.73c0.346-11.812,3.903-30.929,14.992-36.73c0.041,3.54-2.881,4.116-3.748,6.746   c4.512-2.734,6.08-8.411,12.742-8.995c0.608,9.626,8.854,21.888,19.489,27.734c1.282,0.033,1.941-0.558,2.249-1.499   c1.526,0.223,1.997,1.501,2.998,2.249c7.75-4.243,17.438-6.549,24.736-11.244c-0.17-0.955-2.237-0.982-2.249,0   c0.507-4.539,5.79-5.725,8.995-8.995c7.236-7.382,11.229-19.053,17.24-27.734c0.354-7.892,4.692-11.799,7.496-17.24   c-6.046,17.941-14.367,40.102-29.233,51.721c11.328-8.161,18.646-20.332,23.986-34.48c-3.649,16.341-15.344,31.129-29.233,39.728   c1.953,3.829-1.479,6.399-2.998,8.995c11.437-2.834,14.642-19.429,29.233-20.988c1.3,2.231-0.243,3.803,0.749,5.247   c2.282,0.283,1.273-2.725,2.999-2.998c-0.138,7.384,3.439,11.053,6.746,14.991c1.763-0.235,0.444-3.553,2.998-2.998   c0.523,3.271-2.164,3.333-2.249,5.997c3.277-2.727,9.634-8.852,12.743-14.243c-4.462,0.648-5.854,3.572-7.495,5.247   c0.872-2.959,5.126-6.779,7.495-10.494c-4.836,3.3-7.3,6.613-12.743,11.994c-2.459-3.503,2.658-4.548,4.498-6.747   c4.404-5.263,7.798-12.705,10.494-19.489c0.604,3.44-4.726,13.7-8.245,17.99c4.081-4.414,8.336-8.654,8.995-16.491   c2.836,0.495,1.113-5.543,3.747-2.999c-1.744-3.358,3.663-4.998,2.249-11.993c-1.362,0.886-0.589,3.908-1.499,5.247   c-0.773-5.717,0.99-16.465-2.249-21.738c0.954-1.624,2.737,2.201,2.249,4.498c1.977-5.985-3.356-11.127-3.748-17.241   c3.813,5.432,5.618,12.872,6.746,20.988c-4.438-3.41,1.019,10.995-0.749,16.491c2.466-3.031,2.194-8.799,2.248-14.242   c-0.878,0.121-0.632,1.367-0.749,2.249c3.06-11.828-7.211-20.54-5.997-35.23c2.232,14.009,8.281,24.201,8.995,39.728   c2.464-16.208-8.447-25.532-6.746-43.476c-3.312,3.349-0.323-6.685,0.749-8.246c1.755,0.192,0.433,3.293,0,3.748   c1.699-0.8,2.725-2.273,2.999-4.498c1.836,3.575-2.469,6.193-2.999,10.494c-0.827,6.724,2.464,13.743,3.748,19.489   c0.206-6.363-3.874-19.388,0.75-26.235c1.783,1.452,1.797,7.098-0.75,8.245c1.646,4.18,3.279,11.255,2.999,14.992   c0.658,0.847,2.376-0.18,0.749,2.249c1.439-0.202,1.356,1.678,2.249,3.748c-3.291,4.843,3.146,16.105,4.497,26.235   c1.972,14.783-3.549,25.537-5.247,37.479c-23.789,29.68-56.213,50.728-95.196,65.214c3.287,4.163,6.724,8.87,11.993,8.994   c6.282,3.763,6.521,11.295,10.494,19.489c3.794,7.826,8.592,10.394,4.497,21.738c-1.76,0.239-2.813,1.185-5.247,0.75   c1.962-4.101,2.548-13.908-1.499-16.491c0.985,5.795-2.698,12.565-7.496,14.991c-1.726-7.64,4.186-15.114-0.749-22.487   c-1.195,3.552-1.945,7.55-2.249,11.993c-3.351,0.626-7.299,3.882-9.744,2.999c1.032-0.967,0.741-3.256,0.749-5.247   c1.753-0.247,3.097-0.901,4.498-1.5c2.104-7.211-2.226-12.775-0.75-19.488c-1.701-0.687-4.687,5.529-8.245,1.499   c-0.298-4.15,4.099,0.277,5.247-2.999c-1.969-3.527-5.491-5.502-8.245-8.245c-10.853,5.966-23.341,19.965-14.992,35.98   c0.82,3.318-1.27,3.728-1.499,5.996c5.055,19.183,5.836,42.638,11.993,60.717c1.737,3.01,5.534,3.961,8.245,5.996   c7.531-1.389,19.929-9.853,22.488,0.75c-5.373-1.919-10.055,0.771-14.242,2.248c12.182,3.366,25.143,3.284,30.732,14.242   c-7.276,0.53-10.632-2.86-14.242-5.996c-7.147,2.046-16.473,0.059-22.487-1.499c1.894,2.161,4.913,4.938,7.496,2.248   c-1.069,3.307,6.544,3.776,9.744,5.247c0.053,2.946,0.363,5.635,1.499,7.496c-1.84,3.399-3.614-2.087-5.247-2.998   c-0.925-0.517-2.883,0.334-3.747,0c-6.618-2.562-15.123-8.345-22.488-8.246c-3.937,0.053-10.458,4.646-16.49,5.247   c-3.84,0.384-6.239-0.463-8.995,1.5c0.008-1.991-0.283-4.281,0.75-5.247c-1.6-0.351-1.428,1.07-1.5,2.248   c-2.996-7.797,17.146-4.621,18.74-12.742c-3.313-21.174-9.416-39.557-14.242-59.218c0.021-0.729,0.917-0.581,1.499-0.749   c-2.159-5.088-1.668-12.824-8.246-13.493c-4.829-7.821-5.667-21.378-8.995-28.483c0.603-3.145,2.635-4.861,2.998-8.246   c-3.1-0.557-10.243,0.868-11.993-2.998c-0.095,1.345,0.917,1.581,0.75,2.998c-3.032-0.965-4.526-3.469-6.746-5.247   c-0.999,1.293,2.641,4.323,3.748,5.997c-1.609,0.826-4.309-3.661-5.247-5.997c-1.571,4.585,4.201,8.281,5.247,12.743   c-7.265-5.978-11.149-15.335-17.24-22.487c3.18,6.065,5.762,12.729,10.494,17.24c-2.114,0.59-5.354-4.122-6.746-6.746   c0.385,6.117,9.24,10.244,11.993,16.491c-1.504-0.256-2.345,0.153-2.249,1.499c-7.982-5.761-14.667-12.818-20.239-20.988   c4.199,2.054,8.883,10.102,14.242,13.492c-7.205-9.538-19.148-20.829-23.987-35.23c0.607,0.143,0.747,0.752,1.499,0.75   c-1.54-5.706-4.185-10.307-5.247-16.491c-3.414,13.682,8.207,23.607,11.994,35.98c1.288,4.207,5.542,6.347,6.746,8.994   c0.788,1.734-0.354,4.493,0,5.247c1.589,3.389,4.799,6.287,6.746,8.246c-6.176,1.669-8.308-7.177-14.242-8.246   c-0.422,2.938,3.631,7.851,7.496,8.995c-1.312,2.008-7.58-4.514-7.496-1.499C141.071,302.431,133.787,298.223,129.678,290.837z    M292.337,92.199c0.453-2.795,3.445-3.051,3.748-5.997C294.059,86.958,291.129,90.697,292.337,92.199z M260.855,113.937   c11.687-23.043,22.982-46.479,51.721-52.471c0.528-3.222-3.899-2.438-4.497-0.75c1.089,0.41,3.874-0.876,3.748,0.75   C283.987,66.103,267.227,92.566,260.855,113.937z M313.326,59.217c-16.569-4.055-31.636,10.325-36.729,20.239   c0.775-1.032,2.972-4.444,3.748-2.998c-2.767,3.988-9.396,8.083-8.995,12.743c8.499-11.989,18.274-22.703,33.731-27.734   c-7.727-1.684-18.982,9.966-23.987,13.492C288.088,66.44,298.707,57.62,313.326,59.217z M143.17,302.832   c1.065,0.504,2.315,4.585,3.748,2.248C145.853,304.576,144.603,300.495,143.17,302.832z M317.074,40.478   c1.398,1.502-0.02-5.548-1.499-5.997C315.374,37.18,316.958,38.093,317.074,40.478z M323.82,47.973   c-0.908-2.84-1.451-6.045-2.999-8.245C321.542,42.755,321.446,46.599,323.82,47.973z M305.83,55.469   c6.327-0.179,0.812,0.689,1.499,1.499c2.034-0.464,5.949,0.952,6.746-0.75c-2.187,0.209-2.576-0.181-1.499-1.5   C310.771,54.963,304.008,54.08,305.83,55.469z M106.441,65.214c9.321,3.072,20.648,16.553,25.486,23.986   c2.111,3.244,4.378,7.766,2.998,3.748c-1.013-2.951-7.635-11.198-8.995-16.491c-1.375-0.875-2.538-1.959-3.748-2.999   c-1.374-3.873-4.232-6.262-5.247-10.494c-3.921-1.356,4.267,6.021,1.499,8.246c-1.507-6.738-6.947-9.544-9.745-14.992   c-2.525,2.659,8.811,8.077,5.997,13.492c-2.465-5.286-6.028-13.453-11.993-12.743c0.667,0.439,4.275,1.575,2.249,2.249   c-2.945-0.329-5.814-4.646-8.246-2.998C100.775,58.005,107.294,60.95,106.441,65.214z M94.448,58.467   c-0.014,0.26,0.141,2.266-0.75,3.748c-8.868-1.116-17.625,1.856-22.487,2.249c2.153-3.344,8.312-2.682,11.993-4.497   c-6.336-1.593-10.038,1.667-15.741,2.249c1.565,3.183,4.878,4.617,5.997,8.246c8.227-6.091,22.06-7.153,30.733-5.247   c-1.52-0.289-5.224-2.192-3.748-2.999c1.596,0.453,4.773,3.155,5.997,1.499C104.258,60.638,97.179,58.5,94.448,58.467z    M291.587,62.215c1.724-2.524,5.443-3.052,7.496-5.247C295.836,57.49,290.878,60.229,291.587,62.215z M334.314,62.965   c-1.086-1.45-5.225-3.721-7.496-1.499C316.727,69.694,338.046,78.74,334.314,62.965z M125.18,74.208   c-2.488-4.008-4.027-8.965-7.496-11.993C120.071,66.325,121.225,71.668,125.18,74.208z M281.093,69.711   c3.335-2.162,6.387-4.607,8.995-7.496C286.118,63.742,282.958,66.079,281.093,69.711z M65.214,67.462   c-3.026-0.708-1.589-3.647-3.748-3.748c-0.52,2.261-5.834,3.617-4.498,5.247C59.29,65.113,63.386,67.276,65.214,67.462z    M304.331,65.214c1.703-0.546,5.848,1.35,5.247-1.5C307.621,64.006,305.465,64.099,304.331,65.214z M308.079,65.963   C298.935,66.241,305.688,69.229,308.079,65.963L308.079,65.963z M63.715,95.197c-5.309,6.185-4.94,18.047-11.994,22.488   c-6.306-13.977,7.226-25.653,5.997-43.476c1.749,0,3.498,0,5.247,0c0.362-2.361-2.3-1.697-1.499-4.498   c1.122-0.014,3.066,2.785,3.748,0.75c-1.728-0.771-2.417-2.581-5.247-2.249c-0.577,2.242-4.453,6.134-8.246,7.496   c-9.363,14.261-1.833,40.983-5.247,57.718c4.962-5.822,7.534-10.673,15.741-15.741c-0.329-10.073,6.878-12.611,8.995-20.239   c-7.307,1.438-5.741,11.749-11.244,14.992C60.879,108.203,65.78,101.878,63.715,95.197z M297.584,74.208   c1.943-0.837,8.184-1.267,5.996-3.748C302.001,72.13,297.73,71.106,297.584,74.208z M345.557,71.21   c-0.453,1.795-1.077,3.419-0.749,5.997c9.837-0.842,17.188,0.801,21.737,5.247C363.148,70.894,356.763,71.304,345.557,71.21z    M106.441,83.204c-3.271-3.234-7.038-9.941-12.743-8.246C99.804,75.175,101.903,82.476,106.441,83.204z M282.592,99.694   c3.982-9.01,10.911-15.074,17.99-20.988c0.112,0.999-3.048,2.262-0.75,2.999c2.792-0.706,2.021-4.976,2.999-7.496   c-3.363-0.089-8.191,2.269-7.496,3.748c-0.536-1.215,3.535-1.215,2.998,0c-6.79,2.205-10.947,7.043-14.242,12.743   c2.193,0.623,2.433-4.468,3.748-2.249C287.057,92.678,280.828,95.414,282.592,99.694z M44.226,80.955   c0.493-1.556,4.297-3.631,2.249-5.247C46.307,77.589,42.675,79.836,44.226,80.955z M60.716,80.205   c0.666-1.583,2.282-2.215,2.249-4.497c-1.249,0-2.499,0-3.748,0C59.062,77.862,59.407,79.516,60.716,80.205z M91.449,79.456   c-1.887-0.649-3.918-5.026-5.997-2.998C88.039,76.407,89.415,81.44,91.449,79.456z M125.93,83.204   c-1.804-1.883-6.918-7.814-6.747-6.746C121.403,78.254,123.805,83.805,125.93,83.204z M135.674,88.451   c-1.411-5.612-1.683-9.954-4.497-12.743C132.882,79.75,132.86,85.518,135.674,88.451z M74.209,83.204   c3.223-1.274,7.124-1.871,9.744-3.748c-1.971,0.222-0.59-2.908-2.998-2.249C80.211,80.71,75.368,80.115,74.209,83.204z    M110.189,84.703c-0.932-3.084-4.164-7.805-6.747-6.746C106.684,79.213,107.561,82.833,110.189,84.703z M339.561,86.952   c5.123-7.817,16.879-4.304,23.236-5.247c-6.635-3.547-14.485-0.802-21.737-2.249C340.013,81.664,336.736,85.249,339.561,86.952z    M41.227,93.698c2.429,0.319,0.457,5.04,2.999,5.247c-1.004-6.263,1.59-12.886,1.499-15.741   C43.998,86.475,42.095,89.569,41.227,93.698z M118.434,89.2c-1.889-1.359-2.131-4.366-4.498-5.247   C113.819,86.852,116.259,91.082,118.434,89.2z M81.705,86.952c4.771-1.076,8.891,0.801,15.741,0   C93.705,85.807,84.972,83.842,81.705,86.952z M113.187,93.698c-4.566-1.689-10.1-6.379-14.992-5.247   C103.456,89.445,108.888,94.237,113.187,93.698z M347.806,95.947c-0.719-3.5,3.562-5.889,2.249-7.496   C349.17,90.347,345.599,93.446,347.806,95.947z M65.963,95.197c1.498-1.037,6.572-2.373,4.498-4.498   C69.499,92.736,66.622,92.857,65.963,95.197z M130.427,100.444c-2.311-2.451-4.307-9.166-6.746-8.995   C125.564,94.327,127.896,100.708,130.427,100.444z M123.681,101.194c-3.441-0.246-7.343-7.39-8.995-4.498   C118.12,97.216,121.478,104.258,123.681,101.194z M89.2,102.693c-0.361-2.61,1.879-2.619,2.999-3.748   c-3.628-1.619-10.149-0.345-14.992-0.75C78.913,101.987,86.787,99.609,89.2,102.693z M143.92,114.686   c-1.518-5.062-5.95-14.926-6.746-15.741C138.798,104.323,141.247,112.852,143.92,114.686z M128.928,114.686   c-6.384-5.862-14.857-13.623-23.237-14.992C113.429,104.202,122.539,111.328,128.928,114.686z M289.338,107.19   c0.502-3.247,3.47-4.027,3.748-7.496C290.735,100.616,288.377,105.445,289.338,107.19z M101.194,103.442   c2.744,1.003,2.639,4.856,5.997,5.247c0-1.499,0-2.999,0-4.498c-3.864-1.146-9.092-4.883-13.493-2.998   C96.644,102.732,97.778,106.219,101.194,103.442z M135.674,115.436c-4.021-1.16-6.661-14.809-8.245-8.995   c-0.593-1.606-2.722-5.502-3.748-2.249C128.912,106.214,131.51,114.844,135.674,115.436z M88.451,113.187   c-2.139-4.438-8.11-4.112-7.496-8.995c-3.765,0.492-6.05-0.942-8.246,0c-0.84,2.361-0.067,1.697,0,4.498   c5.497-0.736,8.509,4.964,11.244,4.498c-1.793-2.204-5.33-2.666-5.997-5.997C82.421,107.735,84.968,114.153,88.451,113.187z    M87.701,109.439c8.259,0.493,17.305,10.674,23.987,12.743c-3.999-3.624-2.836-9.016-7.496-12.743   c-1.083,1.415-1.674,3.323-4.497,2.999c-1.55-2.699-1.179-7.317-4.498-8.246c-0.758,1.99-1.232,4.265-3.748,4.498   c-0.565-3.7-6.263-6.208-9.745-4.498C83.837,105.984,88.272,107.152,87.701,109.439z M336.563,110.938   c-0.244-1.805,0.639-8.567-0.75-6.746C336.057,105.997,335.173,112.76,336.563,110.938z M65.963,114.686   c0.702-3.296,6.185-1.811,5.247-6.746C67.734,107.687,65.25,115.662,65.963,114.686z M341.809,118.434   c-0.344-2.683,0.785-10.741-0.749-9.745C341.405,111.372,340.276,119.43,341.809,118.434z M264.603,139.422   c4.689-8.056,9.723-19.757,9.744-29.983C271.685,119.522,266.438,131.01,264.603,139.422z M100.444,117.685   c-2.312-0.961-4.653-5.808-7.496-3.748C94.412,115.746,97.778,119.567,100.444,117.685z M68.212,118.434   c2.107-1.481,6.15,0.236,8.246-2.249c-2.307,0.559-1.44-2.057-3.748-1.499C70.506,114.774,66.977,117.391,68.212,118.434z    M126.68,133.426c-0.716-1.093-3.403-4.013-2.249-4.498c2.07,0.179,1.71,2.787,2.999,3.748c1.438-1.813-0.834-4.716-2.249-5.997   c-3.437,4.677-3.583-6.222-6.746-6.746c-1.05,3.772-4.602-1.514-4.498-3.748c-1.396,0.103-2.505,0.493-2.998,1.5   C117.581,121.767,121.902,129.096,126.68,133.426z M129.678,131.926c3.298,3.948,5.943,8.55,9.745,11.994   c-1.835-7.409-5.967-12.522-9.745-17.99c0.377,4.371,3.408,6.087,4.498,9.745C132.083,135.474,131.688,129.725,129.678,131.926z    M245.863,133.426c0.14-1.11,1.812-0.688,2.999-0.75c-2.212-1.977,2.958-6.021,0.749-5.247   C249.35,129.949,243.503,130.772,245.863,133.426z M53.97,135.674c2.756-0.492,3.733-2.763,5.247-4.498   C56.461,131.669,55.484,133.94,53.97,135.674z M65.214,138.673c9.095-7.131,27.89-6.151,38.978-3.748   C94.758,128.633,66.062,130.93,65.214,138.673z M38.979,149.167c-0.118-0.882,0.129-2.128-0.75-2.249   c-2.98,7.289-3.341,9.211-2.249,17.99c-1.768,1.486,0.069,1.487,0.75,0c0-2.249,0-4.498,0-6.747   c3.868-6.38,8.081-16.4,8.246-23.986C43.548,140.7,40.103,144.058,38.979,149.167z M229.373,138.673   c1.973-1.775,5.967-1.529,7.495-3.748C234.118,135.448,228.437,136.954,229.373,138.673z M109.439,140.921   c-4.853-2.643-10.993-3.999-17.24-5.247C95.759,139.117,105.769,140.084,109.439,140.921z M150.666,146.168   c-1.435-2.961-5.929-10.358-5.997-9.745C145.729,140.612,147.463,144.124,150.666,146.168z M219.627,152.165   c10.33-2.166,20.735-8.245,24.736-14.242C237.32,143.872,227.138,146.683,219.627,152.165z M48.723,164.159   c2.944-9.88,18.21-17.917,27.734-19.489c18.021-2.976,34.499,7.908,46.474,11.993c-13.256-8.165-26.165-21.83-47.973-17.99   c-13.599,2.395-18.592,14.819-29.234,20.988c-0.273-5.021,3.381-6.114,4.498-9.745c-0.554-1.195-3.669,0.171-2.999-2.249   c2.124-0.125,3.124-1.374,5.247-1.499c-1.099-4.833-2.886-2.383,0-6.746c-7.663,7.903-14.294,18.871-13.492,32.981   c4.022-0.618-1.329-5.95,2.249-6.746c1.23,2.018,0.376,6.12,2.999,6.746c0.659-3.838-0.268-9.262,2.249-11.244   c0.502,6.945-2.921,21.729,1.5,28.484C48.921,179.595,46.58,171.349,48.723,164.159z M119.184,143.92   c-2.258-1.758-6.682-5.287-8.995-4.498C112.774,140.853,116.887,144.693,119.184,143.92z M189.645,150.666   c13.075-3.416,28.79-4.191,38.978-10.494C216.48,144.52,201.108,145.639,189.645,150.666z M130.427,156.663   c-1.562-5.192-6.868-10.611-10.494-11.244C124.663,147.935,126.385,153.459,130.427,156.663z M214.38,160.411   c11.407-2.338,24.235-7.245,28.484-14.242C235.765,153.311,223.449,155.236,214.38,160.411z M137.923,149.167   c2.102,3.904,5.276,10.702,8.245,11.244C143.487,156.596,141.179,152.407,137.923,149.167z M180.649,157.412   c5.909-4.835,16.929-4.559,23.987-8.245C196.162,150.94,183.068,152.081,180.649,157.412z M174.653,167.906   c6.561-9.68,21.275-11.207,32.232-16.491C193.128,153.402,177.64,157.648,174.653,167.906z M76.458,155.913   c-2.674-0.824-3.808-3.188-6.746-3.748C70.585,154.318,75.02,156.812,76.458,155.913z M64.464,159.661   c2.361,0.362,1.697-2.301,4.498-1.5c0.281-3.28-2.393-3.604-4.498-4.497C62.052,155.558,63.866,157.013,64.464,159.661z    M211.382,156.663c0.341,1.121,9.965-0.868,11.993-2.998C218.649,153.935,215.542,155.826,211.382,156.663z M105.691,158.912   c-4.978-0.531-12.686-2.292-15.741-2.249C93.594,158.527,100.61,160.979,105.691,158.912z M170.905,164.908   c2.042-2.956,5.136-4.859,6.746-8.246C174.077,157.602,169.904,161.888,170.905,164.908z M88.451,158.912   c-1.766,0.017-2.207-1.292-4.498-0.75C83.507,161.466,87.117,159.865,88.451,158.912z M50.972,207.634   c4.128-21.196,13.438-38.163,32.232-46.474c0.041-1.29-0.577-1.921-1.499-2.249C59.237,162.431,51.968,185.143,50.972,207.634z    M194.891,166.407c4.033-0.215,7.129-1.366,8.995-3.748C200.596,163.617,197.138,164.406,194.891,166.407z M145.419,188.145   c-3.433,6.741-2.977,17.251-4.498,23.987c-0.185-4.925-1.587-5.268-2.249-10.494c-5.322,7.92-6.762,19.723-9.745,29.983   c-1.116-16.608,5.71-29.268,6.746-41.227c-8.286,14.63-13.877,42.958-12.743,61.466c-0.423-3.421,1.329-4.669,0.75-8.246   c2.045-0.067,1.509,1.249,2.999,0c0.483-3.264-0.978-8.473,0.75-10.494c3.154,1.844,2.784,7.21,5.247,9.745   c0.729-4.651-4.086-11.168,0-14.242c0.048,4.949,0.307,9.688,2.249,12.743c3.903-3.984,2.415-17.319,8.246-23.237   c-0.015,4.723,0,1.26,2.998,1.499c-8.095,21.317-5.176,49.733,6.747,64.464c-4.137-12.991-9.907-31.881-7.496-46.474   c2.528,8.469,1.549,24.433,8.246,26.235c-0.941-3.075-2.581-9.389-0.75-12.743c3.342,4.903,1.165,15.326,5.247,19.489   c-2.252-8.201-4.802-21.103-0.75-29.233c1.8,0.948-0.414,5.91,1.499,6.746c2.404-30.578,16.33-53.631,29.983-70.461   c-8.247,4.383-12.984,16.377-20.239,23.987c0.405-3.611,4.589-7.38,3.748-9.745c-1.718,3.79-5.66,9.316-5.247,12.743   c0.8-0.699,0.233-2.765,2.249-2.249c-0.984,3.513-2.372,6.623-4.498,8.995c-0.133-2.236,2.881-4.588,0-5.247   c-2.814,8.179-3.662,18.325-5.997,26.984c0.503-26.683,12.239-48.08,25.486-64.464c-9.975,2.758-10.657,13.492-17.241,20.988   c0.43-5.078,6.966-8.011,5.247-12.743c-9.001,12.237-14.429,28.047-19.489,44.225c0.236-16.259,6.614-32.179,11.993-45.724   c-5.607,3.919-9.075,22.884-13.493,32.981c0.813-10.437,7.262-22.777,10.494-33.731c-5.354,5.888-5.866,17.155-9.744,22.487   c0.219-0.46,1.864-2.886,0-2.999c-1.612,4.885-2.185,10.808-4.498,14.992c0.334-7.661,1.438-14.554,4.498-19.489   c0.167,0.582,0.021,1.479,0.75,1.5c3.315-8.182,8.592-18.389,10.494-25.486c-6.904,7.338-13.216,15.268-17.241,25.486   C144.389,190.525,147.199,186.295,145.419,188.145z M162.66,173.903c0.767-1.785,5.868-6.206,2.998-6.746   C165.714,169.994,160.729,171.679,162.66,173.903z M173.154,173.153c0.471-2.064,5.131-3.813,3.748-5.247   C176.321,169.862,170.939,170.889,173.154,173.153z M153.665,173.153c0.775-1.973,2.972-2.524,3.748-4.498   C154.639,168.174,152.794,172.475,153.665,173.153z M180.649,175.402c2.265-1.688,9.369-4.985,6.746-6.747   C185.352,171.11,182.671,172.927,180.649,175.402z M75.708,176.901c2.238-2.259,4.759-4.236,6.746-6.746   C78.279,169.996,73.945,173.614,75.708,176.901z M80.206,179.9c2.305-3.441,5.77-5.725,7.496-9.745   C82.019,171.357,81.4,177.525,80.206,179.9z M90.7,175.402c1.225-3.022,7.148-1.347,8.245-4.498   C95.492,171.22,89.366,172.792,90.7,175.402z M145.419,177.651c0.188-1.551,3.754-6.058,1.5-5.247   C147.358,175.16,141.718,176.137,145.419,177.651z M91.449,176.901c-0.906,0.159-0.461,0.832,0,1.499   c-20.005,4.731-11.146,38.328-22.487,51.721c0.383,3.132-0.418,5.079-1.5,6.746c1.998,0.751,2.472,3.025,3.748,4.498   c-0.822,0.748-2.813,4.087-0.75,5.247c4.981-13.477,5.324-34.155,14.992-44.975c-10.108-4.695-0.726-25.044,7.496-20.239   c-2.804,4.192-3.935,10.057-3.748,17.24c3.18-1.317,5.429-3.566,6.747-6.746c-1.826-0.423-3.856-0.642-3.748-2.999   c3.32-2.61,6.781-5.665,7.496-4.498c0.222-1.971-2.908-0.59-2.249-2.998c1.787-1.566,3.304,1.681,5.247,2.249   c-0.305-2.657-3.278-1.48-1.499-4.498c1.712,0.337,3.787,4.142,5.247,2.249c-0.829-0.507-3.889-2.491-2.249-2.999   c2.485-0.676,3.252,4.165,4.498,2.249c-1.047-0.523-3.488-3.413-2.249-3.748c3.672-0.646,4.951,5.005,7.496,2.999   c-2.563-0.71-5.753-4.707-5.247-5.997c2.563,0.211,5.326,5.559,6.747,2.249C111.517,167.8,92.972,178.63,91.449,176.901z    M325.319,196.391c-1.112,3.439-4.742,10.164-2.249,9.745c1.236-5.459,9.432-20.405,6.746-32.232   C329.453,182.902,327.441,189.827,325.319,196.391z M329.067,193.392c-2.004,2.509-3.931,9.042-3.748,11.244   C327.644,202.448,331.431,197.775,329.067,193.392z M163.409,185.147c0.525-3.739,4.804-7.667,4.498-9.745   C165.917,177.678,162.271,182.237,163.409,185.147z M72.709,177.651c-3.294,0.697-3.218,4.713-4.498,6.746   c-1.926,3.06-6.835,8.606-3.748,5.247c0.658-0.716,2.583-2.627,5.247-5.997c0.989,1.876-2.964,2.347-0.75,2.999   c2.26-3.237,5.393-5.601,7.496-8.995C74.107,177.657,71.115,182.135,72.709,177.651z M56.219,215.13   c-0.679-5.176,1.795-7.2,1.499-11.993c-9.664,4.328-9.175,18.809-16.491,25.486c1.039,0.46,0.113,2.886,1.499,2.998   c-0.561-3.466,0.845-3.061,2.999-2.248c0.58-1.915-2.933-3.446-0.75-4.498c3.429,0.493,7.032,8.221,8.995,5.247   c-2.015-2.483-5.543-3.452-6.747-6.746c-0.509-3.926,3.77-3.891,2.999-5.997c2.694,1.054,3.187,4.31,5.997,5.247   c2.755-11.739,8.393-24.585,10.494-34.48C61.078,195.003,60.681,207.1,56.219,215.13z M44.226,207.634   c-0.844-8.651,1.783-20.772-1.5-26.985C43.36,190.854,41.71,200.65,44.226,207.634z M140.172,185.147   c-0.579-1.915,2.933-3.446,0.75-4.498C140.291,182.122,137.198,184.396,140.172,185.147z M116.935,185.147   c-1.863-0.429-4.23-4.208-5.247-2.999C113.84,182.288,114.332,187.942,116.935,185.147z M96.696,188.145c0,1,0,1.999,0,2.999   c2.602-0.646,4.159-2.337,5.997-3.748C100.959,185.751,100.209,189.317,96.696,188.145z M93.698,199.389   c-4.632,13.15-17.153,26.265-14.992,41.227c1.047-2.154-2.042-3.808,0-4.497c2.485,0.514,0.279,5.717,2.999,5.996   c-0.187-6.936,1.321-14.806,4.498-23.986c4.88-14.107,20.567-30.408,34.481-26.985C110.696,183.316,97.709,194.7,93.698,199.389z    M321.571,200.888c0.686-2.589,4.609-5.851,2.249-8.995C323.802,195.149,320.557,199.09,321.571,200.888z M314.825,208.384   c1.14-2.876,4.772-7.196,3.748-9.745C317.815,201.898,314.033,206.068,314.825,208.384z M206.135,210.632   c-0.195-2.194,1.694-2.303,1.499-4.497c1.483-1.543,6.077-3.879,4.498-5.997C206.954,202.911,194.2,226.655,206.135,210.632z    M319.322,209.133c0.168-0.582,0.021-1.479,0.75-1.499c0.168,0.582,0.021,1.479,0.749,1.499c-2.024-2.28,1.167-5.113,0-5.997   C320.116,204.48,317.06,207.304,319.322,209.133z M94.448,224.875c2.52-5.731,6.098-14.383,5.247-20.988   C94.918,209.25,86.555,217.239,94.448,224.875z M194.891,232.371c-0.177-8.429,4.198-16.284,4.498-21.738   C197.227,216.378,190.979,225.487,194.891,232.371z M245.114,230.872c4.104-3.648,12.324-7.156,11.993-12.743   C254.751,223.525,246.483,226.985,245.114,230.872z M293.836,223.375c0.01-1.489,2.045-0.953,1.499-2.998   c-2.426,0.926-0.573-2.426-2.998-1.499C293.022,220.192,292.595,222.618,293.836,223.375z M141.671,228.623   c-0.937-2.985,2.648-5.279,0.75-6.746C141.687,223.071,139.928,229.78,141.671,228.623z M85.453,238.367   c4.503,4.64,8.03,10.252,8.995,16.491c-1.174-11.126,10.046-20.297,3.748-29.233c-3.587,5.157-4.749,12.74-6.746,19.489   c-3.83-8.988,5.661-19.505-2.999-22.488C88.104,228.525,86.794,233.462,85.453,238.367z M195.641,233.12   c2.112-0.44,3.359-8.715,2.249-7.495C197.427,228.41,196.104,230.334,195.641,233.12z M200.888,233.87   c0.351-2.648,1.894-4.104,2.998-5.997c-1.474,0.225-1.486-1.012-2.248-1.499C201.42,228.448,198.567,231.741,200.888,233.87z    M205.385,232.371c-0.101-3.128,5.829-4.128,4.498-5.997C208.595,228.113,203.665,230.112,205.385,232.371z M300.583,227.873   c0.101,4.051,3.04,0.84,3.748-0.749C302.525,226.817,302.702,228.493,300.583,227.873z M55.469,234.62   c-0.131-2.181,2.633-5.296,0.75-6.747C56.375,230.079,53.256,232.839,55.469,234.62z M295.335,230.872   c-1.935-0.065-0.789-3.209-3.748-2.249C291.15,230.63,294.67,232.44,295.335,230.872z M174.653,238.367   c-0.093-2.645,3.167-8.907,1.499-8.245C175.395,232.145,172.523,235.944,174.653,238.367z M29.983,232.371   c1.563,1.267,6.305-0.608,4.498-2.249c-0.113,1.864-2.538,0.22-2.999,0C31.303,231.192,30.248,231.386,29.983,232.371z    M106.441,240.616c0.144-3.377,3.337-7.626,1.499-10.494C105.89,231.592,104.532,237.677,106.441,240.616z M214.38,233.87   c-7.823,4.604-13.325,21.983,0.75,20.988c-3.086-0.912-5.526-2.469-7.496-4.497c-1.143-9.639,5.511-11.48,8.995-16.491   c-2.893-0.418,0.964-2.9-2.998-2.249C213.599,232.653,213.984,233.267,214.38,233.87z M214.38,239.867   c1.795-2.704,6.658-2.338,7.496-5.997c-0.87-0.629-2.01-0.988-3.748-0.75C219.514,235.526,213.099,240.384,214.38,239.867z    M287.839,243.614c-3.313-2.771-5.217-8.941-7.495-10.494C278.809,237.563,283.885,244.769,287.839,243.614z M294.585,237.618   c-0.29-2.001-3.047-5.391-4.497-3.748C292.061,234.645,292.613,236.842,294.585,237.618z M148.417,279.594   c-4.572-7.861-11.314-28.191-8.995-45.725C134.78,251.63,140.431,269.723,148.417,279.594z M291.587,239.867   c-2.951-0.569-4.141-6.823-6.746-5.247C286.923,236.058,289.172,241.251,291.587,239.867z M189.645,242.115   c-0.625-2.373-2.187-3.811-3.748-5.247C185.071,240.692,188.102,240.66,189.645,242.115z M114.686,245.114   c-1.057-2.865,1.958-5.459,0-6.747C114.393,240.958,111.922,243.56,114.686,245.114z M170.905,250.361   c-0.107-4.372,4.391-8.08,2.999-11.244C172.91,242.387,168.819,246.503,170.905,250.361z M103.442,249.611   c0.09-3.588,0.05-7.046-1.499-8.995C101.853,244.205,102.156,247.399,103.442,249.611z M179.9,245.863   c1.346-1.721-0.646-4.904-2.999-5.247C175.473,243.298,177.112,245.378,179.9,245.863z M220.377,247.362   c-0.479-1.812,2.017-3.562,3.748-5.247C222.154,242.481,216.968,246.484,220.377,247.362z M131.927,254.858   c-0.943-3.555-0.557-8.438-2.249-11.244C129.617,248.172,129.23,253.056,131.927,254.858z M74.958,248.112   c1.354-1.285-0.23-2.947-2.249-2.998C73.025,246.546,72.981,248.339,74.958,248.112z M234.62,249.611   c3.079-0.169,4.908-1.588,6.746-2.998C239.105,245.084,235.751,247.647,234.62,249.611z M83.204,252.609   c0.835,2.212,7.235,10.42,4.498,6.746c-2.444-3.804-2.226-7.966-3.748-11.243C83.09,248.998,83.105,250.761,83.204,252.609z    M215.13,250.361c-1.723-0.086-3.3-4.117-5.247-1.5C211.147,249.406,213.327,252.834,215.13,250.361z M233.121,255.608   c7.556,1.094,15.946-2.886,20.988-6.747C247.075,251.073,240.407,253.649,233.121,255.608z M197.14,255.608   c-3.445-1.068-7.269-5.704-9.745-5.247C190.169,252.099,193.853,256.875,197.14,255.608z M185.147,252.609   c0.228-1.977-1.565-1.933-2.999-2.248C182.199,252.379,183.862,253.963,185.147,252.609z M98.195,261.604   c0.944-2.851,1.14-5.613-0.75-7.496C97.916,256.386,96.486,260.565,98.195,261.604z M131.177,260.105   c-0.66-2.089-0.936-4.562-2.249-5.997C127.864,256.426,129.253,258.756,131.177,260.105z M101.943,262.354   c1.137-1.611,1.275-4.222,2.999-5.247c-1.032,0.032-1.646-0.354-2.249-0.75C103.539,259.011,99.542,260.623,101.943,262.354z    M88.451,265.352c0.372-1.178-5.041-8.752-4.498-7.496C84.843,260.488,86.07,266.703,88.451,265.352z M251.86,266.851   c6.593,0.029,17.983-5.451,20.238-9.744C266.474,261.476,259.196,264.193,251.86,266.851z M112.438,272.098   c0.166-4.844,4.855-9.119,2.999-13.492C115.27,263.45,110.898,268.043,112.438,272.098z M236.119,262.354   c1.701-1.297,6.285,0.289,6.746-2.249C240.692,260.468,235.098,261.284,236.119,262.354z M129.678,269.1   c-0.716-2.782,0.109-7.105-2.249-8.245C127.38,264.402,127.31,267.97,129.678,269.1z M254.858,263.853   c8.195-3.317-1.705-1.323-4.497,0.749C239.844,266.355,251.713,265.125,254.858,263.853z M102.693,276.596   c0.991,0.009,0.685,1.313,1.499,1.499c-0.987-2.323,2.222-4.158,0-5.247C104.75,275.155,102.135,274.289,102.693,276.596z    M137.174,283.342c-0.969-3.529-1.238-7.758-2.999-10.494C134.039,277.482,135.259,280.759,137.174,283.342z M101.194,296.084   c0.353-6.04,10.264-5.578,5.997-11.993c1.188-0.861,3.687-4.241,1.499-5.996C107.756,285.164,99.585,288.971,101.194,296.084z    M138.673,279.594c1.403,8.342,6.349,13.14,10.494,18.739C147.303,291.139,143.339,285.669,138.673,279.594z M213.631,284.091   c0.199-2.092,5.949-2.487,3.748-4.497C216.775,281.282,211.356,282.008,213.631,284.091z M52.471,292.337   c2.979-2.769,6.243-5.251,8.995-8.246c-1.417,0.168-1.654-0.845-2.998-0.749C57.475,286.863,52.245,290.092,52.471,292.337z    M167.157,288.589c-2.293-0.955-2.204-4.293-4.497-5.247C162.794,285.989,165.752,289.701,167.157,288.589z M142.421,293.836   c-2.417-2.58-3.059-6.936-5.247-9.745c2.186,6.311,4.368,12.623,9.745,15.741C146.687,296.566,144.204,295.551,142.421,293.836z    M138.673,293.086c-2.124-1.624-1.503-5.993-4.498-6.746C135.379,289.268,135.743,293.599,138.673,293.086z M242.115,303.581   c-2.521,0.925-1.763,10.436,0.75,8.245c-1.219-2.002-0.445-8.415,2.998-8.245c0.991,3.273,0.479,11.991,4.498,9.745   c-2.495-5.036-4.095-9.015-3.748-12.743c-7.077,1.407-9.826-10.182-15.741-9.745C235.2,294.505,239.612,298.088,242.115,303.581z    M196.391,317.074c-2.701-6.631-1.061-11.334-1.5-17.241C190.655,305.381,190.377,312.351,196.391,317.074z M253.359,311.826   c-2.27-3.896-0.723-7.161-3.748-9.744C248.667,305.82,250.799,309.498,253.359,311.826z M198.639,317.074   c0.162-4.849,3.656-10.319,2.999-13.493C199.623,306.576,197.097,313.015,198.639,317.074z M260.105,326.818   c1.578-2.604-2.711-9.07-4.497-8.245C257.814,320.614,258.491,324.184,260.105,326.818z M252.609,322.32   c-2.411,0.414-0.638,2.548-1.499,5.997c-2.244,0.048-3.744,4.693-2.248,5.997c4.183-3.437,6.983-15.441,1.499-14.242   C251.44,320.492,252.19,321.241,252.609,322.32z M198.639,329.067c2.518,4.862-1.553,4.65,2.999,8.995   c-0.457-4.549,3.952-1.166,3.747,0.749c1.25,0,2.499,0,3.748,0c1.062-4.37-3.244-6.32-5.996-4.497   c-0.018-2.764-2.31-7.143-3.748-5.997C200.177,328.358,199.979,329.278,198.639,329.067z M212.881,356.801   c-0.495-2.003-0.313-4.684-1.499-5.997C209.84,352.567,210.606,356.565,212.881,356.801z M216.629,374.792   c0.077-4.075-0.254-7.741-2.249-9.745C211.2,367.806,214.375,372.949,216.629,374.792z M217.379,385.286   c1.959-2.334-0.799-4.752,0-8.246c-1.326-1.407-2.188,0.893-3.748-0.749C216.669,379.14,215.15,382.405,217.379,385.286z    M239.867,416.768c-4.047-1.7-7.766-3.729-9.745-7.496c3.077-1.845,5.583,0.262,7.496-2.249c-5.518,1.005-7.666-5.307-10.494-4.497   c1.766,0.203,0.458,3.319-0.75,2.998c-2.521,0.522-2.457-1.541-3.747-2.249c-0.038-7.958-0.973-15.019-6.747-17.24   c2.055,5.691,3.675,11.817,5.997,17.24c-3.314-1.53-2.575,6.713-5.247,8.246c2.664,1.165,0.452-2.546,2.249-2.249   c1.039,0.46,0.112,2.886,1.499,2.998c6.434-1.112,11.139,0.103,14.242,5.247C235.506,413.455,238.311,419.555,239.867,416.768z    M215.879,408.522c4.197-7.233-1.86-15.067-3.747-20.988C214.355,393.811,215.661,402.41,215.879,408.522z M245.114,401.027   c1.403-1.095,4.967-0.03,5.996-1.5C249.796,398.434,245.342,398.745,245.114,401.027z M236.119,402.526   c2.368,0.119,4.523,0.026,5.247-1.499C238.997,400.907,236.841,401,236.119,402.526z M260.105,411.521   c-1.728-0.771-2.417-2.581-5.247-2.249c-1.698,4.887-8.671-2.4-12.743,0.749C246.309,412.789,256.445,412.435,260.105,411.521z    M203.137,419.016c2.508-5.005,11.118-3.465,12.742-7.495C212.311,413.947,200.576,415.364,203.137,419.016z M246.613,420.515   c-2.16-0.338-2.345-2.652-5.247-2.248C241.069,421.017,246,423.243,246.613,420.515z"/>
	<path fill-rule="evenodd" clip-rule="evenodd" d="M279.594,186.646c8.331-5.413,8.306-25.674,17.24-32.981   c-9.913,23.319-19.785,53.173-46.474,62.215c10.216-5.526,21.799-16.178,29.233-26.985c-10.313,7.928-20.807,22.169-38.229,25.486   c13.75-7.68,32.288-16.482,39.728-31.482c5.203-10.489,4.78-23.722,13.492-32.981C289.853,159.427,285.847,176.157,279.594,186.646   z"/>
	<path fill-rule="evenodd" clip-rule="evenodd" d="M171.654,215.13c4.167-14.824,15.825-28.649,29.234-36.729   C191.411,187.915,178.747,200.733,171.654,215.13z"/>
	<path fill-rule="evenodd" clip-rule="evenodd" d="M332.065,64.464c1.234,0.888,0.426,5.109-2.249,5.997   c-4.888-0.279-4.767-8.726,0.75-8.246C329.925,63.742,331.218,66.873,332.065,64.464z"/>
	<path fill-rule="evenodd" clip-rule="evenodd" d="M324.569,103.442c-1.054,4.7-5.643,12.342-5.996,20.239   c-0.274,6.504-0.9-0.385-0.75-2.249C318.306,115.472,322.138,106.241,324.569,103.442z"/>
	<path fill-rule="evenodd" clip-rule="evenodd" d="M295.335,104.192c0.213,4.969-4.91,11.074-5.997,17.24   C287.72,115.057,293.902,110.011,295.335,104.192z"/>
	<path fill-rule="evenodd" clip-rule="evenodd" d="M298.333,115.436c1.373,1.911-1.073,6.394-2.248,8.246   C293.741,134.234,296.287,118.033,298.333,115.436z"/>
	<path fill-rule="evenodd" clip-rule="evenodd" d="M309.578,128.179c2.552,1.196,0.781,6.714,2.249,8.995   C310.367,137.85,310.024,131.005,309.578,128.179z"/>
	<path fill-rule="evenodd" clip-rule="evenodd" d="M293.836,140.921c-8.224,27.757-19.052,59.404-48.723,68.212   c10.835-8.652,23.28-13.817,31.482-25.486C285.064,171.601,284.929,154.001,293.836,140.921z"/>
	<path fill-rule="evenodd" clip-rule="evenodd" d="M276.596,173.153c-2.993,7.251-7.938,12.551-11.244,19.489   c-7.921,5.821-14.794,12.691-26.235,14.992c9.245-3.499,16.637-8.849,23.237-14.992c-0.021-0.729-0.918-0.582-1.499-0.75   c0.549-1.335,1.362-0.108,2.248,0c0.407-4.349,6.878-10.883,8.246-18.74c1.764,3.288-1.815,7.662-2.999,10.494   c7.93-5.063,7.154-18.831,11.244-27.734c0.828,4.339-2.711,10.772-2.998,16.491c2.608-5.887,3.951-13.039,7.495-17.99   c-3.072,11.171-7.489,27.49-15.741,35.98C269.288,185.826,275.999,180.557,276.596,173.153z"/>
	<path fill-rule="evenodd" clip-rule="evenodd" d="M259.356,180.649c-4.916,1.37-8.016,7.576-14.242,5.247   c0.644-1.854,5.217,0.22,5.996-1.5c-0.121-0.878-1.366-0.632-2.248-0.75c8.77-2.974,12.456-11.03,16.49-18.739   c-1.02,6.226-3.766,10.726-7.496,14.242c5.472-3.028,12.586-10.898,13.493-20.988c2.744,7.648-5.384,16.989-11.244,20.988   c0.859,3.108-1.576,2.921-1.499,5.247C251.758,189.836,256.109,184.155,259.356,180.649z"/>
	<path fill-rule="evenodd" clip-rule="evenodd" d="M231.621,167.157c-5.382,5.217-20.951,3.042-27.734,4.498   C208.279,166.485,222.225,161.903,231.621,167.157z"/>
	<path fill-rule="evenodd" clip-rule="evenodd" d="M137.923,212.881c1.114,0.635,1.084,2.413,1.499,3.748   c-3.12-1.55-5.743,1.007-5.997,4.497C131.94,216.833,135.595,215.854,137.923,212.881z"/>
	<path fill-rule="evenodd" clip-rule="evenodd" d="M152.915,188.895c-1.804-3.711,2.69-10.338,4.498-14.992   C158.038,175.172,153.682,184.059,152.915,188.895z"/>
	<path fill-rule="evenodd" clip-rule="evenodd" d="M266.851,177.651c0.593,4.103-3.664,9.818-7.495,11.993   C262.34,186.133,265.065,182.361,266.851,177.651z"/>
	<path fill-rule="evenodd" clip-rule="evenodd" d="M258.606,190.394c-3.231-0.63,5.283-6.57,5.247-11.244   C266.146,183.467,258.163,187.926,258.606,190.394z"/>
	<path fill-rule="evenodd" clip-rule="evenodd" d="M286.34,200.138c0.27-4.237,7.127-8.357,8.245-14.242   C295.882,188.805,289.373,196.591,286.34,200.138z"/>
	<path fill-rule="evenodd" clip-rule="evenodd" d="M297.584,189.644c-1.799,5.698-5.312,9.681-9.745,12.743   C289.443,199.483,294.469,193.532,297.584,189.644z"/>
	<path fill-rule="evenodd" clip-rule="evenodd" d="M296.834,194.891c1.066,2.097-2.415,6.057-5.247,6.747   C292.684,198.736,296.148,198.203,296.834,194.891z"/>
	<path fill-rule="evenodd" clip-rule="evenodd" d="M242.115,200.888c-0.779,3.879,4.124-0.258,5.997-2.249   c-1.093,5.778-14.034,10.318-20.988,8.246C230.542,206.687,238.288,204.814,242.115,200.888z"/>
</g>
<metadata><rdf:RDF><cc:Work><dc:format>image/svg+xml</dc:format><dc:type rdf:resource="http://purl.org/dc/dcmitype/StillImage"/><cc:license rdf:resource="http://creativecommons.org/licenses/publicdomain/"/><dc:publisher><cc:Agent rdf:about="http://openclipart.org/"><dc:title>Open Clip Art Library</dc:title></cc:Agent></dc:publisher><dc:title>rooster</dc:title><dc:date>2007-02-21T07:47:57</dc:date><dc:description>a rooster from an old sheet music cover http://scriptorium.lib.duke.edu:80/dynaweb/sheetmusic/</dc:description><dc:source>http://openclipart.org/detail/3284/rooster-by-johnny_automatic-3284</dc:source><dc:creator><cc:Agent><dc:title>johnny_automatic</dc:title></cc:Agent></dc:creator><dc:subject><rdf:Bag><rdf:li>animal</rdf:li><rdf:li>animal</rdf:li><rdf:li>bird</rdf:li><rdf:li>bird</rdf:li><rdf:li>chicken</rdf:li><rdf:li>chicken</rdf:li><rdf:li>clip art</rdf:li><rdf:li>clipart</rdf:li><rdf:li>externalsource</rdf:li><rdf:li>image</rdf:li><rdf:li>media</rdf:li><rdf:li>png</rdf:li><rdf:li>poultry</rdf:li><rdf:li>poultry</rdf:li><rdf:li>public domain</rdf:li><rdf:li>rooster</rdf:li><rdf:li>rooster</rdf:li><rdf:li>svg</rdf:li></rdf:Bag></dc:subject></cc:Work><cc:License rdf:about="http://creativecommons.org/licenses/publicdomain/"><cc:permits rdf:resource="http://creativecommons.org/ns#Reproduction"/><cc:permits rdf:resource="http://creativecommons.org/ns#Distribution"/><cc:permits rdf:resource="http://creativecommons.org/ns#DerivativeWorks"/></cc:License></rdf:RDF></metadata></svg>
